<svg xmlns="http://www.w3.org/2000/svg" xmlns:xlink="http://www.w3.org/1999/xlink" width="500" zoomAndPan="magnify" viewBox="0 0 375 374.999991" height="500" preserveAspectRatio="xMidYMid meet" version="1.0"><defs><g><g id="id1"/><g id="id2"/></g><clipPath id="id3"><path d="M 144.382812 105.714844 L 230.632812 105.714844 L 230.632812 191.964844 L 144.382812 191.964844 Z M 144.382812 105.714844 " clip-rule="nonzero"/></clipPath></defs><rect x="-37.5" width="450" fill="rgb(100%, 100%, 100%)" y="-37.499999" height="449.999989" fill-opacity="1"/><rect x="-37.5" width="450" fill="rgb(100%, 97.648621%, 95.289612%)" y="-37.499999" height="449.999989" fill-opacity="1"/><rect x="-37.5" width="450" fill="rgb(100%, 100%, 100%)" y="-37.499999" height="449.999989" fill-opacity="1"/><rect x="-37.5" width="450" fill="rgb(100%, 97.648621%, 95.289612%)" y="-37.499999" height="449.999989" fill-opacity="1"/><g fill="rgb(25.489807%, 29.40979%, 23.139954%)" fill-opacity="1"><g transform="translate(73.080313, 245.64655)"><g><path d="M 20.8125 0 C 22.613281 0 24.148438 -0.632812 25.421875 -1.90625 C 26.703125 -3.1875 27.34375 -4.726562 27.34375 -6.53125 L 27.34375 -14.015625 C 27.34375 -15.816406 26.703125 -17.351562 25.421875 -18.625 C 24.148438 -19.894531 22.613281 -20.53125 20.8125 -20.53125 L 2.859375 -20.53125 L 2.859375 0 Z M 20.8125 -3.265625 L 6.125 -3.265625 L 6.125 -17.28125 L 20.8125 -17.28125 C 21.707031 -17.28125 22.472656 -16.957031 23.109375 -16.3125 C 23.753906 -15.675781 24.078125 -14.910156 24.078125 -14.015625 L 24.078125 -6.53125 C 24.078125 -5.625 23.753906 -4.851562 23.109375 -4.21875 C 22.472656 -3.582031 21.707031 -3.265625 20.8125 -3.265625 Z M 20.8125 -3.265625 "/></g></g></g><g fill="rgb(25.489807%, 29.40979%, 23.139954%)" fill-opacity="1"><g transform="translate(102.44088, 245.64655)"><g><path d="M 25.703125 0 L 2.859375 0 L 2.859375 -20.53125 L 25.703125 -20.53125 L 25.703125 -17.28125 L 6.125 -17.28125 L 6.125 -11.90625 L 23.390625 -11.90625 L 23.390625 -8.640625 L 6.125 -8.640625 L 6.125 -3.265625 L 25.703125 -3.265625 Z M 25.703125 0 "/></g></g></g><g fill="rgb(25.489807%, 29.40979%, 23.139954%)" fill-opacity="1"><g transform="translate(130.169353, 245.64655)"><g><path d="M 6.125 0 L 6.125 -20.53125 L 2.859375 -20.53125 L 2.859375 0 Z M 6.125 0 "/></g></g></g><g fill="rgb(25.489807%, 29.40979%, 23.139954%)" fill-opacity="1"><g transform="translate(139.042855, 245.64655)"><g><path d="M 12.984375 0 L 9.71875 0 L 9.71875 -17.28125 L 0.421875 -17.28125 L 0.421875 -20.53125 L 22.296875 -20.53125 L 22.296875 -17.28125 L 12.984375 -17.28125 Z M 12.984375 0 "/></g></g></g><g fill="rgb(25.489807%, 29.40979%, 23.139954%)" fill-opacity="1"><g transform="translate(161.645988, 245.64655)"><g><path d="M 27.34375 0 L 24.078125 0 L 24.078125 -5.78125 C 24.078125 -6.226562 23.914062 -6.613281 23.59375 -6.9375 C 23.269531 -7.257812 22.882812 -7.421875 22.4375 -7.421875 L 6.125 -7.421875 L 6.125 0 L 2.859375 0 L 2.859375 -20.53125 L 22.4375 -20.53125 C 23.78125 -20.53125 24.929688 -20.050781 25.890625 -19.09375 C 26.859375 -18.144531 27.34375 -17 27.34375 -15.65625 L 27.34375 -12.3125 C 27.34375 -11.050781 26.921875 -9.960938 26.078125 -9.046875 C 26.921875 -8.117188 27.34375 -7.03125 27.34375 -5.78125 Z M 22.4375 -10.6875 C 22.882812 -10.6875 23.269531 -10.84375 23.59375 -11.15625 C 23.914062 -11.476562 24.078125 -11.863281 24.078125 -12.3125 L 24.078125 -15.65625 C 24.078125 -16.101562 23.914062 -16.484375 23.59375 -16.796875 C 23.269531 -17.117188 22.882812 -17.28125 22.4375 -17.28125 L 6.125 -17.28125 L 6.125 -10.6875 Z M 22.4375 -10.6875 "/></g></g></g><g fill="rgb(25.489807%, 29.40979%, 23.139954%)" fill-opacity="1"><g transform="translate(191.006556, 245.64655)"><g><path d="M 29.9375 0 L 25.984375 0 L 22.984375 -4.453125 L 7.390625 -4.453125 L 4.375 0 L 0.421875 0 L 14.328125 -20.53125 L 16.046875 -20.53125 Z M 20.78125 -7.71875 L 15.171875 -16 L 9.578125 -7.71875 Z M 20.78125 -7.71875 "/></g></g></g><g fill="rgb(25.489807%, 29.40979%, 23.139954%)" fill-opacity="1"><g transform="translate(221.254754, 245.64655)"><g><path d="M 16.03125 0 L 14.3125 0 L 0.421875 -20.53125 L 4.375 -20.53125 L 15.171875 -4.546875 L 25.984375 -20.53125 L 29.96875 -20.53125 Z M 16.03125 0 "/></g></g></g><g fill="rgb(25.489807%, 29.40979%, 23.139954%)" fill-opacity="1"><g transform="translate(251.531586, 245.64655)"><g><path d="M 25.703125 0 L 2.859375 0 L 2.859375 -20.53125 L 25.703125 -20.53125 L 25.703125 -17.28125 L 6.125 -17.28125 L 6.125 -11.90625 L 23.390625 -11.90625 L 23.390625 -8.640625 L 6.125 -8.640625 L 6.125 -3.265625 L 25.703125 -3.265625 Z M 25.703125 0 "/></g></g></g><g fill="rgb(25.489807%, 29.40979%, 23.139954%)" fill-opacity="1"><g transform="translate(279.260051, 245.64655)"><g><path d="M 21.671875 0 L 21.671875 -3.265625 L 6.125 -3.265625 L 6.125 -20.53125 L 2.859375 -20.53125 L 2.859375 0 Z M 21.671875 0 "/></g></g></g><g fill="rgb(25.489807%, 29.40979%, 23.139954%)" fill-opacity="1"><g transform="translate(139.331921, 266.069955)"><g><path d="M 7.90625 -8.234375 L 4.828125 -8.234375 L 4.828125 0 L 3.1875 0 L 3.1875 -8.234375 L 0.125 -8.234375 L 0.125 -9.71875 L 7.90625 -9.71875 Z M 7.90625 -8.234375 "/></g></g></g><g fill="rgb(25.489807%, 29.40979%, 23.139954%)" fill-opacity="1"><g transform="translate(147.3588, 266.069955)"><g><path d="M 2.78125 -7.375 L 2.78125 -5.90625 C 3.28125 -6.925781 4.128906 -7.4375 5.328125 -7.4375 L 5.328125 -5.90625 C 4.597656 -5.945312 4.003906 -5.773438 3.546875 -5.390625 C 3.097656 -5.015625 2.84375 -4.503906 2.78125 -3.859375 L 2.78125 0 L 1.171875 0 L 1.171875 -7.375 Z M 2.78125 -7.375 "/></g></g></g><g fill="rgb(25.489807%, 29.40979%, 23.139954%)" fill-opacity="1"><g transform="translate(152.820967, 266.069955)"><g><path d="M 5.609375 0 L 5.609375 -0.90625 C 5.078125 -0.257812 4.257812 0.0625 3.15625 0.0625 C 2.375 0.0625 1.742188 -0.148438 1.265625 -0.578125 C 0.796875 -1.003906 0.5625 -1.550781 0.5625 -2.21875 C 0.5625 -2.894531 0.804688 -3.429688 1.296875 -3.828125 C 1.796875 -4.222656 2.484375 -4.425781 3.359375 -4.4375 L 5.59375 -4.4375 L 5.59375 -4.65625 C 5.59375 -5.132812 5.441406 -5.5 5.140625 -5.75 C 4.835938 -6.007812 4.398438 -6.140625 3.828125 -6.140625 C 3.117188 -6.140625 2.394531 -5.890625 1.65625 -5.390625 L 1 -6.5 C 1.5625 -6.832031 2.066406 -7.070312 2.515625 -7.21875 C 2.960938 -7.363281 3.515625 -7.4375 4.171875 -7.4375 C 5.117188 -7.4375 5.847656 -7.207031 6.359375 -6.75 C 6.878906 -6.289062 7.144531 -5.65625 7.15625 -4.84375 L 7.171875 0 Z M 3.5 -1.1875 C 4.0625 -1.1875 4.535156 -1.316406 4.921875 -1.578125 C 5.316406 -1.847656 5.539062 -2.1875 5.59375 -2.59375 L 5.59375 -3.28125 L 3.59375 -3.28125 C 3.0625 -3.28125 2.671875 -3.203125 2.421875 -3.046875 C 2.179688 -2.890625 2.0625 -2.640625 2.0625 -2.296875 C 2.0625 -1.960938 2.1875 -1.691406 2.4375 -1.484375 C 2.695312 -1.285156 3.050781 -1.1875 3.5 -1.1875 Z M 3.5 -1.1875 "/></g></g></g><g fill="rgb(25.489807%, 29.40979%, 23.139954%)" fill-opacity="1"><g transform="translate(160.944897, 266.069955)"><g><path d="M 4.515625 0 L 2.875 0 L 0.015625 -7.375 L 1.671875 -7.375 L 3.734375 -1.5625 L 5.765625 -7.375 L 7.359375 -7.375 Z M 4.515625 0 "/></g></g></g><g fill="rgb(25.489807%, 29.40979%, 23.139954%)" fill-opacity="1"><g transform="translate(168.22316, 266.069955)"><g><path d="M 4.21875 -7.4375 C 5.488281 -7.4375 6.40625 -7.050781 6.96875 -6.28125 C 7.539062 -5.519531 7.773438 -4.453125 7.671875 -3.078125 L 2.09375 -3.078125 C 2.226562 -2.503906 2.5 -2.050781 2.90625 -1.71875 C 3.3125 -1.394531 3.804688 -1.234375 4.390625 -1.234375 C 5.222656 -1.234375 5.914062 -1.519531 6.46875 -2.09375 L 7.3125 -1.1875 C 6.550781 -0.351562 5.535156 0.0625 4.265625 0.0625 C 3.117188 0.0625 2.203125 -0.28125 1.515625 -0.96875 C 0.828125 -1.664062 0.484375 -2.566406 0.484375 -3.671875 C 0.484375 -4.785156 0.828125 -5.6875 1.515625 -6.375 C 2.210938 -7.070312 3.113281 -7.425781 4.21875 -7.4375 Z M 2.0625 -4.25 L 6.28125 -4.25 C 6.257812 -4.84375 6.0625 -5.304688 5.6875 -5.640625 C 5.320312 -5.984375 4.835938 -6.15625 4.234375 -6.15625 C 3.648438 -6.15625 3.164062 -5.984375 2.78125 -5.640625 C 2.394531 -5.304688 2.15625 -4.84375 2.0625 -4.25 Z M 2.0625 -4.25 "/></g></g></g><g fill="rgb(25.489807%, 29.40979%, 23.139954%)" fill-opacity="1"><g transform="translate(176.374811, 266.069955)"><g><path d="M 2.84375 0 L 1.25 0 L 1.25 -10.296875 L 2.84375 -10.296875 Z M 2.84375 0 "/></g></g></g><g fill="rgb(25.489807%, 29.40979%, 23.139954%)" fill-opacity="1"><g transform="translate(180.464503, 266.069955)"><g/></g></g><g fill="rgb(25.489807%, 29.40979%, 23.139954%)" fill-opacity="1"><g transform="translate(184.041254, 266.069955)"><g><path d="M 7.546875 -2.1875 L 2.65625 -2.1875 L 1.71875 0 L 0.015625 0 L 4.296875 -9.71875 L 5.984375 -9.71875 L 10.21875 0 L 8.484375 0 Z M 6.921875 -3.65625 L 5.09375 -7.96875 L 3.265625 -3.65625 Z M 6.921875 -3.65625 "/></g></g></g><g fill="rgb(25.489807%, 29.40979%, 23.139954%)" fill-opacity="1"><g transform="translate(194.272411, 266.069955)"><g><path d="M 7.84375 -7.375 L 7.84375 -0.71875 C 7.84375 0.332031 7.492188 1.171875 6.796875 1.796875 C 6.109375 2.421875 5.179688 2.734375 4.015625 2.734375 C 2.921875 2.734375 1.894531 2.410156 0.9375 1.765625 L 1.625 0.609375 C 2.34375 1.148438 3.113281 1.421875 3.9375 1.421875 C 4.644531 1.421875 5.207031 1.226562 5.625 0.84375 C 6.039062 0.46875 6.25 -0.0390625 6.25 -0.6875 L 6.25 -1.609375 C 5.738281 -0.773438 4.925781 -0.359375 3.8125 -0.359375 C 2.8125 -0.359375 2.003906 -0.6875 1.390625 -1.34375 C 0.785156 -2 0.484375 -2.859375 0.484375 -3.921875 C 0.484375 -4.972656 0.785156 -5.816406 1.390625 -6.453125 C 1.992188 -7.097656 2.785156 -7.425781 3.765625 -7.4375 C 4.890625 -7.445312 5.71875 -7.03125 6.25 -6.1875 L 6.25 -7.375 Z M 4.140625 -1.609375 C 4.753906 -1.609375 5.257812 -1.820312 5.65625 -2.25 C 6.050781 -2.675781 6.25 -3.222656 6.25 -3.890625 C 6.25 -4.554688 6.050781 -5.097656 5.65625 -5.515625 C 5.269531 -5.929688 4.757812 -6.140625 4.125 -6.140625 C 3.5 -6.140625 2.988281 -5.929688 2.59375 -5.515625 C 2.195312 -5.097656 1.992188 -4.554688 1.984375 -3.890625 C 1.992188 -3.222656 2.191406 -2.675781 2.578125 -2.25 C 2.972656 -1.820312 3.492188 -1.609375 4.140625 -1.609375 Z M 4.140625 -1.609375 "/></g></g></g><g fill="rgb(25.489807%, 29.40979%, 23.139954%)" fill-opacity="1"><g transform="translate(203.144959, 266.069955)"><g><path d="M 4.21875 -7.4375 C 5.488281 -7.4375 6.40625 -7.050781 6.96875 -6.28125 C 7.539062 -5.519531 7.773438 -4.453125 7.671875 -3.078125 L 2.09375 -3.078125 C 2.226562 -2.503906 2.5 -2.050781 2.90625 -1.71875 C 3.3125 -1.394531 3.804688 -1.234375 4.390625 -1.234375 C 5.222656 -1.234375 5.914062 -1.519531 6.46875 -2.09375 L 7.3125 -1.1875 C 6.550781 -0.351562 5.535156 0.0625 4.265625 0.0625 C 3.117188 0.0625 2.203125 -0.28125 1.515625 -0.96875 C 0.828125 -1.664062 0.484375 -2.566406 0.484375 -3.671875 C 0.484375 -4.785156 0.828125 -5.6875 1.515625 -6.375 C 2.210938 -7.070312 3.113281 -7.425781 4.21875 -7.4375 Z M 2.0625 -4.25 L 6.28125 -4.25 C 6.257812 -4.84375 6.0625 -5.304688 5.6875 -5.640625 C 5.320312 -5.984375 4.835938 -6.15625 4.234375 -6.15625 C 3.648438 -6.15625 3.164062 -5.984375 2.78125 -5.640625 C 2.394531 -5.304688 2.15625 -4.84375 2.0625 -4.25 Z M 2.0625 -4.25 "/></g></g></g><g fill="rgb(25.489807%, 29.40979%, 23.139954%)" fill-opacity="1"><g transform="translate(211.29661, 266.069955)"><g><path d="M 5.5 -7.4375 C 6.351562 -7.4375 7.019531 -7.179688 7.5 -6.671875 C 7.988281 -6.171875 8.234375 -5.476562 8.234375 -4.59375 L 8.234375 0 L 6.640625 0 L 6.640625 -4.15625 C 6.640625 -4.707031 6.484375 -5.140625 6.171875 -5.453125 C 5.859375 -5.773438 5.425781 -5.9375 4.875 -5.9375 C 4.28125 -5.925781 3.796875 -5.734375 3.421875 -5.359375 C 3.046875 -4.992188 2.832031 -4.515625 2.78125 -3.921875 L 2.78125 0 L 1.171875 0 L 1.171875 -7.375 L 2.78125 -7.375 L 2.78125 -5.96875 C 3.28125 -6.945312 4.1875 -7.4375 5.5 -7.4375 Z M 5.5 -7.4375 "/></g></g></g><g fill="rgb(25.489807%, 29.40979%, 23.139954%)" fill-opacity="1"><g transform="translate(220.48802, 266.069955)"><g><path d="M 4.203125 -7.4375 C 5.535156 -7.4375 6.550781 -7.035156 7.25 -6.234375 L 6.375 -5.203125 C 5.820312 -5.765625 5.125 -6.039062 4.28125 -6.03125 C 3.632812 -6.03125 3.101562 -5.8125 2.6875 -5.375 C 2.28125 -4.9375 2.078125 -4.367188 2.078125 -3.671875 C 2.078125 -2.984375 2.28125 -2.414062 2.6875 -1.96875 C 3.101562 -1.53125 3.632812 -1.3125 4.28125 -1.3125 C 5.21875 -1.3125 5.941406 -1.609375 6.453125 -2.203125 L 7.34375 -1.3125 C 6.644531 -0.394531 5.597656 0.0625 4.203125 0.0625 C 3.097656 0.0625 2.203125 -0.28125 1.515625 -0.96875 C 0.828125 -1.664062 0.484375 -2.566406 0.484375 -3.671875 C 0.484375 -4.796875 0.828125 -5.703125 1.515625 -6.390625 C 2.203125 -7.085938 3.097656 -7.4375 4.203125 -7.4375 Z M 4.203125 -7.4375 "/></g></g></g><g fill="rgb(25.489807%, 29.40979%, 23.139954%)" fill-opacity="1"><g transform="translate(228.306955, 266.069955)"><g><path d="M 7.4375 -7.375 L 4.078125 1.015625 C 3.628906 2.179688 2.828125 2.765625 1.671875 2.765625 C 1.035156 2.765625 0.46875 2.554688 -0.03125 2.140625 L 0.65625 0.90625 C 0.988281 1.144531 1.304688 1.265625 1.609375 1.265625 C 2.109375 1.265625 2.484375 0.988281 2.734375 0.4375 L 2.984375 -0.109375 L -0.0625 -7.375 L 1.578125 -7.375 L 3.78125 -1.796875 L 5.84375 -7.375 Z M 7.4375 -7.375 "/></g></g></g><g clip-path="url(#id3)"><path fill="rgb(25.489807%, 29.40979%, 23.139954%)" d="M 144.402344 148.824219 C 144.402344 172.640625 163.710938 191.949219 187.527344 191.949219 C 211.34375 191.949219 230.652344 172.640625 230.652344 148.824219 C 230.652344 125.007812 211.34375 105.699219 187.527344 105.699219 C 163.710938 105.699219 144.402344 125.007812 144.402344 148.824219 " fill-opacity="1" fill-rule="nonzero"/></g><path stroke-linecap="round" transform="matrix(0.0364693, 0, 0, -0.0364693, 109.994001, 226.357017)" fill="none" stroke-linejoin="round" d="M 1088.514405 2125.97191 C 1088.514405 1552.930668 1553.052698 1088.499486 2125.986829 1088.499486 C 2699.028071 1088.499486 3163.459254 1552.930668 3163.459254 2125.97191 C 3163.459254 2698.906042 2699.028071 3163.444335 2125.986829 3163.444335 C 1553.052698 3163.444335 1088.514405 2698.906042 1088.514405 2125.97191 Z M 1088.514405 2125.97191 " stroke="rgb(100%, 100%, 100%)" stroke-width="40" stroke-opacity="1" stroke-miterlimit="10"/><path stroke-linecap="round" transform="matrix(0.0364693, 0, 0, -0.0364693, 109.994001, 226.357017)" fill="none" stroke-linejoin="round" d="M 1333.154815 1464.885827 L 2918.818843 1464.885827 " stroke="rgb(100%, 100%, 100%)" stroke-width="40" stroke-opacity="1" stroke-miterlimit="10"/><path fill="rgb(100%, 97.648621%, 95.289612%)" d="M 186.605469 166.535156 C 183.929688 166.535156 181.757812 165.492188 181.757812 161.996094 C 181.757812 161.996094 183.929688 122.671875 186.605469 122.671875 C 189.28125 122.671875 191.449219 161.996094 191.449219 161.996094 C 191.449219 165.492188 189.28125 166.535156 186.605469 166.535156 " fill-opacity="1" fill-rule="nonzero"/><path stroke-linecap="round" transform="matrix(0.0364693, 0, 0, -0.0364693, 109.994001, 226.357017)" fill="none" stroke-linejoin="round" d="M 2100.708748 1640.332846 C 2027.338047 1640.332846 1967.784602 1668.931353 1967.784602 1764.795262 C 1967.784602 1764.795262 2027.338047 2843.076792 2100.708748 2843.076792 C 2174.079449 2843.076792 2233.525784 1764.795262 2233.525784 1764.795262 C 2233.525784 1668.931353 2174.079449 1640.332846 2100.708748 1640.332846 Z M 2100.708748 1640.332846 " stroke="rgb(47.059631%, 59.999084%, 50.979614%)" stroke-width="40" stroke-opacity="1" stroke-miterlimit="10"/><path fill="rgb(100%, 97.648621%, 95.289612%)" d="M 172.460938 145.867188 L 190.238281 145.867188 L 189.363281 137.332031 L 172.460938 137.332031 L 166.609375 141.597656 L 172.460938 145.867188 " fill-opacity="1" fill-rule="nonzero"/><path stroke-linecap="round" transform="matrix(0.0364693, 0, 0, -0.0364693, 109.994001, 226.357017)" fill="none" stroke-linejoin="round" d="M 1712.861582 2207.054568 L 2200.321525 2207.054568 L 2176.32877 2441.091038 L 1712.861582 2441.091038 L 1552.410035 2324.126358 Z M 1712.861582 2207.054568 " stroke="rgb(47.059631%, 59.999084%, 50.979614%)" stroke-width="40" stroke-opacity="1" stroke-miterlimit="10"/><path stroke-linecap="round" transform="matrix(0.0364693, 0, 0, -0.0364693, 109.994001, 226.357017)" fill-opacity="1" fill="rgb(100%, 97.648621%, 95.289612%)" fill-rule="nonzero" stroke-linejoin="round" d="M 1814.83079 2389.785103 L 1724.85796 2324.126358 L 1814.83079 2258.574725 " stroke="rgb(47.059631%, 59.999084%, 50.979614%)" stroke-width="40" stroke-opacity="1" stroke-miterlimit="10"/><path stroke-linecap="round" transform="matrix(0.0364693, 0, 0, -0.0364693, 109.994001, 226.357017)" fill-opacity="1" fill="rgb(100%, 97.648621%, 95.289612%)" fill-rule="nonzero" stroke-linejoin="round" d="M 1893.021464 2372.54031 L 1826.612947 2324.126358 L 1893.021464 2275.712407 " stroke="rgb(47.059631%, 59.999084%, 50.979614%)" stroke-width="40" stroke-opacity="1" stroke-miterlimit="10"/><path fill="rgb(100%, 97.648621%, 95.289612%)" d="M 202.589844 130.566406 L 184.816406 130.566406 L 185.691406 122.027344 L 202.589844 122.027344 L 208.445312 126.296875 L 202.589844 130.566406 " fill-opacity="1" fill-rule="nonzero"/><path stroke-linecap="round" transform="matrix(0.0364693, 0, 0, -0.0364693, 109.994001, 226.357017)" fill="none" stroke-linejoin="round" d="M 2539.004966 2626.606446 L 2051.652133 2626.606446 L 2075.644888 2860.750026 L 2539.004966 2860.750026 L 2699.563624 2743.678236 Z M 2539.004966 2626.606446 " stroke="rgb(47.059631%, 59.999084%, 50.979614%)" stroke-width="40" stroke-opacity="1" stroke-miterlimit="10"/><path stroke-linecap="round" transform="matrix(0.0364693, 0, 0, -0.0364693, 109.994001, 226.357017)" fill-opacity="1" fill="rgb(100%, 97.648621%, 95.289612%)" fill-rule="nonzero" stroke-linejoin="round" d="M 2437.142868 2809.22987 L 2527.115699 2743.678236 L 2437.142868 2678.019492 " stroke="rgb(47.059631%, 59.999084%, 50.979614%)" stroke-width="40" stroke-opacity="1" stroke-miterlimit="10"/><path stroke-linecap="round" transform="matrix(0.0364693, 0, 0, -0.0364693, 109.994001, 226.357017)" fill-opacity="1" fill="rgb(100%, 97.648621%, 95.289612%)" fill-rule="nonzero" stroke-linejoin="round" d="M 2358.952194 2792.092188 L 2425.360712 2743.678236 L 2358.952194 2695.264284 " stroke="rgb(47.059631%, 59.999084%, 50.979614%)" stroke-width="40" stroke-opacity="1" stroke-miterlimit="10"/><path fill="rgb(100%, 97.648621%, 95.289612%)" d="M 186.632812 162.667969 L 186.578125 162.667969 C 182.757812 162.667969 179.65625 165.785156 179.65625 169.03125 L 179.65625 171.4375 L 193.550781 171.4375 L 193.550781 169.03125 C 193.550781 165.785156 190.453125 162.667969 186.632812 162.667969 " fill-opacity="1" fill-rule="nonzero"/><path stroke-linecap="round" transform="matrix(0.0364693, 0, 0, -0.0364693, 109.994001, 226.357017)" fill="none" stroke-linejoin="round" d="M 2101.458522 1746.372254 L 2099.958975 1746.372254 C 1995.204893 1746.372254 1910.159146 1660.898065 1910.159146 1571.889229 L 1910.159146 1505.909153 L 2291.15124 1505.909153 L 2291.15124 1571.889229 C 2291.15124 1660.898065 2206.212603 1746.372254 2101.458522 1746.372254 Z M 2101.458522 1746.372254 " stroke="rgb(47.059631%, 59.999084%, 50.979614%)" stroke-width="40" stroke-opacity="1" stroke-miterlimit="10"/><path stroke-linecap="round" transform="matrix(0.0364693, 0, 0, -0.0364693, 109.994001, 226.357017)" fill="none" stroke-linejoin="round" d="M 2287.937924 1594.596657 L 1911.980025 1594.596657 " stroke="rgb(47.059631%, 59.999084%, 50.979614%)" stroke-width="40" stroke-opacity="1" stroke-miterlimit="10"/></svg>