<svg xmlns="http://www.w3.org/2000/svg" xmlns:xlink="http://www.w3.org/1999/xlink" width="500" zoomAndPan="magnify" viewBox="0 0 375 374.999991" height="500" preserveAspectRatio="xMidYMid meet" version="1.0"><defs><g><g id="id1"/><g id="id2"/></g><clipPath id="id3"><path d="M 132.707031 111.324219 L 242.230469 111.324219 L 242.230469 220.847656 L 132.707031 220.847656 Z M 132.707031 111.324219 " clip-rule="nonzero"/></clipPath><clipPath id="id4"><path d="M 145 104.277344 L 215 104.277344 L 215 183 L 145 183 Z M 145 104.277344 " clip-rule="nonzero"/></clipPath><clipPath id="id5"><path d="M 132.707031 104.296875 L 242.207031 104.296875 L 242.207031 195.003906 L 132.707031 195.003906 Z M 132.707031 104.296875 " clip-rule="nonzero"/></clipPath></defs><rect x="-37.5" width="450" fill="rgb(100%, 100%, 100%)" y="-37.499999" height="449.999989" fill-opacity="1"/><rect x="-37.5" width="450" fill="rgb(100%, 100%, 100%)" y="-37.499999" height="449.999989" fill-opacity="1"/><rect x="-37.5" width="450" fill="rgb(100%, 100%, 100%)" y="-37.499999" height="449.999989" fill-opacity="1"/><g clip-path="url(#id3)"><path fill="rgb(100%, 100%, 100%)" d="M 132.707031 111.324219 L 242.230469 111.324219 L 242.230469 220.847656 L 132.707031 220.847656 Z M 132.707031 111.324219 " fill-opacity="1" fill-rule="nonzero"/></g><path fill="rgb(0%, 0%, 0%)" d="M 138.476562 117.09375 L 138.476562 215.085938 L 236.472656 215.085938 L 236.472656 117.09375 L 138.476562 117.09375 M 234.171875 212.785156 L 140.730469 212.785156 L 140.730469 119.34375 L 234.171875 119.34375 L 234.171875 212.785156 " fill-opacity="1" fill-rule="nonzero"/><g clip-path="url(#id4)"><path fill="rgb(0.779724%, 12.939453%, 20.779419%)" d="M 152.058594 142.125 L 169.566406 124.585938 L 164.746094 119.757812 L 145.238281 139.296875 L 145.238281 182.644531 L 207.863281 182.644531 L 207.863281 175.8125 L 152.058594 175.8125 Z M 180.179688 104.296875 L 172.738281 111.75 L 177.558594 116.582031 L 180.179688 113.960938 L 209.296875 143.128906 L 214.121094 138.296875 L 180.179688 104.296875 " fill-opacity="1" fill-rule="nonzero"/></g><g clip-path="url(#id5)"><path fill="rgb(76.469421%, 57.249451%, 18.03894%)" d="M 242.207031 195.003906 L 132.707031 195.003906 L 132.707031 134.039062 L 162.394531 104.296875 L 196.335938 138.296875 L 191.515625 143.128906 L 162.394531 113.960938 L 139.53125 136.871094 L 139.53125 188.171875 L 242.207031 188.171875 L 242.207031 195.003906 " fill-opacity="1" fill-rule="nonzero"/></g><g fill="rgb(0.779724%, 12.939453%, 20.779419%)" fill-opacity="1"><g transform="translate(84.023436, 252.523577)"><g><path d="M 17.90625 0 L 13.453125 0 L 13.453125 -6.796875 L 6.203125 -6.796875 L 6.203125 0 L 1.75 0 L 1.75 -17.5 L 6.203125 -17.5 L 6.203125 -10.296875 L 13.453125 -10.296875 L 13.453125 -17.5 L 17.90625 -17.5 Z M 17.90625 0 "/></g></g></g><g fill="rgb(0.779724%, 12.939453%, 20.779419%)" fill-opacity="1"><g transform="translate(103.67032, 252.523577)"><g><path d="M 10.046875 -17.65625 C 12.765625 -17.65625 15.023438 -16.804688 16.828125 -15.109375 C 18.628906 -13.421875 19.53125 -11.3125 19.53125 -8.78125 C 19.53125 -6.226562 18.625 -4.09375 16.8125 -2.375 C 15 -0.65625 12.742188 0.203125 10.046875 0.203125 C 7.347656 0.203125 5.097656 -0.648438 3.296875 -2.359375 C 1.492188 -4.066406 0.59375 -6.207031 0.59375 -8.78125 C 0.59375 -11.320312 1.492188 -13.4375 3.296875 -15.125 C 5.097656 -16.8125 7.347656 -17.65625 10.046875 -17.65625 Z M 10.09375 -13.921875 C 8.726562 -13.921875 7.5625 -13.425781 6.59375 -12.4375 C 5.632812 -11.445312 5.15625 -10.21875 5.15625 -8.75 C 5.15625 -7.28125 5.640625 -6.039062 6.609375 -5.03125 C 7.585938 -4.03125 8.75 -3.53125 10.09375 -3.53125 C 11.445312 -3.53125 12.59375 -4.03125 13.53125 -5.03125 C 14.476562 -6.039062 14.953125 -7.28125 14.953125 -8.75 C 14.953125 -10.21875 14.476562 -11.445312 13.53125 -12.4375 C 12.59375 -13.425781 11.445312 -13.921875 10.09375 -13.921875 Z M 10.09375 -13.921875 "/></g></g></g><g fill="rgb(0.779724%, 12.939453%, 20.779419%)" fill-opacity="1"><g transform="translate(123.792134, 252.523577)"><g><path d="M 17.5 -17.5 L 17.5 -7.34375 C 17.5 -5.03125 16.78125 -3.191406 15.34375 -1.828125 C 13.914062 -0.472656 11.976562 0.203125 9.53125 0.203125 C 7.0625 0.203125 5.097656 -0.472656 3.640625 -1.828125 C 2.179688 -3.191406 1.453125 -5.03125 1.453125 -7.34375 L 1.453125 -17.5 L 5.90625 -17.5 L 5.90625 -7.34375 C 5.90625 -6.175781 6.238281 -5.25 6.90625 -4.5625 C 7.582031 -3.875 8.460938 -3.53125 9.546875 -3.53125 C 10.617188 -3.53125 11.472656 -3.867188 12.109375 -4.546875 C 12.753906 -5.234375 13.078125 -6.164062 13.078125 -7.34375 L 13.078125 -17.5 Z M 17.5 -17.5 "/></g></g></g><g fill="rgb(0.779724%, 12.939453%, 20.779419%)" fill-opacity="1"><g transform="translate(142.739131, 252.523577)"><g><path d="M 8.46875 -17.703125 C 11.09375 -17.703125 13.394531 -17.050781 15.375 -15.75 L 13.703125 -12.28125 C 12.785156 -12.8125 11.800781 -13.242188 10.75 -13.578125 C 9.695312 -13.921875 8.8125 -14.09375 8.09375 -14.09375 C 6.8125 -14.09375 6.171875 -13.671875 6.171875 -12.828125 C 6.171875 -12.273438 6.488281 -11.832031 7.125 -11.5 C 7.757812 -11.164062 8.53125 -10.878906 9.4375 -10.640625 C 10.34375 -10.398438 11.25 -10.109375 12.15625 -9.765625 C 13.070312 -9.421875 13.84375 -8.863281 14.46875 -8.09375 C 15.101562 -7.332031 15.421875 -6.367188 15.421875 -5.203125 C 15.421875 -3.515625 14.757812 -2.195312 13.4375 -1.25 C 12.125 -0.3125 10.453125 0.15625 8.421875 0.15625 C 6.972656 0.15625 5.539062 -0.09375 4.125 -0.59375 C 2.707031 -1.09375 1.472656 -1.78125 0.421875 -2.65625 L 2.15625 -6.078125 C 3.03125 -5.304688 4.066406 -4.675781 5.265625 -4.1875 C 6.472656 -3.695312 7.539062 -3.453125 8.46875 -3.453125 C 9.1875 -3.453125 9.742188 -3.578125 10.140625 -3.828125 C 10.546875 -4.085938 10.75 -4.46875 10.75 -4.96875 C 10.75 -5.457031 10.519531 -5.863281 10.0625 -6.1875 C 9.601562 -6.507812 9.03125 -6.75 8.34375 -6.90625 C 7.664062 -7.070312 6.925781 -7.285156 6.125 -7.546875 C 5.320312 -7.816406 4.578125 -8.109375 3.890625 -8.421875 C 3.210938 -8.742188 2.644531 -9.25 2.1875 -9.9375 C 1.726562 -10.625 1.5 -11.453125 1.5 -12.421875 C 1.5 -14.023438 2.132812 -15.304688 3.40625 -16.265625 C 4.6875 -17.222656 6.375 -17.703125 8.46875 -17.703125 Z M 8.46875 -17.703125 "/></g></g></g><g fill="rgb(0.779724%, 12.939453%, 20.779419%)" fill-opacity="1"><g transform="translate(158.836584, 252.523577)"><g><path d="M 15.453125 -14 L 6.203125 -14 L 6.203125 -10.53125 L 14.546875 -10.53125 L 14.546875 -7.03125 L 6.203125 -7.03125 L 6.203125 -3.5 L 15.71875 -3.5 L 15.71875 0 L 1.75 0 L 1.75 -17.5 L 15.453125 -17.5 Z M 15.453125 -14 "/></g></g></g><g fill="rgb(0.779724%, 12.939453%, 20.779419%)" fill-opacity="1"><g transform="translate(175.683911, 252.523577)"><g/></g></g><g fill="rgb(0.779724%, 12.939453%, 20.779419%)" fill-opacity="1"><g transform="translate(181.482998, 252.523577)"><g><path d="M 8.46875 -17.703125 C 11.09375 -17.703125 13.394531 -17.050781 15.375 -15.75 L 13.703125 -12.28125 C 12.785156 -12.8125 11.800781 -13.242188 10.75 -13.578125 C 9.695312 -13.921875 8.8125 -14.09375 8.09375 -14.09375 C 6.8125 -14.09375 6.171875 -13.671875 6.171875 -12.828125 C 6.171875 -12.273438 6.488281 -11.832031 7.125 -11.5 C 7.757812 -11.164062 8.53125 -10.878906 9.4375 -10.640625 C 10.34375 -10.398438 11.25 -10.109375 12.15625 -9.765625 C 13.070312 -9.421875 13.84375 -8.863281 14.46875 -8.09375 C 15.101562 -7.332031 15.421875 -6.367188 15.421875 -5.203125 C 15.421875 -3.515625 14.757812 -2.195312 13.4375 -1.25 C 12.125 -0.3125 10.453125 0.15625 8.421875 0.15625 C 6.972656 0.15625 5.539062 -0.09375 4.125 -0.59375 C 2.707031 -1.09375 1.472656 -1.78125 0.421875 -2.65625 L 2.15625 -6.078125 C 3.03125 -5.304688 4.066406 -4.675781 5.265625 -4.1875 C 6.472656 -3.695312 7.539062 -3.453125 8.46875 -3.453125 C 9.1875 -3.453125 9.742188 -3.578125 10.140625 -3.828125 C 10.546875 -4.085938 10.75 -4.46875 10.75 -4.96875 C 10.75 -5.457031 10.519531 -5.863281 10.0625 -6.1875 C 9.601562 -6.507812 9.03125 -6.75 8.34375 -6.90625 C 7.664062 -7.070312 6.925781 -7.285156 6.125 -7.546875 C 5.320312 -7.816406 4.578125 -8.109375 3.890625 -8.421875 C 3.210938 -8.742188 2.644531 -9.25 2.1875 -9.9375 C 1.726562 -10.625 1.5 -11.453125 1.5 -12.421875 C 1.5 -14.023438 2.132812 -15.304688 3.40625 -16.265625 C 4.6875 -17.222656 6.375 -17.703125 8.46875 -17.703125 Z M 8.46875 -17.703125 "/></g></g></g><g fill="rgb(0.779724%, 12.939453%, 20.779419%)" fill-opacity="1"><g transform="translate(197.580451, 252.523577)"><g><path d="M 18.828125 -0.546875 L 20.40625 2.203125 C 19.738281 2.796875 18.945312 3.265625 18.03125 3.609375 C 17.113281 3.953125 16.210938 4.125 15.328125 4.125 C 14.128906 4.125 13.035156 3.773438 12.046875 3.078125 C 11.066406 2.390625 10.285156 1.429688 9.703125 0.203125 C 7.085938 0.117188 4.914062 -0.769531 3.1875 -2.46875 C 1.457031 -4.175781 0.59375 -6.28125 0.59375 -8.78125 C 0.59375 -11.320312 1.492188 -13.4375 3.296875 -15.125 C 5.097656 -16.8125 7.347656 -17.65625 10.046875 -17.65625 C 12.765625 -17.65625 15.023438 -16.804688 16.828125 -15.109375 C 18.628906 -13.421875 19.53125 -11.3125 19.53125 -8.78125 C 19.53125 -6.863281 19 -5.15625 17.9375 -3.65625 C 16.875 -2.15625 15.460938 -1.078125 13.703125 -0.421875 C 14.335938 0.378906 15.046875 0.78125 15.828125 0.78125 C 16.671875 0.78125 17.671875 0.335938 18.828125 -0.546875 Z M 6.59375 -12.4375 C 5.632812 -11.445312 5.15625 -10.21875 5.15625 -8.75 C 5.15625 -7.28125 5.640625 -6.039062 6.609375 -5.03125 C 7.585938 -4.03125 8.75 -3.53125 10.09375 -3.53125 C 11.445312 -3.53125 12.59375 -4.03125 13.53125 -5.03125 C 14.476562 -6.039062 14.953125 -7.28125 14.953125 -8.75 C 14.953125 -10.21875 14.476562 -11.445312 13.53125 -12.4375 C 12.59375 -13.425781 11.445312 -13.921875 10.09375 -13.921875 C 8.726562 -13.921875 7.5625 -13.425781 6.59375 -12.4375 Z M 6.59375 -12.4375 "/></g></g></g><g fill="rgb(0.779724%, 12.939453%, 20.779419%)" fill-opacity="1"><g transform="translate(217.827246, 252.523577)"><g><path d="M 17.5 -17.5 L 17.5 -7.34375 C 17.5 -5.03125 16.78125 -3.191406 15.34375 -1.828125 C 13.914062 -0.472656 11.976562 0.203125 9.53125 0.203125 C 7.0625 0.203125 5.097656 -0.472656 3.640625 -1.828125 C 2.179688 -3.191406 1.453125 -5.03125 1.453125 -7.34375 L 1.453125 -17.5 L 5.90625 -17.5 L 5.90625 -7.34375 C 5.90625 -6.175781 6.238281 -5.25 6.90625 -4.5625 C 7.582031 -3.875 8.460938 -3.53125 9.546875 -3.53125 C 10.617188 -3.53125 11.472656 -3.867188 12.109375 -4.546875 C 12.753906 -5.234375 13.078125 -6.164062 13.078125 -7.34375 L 13.078125 -17.5 Z M 17.5 -17.5 "/></g></g></g><g fill="rgb(0.779724%, 12.939453%, 20.779419%)" fill-opacity="1"><g transform="translate(236.774243, 252.523577)"><g><path d="M 13.375 -3.21875 L 5.71875 -3.21875 L 4.453125 0 L -0.125 0 L 7.421875 -17.5 L 12 -17.5 L 19.375 0 L 14.625 0 Z M 12.078125 -6.59375 L 9.578125 -13.078125 L 7.03125 -6.59375 Z M 12.078125 -6.59375 "/></g></g></g><g fill="rgb(0.779724%, 12.939453%, 20.779419%)" fill-opacity="1"><g transform="translate(256.02119, 252.523577)"><g><path d="M 12.296875 0 L 9.703125 -4.921875 L 6.203125 -4.921875 L 6.203125 0 L 1.75 0 L 1.75 -17.5 L 9.578125 -17.5 C 11.890625 -17.5 13.675781 -16.96875 14.9375 -15.90625 C 16.207031 -14.851562 16.84375 -13.351562 16.84375 -11.40625 C 16.84375 -8.695312 15.785156 -6.820312 13.671875 -5.78125 L 17.34375 0 Z M 6.203125 -8.421875 L 9.578125 -8.421875 C 10.546875 -8.421875 11.296875 -8.660156 11.828125 -9.140625 C 12.359375 -9.628906 12.625 -10.332031 12.625 -11.25 C 12.625 -12.144531 12.359375 -12.828125 11.828125 -13.296875 C 11.296875 -13.765625 10.546875 -14 9.578125 -14 L 6.203125 -14 Z M 6.203125 -8.421875 "/></g></g></g><g fill="rgb(0.779724%, 12.939453%, 20.779419%)" fill-opacity="1"><g transform="translate(274.118327, 252.523577)"><g><path d="M 15.453125 -14 L 6.203125 -14 L 6.203125 -10.53125 L 14.546875 -10.53125 L 14.546875 -7.03125 L 6.203125 -7.03125 L 6.203125 -3.5 L 15.71875 -3.5 L 15.71875 0 L 1.75 0 L 1.75 -17.5 L 15.453125 -17.5 Z M 15.453125 -14 "/></g></g></g><g fill="rgb(0.779724%, 12.939453%, 20.779419%)" fill-opacity="1"><g transform="translate(147.255464, 269.373734)"><g><path d="M 4.421875 0 L 3.484375 -1.765625 L 2.234375 -1.765625 L 2.234375 0 L 0.625 0 L 0.625 -6.296875 L 3.453125 -6.296875 C 4.285156 -6.296875 4.925781 -6.101562 5.375 -5.71875 C 5.832031 -5.34375 6.0625 -4.804688 6.0625 -4.109375 C 6.0625 -3.128906 5.679688 -2.453125 4.921875 -2.078125 L 6.25 0 Z M 2.234375 -3.03125 L 3.453125 -3.03125 C 3.796875 -3.03125 4.0625 -3.117188 4.25 -3.296875 C 4.445312 -3.472656 4.546875 -3.722656 4.546875 -4.046875 C 4.546875 -4.367188 4.445312 -4.613281 4.25 -4.78125 C 4.0625 -4.957031 3.796875 -5.046875 3.453125 -5.046875 L 2.234375 -5.046875 Z M 2.234375 -3.03125 "/></g></g></g><g fill="rgb(0.779724%, 12.939453%, 20.779419%)" fill-opacity="1"><g transform="translate(155.571511, 269.373734)"><g><path d="M 5.5625 -5.046875 L 2.234375 -5.046875 L 2.234375 -3.78125 L 5.234375 -3.78125 L 5.234375 -2.53125 L 2.234375 -2.53125 L 2.234375 -1.265625 L 5.65625 -1.265625 L 5.65625 0 L 0.625 0 L 0.625 -6.296875 L 5.5625 -6.296875 Z M 5.5625 -5.046875 "/></g></g></g><g fill="rgb(0.779724%, 12.939453%, 20.779419%)" fill-opacity="1"><g transform="translate(163.437554, 269.373734)"><g><path d="M 4.8125 -1.15625 L 2.0625 -1.15625 L 1.609375 0 L -0.046875 0 L 2.671875 -6.296875 L 4.3125 -6.296875 L 6.96875 0 L 5.265625 0 Z M 4.34375 -2.375 L 3.453125 -4.703125 L 2.53125 -2.375 Z M 4.34375 -2.375 "/></g></g></g><g fill="rgb(0.779724%, 12.939453%, 20.779419%)" fill-opacity="1"><g transform="translate(172.167602, 269.373734)"><g><path d="M 2.234375 -1.34375 L 4.90625 -1.34375 L 4.90625 0 L 0.625 0 L 0.625 -6.296875 L 2.234375 -6.296875 Z M 2.234375 -1.34375 "/></g></g></g><g fill="rgb(0.779724%, 12.939453%, 20.779419%)" fill-opacity="1"><g transform="translate(179.007638, 269.373734)"><g/></g></g><g fill="rgb(0.779724%, 12.939453%, 20.779419%)" fill-opacity="1"><g transform="translate(182.895659, 269.373734)"><g><path d="M 5.5625 -5.046875 L 2.234375 -5.046875 L 2.234375 -3.78125 L 5.234375 -3.78125 L 5.234375 -2.53125 L 2.234375 -2.53125 L 2.234375 -1.265625 L 5.65625 -1.265625 L 5.65625 0 L 0.625 0 L 0.625 -6.296875 L 5.5625 -6.296875 Z M 5.5625 -5.046875 "/></g></g></g><g fill="rgb(0.779724%, 12.939453%, 20.779419%)" fill-opacity="1"><g transform="translate(190.761703, 269.373734)"><g><path d="M 3.046875 -6.375 C 3.992188 -6.375 4.820312 -6.140625 5.53125 -5.671875 L 4.9375 -4.421875 C 4.601562 -4.609375 4.242188 -4.765625 3.859375 -4.890625 C 3.484375 -5.015625 3.171875 -5.078125 2.921875 -5.078125 C 2.453125 -5.078125 2.21875 -4.921875 2.21875 -4.609375 C 2.21875 -4.410156 2.332031 -4.25 2.5625 -4.125 C 2.789062 -4.007812 3.066406 -3.910156 3.390625 -3.828125 C 3.722656 -3.742188 4.050781 -3.640625 4.375 -3.515625 C 4.707031 -3.390625 4.984375 -3.1875 5.203125 -2.90625 C 5.429688 -2.632812 5.546875 -2.289062 5.546875 -1.875 C 5.546875 -1.269531 5.304688 -0.796875 4.828125 -0.453125 C 4.359375 -0.117188 3.757812 0.046875 3.03125 0.046875 C 2.507812 0.046875 1.992188 -0.0390625 1.484375 -0.21875 C 0.972656 -0.394531 0.53125 -0.640625 0.15625 -0.953125 L 0.78125 -2.1875 C 1.09375 -1.90625 1.460938 -1.675781 1.890625 -1.5 C 2.328125 -1.320312 2.710938 -1.234375 3.046875 -1.234375 C 3.304688 -1.234375 3.507812 -1.28125 3.65625 -1.375 C 3.800781 -1.46875 3.875 -1.609375 3.875 -1.796875 C 3.875 -1.960938 3.789062 -2.101562 3.625 -2.21875 C 3.457031 -2.34375 3.25 -2.429688 3 -2.484375 C 2.757812 -2.546875 2.492188 -2.625 2.203125 -2.71875 C 1.910156 -2.8125 1.640625 -2.914062 1.390625 -3.03125 C 1.148438 -3.144531 0.945312 -3.328125 0.78125 -3.578125 C 0.625 -3.828125 0.546875 -4.125 0.546875 -4.46875 C 0.546875 -5.050781 0.773438 -5.515625 1.234375 -5.859375 C 1.691406 -6.203125 2.296875 -6.375 3.046875 -6.375 Z M 3.046875 -6.375 "/></g></g></g><g fill="rgb(0.779724%, 12.939453%, 20.779419%)" fill-opacity="1"><g transform="translate(198.357747, 269.373734)"><g><path d="M 5.4375 -5.015625 L 3.546875 -5.015625 L 3.546875 0 L 1.9375 0 L 1.9375 -5.015625 L 0.0625 -5.015625 L 0.0625 -6.3125 L 5.4375 -6.3125 Z M 5.4375 -5.015625 "/></g></g></g><g fill="rgb(0.779724%, 12.939453%, 20.779419%)" fill-opacity="1"><g transform="translate(205.656783, 269.373734)"><g><path d="M 4.8125 -1.15625 L 2.0625 -1.15625 L 1.609375 0 L -0.046875 0 L 2.671875 -6.296875 L 4.3125 -6.296875 L 6.96875 0 L 5.265625 0 Z M 4.34375 -2.375 L 3.453125 -4.703125 L 2.53125 -2.375 Z M 4.34375 -2.375 "/></g></g></g><g fill="rgb(0.779724%, 12.939453%, 20.779419%)" fill-opacity="1"><g transform="translate(214.386833, 269.373734)"><g><path d="M 5.4375 -5.015625 L 3.546875 -5.015625 L 3.546875 0 L 1.9375 0 L 1.9375 -5.015625 L 0.0625 -5.015625 L 0.0625 -6.3125 L 5.4375 -6.3125 Z M 5.4375 -5.015625 "/></g></g></g><g fill="rgb(0.779724%, 12.939453%, 20.779419%)" fill-opacity="1"><g transform="translate(221.685869, 269.373734)"><g><path d="M 5.5625 -5.046875 L 2.234375 -5.046875 L 2.234375 -3.78125 L 5.234375 -3.78125 L 5.234375 -2.53125 L 2.234375 -2.53125 L 2.234375 -1.265625 L 5.65625 -1.265625 L 5.65625 0 L 0.625 0 L 0.625 -6.296875 L 5.5625 -6.296875 Z M 5.5625 -5.046875 "/></g></g></g></svg>