<svg xmlns="http://www.w3.org/2000/svg" xmlns:xlink="http://www.w3.org/1999/xlink" width="500" zoomAndPan="magnify" viewBox="0 0 375 374.999991" height="500" preserveAspectRatio="xMidYMid meet" version="1.0"><defs><g><g id="id1"/><g id="id2"/></g><clipPath id="id3"><path d="M 159 119.707031 L 216 119.707031 L 216 136 L 159 136 Z M 159 119.707031 " clip-rule="nonzero"/></clipPath><clipPath id="id4"><path d="M 151 169 L 225 169 L 225 196.167969 L 151 196.167969 Z M 151 169 " clip-rule="nonzero"/></clipPath></defs><rect x="-37.5" width="450" fill="rgb(100%, 100%, 100%)" y="-37.499999" height="449.999989" fill-opacity="1"/><rect x="-37.5" width="450" fill="rgb(100%, 100%, 100%)" y="-37.499999" height="449.999989" fill-opacity="1"/><rect x="-37.5" width="450" fill="rgb(100%, 100%, 100%)" y="-37.499999" height="449.999989" fill-opacity="1"/><g fill="rgb(1.179504%, 12.939453%, 45.489502%)" fill-opacity="1"><g transform="translate(134.327119, 253.656838)"><g><path d="M 1.765625 -8.453125 L 0.171875 -8.453125 L 0.171875 -9.421875 L 4.640625 -9.421875 L 4.640625 -8.453125 L 3.078125 -8.453125 L 3.078125 0 L 1.765625 0 Z M 1.765625 -8.453125 "/></g></g></g><g fill="rgb(1.179504%, 12.939453%, 45.489502%)" fill-opacity="1"><g transform="translate(142.253991, 253.656838)"><g><path d="M 0.734375 -9.421875 L 2.625 -9.421875 C 3.582031 -9.421875 4.285156 -9.222656 4.734375 -8.828125 C 5.179688 -8.441406 5.40625 -7.804688 5.40625 -6.921875 C 5.40625 -5.710938 5.015625 -4.976562 4.234375 -4.71875 L 5.578125 0 L 4.3125 0 L 3.078125 -4.421875 L 2.046875 -4.421875 L 2.046875 0 L 0.734375 0 Z M 2.546875 -5.359375 C 3.117188 -5.359375 3.523438 -5.472656 3.765625 -5.703125 C 4.003906 -5.929688 4.125 -6.335938 4.125 -6.921875 C 4.125 -7.316406 4.082031 -7.625 4 -7.84375 C 3.914062 -8.0625 3.765625 -8.222656 3.546875 -8.328125 C 3.328125 -8.429688 3.019531 -8.484375 2.625 -8.484375 L 2.046875 -8.484375 L 2.046875 -5.359375 Z M 2.546875 -5.359375 "/></g></g></g><g fill="rgb(1.179504%, 12.939453%, 45.489502%)" fill-opacity="1"><g transform="translate(151.414354, 253.656838)"><g><path d="M 2.21875 -9.421875 L 3.484375 -9.421875 L 5.5 0 L 4.265625 0 L 3.828125 -2.375 L 1.90625 -2.375 L 1.453125 0 L 0.21875 0 Z M 3.65625 -3.3125 L 2.859375 -7.5625 L 2.078125 -3.3125 Z M 3.65625 -3.3125 "/></g></g></g><g fill="rgb(1.179504%, 12.939453%, 45.489502%)" fill-opacity="1"><g transform="translate(160.260519, 253.656838)"><g><path d="M 0.265625 -9.421875 L 1.5 -9.421875 L 2.984375 -2.484375 L 4.40625 -9.421875 L 5.609375 -9.421875 L 3.53125 0 L 2.375 0 Z M 0.265625 -9.421875 "/></g></g></g><g fill="rgb(1.179504%, 12.939453%, 45.489502%)" fill-opacity="1"><g transform="translate(169.257964, 253.656838)"><g><path d="M 0.734375 -9.421875 L 4.390625 -9.421875 L 4.390625 -8.453125 L 2.046875 -8.453125 L 2.046875 -5.328125 L 3.953125 -5.328125 L 3.953125 -4.40625 L 2.046875 -4.40625 L 2.046875 -0.9375 L 4.40625 -0.9375 L 4.40625 0 L 0.734375 0 Z M 0.734375 -9.421875 "/></g></g></g><g fill="rgb(1.179504%, 12.939453%, 45.489502%)" fill-opacity="1"><g transform="translate(177.115016, 253.656838)"><g><path d="M 0.734375 -9.421875 L 2.046875 -9.421875 L 2.046875 -0.9375 L 4.453125 -0.9375 L 4.453125 0 L 0.734375 0 Z M 0.734375 -9.421875 "/></g></g></g><g fill="rgb(1.179504%, 12.939453%, 45.489502%)" fill-opacity="1"><g transform="translate(184.855705, 253.656838)"><g/></g></g><g fill="rgb(1.179504%, 12.939453%, 45.489502%)" fill-opacity="1"><g transform="translate(190.641436, 253.656838)"><g><path d="M 2.21875 -9.421875 L 3.484375 -9.421875 L 5.5 0 L 4.265625 0 L 3.828125 -2.375 L 1.90625 -2.375 L 1.453125 0 L 0.21875 0 Z M 3.65625 -3.3125 L 2.859375 -7.5625 L 2.078125 -3.3125 Z M 3.65625 -3.3125 "/></g></g></g><g fill="rgb(1.179504%, 12.939453%, 45.489502%)" fill-opacity="1"><g transform="translate(199.487599, 253.656838)"><g><path d="M 2.984375 0.109375 C 2.128906 0.109375 1.507812 -0.15625 1.125 -0.6875 C 0.75 -1.226562 0.5625 -2.03125 0.5625 -3.09375 L 0.5625 -6.25 C 0.5625 -6.976562 0.632812 -7.578125 0.78125 -8.046875 C 0.9375 -8.515625 1.195312 -8.875 1.5625 -9.125 C 1.9375 -9.382812 2.441406 -9.515625 3.078125 -9.515625 C 3.953125 -9.515625 4.582031 -9.289062 4.96875 -8.84375 C 5.351562 -8.40625 5.546875 -7.710938 5.546875 -6.765625 L 5.546875 -6.40625 L 4.3125 -6.40625 L 4.3125 -6.703125 C 4.3125 -7.148438 4.28125 -7.492188 4.21875 -7.734375 C 4.164062 -7.984375 4.050781 -8.171875 3.875 -8.296875 C 3.707031 -8.421875 3.453125 -8.484375 3.109375 -8.484375 C 2.742188 -8.484375 2.472656 -8.398438 2.296875 -8.234375 C 2.117188 -8.066406 2.003906 -7.84375 1.953125 -7.5625 C 1.898438 -7.28125 1.875 -6.910156 1.875 -6.453125 L 1.875 -2.953125 C 1.875 -2.234375 1.957031 -1.71875 2.125 -1.40625 C 2.300781 -1.09375 2.640625 -0.9375 3.140625 -0.9375 C 3.628906 -0.9375 3.960938 -1.101562 4.140625 -1.4375 C 4.328125 -1.78125 4.421875 -2.328125 4.421875 -3.078125 L 4.421875 -3.734375 L 3.21875 -3.734375 L 3.21875 -4.671875 L 5.609375 -4.671875 L 5.609375 0 L 4.78125 0 L 4.65625 -1.078125 C 4.363281 -0.285156 3.804688 0.109375 2.984375 0.109375 Z M 2.984375 0.109375 "/></g></g></g><g fill="rgb(1.179504%, 12.939453%, 45.489502%)" fill-opacity="1"><g transform="translate(208.834148, 253.656838)"><g><path d="M 0.734375 -9.421875 L 4.390625 -9.421875 L 4.390625 -8.453125 L 2.046875 -8.453125 L 2.046875 -5.328125 L 3.953125 -5.328125 L 3.953125 -4.40625 L 2.046875 -4.40625 L 2.046875 -0.9375 L 4.40625 -0.9375 L 4.40625 0 L 0.734375 0 Z M 0.734375 -9.421875 "/></g></g></g><g fill="rgb(1.179504%, 12.939453%, 45.489502%)" fill-opacity="1"><g transform="translate(216.691203, 253.656838)"><g><path d="M 0.734375 -9.421875 L 1.625 -9.421875 L 4.3125 -3.171875 L 4.3125 -9.421875 L 5.40625 -9.421875 L 5.40625 0 L 4.5625 0 L 1.84375 -6.4375 L 1.84375 0 L 0.734375 0 Z M 0.734375 -9.421875 "/></g></g></g><g fill="rgb(1.179504%, 12.939453%, 45.489502%)" fill-opacity="1"><g transform="translate(225.956294, 253.656838)"><g><path d="M 3.09375 0.109375 C 2.164062 0.109375 1.507812 -0.164062 1.125 -0.71875 C 0.75 -1.28125 0.5625 -2.050781 0.5625 -3.03125 L 0.5625 -6.359375 C 0.5625 -7.390625 0.742188 -8.171875 1.109375 -8.703125 C 1.484375 -9.242188 2.144531 -9.515625 3.09375 -9.515625 C 3.9375 -9.515625 4.539062 -9.285156 4.90625 -8.828125 C 5.28125 -8.367188 5.46875 -7.691406 5.46875 -6.796875 L 5.46875 -6.046875 L 4.21875 -6.046875 L 4.21875 -6.71875 C 4.21875 -7.15625 4.195312 -7.488281 4.15625 -7.71875 C 4.125 -7.945312 4.023438 -8.128906 3.859375 -8.265625 C 3.703125 -8.410156 3.453125 -8.484375 3.109375 -8.484375 C 2.753906 -8.484375 2.488281 -8.40625 2.3125 -8.25 C 2.132812 -8.101562 2.019531 -7.894531 1.96875 -7.625 C 1.914062 -7.363281 1.890625 -7.003906 1.890625 -6.546875 L 1.890625 -2.8125 C 1.890625 -2.332031 1.925781 -1.957031 2 -1.6875 C 2.082031 -1.414062 2.207031 -1.222656 2.375 -1.109375 C 2.550781 -0.992188 2.796875 -0.9375 3.109375 -0.9375 C 3.441406 -0.9375 3.6875 -1.007812 3.84375 -1.15625 C 4.007812 -1.300781 4.113281 -1.5 4.15625 -1.75 C 4.195312 -2.007812 4.21875 -2.363281 4.21875 -2.8125 L 4.21875 -3.5 L 5.46875 -3.5 L 5.46875 -2.8125 C 5.46875 -1.863281 5.289062 -1.140625 4.9375 -0.640625 C 4.582031 -0.140625 3.96875 0.109375 3.09375 0.109375 Z M 3.09375 0.109375 "/></g></g></g><g fill="rgb(1.179504%, 12.939453%, 45.489502%)" fill-opacity="1"><g transform="translate(235.070104, 253.656838)"><g><path d="M 2.171875 -3.328125 L 0.140625 -9.421875 L 1.359375 -9.421875 L 2.8125 -4.875 L 4.21875 -9.421875 L 5.453125 -9.421875 L 3.4375 -3.328125 L 3.4375 0 L 2.171875 0 Z M 2.171875 -3.328125 "/></g></g></g><path fill="rgb(1.179504%, 12.939453%, 45.489502%)" d="M 202.535156 148.269531 C 222.386719 135.601562 222.242188 122.671875 222.242188 122.671875 C 231.851562 137.9375 220.367188 148.90625 220.367188 148.90625 C 226.363281 144.9375 228.59375 139.558594 229.1875 134.714844 C 236.765625 156.167969 218.019531 162.558594 218.019531 162.558594 C 222.988281 161.820312 226.597656 159.6875 229.214844 157.0625 C 228.148438 159.484375 226.65625 161.921875 224.640625 164.328125 C 215.300781 175.460938 198.746094 171.644531 191.324219 180.226562 C 191.324219 180.226562 180.113281 162.578125 202.535156 148.269531 " fill-opacity="1" fill-rule="nonzero"/><path fill="rgb(92.939758%, 38.819885%, 4.309082%)" d="M 173.828125 171.632812 C 172.003906 167.871094 166 168.359375 166 168.359375 C 166.589844 166.355469 169.875 165.222656 169.875 165.222656 C 169.875 165.222656 170.234375 157.28125 177.375 158.140625 C 183.640625 158.898438 185.929688 164.109375 186.730469 168.554688 C 186.417969 162.523438 183.328125 155.023438 172.742188 148.269531 C 152.890625 135.601562 153.039062 122.671875 153.039062 122.671875 C 143.425781 137.9375 154.910156 148.90625 154.910156 148.90625 C 148.914062 144.9375 146.6875 139.558594 146.089844 134.714844 C 138.515625 156.167969 157.261719 162.558594 157.261719 162.558594 C 152.289062 161.820312 148.679688 159.6875 146.066406 157.0625 C 147.128906 159.484375 148.621094 161.921875 150.640625 164.328125 C 156.867188 171.75 166.304688 172.527344 174.101562 174.765625 C 174.363281 173.722656 174.324219 172.660156 173.828125 171.632812 " fill-opacity="1" fill-rule="nonzero"/><g clip-path="url(#id3)"><path fill="rgb(92.939758%, 38.819885%, 4.309082%)" d="M 163.261719 135.617188 C 169.320312 129.097656 178 125.011719 187.640625 125.011719 C 197.28125 125.011719 205.960938 129.097656 212.019531 135.617188 C 213.394531 134.050781 214.464844 132.585938 215.289062 131.277344 C 208.289062 124.117188 198.488281 119.667969 187.640625 119.667969 C 176.792969 119.667969 166.992188 124.117188 159.988281 131.277344 C 160.816406 132.585938 161.882812 134.050781 163.261719 135.617188 " fill-opacity="1" fill-rule="nonzero"/></g><g clip-path="url(#id4)"><path fill="rgb(1.179504%, 12.939453%, 45.489502%)" d="M 216.375 174.339844 C 210.648438 184.191406 199.925781 190.824219 187.640625 190.824219 C 175.355469 190.824219 164.632812 184.191406 158.90625 174.339844 C 156.15625 173.269531 153.46875 171.859375 151.011719 169.839844 C 156.0625 185.128906 170.550781 196.167969 187.640625 196.167969 C 204.730469 196.167969 219.21875 185.128906 224.265625 169.839844 C 221.8125 171.859375 219.125 173.269531 216.375 174.339844 " fill-opacity="1" fill-rule="nonzero"/></g><path fill="rgb(92.939758%, 38.819885%, 4.309082%)" d="M 175.058594 161.972656 C 174.3125 161.972656 173.710938 162.570312 173.710938 163.308594 C 173.710938 164.046875 174.3125 164.644531 175.058594 164.644531 C 175.800781 164.644531 176.402344 164.046875 176.402344 163.308594 C 176.402344 162.570312 175.800781 161.972656 175.058594 161.972656 " fill-opacity="1" fill-rule="nonzero"/><g fill="rgb(92.939758%, 38.819885%, 4.309082%)" fill-opacity="1"><g transform="translate(89.509719, 235.089241)"><g><path d="M 11.671875 -20.5 C 14.828125 -20.5 17.445312 -19.515625 19.53125 -17.546875 C 21.625 -15.585938 22.671875 -13.132812 22.671875 -10.1875 C 22.671875 -7.226562 21.617188 -4.75 19.515625 -2.75 C 17.421875 -0.757812 14.804688 0.234375 11.671875 0.234375 C 8.535156 0.234375 5.921875 -0.753906 3.828125 -2.734375 C 1.742188 -4.722656 0.703125 -7.207031 0.703125 -10.1875 C 0.703125 -13.144531 1.742188 -15.601562 3.828125 -17.5625 C 5.921875 -19.519531 8.535156 -20.5 11.671875 -20.5 Z M 11.734375 -16.171875 C 10.140625 -16.171875 8.78125 -15.59375 7.65625 -14.4375 C 6.539062 -13.289062 5.984375 -11.863281 5.984375 -10.15625 C 5.984375 -8.457031 6.546875 -7.019531 7.671875 -5.84375 C 8.804688 -4.675781 10.15625 -4.09375 11.71875 -4.09375 C 13.289062 -4.09375 14.625 -4.675781 15.71875 -5.84375 C 16.8125 -7.019531 17.359375 -8.457031 17.359375 -10.15625 C 17.359375 -11.863281 16.8125 -13.289062 15.71875 -14.4375 C 14.625 -15.59375 13.296875 -16.171875 11.734375 -16.171875 Z M 11.734375 -16.171875 "/></g></g></g><g fill="rgb(92.939758%, 38.819885%, 4.309082%)" fill-opacity="1"><g transform="translate(114.34766, 235.089241)"><g><path d="M 14.28125 0 L 11.265625 -5.71875 L 7.203125 -5.71875 L 7.203125 0 L 2.03125 0 L 2.03125 -20.328125 L 11.125 -20.328125 C 13.8125 -20.328125 15.890625 -19.710938 17.359375 -18.484375 C 18.828125 -17.253906 19.5625 -15.503906 19.5625 -13.234375 C 19.5625 -10.097656 18.332031 -7.921875 15.875 -6.703125 L 20.140625 0 Z M 7.203125 -9.78125 L 11.125 -9.78125 C 12.238281 -9.78125 13.101562 -10.0625 13.71875 -10.625 C 14.34375 -11.1875 14.65625 -12 14.65625 -13.0625 C 14.65625 -14.101562 14.34375 -14.894531 13.71875 -15.4375 C 13.101562 -15.976562 12.238281 -16.25 11.125 -16.25 L 7.203125 -16.25 Z M 7.203125 -9.78125 "/></g></g></g><g fill="rgb(92.939758%, 38.819885%, 4.309082%)" fill-opacity="1"><g transform="translate(136.835327, 235.089241)"><g><path d="M 15.53125 -3.75 L 6.640625 -3.75 L 5.171875 0 L -0.140625 0 L 8.625 -20.328125 L 13.9375 -20.328125 L 22.5 0 L 16.984375 0 Z M 14.015625 -7.671875 L 11.125 -15.1875 L 8.15625 -7.671875 Z M 14.015625 -7.671875 "/></g></g></g><g fill="rgb(92.939758%, 38.819885%, 4.309082%)" fill-opacity="1"><g transform="translate(160.657719, 235.089241)"><g><path d="M 20.78125 0 L 16.234375 0 L 6.875 -12.515625 L 6.875 0 L 2.03125 0 L 2.03125 -20.328125 L 6.59375 -20.328125 L 15.96875 -7.78125 L 15.96875 -20.328125 L 20.78125 -20.328125 Z M 20.78125 0 "/></g></g></g><g fill="rgb(92.939758%, 38.819885%, 4.309082%)" fill-opacity="1"><g transform="translate(184.944364, 235.089241)"><g><path d="M 15.53125 -10.328125 L 20 -10.328125 L 20 -2.40625 C 18.894531 -1.632812 17.5625 -1 16 -0.5 C 14.445312 -0.0078125 12.960938 0.234375 11.546875 0.234375 C 8.453125 0.234375 5.867188 -0.753906 3.796875 -2.734375 C 1.734375 -4.722656 0.703125 -7.195312 0.703125 -10.15625 C 0.703125 -13.101562 1.765625 -15.5625 3.890625 -17.53125 C 6.015625 -19.507812 8.6875 -20.5 11.90625 -20.5 C 13.414062 -20.5 14.914062 -20.226562 16.40625 -19.6875 C 17.894531 -19.144531 19.160156 -18.410156 20.203125 -17.484375 L 17.296875 -13.96875 C 16.566406 -14.644531 15.71875 -15.179688 14.75 -15.578125 C 13.78125 -15.972656 12.820312 -16.171875 11.875 -16.171875 C 10.207031 -16.171875 8.804688 -15.59375 7.671875 -14.4375 C 6.546875 -13.289062 5.984375 -11.863281 5.984375 -10.15625 C 5.984375 -8.4375 6.550781 -6.992188 7.6875 -5.828125 C 8.832031 -4.671875 10.25 -4.09375 11.9375 -4.09375 C 13.019531 -4.09375 14.21875 -4.421875 15.53125 -5.078125 Z M 15.53125 -10.328125 "/></g></g></g><g fill="rgb(92.939758%, 38.819885%, 4.309082%)" fill-opacity="1"><g transform="translate(207.983322, 235.089241)"><g><path d="M 17.9375 -16.25 L 7.203125 -16.25 L 7.203125 -12.21875 L 16.890625 -12.21875 L 16.890625 -8.15625 L 7.203125 -8.15625 L 7.203125 -4.0625 L 18.265625 -4.0625 L 18.265625 0 L 2.03125 0 L 2.03125 -20.328125 L 17.9375 -20.328125 Z M 17.9375 -16.25 "/></g></g></g><g fill="rgb(92.939758%, 38.819885%, 4.309082%)" fill-opacity="1"><g transform="translate(229.020205, 235.089241)"><g><path d="M 17.09375 -16.25 L 7.203125 -16.25 L 7.203125 -11.546875 L 16.3125 -11.546875 L 16.3125 -7.484375 L 7.203125 -7.484375 L 7.203125 0 L 2.03125 0 L 2.03125 -20.328125 L 17.09375 -20.328125 Z M 17.09375 -16.25 "/></g></g></g><g fill="rgb(92.939758%, 38.819885%, 4.309082%)" fill-opacity="1"><g transform="translate(248.026001, 235.089241)"><g><path d="M 7.203125 -4.328125 L 15.828125 -4.328125 L 15.828125 0 L 2.03125 0 L 2.03125 -20.328125 L 7.203125 -20.328125 Z M 7.203125 -4.328125 "/></g></g></g><g fill="rgb(92.939758%, 38.819885%, 4.309082%)" fill-opacity="1"><g transform="translate(265.755107, 235.089241)"><g><path d="M 12.515625 -6.5625 L 12.515625 0 L 7.375 0 L 7.375 -6.421875 L -0.140625 -20.328125 L 5.015625 -20.328125 L 9.921875 -11.46875 L 14.71875 -20.328125 L 19.890625 -20.328125 Z M 12.515625 -6.5625 "/></g></g></g></svg>