<svg xmlns="http://www.w3.org/2000/svg" xmlns:xlink="http://www.w3.org/1999/xlink" width="500" zoomAndPan="magnify" viewBox="0 0 375 374.999991" height="500" preserveAspectRatio="xMidYMid meet" version="1.0"><defs><filter x="0%" y="0%" width="100%" xlink:type="simple" xlink:actuate="onLoad" height="100%" id="id1" xlink:show="other"><feColorMatrix values="0 0 0 0 1 0 0 0 0 1 0 0 0 0 1 0 0 0 1 0" color-interpolation-filters="sRGB"/></filter><g><g id="id2"/><g id="id3"/></g><mask id="id4"><g filter="url(#id1)"><rect x="-37.5" width="450" fill="rgb(0%, 0%, 0%)" y="-37.499999" height="449.999989" fill-opacity="0.2275"/></g></mask><clipPath id="id5"><path d="M 0.121094 0.519531 L 146.761719 0.519531 L 146.761719 148.839844 L 0.121094 148.839844 Z M 0.121094 0.519531 " clip-rule="nonzero"/></clipPath><clipPath id="id6"><rect x="0" width="147" y="0" height="149"/></clipPath></defs><rect x="-37.5" width="450" fill="rgb(100%, 100%, 100%)" y="-37.499999" height="449.999989" fill-opacity="1"/><rect x="-37.5" width="450" fill="rgb(100%, 100%, 100%)" y="-37.499999" height="449.999989" fill-opacity="1"/><g mask="url(#id4)"><g transform="matrix(1, 0, 0, 1, 33, 113)"><g clip-path="url(#id6)"><path fill="rgb(100%, 22.349548%, 0%)" d="M 86.433594 86.660156 L 60.988281 86.292969 L 64.652344 60.84375 L 90.097656 61.214844 Z M 140.832031 61.941406 C 143.636719 61.941406 145.914062 59.667969 145.914062 56.863281 L 145.914062 41.273438 C 145.914062 38.464844 143.636719 36.1875 140.832031 36.1875 L 119.503906 35.878906 L 123.453125 8.46875 C 123.453125 5.65625 121.171875 3.382812 118.363281 3.382812 L 102.777344 3.382812 C 99.96875 3.382812 97.695312 5.65625 97.695312 8.46875 L 93.800781 35.507812 L 68.355469 35.144531 L 72.195312 8.46875 C 72.195312 5.65625 69.917969 3.382812 67.109375 3.382812 L 51.527344 3.382812 C 48.710938 3.382812 46.4375 5.65625 46.4375 8.46875 L 42.652344 34.773438 L 10.253906 34.304688 C 7.445312 34.304688 5.171875 36.582031 5.171875 39.390625 L 5.171875 54.980469 C 5.171875 57.785156 7.445312 60.066406 10.253906 60.066406 L 38.949219 60.476562 L 35.285156 85.921875 L 10.253906 85.5625 C 7.445312 85.5625 5.171875 87.839844 5.171875 90.648438 L 5.171875 106.234375 C 5.171875 109.042969 7.445312 111.324219 10.253906 111.324219 L 31.582031 111.625 L 27.636719 139.042969 C 27.636719 141.851562 29.914062 144.128906 32.714844 144.128906 L 48.304688 144.128906 C 51.113281 144.128906 53.390625 141.851562 53.390625 139.042969 L 57.285156 112 L 82.730469 112.363281 L 78.890625 139.042969 C 78.890625 141.851562 81.164062 144.128906 83.972656 144.128906 L 99.5625 144.128906 C 102.367188 144.128906 104.648438 141.851562 104.648438 139.042969 L 108.433594 112.734375 L 140.832031 113.199219 C 143.636719 113.199219 145.914062 110.925781 145.914062 108.117188 L 145.914062 92.523438 C 145.914062 89.722656 143.636719 87.445312 140.832031 87.445312 L 112.136719 87.027344 L 115.800781 61.585938 L 140.832031 61.941406 " fill-opacity="1" fill-rule="nonzero"/><path fill="rgb(100%, 22.349548%, 0%)" d="M 106.136719 8.167969 C 112.355469 12.363281 115.730469 18.417969 115.429688 26.082031 C 115.3125 29.089844 115.121094 32.09375 114.890625 35.101562 C 114.671875 36.476562 114.507812 37.855469 114.375 39.242188 C 122.945312 42.566406 133.425781 42.316406 143.425781 41.71875 C 142.605469 40.003906 140.875 38.820312 138.851562 38.820312 L 117.53125 38.511719 L 121.480469 11.097656 C 121.480469 8.289062 119.203125 6.011719 116.394531 6.011719 L 100.804688 6.011719 C 100.796875 6.011719 100.792969 6.015625 100.789062 6.015625 C 102.519531 6.269531 104.320312 6.941406 106.136719 8.167969 " fill-opacity="1" fill-rule="nonzero"/><g clip-path="url(#id5)"><path fill="rgb(100%, 22.349548%, 0%)" d="M 140.832031 61.941406 L 115.800781 61.675781 L 115.894531 61.597656 L 112.320312 87.054688 L 112.144531 86.847656 L 135.304688 86.960938 L 141.105469 86.996094 C 143.230469 87.050781 145.238281 88.460938 146.035156 90.445312 C 146.242188 90.929688 146.355469 91.457031 146.429688 92.015625 C 146.464844 92.488281 146.460938 93.03125 146.464844 93.484375 L 146.5 96.382812 L 146.558594 102.175781 L 146.625 107.96875 C 146.714844 110.128906 145.445312 112.371094 143.445312 113.371094 C 142.46875 113.914062 141.253906 114.078125 140.269531 114.039062 L 137.378906 114.046875 L 131.578125 114.066406 L 108.417969 114.144531 L 109.832031 112.933594 L 106.515625 139.3125 L 106.53125 139.042969 C 106.5625 140.84375 105.84375 142.664062 104.582031 143.96875 C 103.367188 145.292969 101.46875 146.109375 99.761719 146.148438 L 91.769531 146.296875 L 83.835938 146.425781 C 81.929688 146.433594 80.007812 145.632812 78.652344 144.269531 C 77.277344 142.917969 76.457031 140.984375 76.441406 139.042969 L 76.441406 138.902344 L 76.464844 138.691406 L 79.832031 111.945312 L 82.691406 115.289062 L 57.238281 115.378906 L 60.632812 112.480469 L 57.214844 139.59375 L 57.257812 139.042969 C 57.296875 141.347656 56.363281 143.695312 54.746094 145.363281 C 53.933594 146.195312 52.964844 146.886719 51.886719 147.359375 C 51.351562 147.589844 50.792969 147.777344 50.214844 147.902344 C 49.910156 147.972656 49.519531 148.027344 49.171875 148.066406 L 48.601562 148.109375 L 40.511719 148.203125 L 32.546875 148.28125 C 30.160156 148.269531 27.761719 147.253906 26.089844 145.542969 C 24.394531 143.859375 23.390625 141.445312 23.390625 139.042969 L 23.390625 138.765625 L 23.429688 138.441406 L 27.117188 110.984375 L 31.515625 116.140625 L 12.039062 115.925781 L 10.820312 115.921875 L 10.210938 115.910156 C 10 115.898438 9.492188 115.886719 9.148438 115.851562 C 7.613281 115.675781 6.113281 115.121094 4.828125 114.257812 C 3.550781 113.394531 2.484375 112.222656 1.734375 110.863281 C 1.375 110.183594 1.070312 109.464844 0.878906 108.707031 C 0.78125 108.367188 0.691406 107.917969 0.632812 107.417969 C 0.558594 106.816406 0.582031 106.820312 0.5625 106.5625 L 0.515625 96.589844 L 0.496094 91.71875 L 0.5 90.375 C 0.523438 89.597656 0.628906 88.824219 0.839844 88.066406 C 1.242188 86.550781 2.03125 85.152344 3.085938 84.011719 C 4.132812 82.859375 5.472656 81.976562 6.945312 81.445312 C 7.3125 81.300781 7.691406 81.203125 8.074219 81.109375 C 8.441406 81.015625 9 80.945312 9.460938 80.902344 L 9.785156 80.878906 L 10.394531 80.867188 L 11.003906 80.878906 L 15.871094 80.96875 L 35.347656 81.316406 L 30.726562 85.269531 L 34.484375 59.835938 L 38.882812 64.988281 L 15.726562 64.4375 L 9.785156 64.28125 C 6.21875 64.121094 2.925781 61.722656 1.664062 58.421875 C 1.339844 57.621094 1.132812 56.753906 1.042969 55.679688 L 1.027344 55.316406 L 1.019531 54.746094 L 1.027344 54.019531 L 1.058594 51.125 L 1.121094 45.332031 L 1.183594 39.542969 C 1.152344 38.074219 1.59375 36.148438 2.511719 34.75 C 3.402344 33.28125 4.714844 32.09375 6.253906 31.355469 C 7.042969 30.964844 7.796875 30.730469 8.734375 30.570312 L 9.503906 30.476562 L 9.886719 30.460938 L 10.316406 30.449219 L 10.496094 30.453125 L 10.859375 30.464844 L 13.753906 30.558594 L 19.539062 30.746094 L 42.699219 31.492188 L 39.398438 34.300781 L 43.65625 8.0625 L 43.621094 8.46875 C 43.636719 6.425781 44.5 4.398438 45.9375 2.984375 C 47.324219 1.550781 49.457031 0.707031 51.289062 0.71875 L 59.316406 0.847656 L 67.25 0.992188 C 69.179688 1.039062 71.082031 1.890625 72.394531 3.277344 C 73.726562 4.652344 74.484375 6.570312 74.445312 8.46875 L 74.445312 8.667969 L 74.429688 8.785156 L 70.113281 35.398438 L 68.378906 33.367188 L 93.820312 34.183594 L 92.488281 35.320312 L 96.859375 8.34375 L 96.847656 8.46875 C 96.871094 6.933594 97.519531 5.425781 98.597656 4.363281 C 99.664062 3.296875 101.195312 2.675781 102.648438 2.671875 L 110.574219 2.75 L 118.472656 2.835938 C 121.445312 2.84375 124.015625 5.542969 123.914062 8.46875 L 123.914062 8.53125 L 119.691406 35.90625 L 119.511719 35.6875 L 132.726562 35.929688 L 139.335938 36.046875 C 140.417969 36.09375 141.574219 35.972656 142.636719 36.40625 C 143.695312 36.796875 144.605469 37.554688 145.203125 38.503906 C 145.824219 39.441406 146.042969 40.609375 145.996094 41.707031 L 145.984375 45.007812 L 145.960938 51.617188 L 145.949219 54.925781 C 145.90625 56.023438 146.066406 57.148438 145.75 58.222656 C 145.1875 60.390625 143.050781 61.980469 140.832031 61.941406 Z M 140.832031 61.941406 C 143.054688 61.964844 145.160156 60.355469 145.703125 58.207031 C 146.007812 57.148438 145.839844 56.023438 145.878906 54.925781 L 145.867188 51.617188 L 145.839844 45.007812 L 145.832031 41.707031 C 145.867188 40.609375 145.644531 39.515625 145.039062 38.601562 C 144.460938 37.695312 143.582031 36.976562 142.5625 36.609375 C 141.550781 36.199219 140.433594 36.324219 139.328125 36.285156 L 132.726562 36.214844 L 119.5 36.074219 L 119.285156 36.074219 L 119.3125 35.851562 L 122.992188 8.398438 L 122.988281 8.46875 C 123.015625 6.027344 120.84375 3.878906 118.453125 3.933594 L 110.574219 4.011719 L 102.71875 4.101562 C 100.359375 4.101562 98.441406 6.242188 98.53125 8.46875 L 98.539062 8.503906 L 98.527344 8.585938 L 95.109375 35.699219 L 94.96875 36.828125 L 93.777344 36.835938 L 68.324219 36.921875 L 66.335938 36.929688 L 66.59375 34.886719 L 69.964844 8.144531 L 69.941406 8.46875 C 69.929688 6.976562 68.574219 5.707031 67.160156 5.777344 L 59.316406 5.914062 L 51.566406 6.054688 C 50.117188 6.09375 49.207031 7.277344 49.25 8.46875 L 49.253906 8.601562 L 49.222656 8.863281 L 45.902344 35.242188 L 45.546875 38.046875 L 42.601562 38.050781 L 19.433594 38.136719 L 13.644531 38.152344 L 10.75 38.164062 L 10.207031 38.164062 C 10.140625 38.164062 10.667969 38.15625 10.433594 38.164062 L 10.367188 38.164062 L 10.273438 38.171875 L 9.929688 38.195312 C 9.949219 38.210938 9.96875 38.210938 9.988281 38.210938 C 9.980469 38.226562 9.796875 38.265625 9.734375 38.332031 C 9.542969 38.441406 9.371094 38.617188 9.285156 38.816406 C 9.234375 38.910156 9.199219 39.007812 9.183594 39.113281 C 9.152344 39.257812 9.164062 39.199219 9.15625 39.542969 L 9.214844 45.332031 L 9.277344 51.125 L 9.3125 54.019531 L 9.316406 54.746094 L 9.320312 54.925781 L 9.320312 54.96875 C 9.320312 55.019531 9.3125 54.585938 9.316406 54.785156 L 9.316406 54.804688 L 9.324219 54.894531 L 9.34375 55.253906 C 9.386719 55.304688 9.328125 55.097656 9.363281 55.195312 C 9.371094 55.238281 9.390625 55.277344 9.40625 55.316406 C 9.554688 55.628906 9.890625 55.84375 10.207031 55.820312 L 15.847656 55.855469 L 39.015625 55.964844 L 44.132812 55.992188 L 43.414062 61.121094 L 39.84375 86.578125 L 39.28125 90.574219 L 35.21875 90.527344 L 15.738281 90.320312 L 10.867188 90.265625 L 10.261719 90.257812 L 10.203125 90.257812 C 10.332031 90.253906 9.886719 90.265625 10.488281 90.253906 L 10.410156 90.253906 L 10.261719 90.265625 L 9.980469 90.28125 C 10.035156 90.308594 10.1875 90.265625 10.164062 90.277344 C 10.152344 90.285156 10.136719 90.277344 10.125 90.292969 C 10.074219 90.304688 10.011719 90.332031 9.96875 90.386719 C 9.921875 90.429688 9.878906 90.480469 9.871094 90.539062 C 9.855469 90.566406 9.855469 90.601562 9.851562 90.636719 L 9.839844 91.71875 L 9.824219 96.589844 L 9.789062 106.097656 C 9.792969 106.246094 9.808594 106.65625 9.816406 106.453125 C 9.808594 106.355469 9.789062 106.3125 9.804688 106.355469 C 9.804688 106.394531 9.832031 106.421875 9.835938 106.457031 C 9.871094 106.523438 9.925781 106.585938 9.988281 106.640625 C 10.054688 106.679688 10.117188 106.707031 10.191406 106.722656 L 10.34375 106.734375 L 12.167969 106.761719 L 31.640625 107.113281 L 36.832031 107.210938 L 36.046875 112.273438 L 31.832031 139.648438 L 31.875 139.042969 C 31.832031 139.476562 32.21875 139.949219 32.699219 139.960938 L 40.511719 140.054688 L 48.195312 140.136719 C 48.328125 140.125 48.609375 140.125 48.613281 140.113281 C 48.585938 140.101562 48.53125 140.117188 48.542969 140.117188 C 48.609375 140.109375 48.675781 140.085938 48.746094 140.0625 C 48.878906 140.015625 49.007812 139.941406 49.125 139.84375 C 49.355469 139.636719 49.492188 139.371094 49.519531 139.042969 L 49.578125 138.390625 L 49.5625 138.488281 L 53.941406 111.515625 L 54.421875 108.519531 L 57.335938 108.613281 L 82.773438 109.4375 L 86.152344 109.542969 L 85.628906 112.785156 L 81.3125 139.390625 L 81.335938 139.042969 C 81.246094 140.421875 82.453125 141.78125 83.917969 141.8125 L 91.769531 141.960938 L 99.554688 142.097656 C 101.292969 142.164062 102.722656 140.734375 102.761719 139.042969 L 102.769531 138.867188 L 102.777344 138.773438 L 107.035156 112.53125 L 107.246094 111.285156 L 108.457031 111.324219 L 131.613281 112.070312 L 137.398438 112.257812 L 140.296875 112.34375 C 141.226562 112.40625 141.996094 112.316406 142.738281 111.957031 C 144.234375 111.265625 145.25 109.679688 145.203125 107.96875 L 145.269531 102.175781 L 145.332031 96.382812 L 145.359375 93.484375 C 145.363281 92.980469 145.378906 92.558594 145.351562 92.0625 C 145.304688 91.664062 145.226562 91.234375 145.0625 90.835938 C 144.453125 89.207031 142.828125 88 141.0625 87.917969 L 135.292969 87.761719 L 112.132812 87.214844 L 111.921875 87.210938 L 111.957031 87 L 115.714844 61.570312 L 115.726562 61.492188 L 115.808594 61.492188 L 140.832031 61.941406 " fill-opacity="1" fill-rule="nonzero"/></g><path fill="rgb(100%, 22.349548%, 0%)" d="M 86.433594 86.660156 C 86.21875 84.464844 86.125 82.289062 86.054688 80.109375 C 85.964844 77.933594 85.964844 75.773438 85.972656 73.605469 C 86 69.28125 86.175781 64.976562 86.425781 60.6875 L 90.042969 64.921875 C 85.796875 65.21875 81.554688 65.375 77.308594 65.492188 C 73.070312 65.597656 68.824219 65.597656 64.582031 65.546875 L 69.304688 61.515625 C 68.675781 65.753906 68 69.988281 67.222656 74.203125 C 66.441406 78.421875 65.585938 82.625 64.621094 86.816406 L 61.039062 82.617188 C 65.277344 83.046875 69.507812 83.539062 73.742188 84.191406 C 75.859375 84.554688 77.976562 84.855469 80.089844 85.277344 C 82.207031 85.683594 84.320312 86.113281 86.433594 86.660156 Z M 86.433594 86.660156 C 84.304688 87.148438 82.179688 87.511719 80.050781 87.855469 C 77.921875 88.21875 75.800781 88.453125 73.675781 88.761719 C 69.425781 89.292969 65.179688 89.667969 60.933594 89.96875 L 57.078125 90.238281 L 57.351562 85.765625 C 57.609375 81.476562 57.972656 77.199219 58.417969 72.9375 C 58.859375 68.671875 59.410156 64.421875 60 60.175781 L 60.574219 56.078125 L 64.71875 56.148438 C 68.960938 56.222656 73.199219 56.34375 77.433594 56.566406 C 81.675781 56.800781 85.917969 57.085938 90.152344 57.503906 L 94.636719 57.953125 L 93.765625 61.746094 C 92.804688 65.929688 91.757812 70.109375 90.5625 74.269531 C 89.953125 76.34375 89.339844 78.421875 88.648438 80.484375 C 87.960938 82.550781 87.261719 84.613281 86.433594 86.660156 " fill-opacity="1" fill-rule="nonzero"/></g></g></g><g fill="rgb(0%, 0%, 0%)" fill-opacity="1"><g transform="translate(83.502882, 164.656746)"><g><path d="M 35.390625 0 L 33.53125 -23.328125 L 33.296875 -23.328125 L 25.234375 -0.234375 L 19.890625 -0.234375 L 11.828125 -23.328125 L 11.59375 -23.328125 L 9.734375 0 L 0.765625 0 L 4.296875 -39.359375 L 13.828125 -39.359375 L 22.5625 -16.640625 L 31.296875 -39.359375 L 40.828125 -39.359375 L 44.359375 0 Z M 35.390625 0 "/></g></g></g><g fill="rgb(0%, 0%, 0%)" fill-opacity="1"><g transform="translate(128.622722, 164.656746)"><g><path d="M 4.53125 -3.03125 C 2.238281 -5.53125 1.09375 -8.59375 1.09375 -12.21875 C 1.09375 -15.84375 2.238281 -18.910156 4.53125 -21.421875 C 6.820312 -23.929688 9.734375 -25.1875 13.265625 -25.1875 C 16.503906 -25.1875 19.175781 -24.171875 21.28125 -22.140625 L 21.28125 -24.46875 L 29.71875 -24.46875 L 29.71875 0 L 21.375 0 L 21.375 -2.765625 L 21.28125 -2.765625 C 19.175781 -0.441406 16.503906 0.71875 13.265625 0.71875 C 9.734375 0.71875 6.820312 -0.53125 4.53125 -3.03125 Z M 11.703125 -16.359375 C 10.609375 -15.273438 10.0625 -13.890625 10.0625 -12.203125 C 10.0625 -10.523438 10.585938 -9.148438 11.640625 -8.078125 C 12.691406 -7.015625 14.078125 -6.484375 15.796875 -6.484375 C 17.441406 -6.484375 18.796875 -7.023438 19.859375 -8.109375 C 20.929688 -9.191406 21.46875 -10.5625 21.46875 -12.21875 C 21.46875 -13.894531 20.914062 -15.273438 19.8125 -16.359375 C 18.71875 -17.441406 17.378906 -17.984375 15.796875 -17.984375 C 14.171875 -17.984375 12.804688 -17.441406 11.703125 -16.359375 Z M 11.703125 -16.359375 "/></g></g></g><g fill="rgb(0%, 0%, 0%)" fill-opacity="1"><g transform="translate(161.198682, 164.656746)"><g><path d="M 2.859375 0 L 2.859375 -24.46875 L 11.3125 -24.46875 L 11.3125 -20.9375 L 11.40625 -20.9375 C 11.46875 -21.0625 11.566406 -21.21875 11.703125 -21.40625 C 11.847656 -21.601562 12.160156 -21.941406 12.640625 -22.421875 C 13.117188 -22.898438 13.628906 -23.328125 14.171875 -23.703125 C 14.710938 -24.085938 15.410156 -24.429688 16.265625 -24.734375 C 17.128906 -25.035156 18.003906 -25.1875 18.890625 -25.1875 C 19.816406 -25.1875 20.722656 -25.054688 21.609375 -24.796875 C 22.492188 -24.546875 23.144531 -24.296875 23.5625 -24.046875 L 24.234375 -23.65625 L 20.703125 -16.5 C 19.648438 -17.394531 18.1875 -17.84375 16.3125 -17.84375 C 15.289062 -17.84375 14.414062 -17.617188 13.6875 -17.171875 C 12.957031 -16.722656 12.441406 -16.179688 12.140625 -15.546875 C 11.835938 -14.910156 11.625 -14.367188 11.5 -13.921875 C 11.375 -13.484375 11.3125 -13.132812 11.3125 -12.875 L 11.3125 0 Z M 2.859375 0 "/></g></g></g><g fill="rgb(0%, 0%, 0%)" fill-opacity="1"><g transform="translate(184.950984, 164.656746)"><g><path d="M 30.8125 -24.46875 L 19.171875 -12.78125 L 31.96875 0 L 21.078125 0 L 11.3125 -9.78125 L 11.3125 0 L 2.859375 0 L 2.859375 -41.03125 L 11.3125 -41.03125 L 11.3125 -15.9375 L 19.84375 -24.46875 Z M 30.8125 -24.46875 "/></g></g></g><g fill="rgb(0%, 0%, 0%)" fill-opacity="1"><g transform="translate(215.762209, 164.656746)"><g><path d="M 27.625 -11.0625 L 9.875 -11.0625 C 9.875 -9.34375 10.429688 -8.070312 11.546875 -7.25 C 12.660156 -6.425781 13.867188 -6.015625 15.171875 -6.015625 C 16.535156 -6.015625 17.613281 -6.195312 18.40625 -6.5625 C 19.207031 -6.925781 20.113281 -7.648438 21.125 -8.734375 L 27.234375 -5.671875 C 24.691406 -1.410156 20.460938 0.71875 14.546875 0.71875 C 10.859375 0.71875 7.691406 -0.546875 5.046875 -3.078125 C 2.410156 -5.609375 1.09375 -8.65625 1.09375 -12.21875 C 1.09375 -15.78125 2.410156 -18.832031 5.046875 -21.375 C 7.691406 -23.914062 10.859375 -25.1875 14.546875 -25.1875 C 18.429688 -25.1875 21.585938 -24.066406 24.015625 -21.828125 C 26.453125 -19.585938 27.671875 -16.382812 27.671875 -12.21875 C 27.671875 -11.644531 27.65625 -11.257812 27.625 -11.0625 Z M 10.109375 -15.734375 L 19.421875 -15.734375 C 19.222656 -17.015625 18.71875 -17.992188 17.90625 -18.671875 C 17.101562 -19.359375 16.0625 -19.703125 14.78125 -19.703125 C 13.382812 -19.703125 12.269531 -19.332031 11.4375 -18.59375 C 10.613281 -17.863281 10.171875 -16.910156 10.109375 -15.734375 Z M 10.109375 -15.734375 "/></g></g></g><g fill="rgb(0%, 0%, 0%)" fill-opacity="1"><g transform="translate(244.522537, 164.656746)"><g><path d="M 4.296875 -24.46875 L 4.296875 -33.578125 L 12.734375 -33.578125 L 12.734375 -24.46875 L 17.890625 -24.46875 L 17.890625 -18.03125 L 12.734375 -18.03125 L 12.734375 -10.25 C 12.734375 -8 13.367188 -6.875 14.640625 -6.875 C 14.960938 -6.875 15.296875 -6.9375 15.640625 -7.0625 C 15.992188 -7.1875 16.265625 -7.3125 16.453125 -7.4375 L 16.75 -7.625 L 18.84375 -0.8125 C 17.03125 0.207031 14.960938 0.71875 12.640625 0.71875 C 11.046875 0.71875 9.675781 0.441406 8.53125 -0.109375 C 7.394531 -0.671875 6.53125 -1.421875 5.9375 -2.359375 C 5.351562 -3.296875 4.929688 -4.28125 4.671875 -5.3125 C 4.421875 -6.351562 4.296875 -7.460938 4.296875 -8.640625 L 4.296875 -18.03125 L 0.765625 -18.03125 L 0.765625 -24.46875 Z M 4.296875 -24.46875 "/></g></g></g><g fill="rgb(0%, 0%, 0%)" fill-opacity="1"><g transform="translate(83.502882, 206.656743)"><g><path d="M 1.09375 -19.703125 C 1.09375 -25.390625 3.03125 -30.207031 6.90625 -34.15625 C 10.789062 -38.101562 15.46875 -40.078125 20.9375 -40.078125 C 26.4375 -40.078125 31.109375 -38.109375 34.953125 -34.171875 C 38.804688 -30.242188 40.734375 -25.421875 40.734375 -19.703125 C 40.734375 -13.941406 38.84375 -9.097656 35.0625 -5.171875 C 31.28125 -1.242188 26.570312 0.71875 20.9375 0.71875 C 15.1875 0.71875 10.441406 -1.226562 6.703125 -5.125 C 2.960938 -9.019531 1.09375 -13.878906 1.09375 -19.703125 Z M 10.78125 -19.703125 C 10.78125 -17.628906 11.097656 -15.742188 11.734375 -14.046875 C 12.367188 -12.347656 13.476562 -10.910156 15.0625 -9.734375 C 16.65625 -8.554688 18.613281 -7.96875 20.9375 -7.96875 C 24.28125 -7.96875 26.800781 -9.109375 28.5 -11.390625 C 30.195312 -13.679688 31.046875 -16.453125 31.046875 -19.703125 C 31.046875 -22.910156 30.179688 -25.664062 28.453125 -27.96875 C 26.722656 -30.28125 24.21875 -31.4375 20.9375 -31.4375 C 17.695312 -31.4375 15.191406 -30.28125 13.421875 -27.96875 C 11.660156 -25.664062 10.78125 -22.910156 10.78125 -19.703125 Z M 10.78125 -19.703125 "/></g></g></g><g fill="rgb(0%, 0%, 0%)" fill-opacity="1"><g transform="translate(125.331744, 206.656743)"><g><path d="M 28.046875 -21.4375 C 30.335938 -18.945312 31.484375 -15.890625 31.484375 -12.265625 C 31.484375 -8.640625 30.335938 -5.566406 28.046875 -3.046875 C 25.753906 -0.535156 22.84375 0.71875 19.3125 0.71875 C 16.070312 0.71875 13.40625 -0.300781 11.3125 -2.34375 L 11.3125 12.40625 L 2.859375 12.40625 L 2.859375 -24.46875 L 11.203125 -24.46875 L 11.203125 -21.703125 L 11.3125 -21.703125 C 13.40625 -24.023438 16.070312 -25.1875 19.3125 -25.1875 C 22.84375 -25.1875 25.753906 -23.9375 28.046875 -21.4375 Z M 20.859375 -8.109375 C 21.960938 -9.191406 22.515625 -10.570312 22.515625 -12.25 C 22.515625 -13.9375 21.988281 -15.3125 20.9375 -16.375 C 19.894531 -17.445312 18.515625 -17.984375 16.796875 -17.984375 C 15.140625 -17.984375 13.773438 -17.441406 12.703125 -16.359375 C 11.640625 -15.273438 11.109375 -13.910156 11.109375 -12.265625 C 11.109375 -10.578125 11.65625 -9.191406 12.75 -8.109375 C 13.851562 -7.023438 15.203125 -6.484375 16.796875 -6.484375 C 18.410156 -6.484375 19.765625 -7.023438 20.859375 -8.109375 Z M 20.859375 -8.109375 "/></g></g></g><g fill="rgb(0%, 0%, 0%)" fill-opacity="1"><g transform="translate(157.907704, 206.656743)"><g><path d="M 27.625 -11.0625 L 9.875 -11.0625 C 9.875 -9.34375 10.429688 -8.070312 11.546875 -7.25 C 12.660156 -6.425781 13.867188 -6.015625 15.171875 -6.015625 C 16.535156 -6.015625 17.613281 -6.195312 18.40625 -6.5625 C 19.207031 -6.925781 20.113281 -7.648438 21.125 -8.734375 L 27.234375 -5.671875 C 24.691406 -1.410156 20.460938 0.71875 14.546875 0.71875 C 10.859375 0.71875 7.691406 -0.546875 5.046875 -3.078125 C 2.410156 -5.609375 1.09375 -8.65625 1.09375 -12.21875 C 1.09375 -15.78125 2.410156 -18.832031 5.046875 -21.375 C 7.691406 -23.914062 10.859375 -25.1875 14.546875 -25.1875 C 18.429688 -25.1875 21.585938 -24.066406 24.015625 -21.828125 C 26.453125 -19.585938 27.671875 -16.382812 27.671875 -12.21875 C 27.671875 -11.644531 27.65625 -11.257812 27.625 -11.0625 Z M 10.109375 -15.734375 L 19.421875 -15.734375 C 19.222656 -17.015625 18.71875 -17.992188 17.90625 -18.671875 C 17.101562 -19.359375 16.0625 -19.703125 14.78125 -19.703125 C 13.382812 -19.703125 12.269531 -19.332031 11.4375 -18.59375 C 10.613281 -17.863281 10.171875 -16.910156 10.109375 -15.734375 Z M 10.109375 -15.734375 "/></g></g></g><g fill="rgb(0%, 0%, 0%)" fill-opacity="1"><g transform="translate(186.668033, 206.656743)"><g><path d="M 2.859375 0 L 2.859375 -24.46875 L 11.3125 -24.46875 L 11.3125 -20.9375 L 11.40625 -20.9375 C 11.46875 -21.0625 11.566406 -21.21875 11.703125 -21.40625 C 11.847656 -21.601562 12.160156 -21.941406 12.640625 -22.421875 C 13.117188 -22.898438 13.628906 -23.328125 14.171875 -23.703125 C 14.710938 -24.085938 15.410156 -24.429688 16.265625 -24.734375 C 17.128906 -25.035156 18.003906 -25.1875 18.890625 -25.1875 C 19.816406 -25.1875 20.722656 -25.054688 21.609375 -24.796875 C 22.492188 -24.546875 23.144531 -24.296875 23.5625 -24.046875 L 24.234375 -23.65625 L 20.703125 -16.5 C 19.648438 -17.394531 18.1875 -17.84375 16.3125 -17.84375 C 15.289062 -17.84375 14.414062 -17.617188 13.6875 -17.171875 C 12.957031 -16.722656 12.441406 -16.179688 12.140625 -15.546875 C 11.835938 -14.910156 11.625 -14.367188 11.5 -13.921875 C 11.375 -13.484375 11.3125 -13.132812 11.3125 -12.875 L 11.3125 0 Z M 2.859375 0 "/></g></g></g><g fill="rgb(0%, 0%, 0%)" fill-opacity="1"><g transform="translate(210.420335, 206.656743)"><g><path d="M 4.53125 -3.03125 C 2.238281 -5.53125 1.09375 -8.59375 1.09375 -12.21875 C 1.09375 -15.84375 2.238281 -18.910156 4.53125 -21.421875 C 6.820312 -23.929688 9.734375 -25.1875 13.265625 -25.1875 C 16.503906 -25.1875 19.175781 -24.171875 21.28125 -22.140625 L 21.28125 -24.46875 L 29.71875 -24.46875 L 29.71875 0 L 21.375 0 L 21.375 -2.765625 L 21.28125 -2.765625 C 19.175781 -0.441406 16.503906 0.71875 13.265625 0.71875 C 9.734375 0.71875 6.820312 -0.53125 4.53125 -3.03125 Z M 11.703125 -16.359375 C 10.609375 -15.273438 10.0625 -13.890625 10.0625 -12.203125 C 10.0625 -10.523438 10.585938 -9.148438 11.640625 -8.078125 C 12.691406 -7.015625 14.078125 -6.484375 15.796875 -6.484375 C 17.441406 -6.484375 18.796875 -7.023438 19.859375 -8.109375 C 20.929688 -9.191406 21.46875 -10.5625 21.46875 -12.21875 C 21.46875 -13.894531 20.914062 -15.273438 19.8125 -16.359375 C 18.71875 -17.441406 17.378906 -17.984375 15.796875 -17.984375 C 14.171875 -17.984375 12.804688 -17.441406 11.703125 -16.359375 Z M 11.703125 -16.359375 "/></g></g></g><g fill="rgb(0%, 0%, 0%)" fill-opacity="1"><g transform="translate(242.996295, 206.656743)"><g><path d="M 4.296875 -24.46875 L 4.296875 -33.578125 L 12.734375 -33.578125 L 12.734375 -24.46875 L 17.890625 -24.46875 L 17.890625 -18.03125 L 12.734375 -18.03125 L 12.734375 -10.25 C 12.734375 -8 13.367188 -6.875 14.640625 -6.875 C 14.960938 -6.875 15.296875 -6.9375 15.640625 -7.0625 C 15.992188 -7.1875 16.265625 -7.3125 16.453125 -7.4375 L 16.75 -7.625 L 18.84375 -0.8125 C 17.03125 0.207031 14.960938 0.71875 12.640625 0.71875 C 11.046875 0.71875 9.675781 0.441406 8.53125 -0.109375 C 7.394531 -0.671875 6.53125 -1.421875 5.9375 -2.359375 C 5.351562 -3.296875 4.929688 -4.28125 4.671875 -5.3125 C 4.421875 -6.351562 4.296875 -7.460938 4.296875 -8.640625 L 4.296875 -18.03125 L 0.765625 -18.03125 L 0.765625 -24.46875 Z M 4.296875 -24.46875 "/></g></g></g><g fill="rgb(0%, 0%, 0%)" fill-opacity="1"><g transform="translate(261.835981, 206.656743)"><g><path d="M 3.671875 -38.109375 C 4.660156 -39.097656 5.835938 -39.59375 7.203125 -39.59375 C 8.566406 -39.59375 9.742188 -39.097656 10.734375 -38.109375 C 11.722656 -37.128906 12.21875 -35.953125 12.21875 -34.578125 C 12.21875 -33.210938 11.722656 -32.035156 10.734375 -31.046875 C 9.742188 -30.066406 8.566406 -29.578125 7.203125 -29.578125 C 5.835938 -29.578125 4.660156 -30.066406 3.671875 -31.046875 C 2.679688 -32.035156 2.1875 -33.210938 2.1875 -34.578125 C 2.1875 -35.953125 2.679688 -37.128906 3.671875 -38.109375 Z M 2.859375 -24.46875 L 2.859375 0 L 11.3125 0 L 11.3125 -24.46875 Z M 2.859375 -24.46875 "/></g></g></g><g fill="rgb(0%, 0%, 0%)" fill-opacity="1"><g transform="translate(276.240006, 206.656743)"><g><path d="M 5.171875 -2.90625 C 2.453125 -5.320312 1.09375 -8.421875 1.09375 -12.203125 C 1.09375 -15.992188 2.507812 -19.101562 5.34375 -21.53125 C 8.175781 -23.96875 11.675781 -25.1875 15.84375 -25.1875 C 19.9375 -25.1875 23.390625 -23.960938 26.203125 -21.515625 C 29.023438 -19.066406 30.4375 -15.960938 30.4375 -12.203125 C 30.4375 -8.453125 29.0625 -5.359375 26.3125 -2.921875 C 23.5625 -0.492188 20.070312 0.71875 15.84375 0.71875 C 11.445312 0.71875 7.890625 -0.488281 5.171875 -2.90625 Z M 11.703125 -16.359375 C 10.609375 -15.273438 10.0625 -13.890625 10.0625 -12.203125 C 10.0625 -10.523438 10.585938 -9.148438 11.640625 -8.078125 C 12.691406 -7.015625 14.078125 -6.484375 15.796875 -6.484375 C 17.441406 -6.484375 18.796875 -7.023438 19.859375 -8.109375 C 20.929688 -9.191406 21.46875 -10.5625 21.46875 -12.21875 C 21.46875 -13.894531 20.914062 -15.273438 19.8125 -16.359375 C 18.71875 -17.441406 17.378906 -17.984375 15.796875 -17.984375 C 14.171875 -17.984375 12.804688 -17.441406 11.703125 -16.359375 Z M 11.703125 -16.359375 "/></g></g></g><g fill="rgb(0%, 0%, 0%)" fill-opacity="1"><g transform="translate(307.766646, 206.656743)"><g><path d="M 2.859375 0 L 2.859375 -24.46875 L 11.3125 -24.46875 L 11.3125 -21.890625 L 11.40625 -21.890625 C 13.59375 -24.085938 15.925781 -25.1875 18.40625 -25.1875 C 19.613281 -25.1875 20.8125 -25.023438 22 -24.703125 C 23.195312 -24.390625 24.34375 -23.898438 25.4375 -23.234375 C 26.539062 -22.566406 27.429688 -21.617188 28.109375 -20.390625 C 28.796875 -19.171875 29.140625 -17.75 29.140625 -16.125 L 29.140625 0 L 20.703125 0 L 20.703125 -13.828125 C 20.703125 -15.097656 20.296875 -16.210938 19.484375 -17.171875 C 18.671875 -18.128906 17.613281 -18.609375 16.3125 -18.609375 C 15.039062 -18.609375 13.890625 -18.113281 12.859375 -17.125 C 11.828125 -16.132812 11.3125 -15.035156 11.3125 -13.828125 L 11.3125 0 Z M 2.859375 0 "/></g></g></g><g fill="rgb(0%, 0%, 0%)" fill-opacity="1"><g transform="translate(83.502882, 238.29807)"><g><path d="M 0.953125 -13.203125 L 4.78125 -13.203125 C 6.613281 -13.203125 8.179688 -12.570312 9.484375 -11.3125 C 10.785156 -10.0625 11.4375 -8.492188 11.4375 -6.609375 C 11.4375 -4.710938 10.785156 -3.132812 9.484375 -1.875 C 8.191406 -0.625 6.625 0 4.78125 0 L 0.953125 0 Z M 3.96875 -2.6875 L 4.4375 -2.6875 C 5.53125 -2.6875 6.425781 -3.054688 7.125 -3.796875 C 7.820312 -4.535156 8.175781 -5.46875 8.1875 -6.59375 C 8.1875 -7.707031 7.835938 -8.640625 7.140625 -9.390625 C 6.441406 -10.140625 5.539062 -10.515625 4.4375 -10.515625 L 3.96875 -10.515625 Z M 3.96875 -2.6875 "/></g></g></g><g fill="rgb(0%, 0%, 0%)" fill-opacity="1"><g transform="translate(95.308046, 238.29807)"><g><path d="M 1.515625 -1.015625 C 0.753906 -1.847656 0.375 -2.875 0.375 -4.09375 C 0.375 -5.3125 0.753906 -6.34375 1.515625 -7.1875 C 2.285156 -8.03125 3.265625 -8.453125 4.453125 -8.453125 C 5.535156 -8.453125 6.429688 -8.109375 7.140625 -7.421875 L 7.140625 -8.203125 L 9.96875 -8.203125 L 9.96875 0 L 7.171875 0 L 7.171875 -0.921875 L 7.140625 -0.921875 C 6.429688 -0.148438 5.535156 0.234375 4.453125 0.234375 C 3.265625 0.234375 2.285156 -0.179688 1.515625 -1.015625 Z M 3.921875 -5.484375 C 3.554688 -5.117188 3.375 -4.65625 3.375 -4.09375 C 3.375 -3.53125 3.550781 -3.066406 3.90625 -2.703125 C 4.257812 -2.347656 4.722656 -2.171875 5.296875 -2.171875 C 5.847656 -2.171875 6.300781 -2.351562 6.65625 -2.71875 C 7.019531 -3.082031 7.203125 -3.539062 7.203125 -4.09375 C 7.203125 -4.65625 7.015625 -5.117188 6.640625 -5.484375 C 6.273438 -5.847656 5.828125 -6.03125 5.296875 -6.03125 C 4.753906 -6.03125 4.296875 -5.847656 3.921875 -5.484375 Z M 3.921875 -5.484375 "/></g></g></g><g fill="rgb(0%, 0%, 0%)" fill-opacity="1"><g transform="translate(106.233422, 238.29807)"><g><path d="M 1.4375 -8.203125 L 1.4375 -9.953125 C 1.445312 -11.179688 1.734375 -12.160156 2.296875 -12.890625 C 2.867188 -13.628906 3.65625 -14 4.65625 -14 C 5.082031 -14 5.488281 -13.9375 5.875 -13.8125 C 6.269531 -13.6875 6.550781 -13.5625 6.71875 -13.4375 L 6.984375 -13.265625 L 6 -11.265625 C 5.738281 -11.410156 5.457031 -11.484375 5.15625 -11.484375 C 4.800781 -11.484375 4.5625 -11.363281 4.4375 -11.125 C 4.320312 -10.882812 4.265625 -10.46875 4.265625 -9.875 L 4.265625 -8.203125 L 6.15625 -8.203125 L 6.15625 -6.046875 L 4.265625 -6.046875 L 4.265625 0 L 1.4375 0 L 1.4375 -6.046875 L 0.25 -6.046875 L 0.25 -8.203125 Z M 1.4375 -8.203125 "/></g></g></g><g fill="rgb(0%, 0%, 0%)" fill-opacity="1"><g transform="translate(112.23198, 238.29807)"><g><path d="M 1.4375 -8.203125 L 1.4375 -11.265625 L 4.265625 -11.265625 L 4.265625 -8.203125 L 6 -8.203125 L 6 -6.046875 L 4.265625 -6.046875 L 4.265625 -3.4375 C 4.265625 -2.675781 4.476562 -2.296875 4.90625 -2.296875 C 5.019531 -2.296875 5.132812 -2.316406 5.25 -2.359375 C 5.363281 -2.410156 5.453125 -2.457031 5.515625 -2.5 L 5.609375 -2.5625 L 6.3125 -0.265625 C 5.707031 0.0664062 5.015625 0.234375 4.234375 0.234375 C 3.703125 0.234375 3.242188 0.144531 2.859375 -0.03125 C 2.472656 -0.21875 2.179688 -0.46875 1.984375 -0.78125 C 1.796875 -1.101562 1.65625 -1.4375 1.5625 -1.78125 C 1.476562 -2.125 1.4375 -2.492188 1.4375 -2.890625 L 1.4375 -6.046875 L 0.25 -6.046875 L 0.25 -8.203125 Z M 1.4375 -8.203125 "/></g></g></g><g fill="rgb(0%, 0%, 0%)" fill-opacity="1"><g transform="translate(118.550457, 238.29807)"><g><path d="M 1.515625 -1.015625 C 0.753906 -1.847656 0.375 -2.875 0.375 -4.09375 C 0.375 -5.3125 0.753906 -6.34375 1.515625 -7.1875 C 2.285156 -8.03125 3.265625 -8.453125 4.453125 -8.453125 C 5.535156 -8.453125 6.429688 -8.109375 7.140625 -7.421875 L 7.140625 -8.203125 L 9.96875 -8.203125 L 9.96875 0 L 7.171875 0 L 7.171875 -0.921875 L 7.140625 -0.921875 C 6.429688 -0.148438 5.535156 0.234375 4.453125 0.234375 C 3.265625 0.234375 2.285156 -0.179688 1.515625 -1.015625 Z M 3.921875 -5.484375 C 3.554688 -5.117188 3.375 -4.65625 3.375 -4.09375 C 3.375 -3.53125 3.550781 -3.066406 3.90625 -2.703125 C 4.257812 -2.347656 4.722656 -2.171875 5.296875 -2.171875 C 5.847656 -2.171875 6.300781 -2.351562 6.65625 -2.71875 C 7.019531 -3.082031 7.203125 -3.539062 7.203125 -4.09375 C 7.203125 -4.65625 7.015625 -5.117188 6.640625 -5.484375 C 6.273438 -5.847656 5.828125 -6.03125 5.296875 -6.03125 C 4.753906 -6.03125 4.296875 -5.847656 3.921875 -5.484375 Z M 3.921875 -5.484375 "/></g></g></g><g fill="rgb(0%, 0%, 0%)" fill-opacity="1"><g transform="translate(129.475833, 238.29807)"><g><path d="M 0.953125 0 L 0.953125 -8.203125 L 3.796875 -8.203125 L 3.796875 -7.03125 L 3.828125 -7.03125 C 3.847656 -7.070312 3.878906 -7.125 3.921875 -7.1875 C 3.972656 -7.25 4.078125 -7.359375 4.234375 -7.515625 C 4.398438 -7.679688 4.570312 -7.828125 4.75 -7.953125 C 4.9375 -8.078125 5.171875 -8.191406 5.453125 -8.296875 C 5.742188 -8.398438 6.039062 -8.453125 6.34375 -8.453125 C 6.644531 -8.453125 6.945312 -8.40625 7.25 -8.3125 C 7.550781 -8.226562 7.769531 -8.144531 7.90625 -8.0625 L 8.125 -7.9375 L 6.9375 -5.53125 C 6.59375 -5.832031 6.101562 -5.984375 5.46875 -5.984375 C 5.125 -5.984375 4.828125 -5.90625 4.578125 -5.75 C 4.335938 -5.601562 4.164062 -5.421875 4.0625 -5.203125 C 3.96875 -4.992188 3.898438 -4.816406 3.859375 -4.671875 C 3.816406 -4.523438 3.796875 -4.40625 3.796875 -4.3125 L 3.796875 0 Z M 0.953125 0 "/></g></g></g><g fill="rgb(0%, 0%, 0%)" fill-opacity="1"><g transform="translate(137.441916, 238.29807)"><g/></g></g><g fill="rgb(0%, 0%, 0%)" fill-opacity="1"><g transform="translate(141.808867, 238.29807)"><g><path d="M 0.953125 -13.203125 L 5.78125 -13.203125 C 7.125 -13.203125 8.207031 -12.851562 9.03125 -12.15625 C 9.863281 -11.46875 10.28125 -10.460938 10.28125 -9.140625 C 10.28125 -7.816406 9.859375 -6.773438 9.015625 -6.015625 C 8.179688 -5.265625 7.101562 -4.890625 5.78125 -4.890625 L 3.96875 -4.890625 L 3.96875 0 L 0.953125 0 Z M 3.96875 -7.296875 L 4.8125 -7.296875 C 5.488281 -7.296875 6.039062 -7.429688 6.46875 -7.703125 C 6.90625 -7.972656 7.125 -8.421875 7.125 -9.046875 C 7.125 -9.671875 6.90625 -10.117188 6.46875 -10.390625 C 6.039062 -10.660156 5.488281 -10.796875 4.8125 -10.796875 L 3.96875 -10.796875 Z M 3.96875 -7.296875 "/></g></g></g><g fill="rgb(0%, 0%, 0%)" fill-opacity="1"><g transform="translate(152.462308, 238.29807)"><g><path d="M 9.265625 -3.71875 L 3.3125 -3.71875 C 3.3125 -3.132812 3.5 -2.703125 3.875 -2.421875 C 4.25 -2.148438 4.65625 -2.015625 5.09375 -2.015625 C 5.550781 -2.015625 5.910156 -2.078125 6.171875 -2.203125 C 6.441406 -2.328125 6.75 -2.566406 7.09375 -2.921875 L 9.140625 -1.90625 C 8.285156 -0.476562 6.863281 0.234375 4.875 0.234375 C 3.644531 0.234375 2.585938 -0.1875 1.703125 -1.03125 C 0.816406 -1.875 0.375 -2.894531 0.375 -4.09375 C 0.375 -5.289062 0.816406 -6.316406 1.703125 -7.171875 C 2.585938 -8.023438 3.644531 -8.453125 4.875 -8.453125 C 6.175781 -8.453125 7.234375 -8.070312 8.046875 -7.3125 C 8.867188 -6.5625 9.28125 -5.488281 9.28125 -4.09375 C 9.28125 -3.90625 9.273438 -3.78125 9.265625 -3.71875 Z M 3.390625 -5.28125 L 6.515625 -5.28125 C 6.453125 -5.707031 6.28125 -6.035156 6 -6.265625 C 5.726562 -6.492188 5.378906 -6.609375 4.953125 -6.609375 C 4.484375 -6.609375 4.109375 -6.484375 3.828125 -6.234375 C 3.554688 -5.992188 3.410156 -5.675781 3.390625 -5.28125 Z M 3.390625 -5.28125 "/></g></g></g><g fill="rgb(0%, 0%, 0%)" fill-opacity="1"><g transform="translate(162.107995, 238.29807)"><g><path d="M 0.953125 0 L 0.953125 -8.203125 L 3.796875 -8.203125 L 3.796875 -7.03125 L 3.828125 -7.03125 C 3.847656 -7.070312 3.878906 -7.125 3.921875 -7.1875 C 3.972656 -7.25 4.078125 -7.359375 4.234375 -7.515625 C 4.398438 -7.679688 4.570312 -7.828125 4.75 -7.953125 C 4.9375 -8.078125 5.171875 -8.191406 5.453125 -8.296875 C 5.742188 -8.398438 6.039062 -8.453125 6.34375 -8.453125 C 6.644531 -8.453125 6.945312 -8.40625 7.25 -8.3125 C 7.550781 -8.226562 7.769531 -8.144531 7.90625 -8.0625 L 8.125 -7.9375 L 6.9375 -5.53125 C 6.59375 -5.832031 6.101562 -5.984375 5.46875 -5.984375 C 5.125 -5.984375 4.828125 -5.90625 4.578125 -5.75 C 4.335938 -5.601562 4.164062 -5.421875 4.0625 -5.203125 C 3.96875 -4.992188 3.898438 -4.816406 3.859375 -4.671875 C 3.816406 -4.523438 3.796875 -4.40625 3.796875 -4.3125 L 3.796875 0 Z M 0.953125 0 "/></g></g></g><g fill="rgb(0%, 0%, 0%)" fill-opacity="1"><g transform="translate(170.074078, 238.29807)"><g><path d="M 0.953125 0 L 0.953125 -8.203125 L 3.796875 -8.203125 L 3.796875 -7.34375 L 3.828125 -7.34375 C 4.554688 -8.082031 5.335938 -8.453125 6.171875 -8.453125 C 6.578125 -8.453125 6.976562 -8.394531 7.375 -8.28125 C 7.78125 -8.175781 8.164062 -8.007812 8.53125 -7.78125 C 8.90625 -7.5625 9.207031 -7.242188 9.4375 -6.828125 C 9.664062 -6.421875 9.78125 -5.945312 9.78125 -5.40625 L 9.78125 0 L 6.9375 0 L 6.9375 -4.640625 C 6.9375 -5.066406 6.800781 -5.4375 6.53125 -5.75 C 6.257812 -6.070312 5.90625 -6.234375 5.46875 -6.234375 C 5.039062 -6.234375 4.65625 -6.066406 4.3125 -5.734375 C 3.96875 -5.410156 3.796875 -5.046875 3.796875 -4.640625 L 3.796875 0 Z M 0.953125 0 "/></g></g></g><g fill="rgb(0%, 0%, 0%)" fill-opacity="1"><g transform="translate(180.647537, 238.29807)"><g><path d="M 1.234375 -12.78125 C 1.566406 -13.113281 1.960938 -13.28125 2.421875 -13.28125 C 2.878906 -13.28125 3.269531 -13.113281 3.59375 -12.78125 C 3.925781 -12.445312 4.09375 -12.050781 4.09375 -11.59375 C 4.09375 -11.132812 3.925781 -10.738281 3.59375 -10.40625 C 3.269531 -10.082031 2.878906 -9.921875 2.421875 -9.921875 C 1.960938 -9.921875 1.566406 -10.082031 1.234375 -10.40625 C 0.898438 -10.738281 0.734375 -11.132812 0.734375 -11.59375 C 0.734375 -12.050781 0.898438 -12.445312 1.234375 -12.78125 Z M 0.953125 -8.203125 L 0.953125 0 L 3.796875 0 L 3.796875 -8.203125 Z M 0.953125 -8.203125 "/></g></g></g><g fill="rgb(0%, 0%, 0%)" fill-opacity="1"><g transform="translate(185.478374, 238.29807)"><g><path d="M 1.515625 -1.015625 C 0.753906 -1.847656 0.375 -2.875 0.375 -4.09375 C 0.375 -5.3125 0.753906 -6.34375 1.515625 -7.1875 C 2.285156 -8.03125 3.265625 -8.453125 4.453125 -8.453125 C 5.535156 -8.453125 6.429688 -8.109375 7.140625 -7.421875 L 7.140625 -8.203125 L 9.96875 -8.203125 L 9.96875 0 L 7.171875 0 L 7.171875 -0.921875 L 7.140625 -0.921875 C 6.429688 -0.148438 5.535156 0.234375 4.453125 0.234375 C 3.265625 0.234375 2.285156 -0.179688 1.515625 -1.015625 Z M 3.921875 -5.484375 C 3.554688 -5.117188 3.375 -4.65625 3.375 -4.09375 C 3.375 -3.53125 3.550781 -3.066406 3.90625 -2.703125 C 4.257812 -2.347656 4.722656 -2.171875 5.296875 -2.171875 C 5.847656 -2.171875 6.300781 -2.351562 6.65625 -2.71875 C 7.019531 -3.082031 7.203125 -3.539062 7.203125 -4.09375 C 7.203125 -4.65625 7.015625 -5.117188 6.640625 -5.484375 C 6.273438 -5.847656 5.828125 -6.03125 5.296875 -6.03125 C 4.753906 -6.03125 4.296875 -5.847656 3.921875 -5.484375 Z M 3.921875 -5.484375 "/></g></g></g><g fill="rgb(0%, 0%, 0%)" fill-opacity="1"><g transform="translate(196.40375, 238.29807)"><g><path d="M 0.59375 2.015625 L 2.90625 0.875 C 3.332031 1.582031 4.078125 1.9375 5.140625 1.9375 C 5.628906 1.9375 6.082031 1.773438 6.5 1.453125 C 6.925781 1.140625 7.140625 0.660156 7.140625 0.015625 L 7.140625 -0.59375 C 6.640625 -0.0390625 5.742188 0.234375 4.453125 0.234375 C 3.265625 0.234375 2.285156 -0.179688 1.515625 -1.015625 C 0.753906 -1.847656 0.375 -2.875 0.375 -4.09375 C 0.375 -5.3125 0.753906 -6.34375 1.515625 -7.1875 C 2.285156 -8.03125 3.265625 -8.453125 4.453125 -8.453125 C 5.503906 -8.453125 6.382812 -8.125 7.09375 -7.46875 L 7.140625 -7.46875 L 7.140625 -8.203125 L 9.96875 -8.203125 L 9.96875 0.21875 C 9.96875 1.550781 9.523438 2.582031 8.640625 3.3125 C 7.753906 4.039062 6.585938 4.40625 5.140625 4.40625 C 2.785156 4.40625 1.269531 3.609375 0.59375 2.015625 Z M 3.921875 -5.484375 C 3.554688 -5.117188 3.375 -4.65625 3.375 -4.09375 C 3.375 -3.53125 3.550781 -3.066406 3.90625 -2.703125 C 4.257812 -2.347656 4.722656 -2.171875 5.296875 -2.171875 C 5.847656 -2.171875 6.300781 -2.351562 6.65625 -2.71875 C 7.019531 -3.082031 7.203125 -3.539062 7.203125 -4.09375 C 7.203125 -4.65625 7.015625 -5.117188 6.640625 -5.484375 C 6.273438 -5.847656 5.828125 -6.03125 5.296875 -6.03125 C 4.753906 -6.03125 4.296875 -5.847656 3.921875 -5.484375 Z M 3.921875 -5.484375 "/></g></g></g><g fill="rgb(0%, 0%, 0%)" fill-opacity="1"><g transform="translate(207.329126, 238.29807)"><g><path d="M 1.515625 -1.015625 C 0.753906 -1.847656 0.375 -2.875 0.375 -4.09375 C 0.375 -5.3125 0.753906 -6.34375 1.515625 -7.1875 C 2.285156 -8.03125 3.265625 -8.453125 4.453125 -8.453125 C 5.535156 -8.453125 6.429688 -8.109375 7.140625 -7.421875 L 7.140625 -8.203125 L 9.96875 -8.203125 L 9.96875 0 L 7.171875 0 L 7.171875 -0.921875 L 7.140625 -0.921875 C 6.429688 -0.148438 5.535156 0.234375 4.453125 0.234375 C 3.265625 0.234375 2.285156 -0.179688 1.515625 -1.015625 Z M 3.921875 -5.484375 C 3.554688 -5.117188 3.375 -4.65625 3.375 -4.09375 C 3.375 -3.53125 3.550781 -3.066406 3.90625 -2.703125 C 4.257812 -2.347656 4.722656 -2.171875 5.296875 -2.171875 C 5.847656 -2.171875 6.300781 -2.351562 6.65625 -2.71875 C 7.019531 -3.082031 7.203125 -3.539062 7.203125 -4.09375 C 7.203125 -4.65625 7.015625 -5.117188 6.640625 -5.484375 C 6.273438 -5.847656 5.828125 -6.03125 5.296875 -6.03125 C 4.753906 -6.03125 4.296875 -5.847656 3.921875 -5.484375 Z M 3.921875 -5.484375 "/></g></g></g><g fill="rgb(0%, 0%, 0%)" fill-opacity="1"><g transform="translate(218.254502, 238.29807)"><g><path d="M 1.515625 -1.015625 C 0.753906 -1.847656 0.375 -2.875 0.375 -4.09375 C 0.375 -5.3125 0.753906 -6.34375 1.515625 -7.1875 C 2.285156 -8.03125 3.265625 -8.453125 4.453125 -8.453125 C 5.535156 -8.453125 6.429688 -8.109375 7.140625 -7.421875 L 7.140625 -8.203125 L 9.96875 -8.203125 L 9.96875 0 L 7.171875 0 L 7.171875 -0.921875 L 7.140625 -0.921875 C 6.429688 -0.148438 5.535156 0.234375 4.453125 0.234375 C 3.265625 0.234375 2.285156 -0.179688 1.515625 -1.015625 Z M 3.921875 -5.484375 C 3.554688 -5.117188 3.375 -4.65625 3.375 -4.09375 C 3.375 -3.53125 3.550781 -3.066406 3.90625 -2.703125 C 4.257812 -2.347656 4.722656 -2.171875 5.296875 -2.171875 C 5.847656 -2.171875 6.300781 -2.351562 6.65625 -2.71875 C 7.019531 -3.082031 7.203125 -3.539062 7.203125 -4.09375 C 7.203125 -4.65625 7.015625 -5.117188 6.640625 -5.484375 C 6.273438 -5.847656 5.828125 -6.03125 5.296875 -6.03125 C 4.753906 -6.03125 4.296875 -5.847656 3.921875 -5.484375 Z M 3.921875 -5.484375 "/></g></g></g><g fill="rgb(0%, 0%, 0%)" fill-opacity="1"><g transform="translate(229.179878, 238.29807)"><g><path d="M 0.953125 0 L 0.953125 -8.203125 L 3.796875 -8.203125 L 3.796875 -7.34375 L 3.828125 -7.34375 C 4.554688 -8.082031 5.335938 -8.453125 6.171875 -8.453125 C 6.578125 -8.453125 6.976562 -8.394531 7.375 -8.28125 C 7.78125 -8.175781 8.164062 -8.007812 8.53125 -7.78125 C 8.90625 -7.5625 9.207031 -7.242188 9.4375 -6.828125 C 9.664062 -6.421875 9.78125 -5.945312 9.78125 -5.40625 L 9.78125 0 L 6.9375 0 L 6.9375 -4.640625 C 6.9375 -5.066406 6.800781 -5.4375 6.53125 -5.75 C 6.257812 -6.070312 5.90625 -6.234375 5.46875 -6.234375 C 5.039062 -6.234375 4.65625 -6.066406 4.3125 -5.734375 C 3.96875 -5.410156 3.796875 -5.046875 3.796875 -4.640625 L 3.796875 0 Z M 0.953125 0 "/></g></g></g></svg>