<svg xmlns="http://www.w3.org/2000/svg" xmlns:xlink="http://www.w3.org/1999/xlink" width="500" zoomAndPan="magnify" viewBox="0 0 375 374.999991" height="500" preserveAspectRatio="xMidYMid meet" version="1.0"><defs><g/><clipPath id="id1"><path d="M 189 160.738281 L 218.402344 160.738281 L 218.402344 192.238281 L 189 192.238281 Z M 189 160.738281 " clip-rule="nonzero"/></clipPath><clipPath id="id2"><path d="M 156.902344 160.738281 L 186 160.738281 L 186 192.238281 L 156.902344 192.238281 Z M 156.902344 160.738281 " clip-rule="nonzero"/></clipPath></defs><rect x="-37.5" width="450" fill="rgb(100%, 98.039246%, 95.689392%)" y="-37.499999" height="449.999989" fill-opacity="1"/><rect x="-37.5" width="450" fill="rgb(100%, 100%, 100%)" y="-37.499999" height="449.999989" fill-opacity="1"/><rect x="-37.5" width="450" fill="rgb(100%, 98.039246%, 95.689392%)" y="-37.499999" height="449.999989" fill-opacity="1"/><g clip-path="url(#id1)"><path fill="rgb(32.939148%, 32.939148%, 32.939148%)" d="M 191.5 192.230469 L 208.796875 192.230469 C 211.445312 192.230469 213.847656 191.152344 215.585938 189.414062 C 217.324219 187.675781 218.40625 185.273438 218.40625 182.628906 L 218.40625 170.347656 C 218.40625 167.703125 217.324219 165.300781 215.585938 163.5625 C 213.847656 161.824219 211.445312 160.746094 208.796875 160.746094 L 199.367188 160.746094 C 197.988281 160.746094 197.109375 160.9375 196.523438 162.25 C 196.027344 163.347656 195.339844 164.34375 194.496094 165.183594 C 192.960938 166.71875 191.984375 167.128906 190.589844 167.582031 C 189.902344 167.917969 189.425781 168.628906 189.425781 169.445312 L 189.425781 173.761719 C 189.425781 175.160156 190.277344 175.773438 191.558594 175.476562 C 194.835938 174.71875 197.765625 173.046875 200.066406 170.75 C 200.527344 170.285156 200.75 170.347656 201.34375 170.347656 L 206.828125 170.347656 C 208 170.347656 208.957031 171.304688 208.957031 172.472656 L 208.957031 180.503906 C 208.957031 181.671875 208 182.628906 206.828125 182.628906 L 191.5 182.628906 C 190.355469 182.628906 189.425781 183.554688 189.425781 184.703125 L 189.425781 190.15625 C 189.425781 191.300781 190.355469 192.230469 191.5 192.230469 " fill-opacity="1" fill-rule="evenodd"/></g><g clip-path="url(#id2)"><path fill="rgb(32.939148%, 32.939148%, 32.939148%)" d="M 183.804688 182.628906 L 168.480469 182.628906 C 167.308594 182.628906 166.351562 181.671875 166.351562 180.503906 L 166.351562 172.472656 C 166.351562 171.304688 167.308594 170.347656 168.480469 170.347656 L 173.832031 170.347656 C 174.675781 170.347656 174.667969 170.175781 175.242188 170.75 C 177.597656 173.101562 180.609375 174.792969 183.976562 175.527344 C 185.160156 175.785156 185.882812 174.898438 185.882812 173.761719 L 185.882812 169.445312 C 185.882812 168.628906 185.40625 167.917969 184.714844 167.582031 C 183.324219 167.128906 182.347656 166.71875 180.8125 165.183594 C 179.976562 164.351562 179.292969 163.367188 178.800781 162.277344 C 178.152344 160.851562 177.320312 160.746094 175.761719 160.746094 L 166.511719 160.746094 C 163.863281 160.746094 161.460938 161.824219 159.722656 163.5625 C 157.984375 165.300781 156.902344 167.703125 156.902344 170.347656 L 156.902344 182.628906 C 156.902344 185.273438 157.984375 187.675781 159.722656 189.414062 C 161.460938 191.152344 163.863281 192.230469 166.511719 192.230469 L 183.804688 192.230469 C 184.953125 192.230469 185.882812 191.300781 185.882812 190.15625 L 185.882812 184.703125 C 185.882812 183.554688 184.953125 182.628906 183.804688 182.628906 " fill-opacity="1" fill-rule="evenodd"/></g><g fill="rgb(32.939148%, 32.939148%, 32.939148%)" fill-opacity="1"><g transform="translate(100.617185, 227.446859)"><g><path d="M 11.09375 0.378906 C 15.617188 0.378906 21.050781 -1.558594 21.050781 -7.902344 C 21.050781 -13.449219 16.945312 -14.703125 13.183594 -15.539062 C 10.21875 -16.1875 7.523438 -16.488281 7.523438 -18.960938 C 7.523438 -20.707031 8.851562 -21.582031 10.867188 -21.582031 C 12.765625 -21.582031 14.25 -20.820312 14.667969 -18.695312 C 14.742188 -18.199219 15.007812 -17.972656 15.464844 -17.972656 L 19.566406 -17.972656 C 20.0625 -17.972656 20.328125 -18.238281 20.289062 -18.769531 C 19.871094 -24.050781 15.3125 -26.214844 10.980469 -26.214844 C 6.460938 -26.214844 1.824219 -23.785156 1.824219 -18.160156 C 1.824219 -13.449219 5.089844 -12.082031 8.167969 -11.246094 C 11.703125 -10.296875 15.351562 -10.144531 15.351562 -7.066406 C 15.351562 -4.9375 13.5625 -4.253906 11.664062 -4.253906 C 9.195312 -4.253906 7.332031 -5.433594 6.992188 -7.789062 C 6.953125 -8.246094 6.6875 -8.511719 6.230469 -8.511719 L 1.785156 -8.511719 C 1.292969 -8.511719 1.027344 -8.246094 1.027344 -7.75 C 1.328125 -1.976562 6.117188 0.378906 11.09375 0.378906 Z M 11.09375 0.378906 "/></g></g></g><g fill="rgb(32.939148%, 32.939148%, 32.939148%)" fill-opacity="1"><g transform="translate(122.84264, 227.446859)"><g><path d="M 13.261719 -17.363281 C 10.371094 -17.363281 7.996094 -16.109375 6.535156 -14 C 5.605469 -15.617188 4.007812 -16.679688 1.824219 -17.136719 L 1.824219 1.519531 C 1.824219 6.460938 3.835938 9.117188 7.523438 9.5 L 7.523438 -1.597656 C 8.96875 -0.191406 10.941406 0.609375 13.261719 0.609375 C 18.199219 0.609375 21.621094 -3.078125 21.621094 -8.398438 C 21.621094 -13.679688 18.199219 -17.363281 13.261719 -17.363281 Z M 11.511719 -3.953125 C 9.195312 -3.953125 7.523438 -5.773438 7.523438 -8.359375 C 7.523438 -10.941406 9.195312 -12.765625 11.511719 -12.765625 C 13.832031 -12.765625 15.503906 -10.941406 15.503906 -8.359375 C 15.503906 -5.773438 13.832031 -3.953125 11.511719 -3.953125 Z M 11.511719 -3.953125 "/></g></g></g><g fill="rgb(32.939148%, 32.939148%, 32.939148%)" fill-opacity="1"><g transform="translate(145.561999, 227.446859)"><g><path d="M 16.167969 -14.039062 C 14.683594 -16.109375 12.328125 -17.363281 9.460938 -17.363281 C 4.519531 -17.363281 1.101562 -13.679688 1.101562 -8.398438 C 1.101562 -3.078125 4.519531 0.609375 9.460938 0.609375 C 12.328125 0.609375 14.683594 -0.644531 16.167969 -2.734375 C 17.097656 -0.875 18.695312 0.152344 20.898438 0.378906 L 20.898438 -17.136719 C 18.695312 -16.90625 17.097656 -15.882812 16.167969 -14.039062 Z M 11.207031 -3.953125 C 8.890625 -3.953125 7.21875 -5.773438 7.21875 -8.359375 C 7.21875 -10.941406 8.890625 -12.765625 11.207031 -12.765625 C 13.527344 -12.765625 15.199219 -10.941406 15.199219 -8.359375 C 15.199219 -5.773438 13.527344 -3.953125 11.207031 -3.953125 Z M 11.207031 -3.953125 "/></g></g></g><g fill="rgb(32.939148%, 32.939148%, 32.939148%)" fill-opacity="1"><g transform="translate(168.319352, 227.446859)"><g><path d="M 9.992188 0.609375 C 15.160156 0.609375 18.542969 -2.316406 19.074219 -6.117188 C 19.148438 -6.496094 18.84375 -6.726562 18.351562 -6.726562 L 14.171875 -6.726562 C 13.714844 -6.726562 13.488281 -6.496094 13.375 -6.042969 C 13.03125 -4.597656 12.121094 -3.800781 10.410156 -3.800781 C 7.828125 -3.800781 6.761719 -5.925781 6.761719 -8.398438 C 6.761719 -10.601562 7.828125 -12.957031 10.410156 -12.957031 C 12.121094 -12.957031 13.03125 -12.160156 13.375 -10.714844 C 13.488281 -10.257812 13.714844 -10.03125 14.171875 -10.03125 L 18.351562 -10.03125 C 18.84375 -10.03125 19.148438 -10.335938 19.074219 -10.828125 C 18.425781 -14.550781 15.085938 -17.363281 9.992188 -17.363281 C 4.40625 -17.363281 1.0625 -13.375 1.0625 -8.398438 C 1.0625 -3.382812 4.40625 0.609375 9.992188 0.609375 Z M 9.992188 0.609375 "/></g></g></g><g fill="rgb(32.939148%, 32.939148%, 32.939148%)" fill-opacity="1"><g transform="translate(188.493225, 227.446859)"><g><path d="M 10.789062 -17.363281 C 5.167969 -17.363281 1.027344 -13.832031 1.027344 -8.359375 C 1.027344 -2.8125 5.015625 0.609375 10.789062 0.609375 C 14.96875 0.609375 18.277344 -1.214844 19.605469 -5.015625 C 19.796875 -5.546875 19.492188 -5.890625 18.960938 -5.890625 L 14.742188 -5.890625 C 14.324219 -5.890625 14.097656 -5.660156 13.90625 -5.242188 C 13.449219 -4.21875 12.347656 -3.457031 10.675781 -3.457031 C 8.550781 -3.457031 7.21875 -4.976562 7.066406 -7.296875 L 19.300781 -7.296875 C 19.796875 -7.296875 20.0625 -7.5625 20.0625 -8.054688 L 20.0625 -8.738281 C 20.0625 -14.285156 15.882812 -17.363281 10.789062 -17.363281 Z M 7.144531 -10.371094 C 7.464844 -12.195312 8.492188 -13.488281 10.601562 -13.488281 C 12.613281 -13.488281 13.90625 -12.195312 14.019531 -10.371094 Z M 7.144531 -10.371094 "/></g></g></g><g fill="rgb(32.939148%, 32.939148%, 32.939148%)" fill-opacity="1"><g transform="translate(209.654906, 227.446859)"><g><path d="M 13.261719 -17.363281 C 10.941406 -17.363281 8.96875 -16.566406 7.523438 -15.160156 L 7.523438 -21.277344 C 7.523438 -25.191406 5.507812 -27.738281 1.824219 -28.496094 L 1.824219 0.378906 C 4.140625 0.378906 5.792969 -0.625 6.707031 -2.527344 C 8.1875 -0.550781 10.488281 0.609375 13.261719 0.609375 C 18.199219 0.609375 21.621094 -3.078125 21.621094 -8.398438 C 21.621094 -13.679688 18.199219 -17.363281 13.261719 -17.363281 Z M 11.511719 -3.953125 C 9.195312 -3.953125 7.523438 -5.773438 7.523438 -8.359375 C 7.523438 -10.941406 9.195312 -12.765625 11.511719 -12.765625 C 13.832031 -12.765625 15.503906 -10.941406 15.503906 -8.359375 C 15.503906 -5.773438 13.832031 -3.953125 11.511719 -3.953125 Z M 11.511719 -3.953125 "/></g></g></g><g fill="rgb(32.939148%, 32.939148%, 32.939148%)" fill-opacity="1"><g transform="translate(232.374264, 227.446859)"><g><path d="M 10.636719 0.609375 C 16.605469 0.609375 20.175781 -3.078125 20.175781 -8.359375 C 20.175781 -13.601562 16.566406 -17.363281 10.636719 -17.363281 C 4.671875 -17.363281 1.0625 -13.601562 1.0625 -8.359375 C 1.0625 -3.117188 4.636719 0.609375 10.636719 0.609375 Z M 10.636719 -3.835938 C 8.09375 -3.835938 6.726562 -5.8125 6.726562 -8.320312 C 6.726562 -10.867188 8.132812 -12.917969 10.636719 -12.917969 C 13.144531 -12.917969 14.515625 -10.90625 14.515625 -8.320312 C 14.515625 -5.773438 13.144531 -3.835938 10.636719 -3.835938 Z M 10.636719 -3.835938 "/></g></g></g><g fill="rgb(32.939148%, 32.939148%, 32.939148%)" fill-opacity="1"><g transform="translate(253.649917, 227.446859)"><g><path d="M 20.328125 -17.136719 L 19.644531 -17.136719 C 15.503906 -17.136719 12.957031 -15.917969 10.636719 -12.5 L 10.125 -11.742188 L 7.066406 -16.261719 C 6.800781 -16.640625 6.535156 -16.753906 6.15625 -16.753906 L 1.480469 -16.753906 C 0.875 -16.753906 0.609375 -16.375 0.988281 -15.84375 L 6.953125 -7.941406 L 0.152344 0.378906 L 1.214844 0.378906 C 5.320312 0.378906 8.015625 -0.644531 10.296875 -4.101562 L 10.621094 -4.597656 L 13.527344 -0.492188 C 13.753906 -0.152344 14.058594 0 14.4375 0 L 19.492188 0 C 20.136719 0 20.289062 -0.417969 19.910156 -0.910156 L 13.753906 -8.550781 Z M 20.328125 -17.136719 "/></g></g></g><g fill="rgb(32.939148%, 32.939148%, 32.939148%)" fill-opacity="1"><g transform="translate(153.012915, 246.650024)"><g><path d="M 3.988281 0.238281 C 6.105469 0.238281 7.335938 -0.644531 7.335938 -2.175781 C 7.335938 -4.90625 2.910156 -3.871094 2.910156 -5.023438 C 2.910156 -5.25 3.136719 -5.460938 3.660156 -5.460938 C 4.304688 -5.460938 4.621094 -5.25 4.800781 -4.859375 C 4.875 -4.695312 4.980469 -4.605469 5.144531 -4.605469 L 6.75 -4.605469 C 6.960938 -4.605469 7.066406 -4.726562 7.019531 -4.933594 C 6.691406 -6.226562 5.535156 -6.855469 3.78125 -6.855469 C 1.738281 -6.855469 0.644531 -6 0.644531 -4.726562 C 0.644531 -2.054688 5.070312 -3.195312 5.070312 -1.964844 C 5.070312 -1.589844 4.738281 -1.320312 4.035156 -1.320312 C 3.628906 -1.320312 2.804688 -1.46875 2.625 -2.175781 C 2.578125 -2.355469 2.488281 -2.460938 2.308594 -2.460938 L 0.675781 -2.460938 C 0.480469 -2.460938 0.359375 -2.339844 0.390625 -2.144531 C 0.675781 -0.480469 2.085938 0.238281 3.988281 0.238281 Z M 3.988281 0.238281 "/></g></g></g><g fill="rgb(32.939148%, 32.939148%, 32.939148%)" fill-opacity="1"><g transform="translate(163.017935, 246.650024)"><g><path d="M 4.199219 0.238281 C 6.554688 0.238281 7.964844 -1.214844 7.964844 -3.300781 C 7.964844 -5.371094 6.539062 -6.855469 4.199219 -6.855469 C 1.84375 -6.855469 0.421875 -5.371094 0.421875 -3.300781 C 0.421875 -1.230469 1.828125 0.238281 4.199219 0.238281 Z M 4.199219 -1.515625 C 3.195312 -1.515625 2.65625 -2.296875 2.65625 -3.285156 C 2.65625 -4.289062 3.210938 -5.101562 4.199219 -5.101562 C 5.191406 -5.101562 5.730469 -4.304688 5.730469 -3.285156 C 5.730469 -2.28125 5.191406 -1.515625 4.199219 -1.515625 Z M 4.199219 -1.515625 "/></g></g></g><g fill="rgb(32.939148%, 32.939148%, 32.939148%)" fill-opacity="1"><g transform="translate(173.667955, 246.650024)"><g><path d="M 2.671875 0 C 2.863281 0 2.96875 -0.105469 2.96875 -0.300781 L 2.96875 -8.398438 C 2.96875 -9.945312 2.175781 -10.949219 0.71875 -11.25 L 0.71875 -0.300781 C 0.71875 -0.105469 0.824219 0 1.019531 0 Z M 2.671875 0 "/></g></g></g><g fill="rgb(32.939148%, 32.939148%, 32.939148%)" fill-opacity="1"><g transform="translate(179.622979, 246.650024)"><g><path d="M 5.429688 -6.613281 C 5.234375 -6.613281 5.128906 -6.511719 5.128906 -6.316406 L 5.128906 -3.164062 C 5.128906 -2.234375 4.574219 -1.558594 3.824219 -1.558594 C 3.226562 -1.558594 2.863281 -2.011719 2.863281 -2.773438 L 2.863281 -6.316406 C 2.863281 -6.511719 2.761719 -6.613281 2.566406 -6.613281 L 0.914062 -6.613281 C 0.71875 -6.613281 0.613281 -6.511719 0.613281 -6.316406 L 0.613281 -2.773438 C 0.613281 -0.824219 1.53125 0.238281 3.195312 0.238281 C 4.261719 0.238281 5.011719 -0.195312 5.496094 -1.09375 C 5.871094 -0.351562 6.503906 0.0585938 7.378906 0.148438 L 7.378906 -6.316406 C 7.378906 -6.511719 7.273438 -6.613281 7.078125 -6.613281 Z M 5.429688 -6.613281 "/></g></g></g><g fill="rgb(32.939148%, 32.939148%, 32.939148%)" fill-opacity="1"><g transform="translate(189.972992, 246.650024)"><g><path d="M 3.691406 -6.613281 L 3.691406 -9.464844 C 2.234375 -9.164062 1.441406 -8.160156 1.441406 -6.613281 L 0.480469 -6.613281 C 0.285156 -6.613281 0.179688 -6.511719 0.179688 -6.316406 L 0.179688 -5.175781 C 0.179688 -4.980469 0.285156 -4.875 0.480469 -4.875 L 1.441406 -4.875 L 1.441406 -0.300781 C 1.441406 -0.105469 1.546875 0 1.738281 0 L 3.390625 0 C 3.585938 0 3.691406 -0.105469 3.691406 -0.300781 L 3.691406 -4.875 L 4.664062 -4.875 C 4.859375 -4.875 4.964844 -4.980469 4.964844 -5.175781 L 4.964844 -6.316406 C 4.964844 -6.511719 4.859375 -6.613281 4.664062 -6.613281 Z M 3.691406 -6.613281 "/></g></g></g><g fill="rgb(32.939148%, 32.939148%, 32.939148%)" fill-opacity="1"><g transform="translate(197.368015, 246.650024)"><g><path d="M 1.738281 -7.921875 C 2.550781 -7.921875 3.390625 -8.324219 3.390625 -9.136719 C 3.390625 -9.929688 2.550781 -10.351562 1.738281 -10.351562 C 0.914062 -10.351562 0.0898438 -9.929688 0.0898438 -9.136719 C 0.0898438 -8.324219 0.914062 -7.921875 1.738281 -7.921875 Z M 2.671875 0 C 2.863281 0 2.96875 -0.105469 2.96875 -0.300781 L 2.96875 -3.914062 C 2.96875 -5.460938 2.175781 -6.464844 0.71875 -6.765625 L 0.71875 -0.300781 C 0.71875 -0.105469 0.824219 0 1.019531 0 Z M 2.671875 0 "/></g></g></g><g fill="rgb(32.939148%, 32.939148%, 32.939148%)" fill-opacity="1"><g transform="translate(203.21804, 246.650024)"><g><path d="M 4.199219 0.238281 C 6.554688 0.238281 7.964844 -1.214844 7.964844 -3.300781 C 7.964844 -5.371094 6.539062 -6.855469 4.199219 -6.855469 C 1.84375 -6.855469 0.421875 -5.371094 0.421875 -3.300781 C 0.421875 -1.230469 1.828125 0.238281 4.199219 0.238281 Z M 4.199219 -1.515625 C 3.195312 -1.515625 2.65625 -2.296875 2.65625 -3.285156 C 2.65625 -4.289062 3.210938 -5.101562 4.199219 -5.101562 C 5.191406 -5.101562 5.730469 -4.304688 5.730469 -3.285156 C 5.730469 -2.28125 5.191406 -1.515625 4.199219 -1.515625 Z M 4.199219 -1.515625 "/></g></g></g><g fill="rgb(32.939148%, 32.939148%, 32.939148%)" fill-opacity="1"><g transform="translate(213.86806, 246.650024)"><g><path d="M 4.980469 -6.855469 C 4.109375 -6.855469 3.300781 -6.472656 2.617188 -5.46875 C 2.25 -6.136719 1.605469 -6.585938 0.71875 -6.765625 L 0.71875 -0.300781 C 0.71875 -0.105469 0.824219 0 1.019531 0 L 2.671875 0 C 2.863281 0 2.96875 -0.105469 2.96875 -0.300781 L 2.96875 -3.726562 C 3.058594 -4.550781 3.578125 -5.054688 4.214844 -5.054688 C 4.921875 -5.054688 5.21875 -4.621094 5.21875 -3.839844 L 5.21875 -0.300781 C 5.21875 -0.105469 5.324219 0 5.519531 0 L 7.171875 0 C 7.363281 0 7.46875 -0.105469 7.46875 -0.300781 L 7.46875 -3.839844 C 7.46875 -5.640625 6.75 -6.855469 4.980469 -6.855469 Z M 4.980469 -6.855469 "/></g></g></g></svg>