<svg xmlns="http://www.w3.org/2000/svg" xmlns:xlink="http://www.w3.org/1999/xlink" width="500" zoomAndPan="magnify" viewBox="0 0 375 374.999991" height="500" preserveAspectRatio="xMidYMid meet" version="1.0"><defs><g/><clipPath id="id1"><path d="M 279.964844 132.769531 L 296.464844 132.769531 L 296.464844 149.269531 L 279.964844 149.269531 Z M 279.964844 132.769531 " clip-rule="nonzero"/></clipPath></defs><rect x="-37.5" width="450" fill="rgb(62.348938%, 57.649231%, 55.288696%)" y="-37.499999" height="449.999989" fill-opacity="1"/><rect x="-37.5" width="450" fill="rgb(100%, 100%, 100%)" y="-37.499999" height="449.999989" fill-opacity="1"/><rect x="-37.5" width="450" fill="rgb(62.348938%, 57.649231%, 55.288696%)" y="-37.499999" height="449.999989" fill-opacity="1"/><g fill="rgb(100%, 100%, 100%)" fill-opacity="1"><g transform="translate(267.646563, 145.225112)"><g><path d="M 0.0117188 -0.625 L 0.0195312 -0.96875 L -2.699219 -1.019531 C -3.476562 -1.074219 -4 -1.667969 -3.988281 -2.386719 C -3.972656 -3.210938 -3.410156 -3.691406 -2.5625 -3.671875 L 0.0703125 -3.625 L 0.0742188 -3.96875 L -2.578125 -4.019531 C -3.394531 -4.050781 -3.945312 -4.644531 -3.929688 -5.371094 C -3.917969 -6.117188 -3.335938 -6.6875 -2.503906 -6.671875 L 0.125 -6.621094 L 0.132812 -6.964844 L -2.507812 -7.015625 C -3.523438 -7.035156 -4.238281 -6.339844 -4.257812 -5.449219 C -4.269531 -4.785156 -3.894531 -4.21875 -3.292969 -3.960938 L -3.292969 -3.910156 C -3.914062 -3.699219 -4.300781 -3.1875 -4.3125 -2.464844 C -4.324219 -1.84375 -3.992188 -1.308594 -3.4375 -1.042969 L -3.4375 -0.992188 L -4.253906 -0.90625 L -4.257812 -0.707031 Z M 0.0117188 -0.625 "/></g></g></g><g fill="rgb(100%, 100%, 100%)" fill-opacity="1"><g transform="translate(268.548146, 135.598167)"><g><path d="M 1.273438 -2.269531 C 1.644531 -2.996094 1.597656 -3.8125 1.164062 -4.457031 L 1.183594 -4.5 L 2.074219 -4.042969 L 2.230469 -4.347656 L -1.570312 -6.300781 L -1.652344 -6.136719 L -0.765625 -5.535156 L -0.785156 -5.492188 C -1.585938 -5.496094 -2.308594 -5.050781 -2.691406 -4.304688 C -3.246094 -3.222656 -2.878906 -1.945312 -1.710938 -1.34375 C -0.535156 -0.742188 0.71875 -1.1875 1.273438 -2.269531 Z M 1.007812 -2.457031 C 0.53125 -1.527344 -0.550781 -1.136719 -1.554688 -1.652344 C -2.558594 -2.167969 -2.859375 -3.273438 -2.386719 -4.199219 C -1.90625 -5.132812 -0.832031 -5.527344 0.171875 -5.011719 C 1.175781 -4.496094 1.488281 -3.390625 1.007812 -2.457031 Z M 1.007812 -2.457031 "/></g></g></g><g fill="rgb(100%, 100%, 100%)" fill-opacity="1"><g transform="translate(272.553292, 128.976252)"><g><path d="M 0.46875 -0.414062 L 0.726562 -0.640625 L -0.21875 -1.707031 L -0.160156 -2.828125 L -0.132812 -2.851562 L 2.726562 -2.414062 L 3.011719 -2.667969 L -0.15625 -3.183594 L -0.0195312 -5.6875 L -0.332031 -5.410156 L -0.5 -2.097656 L -0.535156 -2.066406 L -3.40625 -5.308594 L -3.664062 -5.082031 Z M 0.46875 -0.414062 "/></g></g></g><g fill="rgb(100%, 100%, 100%)" fill-opacity="1"><g transform="translate(277.553528, 124.972114)"><g><path d="M 2.574219 -0.859375 C 3.261719 -1.117188 3.839844 -1.589844 4.101562 -2.277344 L 3.800781 -2.445312 C 3.582031 -1.835938 3.074219 -1.390625 2.460938 -1.160156 C 1.398438 -0.761719 0.4375 -1.164062 0.0078125 -2.121094 L 3.859375 -3.5625 L 3.804688 -3.707031 C 3.347656 -4.933594 2.105469 -5.445312 0.9375 -5.007812 C -0.226562 -4.570312 -0.835938 -3.371094 -0.375 -2.140625 C 0.0898438 -0.90625 1.269531 -0.371094 2.574219 -0.859375 Z M -0.101562 -2.414062 C -0.390625 -3.414062 0.121094 -4.359375 1.046875 -4.707031 C 1.984375 -5.058594 2.988281 -4.679688 3.421875 -3.730469 Z M -0.101562 -2.414062 "/></g></g></g><g fill="rgb(100%, 100%, 100%)" fill-opacity="1"><g transform="translate(284.69646, 122.772141)"><g><path d="M 2.5 0.179688 C 3.210938 0.199219 3.847656 -0.171875 4.1875 -0.785156 L 4.226562 -0.78125 L 4.207031 0.136719 L 4.542969 0.148438 L 4.679688 -4.121094 L 4.335938 -4.132812 L 4.261719 -1.804688 C 4.226562 -0.796875 3.484375 -0.117188 2.589844 -0.148438 C 1.65625 -0.179688 0.996094 -0.855469 1.03125 -1.910156 L 1.105469 -4.238281 L 0.761719 -4.25 L 0.6875 -1.914062 C 0.644531 -0.667969 1.402344 0.140625 2.5 0.179688 Z M 2.5 0.179688 "/></g></g></g><g fill="rgb(100%, 100%, 100%)" fill-opacity="1"><g transform="translate(292.044692, 123.420874)"><g><path d="M -0.167969 1.867188 L 0.144531 2.011719 L 1.292969 -0.5 L 1.335938 -0.480469 C 1.398438 0.289062 1.867188 0.957031 2.609375 1.296875 C 3.714844 1.800781 4.972656 1.375 5.523438 0.175781 C 6.066406 -1.019531 5.566406 -2.25 4.460938 -2.753906 C 3.6875 -3.109375 2.851562 -3.007812 2.222656 -2.511719 L 2.183594 -2.527344 L 2.511719 -3.550781 L 2.34375 -3.625 Z M 2.699219 0.988281 C 1.746094 0.550781 1.304688 -0.511719 1.773438 -1.539062 C 2.242188 -2.5625 3.332031 -2.921875 4.285156 -2.484375 C 5.230469 -2.050781 5.671875 -0.996094 5.203125 0.0273438 C 4.734375 1.054688 3.644531 1.417969 2.699219 0.988281 Z M 2.699219 0.988281 "/></g></g></g><g fill="rgb(100%, 100%, 100%)" fill-opacity="1"><g transform="translate(301.989521, 130.490864)"><g><path d="M 0.929688 1.757812 C 1.375 2.507812 2.070312 2.742188 2.621094 2.417969 C 3.1875 2.082031 3.351562 1.546875 3.015625 0.539062 C 2.699219 -0.390625 2.863281 -0.757812 3.234375 -0.976562 C 3.597656 -1.191406 4.140625 -0.984375 4.492188 -0.390625 C 4.753906 0.046875 4.855469 0.441406 4.902344 0.789062 L 5.175781 0.625 C 5.113281 0.261719 5.003906 -0.109375 4.75 -0.535156 C 4.292969 -1.308594 3.5625 -1.570312 3.058594 -1.273438 C 2.523438 -0.953125 2.359375 -0.410156 2.695312 0.578125 C 3.007812 1.480469 2.875 1.867188 2.441406 2.125 C 2.027344 2.371094 1.523438 2.175781 1.175781 1.589844 C 0.855469 1.054688 0.785156 0.464844 0.847656 -0.0117188 L 0.539062 0.015625 C 0.488281 0.539062 0.585938 1.175781 0.929688 1.757812 Z M 0.929688 1.757812 "/></g></g></g><g fill="rgb(100%, 100%, 100%)" fill-opacity="1"><g transform="translate(304.78135, 135.961179)"><g><path d="M 0.441406 2.449219 C 0.554688 2.972656 0.792969 3.273438 0.820312 3.324219 L 1.109375 3.1875 C 1.078125 3.15625 0.871094 2.878906 0.765625 2.402344 C 0.613281 1.714844 0.917969 1.339844 1.691406 1.167969 L 4.191406 0.621094 L 4.601562 2.496094 L 4.90625 2.429688 L 4.496094 0.554688 L 5.371094 0.363281 L 5.335938 0.207031 L 4.035156 -0.804688 L 3.910156 -0.777344 L 4.140625 0.277344 L 1.578125 0.839844 C 0.65625 1.042969 0.246094 1.574219 0.441406 2.449219 Z M 0.441406 2.449219 "/></g></g></g><g fill="rgb(100%, 100%, 100%)" fill-opacity="1"><g transform="translate(305.786161, 141.782335)"><g><path d="M -0.433594 2.46875 C -0.527344 3.171875 -0.222656 3.84375 0.351562 4.246094 L 0.34375 4.285156 L -0.566406 4.167969 L -0.613281 4.503906 L 3.621094 5.078125 L 3.667969 4.738281 L 1.359375 4.421875 C 0.359375 4.289062 -0.238281 3.480469 -0.117188 2.589844 C 0.0078125 1.664062 0.75 1.078125 1.796875 1.222656 L 4.101562 1.535156 L 4.148438 1.195312 L 1.835938 0.878906 C 0.597656 0.710938 -0.285156 1.382812 -0.433594 2.46875 Z M -0.433594 2.46875 "/></g></g></g><g fill="rgb(100%, 100%, 100%)" fill-opacity="1"><g transform="translate(304.386627, 149.026143)"><g><path d="M -1.390625 2.171875 C -1.800781 2.875 -1.800781 3.691406 -1.414062 4.359375 L -1.441406 4.40625 L -2.300781 3.898438 L -2.476562 4.195312 L 2.902344 7.359375 L 3.074219 7.0625 L 0.523438 5.5625 L 0.554688 5.511719 C 1.320312 5.535156 2.035156 5.140625 2.453125 4.429688 C 3.070312 3.382812 2.769531 2.09375 1.636719 1.429688 C 0.5 0.757812 -0.773438 1.125 -1.390625 2.171875 Z M -1.140625 2.382812 C -0.609375 1.480469 0.492188 1.152344 1.464844 1.722656 C 2.4375 2.296875 2.679688 3.414062 2.148438 4.316406 C 1.621094 5.214844 0.527344 5.542969 -0.445312 4.972656 C -1.417969 4.398438 -1.667969 3.277344 -1.140625 2.382812 Z M -1.140625 2.382812 "/></g></g></g><g fill="rgb(100%, 100%, 100%)" fill-opacity="1"><g transform="translate(299.867951, 155.396819)"><g><path d="M 3.027344 4.535156 C 2.929688 4.625 2.917969 4.785156 3.015625 4.890625 C 3.105469 4.992188 3.265625 5.003906 3.367188 4.910156 C 3.464844 4.820312 3.480469 4.65625 3.390625 4.554688 C 3.292969 4.449219 3.128906 4.445312 3.027344 4.535156 Z M -0.441406 0.394531 L -0.703125 0.628906 L 2.144531 3.8125 L 2.40625 3.578125 Z M -0.441406 0.394531 "/></g></g></g><g fill="rgb(100%, 100%, 100%)" fill-opacity="1"><g transform="translate(296.902889, 157.948438)"><g><path d="M -2.4375 1 C -3.566406 1.515625 -4.089844 2.753906 -3.542969 3.957031 C -3 5.152344 -1.71875 5.570312 -0.589844 5.058594 C 0.535156 4.546875 1.0625 3.304688 0.519531 2.109375 C -0.0273438 0.910156 -1.308594 0.488281 -2.4375 1 Z M -2.304688 1.292969 C -1.347656 0.859375 -0.261719 1.226562 0.207031 2.253906 C 0.671875 3.28125 0.230469 4.332031 -0.722656 4.765625 C -1.679688 5.199219 -2.765625 4.84375 -3.230469 3.816406 C -3.699219 2.789062 -3.257812 1.726562 -2.304688 1.292969 Z M -2.304688 1.292969 "/></g></g></g><g fill="rgb(100%, 100%, 100%)" fill-opacity="1"><g transform="translate(85.344367, 198.060222)"><g><path d="M 28.652344 0 L 28.652344 -5.386719 C 28.652344 -5.386719 27.449219 -1.695312 17.445312 -1.695312 C 10.363281 -1.695312 7.738281 -1.695312 7.738281 -1.695312 C 6.644531 -1.695312 6.589844 -3.089844 6.589844 -4.183594 L 6.589844 -34.996094 C 6.617188 -38.933594 8.695312 -39.207031 8.695312 -39.207031 L 1.121094 -39.207031 C 1.121094 -39.207031 3.199219 -38.851562 3.199219 -35.023438 L 3.199219 -4.183594 C 3.199219 -0.328125 1.121094 0 1.121094 0 Z M 28.652344 0 "/></g></g></g><g fill="rgb(100%, 100%, 100%)" fill-opacity="1"><g transform="translate(115.144895, 198.060222)"><g><path d="M 31.46875 0 L 39.042969 0 C 39.042969 0 36.855469 -0.273438 35.269531 -4.183594 L 21.355469 -39.207031 L 18.839844 -39.207031 L 4.894531 -4.183594 C 3.308594 -0.273438 1.121094 0 1.121094 0 L 6.890625 0 C 6.890625 0 4.921875 -0.328125 6.480469 -4.183594 L 10.746094 -14.875 L 27.613281 -14.875 L 31.878906 -4.183594 C 33.4375 -0.328125 31.46875 0 31.46875 0 Z M 11.15625 -15.886719 C 11.15625 -15.886719 19.058594 -35.707031 19.140625 -36.007812 C 19.277344 -35.707031 27.203125 -15.886719 27.203125 -15.886719 Z M 11.15625 -15.886719 "/></g></g></g><g fill="rgb(100%, 100%, 100%)" fill-opacity="1"><g transform="translate(155.279917, 198.060222)"><g><path d="M 28.652344 0 L 28.652344 -5.386719 C 28.652344 -5.386719 27.449219 -1.695312 17.445312 -1.695312 C 10.363281 -1.695312 7.738281 -1.695312 7.738281 -1.695312 C 6.644531 -1.695312 6.589844 -3.089844 6.589844 -4.183594 L 6.589844 -34.996094 C 6.617188 -38.933594 8.695312 -39.207031 8.695312 -39.207031 L 1.121094 -39.207031 C 1.121094 -39.207031 3.199219 -38.851562 3.199219 -35.023438 L 3.199219 -4.183594 C 3.199219 -0.328125 1.121094 0 1.121094 0 Z M 28.652344 0 "/></g></g></g><g fill="rgb(100%, 100%, 100%)" fill-opacity="1"><g transform="translate(185.080444, 198.060222)"><g><path d="M 29.117188 -14.191406 C 29.117188 -4.375 25.179688 -1.722656 17.582031 -1.722656 C 11.839844 -1.722656 6.699219 -4.320312 6.699219 -14.082031 L 6.699219 -34.996094 C 6.726562 -38.933594 8.804688 -39.207031 8.804688 -39.207031 L 1.121094 -39.207031 C 1.121094 -39.207031 3.199219 -38.851562 3.199219 -35.023438 L 3.199219 -14.054688 C 3.199219 -3.527344 8.886719 -0.109375 17.582031 -0.109375 C 26.628906 -0.109375 30.703125 -3.445312 30.703125 -14 L 30.703125 -34.996094 C 30.703125 -38.933594 32.808594 -39.207031 32.808594 -39.207031 L 27.011719 -39.207031 C 27.011719 -39.207031 29.117188 -38.851562 29.117188 -35.023438 Z M 29.117188 -14.191406 "/></g></g></g><g fill="rgb(100%, 100%, 100%)" fill-opacity="1"><g transform="translate(219.009302, 198.060222)"><g><path d="M 9.488281 -39.207031 L 1.121094 -39.207031 C 1.121094 -39.207031 3.199219 -38.851562 3.199219 -35.023438 L 3.199219 -4.183594 C 3.199219 -0.328125 1.121094 0 1.121094 0 L 6.890625 0 C 6.890625 0 4.8125 -0.273438 4.785156 -4.183594 L 4.785156 -34.996094 C 4.785156 -35.789062 4.894531 -36.445312 5.03125 -36.964844 C 5.441406 -36.445312 5.878906 -35.789062 6.316406 -35.023438 L 25.671875 0 L 27.257812 0 L 27.257812 -34.996094 C 27.285156 -38.933594 29.363281 -39.207031 29.363281 -39.207031 L 23.59375 -39.207031 C 23.59375 -39.207031 25.699219 -38.851562 25.699219 -35.023438 L 25.699219 -6.070312 L 9.707031 -34.996094 C 7.546875 -38.933594 9.488281 -39.207031 9.488281 -39.207031 Z M 9.488281 -39.207031 "/></g></g></g><g fill="rgb(100%, 100%, 100%)" fill-opacity="1"><g transform="translate(249.520668, 198.060222)"><g><path d="M 31.46875 0 L 39.042969 0 C 39.042969 0 36.855469 -0.273438 35.269531 -4.183594 L 21.355469 -39.207031 L 18.839844 -39.207031 L 4.894531 -4.183594 C 3.308594 -0.273438 1.121094 0 1.121094 0 L 6.890625 0 C 6.890625 0 4.921875 -0.328125 6.480469 -4.183594 L 10.746094 -14.875 L 27.613281 -14.875 L 31.878906 -4.183594 C 33.4375 -0.328125 31.46875 0 31.46875 0 Z M 11.15625 -15.886719 C 11.15625 -15.886719 19.058594 -35.707031 19.140625 -36.007812 C 19.277344 -35.707031 27.203125 -15.886719 27.203125 -15.886719 Z M 11.15625 -15.886719 "/></g></g></g><path stroke-linecap="butt" transform="matrix(3.003604, 0.00612589, -0.00611853, 2.999994, 84.272548, 208.293502)" fill="none" stroke-linejoin="miter" d="M 0.000295859 -0.000178462 L 68.169704 -0.0000550185 " stroke="rgb(100%, 100%, 100%)" stroke-width="1" stroke-opacity="1" stroke-miterlimit="4"/><g clip-path="url(#id1)"><path fill="rgb(100%, 100%, 100%)" d="M 288.214844 132.769531 C 288.214844 137.324219 284.519531 141.019531 279.964844 141.019531 C 284.519531 141.019531 288.214844 144.710938 288.214844 149.269531 C 288.214844 144.710938 291.90625 141.019531 296.464844 141.019531 C 291.90625 141.019531 288.214844 137.324219 288.214844 132.769531 Z M 288.214844 132.769531 " fill-opacity="1" fill-rule="nonzero"/></g></svg>