<svg xmlns="http://www.w3.org/2000/svg" xmlns:xlink="http://www.w3.org/1999/xlink" width="500" zoomAndPan="magnify" viewBox="0 0 375 374.999991" height="500" preserveAspectRatio="xMidYMid meet" version="1.0"><defs><g><g id="id1"/></g><clipPath id="id2"><path d="M 161 108.3125 L 189 108.3125 L 189 160 L 161 160 Z M 161 108.3125 " clip-rule="nonzero"/></clipPath></defs><rect x="-37.5" width="450" fill="rgb(97.24884%, 96.859741%, 94.898987%)" y="-37.499999" height="449.999989" fill-opacity="1"/><rect x="-37.5" width="450" fill="rgb(100%, 100%, 100%)" y="-37.499999" height="449.999989" fill-opacity="1"/><rect x="-37.5" width="450" fill="rgb(97.24884%, 96.859741%, 94.898987%)" y="-37.499999" height="449.999989" fill-opacity="1"/><path fill="rgb(73.329163%, 63.139343%, 45.878601%)" d="M 218.773438 157.238281 C 218.773438 157.601562 218.71875 157.96875 218.613281 158.332031 C 218.503906 158.695312 218.34375 159.058594 218.132812 159.414062 C 217.917969 159.773438 217.652344 160.128906 217.335938 160.480469 C 217.015625 160.828125 216.648438 161.171875 216.230469 161.511719 C 215.808594 161.847656 215.34375 162.179688 214.828125 162.5 C 214.3125 162.824219 213.75 163.136719 213.140625 163.441406 C 212.53125 163.746094 211.882812 164.039062 211.1875 164.320312 C 210.492188 164.605469 209.757812 164.875 208.984375 165.132812 C 208.210938 165.390625 207.398438 165.636719 206.554688 165.867188 C 205.707031 166.101562 204.828125 166.320312 203.917969 166.523438 C 203.007812 166.726562 202.070312 166.914062 201.105469 167.085938 C 200.140625 167.257812 199.152344 167.414062 198.140625 167.554688 C 197.128906 167.695312 196.101562 167.816406 195.054688 167.921875 C 194.003906 168.027344 192.945312 168.117188 191.871094 168.1875 C 190.796875 168.261719 189.714844 168.3125 188.628906 168.351562 C 187.539062 168.386719 186.445312 168.402344 185.351562 168.402344 C 184.257812 168.402344 183.164062 168.386719 182.074219 168.351562 C 180.984375 168.3125 179.90625 168.261719 178.832031 168.1875 C 177.757812 168.117188 176.695312 168.027344 175.648438 167.921875 C 174.601562 167.816406 173.574219 167.695312 172.5625 167.554688 C 171.550781 167.414062 170.5625 167.257812 169.597656 167.085938 C 168.628906 166.914062 167.691406 166.726562 166.78125 166.523438 C 165.871094 166.320312 164.996094 166.101562 164.148438 165.867188 C 163.300781 165.636719 162.492188 165.390625 161.71875 165.132812 C 160.945312 164.875 160.210938 164.605469 159.515625 164.320312 C 158.820312 164.039062 158.167969 163.746094 157.5625 163.441406 C 156.953125 163.136719 156.390625 162.824219 155.875 162.5 C 155.359375 162.179688 154.890625 161.847656 154.472656 161.511719 C 154.054688 161.171875 153.6875 160.828125 153.367188 160.480469 C 153.050781 160.128906 152.785156 159.773438 152.570312 159.414062 C 152.359375 159.058594 152.199219 158.695312 152.089844 158.332031 C 151.984375 157.96875 151.929688 157.601562 151.929688 157.238281 C 151.929688 156.871094 151.984375 156.507812 152.089844 156.144531 C 152.199219 155.777344 152.359375 155.417969 152.570312 155.058594 C 152.785156 154.699219 153.050781 154.347656 153.367188 153.996094 C 153.6875 153.644531 154.054688 153.300781 154.472656 152.964844 C 154.890625 152.625 155.359375 152.296875 155.875 151.972656 C 156.390625 151.652344 156.953125 151.335938 157.5625 151.035156 C 158.167969 150.730469 158.820312 150.4375 159.515625 150.152344 C 160.210938 149.871094 160.945312 149.601562 161.71875 149.339844 C 162.492188 149.082031 163.300781 148.835938 164.148438 148.605469 C 164.996094 148.375 165.871094 148.15625 166.78125 147.953125 C 167.691406 147.75 168.628906 147.5625 169.597656 147.390625 C 170.5625 147.21875 171.550781 147.0625 172.5625 146.921875 C 173.574219 146.78125 174.601562 146.65625 175.648438 146.550781 C 176.695312 146.445312 177.757812 146.355469 178.832031 146.285156 C 179.90625 146.214844 180.984375 146.160156 182.074219 146.125 C 183.164062 146.089844 184.257812 146.070312 185.351562 146.070312 C 186.445312 146.070312 187.539062 146.089844 188.628906 146.125 C 189.714844 146.160156 190.796875 146.214844 191.871094 146.285156 C 192.945312 146.355469 194.003906 146.445312 195.054688 146.550781 C 196.101562 146.65625 197.128906 146.78125 198.140625 146.921875 C 199.152344 147.0625 200.140625 147.21875 201.105469 147.390625 C 202.070312 147.5625 203.007812 147.75 203.917969 147.953125 C 204.828125 148.15625 205.707031 148.375 206.554688 148.605469 C 207.398438 148.835938 208.210938 149.082031 208.984375 149.339844 C 209.757812 149.601562 210.492188 149.871094 211.1875 150.152344 C 211.882812 150.4375 212.53125 150.730469 213.140625 151.035156 C 213.75 151.335938 214.3125 151.652344 214.828125 151.972656 C 215.34375 152.296875 215.808594 152.625 216.230469 152.964844 C 216.648438 153.300781 217.015625 153.644531 217.335938 153.996094 C 217.652344 154.347656 217.917969 154.699219 218.132812 155.058594 C 218.34375 155.417969 218.503906 155.777344 218.613281 156.144531 C 218.71875 156.507812 218.773438 156.871094 218.773438 157.238281 Z M 218.773438 157.238281 " fill-opacity="1" fill-rule="nonzero"/><path fill="rgb(73.329163%, 63.139343%, 45.878601%)" d="M 152.121094 181.757812 C 152.042969 181.640625 152.003906 181.566406 151.929688 181.449219 C 152.003906 181.566406 152.082031 181.640625 152.121094 181.757812 Z M 152.121094 181.757812 " fill-opacity="1" fill-rule="nonzero"/><path fill="rgb(14.898682%, 23.529053%, 41.958618%)" d="M 193.140625 112.1875 C 187.769531 111.996094 182.050781 112.726562 177.0625 114.796875 C 174.644531 115.796875 172.265625 117.253906 170.769531 119.515625 C 170.078125 120.515625 169.65625 121.703125 169.503906 122.894531 C 169.234375 125.042969 171.574219 125.464844 173.265625 125.925781 C 177.253906 127.039062 181.476562 127.269531 185.582031 127.804688 C 190.570312 128.457031 195.519531 129.148438 200.585938 129.570312 C 201.8125 129.6875 203.769531 129.378906 204.921875 129.839844 C 206.300781 130.414062 204.882812 131.988281 204.113281 132.449219 C 201.390625 134.136719 197.015625 132.601562 194.214844 131.875 C 189.957031 130.796875 185.082031 129.6875 181.589844 133.140625 C 180.476562 134.175781 179.671875 135.75 180.402344 137.246094 C 180.824219 138.089844 181.515625 138.742188 182.398438 139.125 C 182.820312 139.277344 183.277344 139.203125 183.699219 139.394531 C 183.855469 139.472656 184.238281 139.816406 184.351562 139.816406 C 183.855469 139.777344 184.277344 138.972656 183.699219 139.585938 C 183.507812 140.007812 183.316406 140.429688 183.164062 140.890625 C 182.855469 141.503906 182.433594 142.082031 182.167969 142.695312 C 181.246094 144.691406 181.628906 147.03125 182.664062 148.871094 C 183.625 150.558594 184.96875 152.019531 185.886719 153.746094 C 186.539062 155.011719 186.65625 158.195312 188.804688 157.582031 C 192.257812 156.585938 186.425781 149.027344 185.773438 147.335938 C 184.96875 145.226562 185.273438 142.847656 186.578125 141.003906 C 187.15625 140.160156 187.882812 139.316406 187.84375 138.242188 C 187.84375 136.785156 186.617188 137.128906 186.003906 136.246094 C 185.503906 135.519531 185.734375 134.484375 186.464844 134.023438 C 186.503906 133.984375 186.578125 133.945312 186.617188 133.945312 C 187.613281 133.445312 189.1875 133.90625 190.222656 134.097656 C 193.332031 134.636719 196.324219 135.710938 199.511719 136.054688 C 202.082031 136.324219 204.539062 135.902344 206.609375 134.289062 C 207.992188 133.214844 209.679688 131.375 209.332031 129.457031 C 208.875 126.921875 205.804688 126.65625 203.769531 126.617188 C 200.660156 126.539062 197.554688 126.234375 194.445312 125.886719 C 191.03125 125.503906 187.613281 125.003906 184.277344 124.46875 C 182.167969 124.160156 180.09375 124.082031 178.023438 123.816406 C 176.910156 123.660156 172.226562 122.855469 173.992188 120.859375 C 174.992188 119.746094 176.679688 118.789062 177.984375 118.136719 C 179.480469 117.367188 181.054688 116.792969 182.703125 116.371094 C 185.886719 115.566406 189.148438 115.21875 192.449219 115.335938 C 193.449219 115.335938 194.484375 115.335938 194.675781 114.105469 C 194.828125 113.261719 194.253906 112.457031 193.410156 112.304688 C 193.21875 112.226562 193.179688 112.226562 193.140625 112.1875 Z M 193.140625 112.1875 " fill-opacity="1" fill-rule="nonzero"/><path fill="rgb(14.898682%, 23.529053%, 41.958618%)" d="M 204.882812 113.03125 C 200.394531 113.609375 195.519531 114.453125 191.492188 116.5625 C 189.917969 117.367188 187.808594 118.789062 188.34375 120.859375 C 188.957031 123.394531 192.105469 124.351562 194.292969 124.851562 C 200.316406 126.234375 206.609375 125.273438 212.558594 126.886719 C 214.359375 127.382812 219.003906 128.726562 217.546875 131.449219 C 216.664062 133.0625 214.78125 133.5625 213.132812 133.90625 C 211.328125 134.328125 209.640625 134.75 207.875 135.289062 C 203.730469 136.554688 199.394531 137.667969 195.597656 139.855469 C 192.640625 141.542969 190.875 144.039062 189.917969 147.335938 C 189.148438 149.945312 188.882812 153.976562 191.644531 155.585938 C 192.871094 156.316406 194.867188 155.28125 194.101562 153.707031 C 193.792969 153.054688 192.988281 152.902344 192.679688 152.210938 C 192.335938 151.40625 192.488281 150.367188 192.679688 149.5625 C 192.988281 147.875 193.679688 146.300781 194.714844 144.917969 C 195.902344 143.5 197.628906 142.734375 199.28125 142.003906 C 204.113281 139.816406 209.140625 138.242188 214.207031 136.632812 C 216.929688 135.75 220.308594 134.519531 221.957031 132.027344 C 223.722656 129.378906 221.996094 126.539062 219.503906 125.195312 C 216.625 123.660156 213.171875 123.199219 209.949219 122.816406 C 206.722656 122.472656 203.5 122.242188 200.316406 122.011719 C 197.976562 121.820312 195.636719 121.472656 193.332031 121.050781 C 192.21875 120.859375 191.144531 120.59375 192.527344 119.671875 C 194.523438 118.289062 197.09375 117.558594 199.433594 117.0625 C 200.625 116.792969 201.851562 116.5625 203.078125 116.410156 C 204 116.253906 205.265625 116.371094 205.957031 115.601562 C 206.761719 114.683594 206.339844 112.917969 204.921875 113.109375 L 204.882812 113.109375 Z M 204.882812 113.03125 " fill-opacity="1" fill-rule="nonzero"/><g clip-path="url(#id2)"><path fill="rgb(14.898682%, 23.529053%, 41.958618%)" d="M 186.65625 108.3125 C 180.476562 108.65625 173.878906 109.003906 168.503906 112.417969 C 164.015625 115.257812 159.179688 121.550781 161.984375 127.078125 C 163.554688 130.148438 166.550781 130.761719 169.503906 131.988281 C 171.613281 132.871094 172.265625 134.136719 172.957031 136.246094 C 173.609375 138.242188 174.300781 140.582031 174.183594 142.734375 C 174.070312 145.265625 171.921875 147.261719 172.613281 149.90625 C 173.300781 152.554688 175.71875 153.554688 177.636719 155.089844 C 178.519531 155.742188 179.171875 156.625 179.632812 157.621094 C 180.054688 158.542969 180.59375 159.386719 181.78125 158.964844 C 184.390625 158.042969 181.398438 154.089844 180.210938 153.207031 C 179.25 152.480469 178.097656 152.210938 177.523438 151.019531 C 176.910156 149.714844 176.910156 148.105469 176.949219 146.722656 C 177.0625 143.613281 177.40625 140.777344 176.910156 137.628906 C 176.488281 135.136719 176.371094 131.910156 173.878906 130.605469 C 172.113281 129.6875 170.039062 129.6875 168.199219 128.917969 C 165.972656 127.996094 164.4375 125.964844 164.167969 123.546875 C 163.785156 118.558594 169.847656 114.949219 173.800781 113.378906 C 177.101562 112.074219 180.707031 111.804688 184.199219 111.574219 C 185.390625 111.496094 187.421875 111.84375 187.960938 110.421875 C 188.304688 109.695312 187.960938 108.8125 187.230469 108.464844 C 187.078125 108.390625 186.847656 108.3125 186.65625 108.3125 Z M 186.65625 108.3125 " fill-opacity="1" fill-rule="nonzero"/></g><path fill="rgb(14.898682%, 23.529053%, 41.958618%)" d="M 246.976562 196.261719 C 245.980469 193.34375 243.023438 185.210938 238.917969 183.90625 C 254.652344 177.496094 247.320312 163.222656 232.933594 163.796875 C 215.742188 164.488281 217.160156 179.644531 207.992188 190.8125 C 197.285156 203.859375 180.09375 209.117188 166.816406 196.796875 C 161.675781 192.039062 155.804688 184.136719 153.425781 177.535156 C 148.550781 164.027344 158.566406 169.015625 167.429688 170.667969 C 182.972656 173.582031 202.3125 174.234375 216.011719 164.757812 C 222.457031 160.308594 224.566406 155.546875 218.773438 149.5625 C 217.390625 148.144531 204.191406 140.890625 205.457031 145.535156 C 206.300781 148.566406 215.128906 148.757812 217.277344 152.019531 C 221.535156 158.542969 215.050781 161.878906 209.488281 164.335938 C 192.949219 171.664062 172.535156 170.476562 155.496094 165.257812 C 159.566406 161.074219 168.046875 154.511719 169.582031 148.679688 C 171.230469 142.464844 166.433594 144.765625 161.175781 146.109375 C 154.078125 147.949219 135.890625 159.308594 150.316406 166.214844 C 142.949219 175.808594 159.488281 195.035156 166.703125 200.75 C 180.402344 211.648438 197.167969 206.96875 208.449219 195.035156 C 218.199219 184.75 217.238281 167.867188 233.625 167.214844 C 246.824219 166.675781 247.515625 176.652344 236.460938 181.679688 C 232.164062 183.636719 227.332031 184.210938 222.996094 186.015625 C 215.78125 189.046875 214.667969 192.347656 211.023438 198.984375 C 203.847656 212.03125 186.925781 214.410156 173.1875 211.648438 C 167.429688 210.496094 159.027344 207.851562 155.265625 202.9375 C 151.351562 197.796875 155.957031 191.351562 152.695312 187.320312 C 144.90625 177.613281 136.542969 199.523438 139.191406 206.085938 C 126.949219 200.675781 136.121094 191.847656 141.796875 186.59375 C 150.011719 178.996094 146.363281 174.886719 135.734375 179.1875 C 112.519531 188.546875 132.128906 213.375 145.445312 220.972656 C 164.667969 231.949219 262.480469 240.3125 246.976562 196.261719 Z M 159.257812 149.21875 C 161.523438 148.640625 163.785156 148.257812 166.089844 148.066406 C 162.058594 153.898438 157.453125 158.847656 152.429688 163.761719 C 144.832031 158.15625 153.308594 150.90625 159.257812 149.21875 Z M 143.910156 192.960938 C 150.664062 182.0625 148.746094 199.0625 150.316406 202.09375 C 154.769531 210.691406 169.082031 214.449219 177.714844 215.332031 C 188.957031 216.484375 204.382812 214.449219 211.597656 204.703125 C 214.476562 200.828125 214.859375 195.457031 218.3125 191.964844 C 222.609375 187.550781 229.863281 186.859375 235.464844 185.132812 C 231.472656 189.738281 236.117188 196.761719 236.308594 201.902344 C 236.347656 203.4375 232.816406 214.757812 231.667969 211.417969 C 230.363281 207.621094 235.121094 202.515625 232.320312 198.679688 C 228.367188 193.230469 225.027344 197.105469 222.535156 201.136719 C 218.886719 207.003906 220.882812 210.34375 213.246094 213.605469 C 207.992188 215.832031 201.621094 215.871094 196.058594 216.101562 C 184.277344 216.597656 128.023438 218.402344 143.910156 192.960938 Z M 223.417969 223.734375 C 200.125 229.03125 169.925781 230.566406 148.246094 218.976562 C 140.070312 214.601562 129.789062 207.234375 128.636719 197.144531 C 127.640625 188.394531 134.199219 180.722656 143.179688 181.105469 C 138.5 186.976562 130.210938 188.585938 130.09375 197.449219 C 130.058594 200.058594 136.773438 214.640625 141.53125 209.386719 C 151.851562 221.546875 180.632812 219.9375 194.636719 219.167969 C 201.890625 218.785156 211.367188 218.710938 217.699219 214.71875 C 220.039062 213.261719 228.289062 199.523438 228.519531 199.601562 C 233.164062 201.097656 223.53125 223.277344 235.617188 213.644531 C 244.367188 206.699219 233.507812 196.03125 237.078125 189.851562 C 240.875 183.253906 245.328125 202.441406 244.519531 206.238281 C 242.371094 215.871094 232.355469 221.703125 223.417969 223.734375 Z M 223.417969 223.734375 " fill-opacity="1" fill-rule="nonzero"/><path fill="rgb(73.329163%, 63.139343%, 45.878601%)" d="M 218.042969 165.753906 C 216.472656 165.753906 214.898438 166.179688 213.515625 166.984375 C 204.078125 172.546875 189.570312 177.460938 177.945312 175.734375 C 139.957031 169.976562 169.773438 201.789062 182.78125 203.167969 C 200.660156 204.167969 212.710938 179.839844 219.464844 165.753906 Z M 218.042969 165.753906 " fill-opacity="1" fill-rule="nonzero"/><g fill="rgb(14.898682%, 23.529053%, 41.958618%)" fill-opacity="1"><g transform="translate(138.562495, 250.437524)"><g><path d="M 11.175781 -1.398438 L 3.71875 -1.398438 L 3.71875 -13.796875 L 2 -13.796875 L 2 0 L 11.175781 0 Z M 11.175781 -1.398438 "/></g></g></g><g fill="rgb(14.898682%, 23.529053%, 41.958618%)" fill-opacity="1"><g transform="translate(150.057959, 250.437524)"><g><path d="M 7.558594 0 L 9.277344 0 C 9.117188 -1.179688 9.078125 -1.898438 9.078125 -2.699219 L 9.078125 -6.679688 C 9.078125 -7.136719 9.058594 -7.65625 9.019531 -8.078125 C 8.835938 -9.816406 7.777344 -10.878906 5.257812 -10.878906 C 2.917969 -10.878906 1.339844 -9.578125 1.179688 -7.316406 L 2.980469 -7.316406 C 3.097656 -8.777344 3.820312 -9.558594 5.257812 -9.558594 C 6.679688 -9.558594 7.238281 -8.917969 7.316406 -7.9375 C 7.359375 -7.539062 7.359375 -7.117188 7.359375 -6.660156 L 7.359375 -6.378906 L 6.679688 -6.378906 C 2.519531 -6.378906 0.71875 -5.140625 0.71875 -2.738281 C 0.71875 -0.78125 2.21875 0.28125 4.140625 0.28125 C 5.160156 0.28125 6.078125 0.121094 6.796875 -0.378906 L 7.378906 -1.519531 Z M 4.71875 -1.039062 C 3.417969 -1.039062 2.597656 -1.597656 2.597656 -2.878906 C 2.597656 -4.699219 4.4375 -5.320312 7.359375 -5.097656 L 7.359375 -4.019531 C 7.359375 -2.097656 6.320312 -1.039062 4.71875 -1.039062 Z M 4.71875 -1.039062 "/></g></g></g><g fill="rgb(14.898682%, 23.529053%, 41.958618%)" fill-opacity="1"><g transform="translate(160.673772, 250.437524)"><g><path d="M 6.796875 -10.878906 C 5.71875 -10.878906 4.597656 -10.539062 4 -10.039062 L 3.199219 -8.898438 L 3.199219 -14.695312 L 1.480469 -14.695312 L 1.480469 0 L 3.199219 0 L 3.199219 -1.460938 L 3.898438 -0.417969 C 4.4375 0.0195312 5.558594 0.28125 6.4375 0.28125 C 9.175781 0.28125 11.617188 -1.539062 11.617188 -5.457031 C 11.617188 -8.558594 9.898438 -10.878906 6.796875 -10.878906 Z M 6.4375 -1.039062 C 4.917969 -1.039062 3.199219 -2.078125 3.199219 -4.820312 L 3.199219 -5.398438 C 3.199219 -8.4375 4.777344 -9.558594 6.539062 -9.558594 C 8.65625 -9.558594 9.738281 -7.65625 9.738281 -5.257812 C 9.738281 -2.480469 8.296875 -1.039062 6.4375 -1.039062 Z M 6.4375 -1.039062 "/></g></g></g><g fill="rgb(14.898682%, 23.529053%, 41.958618%)" fill-opacity="1"><g transform="translate(172.888955, 250.437524)"><g/></g></g><g fill="rgb(14.898682%, 23.529053%, 41.958618%)" fill-opacity="1"><g transform="translate(177.207257, 250.437524)"><g><path d="M 7.457031 -14.078125 C 3.539062 -14.078125 0.941406 -11.039062 0.941406 -6.839844 C 0.941406 -2.800781 3.179688 0.28125 7.199219 0.28125 C 10.835938 0.28125 12.695312 -1.898438 12.957031 -4.398438 L 12.976562 -4.597656 L 11.257812 -4.597656 L 11.21875 -4.398438 C 10.816406 -2.417969 9.597656 -1.078125 7.296875 -1.078125 C 4.578125 -1.078125 2.859375 -3.519531 2.859375 -6.917969 C 2.859375 -10.257812 4.597656 -12.71875 7.417969 -12.71875 C 9.71875 -12.71875 10.9375 -11.378906 11.335938 -9.398438 L 11.378906 -9.199219 L 13.097656 -9.199219 L 13.078125 -9.398438 C 12.796875 -12.097656 10.957031 -14.078125 7.457031 -14.078125 Z M 7.457031 -14.078125 "/></g></g></g><g fill="rgb(14.898682%, 23.529053%, 41.958618%)" fill-opacity="1"><g transform="translate(191.18174, 250.437524)"><g><path d="M 5.859375 -10.878906 C 2.257812 -10.878906 0.601562 -8.296875 0.601562 -5.296875 C 0.601562 -2.320312 2.257812 0.28125 5.859375 0.28125 C 9.457031 0.28125 11.117188 -2.320312 11.117188 -5.296875 C 11.117188 -8.296875 9.457031 -10.878906 5.859375 -10.878906 Z M 5.859375 -1.039062 C 3.71875 -1.039062 2.480469 -2.820312 2.480469 -5.296875 C 2.480469 -7.796875 3.71875 -9.558594 5.859375 -9.558594 C 7.996094 -9.558594 9.238281 -7.796875 9.238281 -5.296875 C 9.238281 -2.820312 7.996094 -1.039062 5.859375 -1.039062 Z M 5.859375 -1.039062 "/></g></g></g><g fill="rgb(14.898682%, 23.529053%, 41.958618%)" fill-opacity="1"><g transform="translate(202.897113, 250.437524)"><g><path d="M 3.339844 -12.636719 C 3.480469 -13.496094 4.339844 -13.796875 5.636719 -13.554688 L 5.636719 -14.976562 C 5.277344 -15.035156 4.859375 -15.078125 4.417969 -15.078125 C 2.839844 -15.078125 1.800781 -14.214844 1.621094 -12.675781 C 1.578125 -12.316406 1.558594 -11.796875 1.558594 -11.398438 L 1.558594 -10.515625 L 0.417969 -10.515625 L 0.417969 -9.199219 L 1.558594 -9.199219 L 1.558594 0 L 3.277344 0 L 3.277344 -9.199219 L 5.457031 -9.199219 L 5.457031 -10.515625 L 3.277344 -10.515625 L 3.277344 -11.558594 C 3.277344 -11.855469 3.300781 -12.355469 3.339844 -12.636719 Z M 3.339844 -12.636719 "/></g></g></g><g fill="rgb(14.898682%, 23.529053%, 41.958618%)" fill-opacity="1"><g transform="translate(208.694827, 250.437524)"><g><path d="M 3.339844 -12.636719 C 3.480469 -13.496094 4.339844 -13.796875 5.636719 -13.554688 L 5.636719 -14.976562 C 5.277344 -15.035156 4.859375 -15.078125 4.417969 -15.078125 C 2.839844 -15.078125 1.800781 -14.214844 1.621094 -12.675781 C 1.578125 -12.316406 1.558594 -11.796875 1.558594 -11.398438 L 1.558594 -10.515625 L 0.417969 -10.515625 L 0.417969 -9.199219 L 1.558594 -9.199219 L 1.558594 0 L 3.277344 0 L 3.277344 -9.199219 L 5.457031 -9.199219 L 5.457031 -10.515625 L 3.277344 -10.515625 L 3.277344 -11.558594 C 3.277344 -11.855469 3.300781 -12.355469 3.339844 -12.636719 Z M 3.339844 -12.636719 "/></g></g></g><g fill="rgb(14.898682%, 23.529053%, 41.958618%)" fill-opacity="1"><g transform="translate(214.492541, 250.437524)"><g><path d="M 10.175781 -5.597656 C 10.175781 -8.699219 8.558594 -10.878906 5.636719 -10.878906 C 2.738281 -10.878906 0.601562 -8.699219 0.601562 -5.257812 C 0.601562 -1.519531 2.660156 0.28125 5.417969 0.28125 C 7.597656 0.28125 9.617188 -0.859375 10.039062 -3.417969 L 8.238281 -3.417969 C 7.996094 -1.898438 6.878906 -1.039062 5.5 -1.039062 C 3.9375 -1.039062 2.621094 -1.980469 2.460938 -4.777344 L 10.136719 -4.777344 C 10.175781 -5.160156 10.175781 -5.4375 10.175781 -5.597656 Z M 5.597656 -9.558594 C 7.339844 -9.558594 8.277344 -8.296875 8.4375 -6.097656 L 2.480469 -6.097656 C 2.679688 -8.359375 3.917969 -9.558594 5.597656 -9.558594 Z M 5.597656 -9.558594 "/></g></g></g><g fill="rgb(14.898682%, 23.529053%, 41.958618%)" fill-opacity="1"><g transform="translate(225.468213, 250.437524)"><g><path d="M 10.175781 -5.597656 C 10.175781 -8.699219 8.558594 -10.878906 5.636719 -10.878906 C 2.738281 -10.878906 0.601562 -8.699219 0.601562 -5.257812 C 0.601562 -1.519531 2.660156 0.28125 5.417969 0.28125 C 7.597656 0.28125 9.617188 -0.859375 10.039062 -3.417969 L 8.238281 -3.417969 C 7.996094 -1.898438 6.878906 -1.039062 5.5 -1.039062 C 3.9375 -1.039062 2.621094 -1.980469 2.460938 -4.777344 L 10.136719 -4.777344 C 10.175781 -5.160156 10.175781 -5.4375 10.175781 -5.597656 Z M 5.597656 -9.558594 C 7.339844 -9.558594 8.277344 -8.296875 8.4375 -6.097656 L 2.480469 -6.097656 C 2.679688 -8.359375 3.917969 -9.558594 5.597656 -9.558594 Z M 5.597656 -9.558594 "/></g></g></g><g fill="rgb(14.898682%, 23.529053%, 41.958618%)" fill-opacity="1"><g transform="translate(159.142964, 264.687755)"><g><path d="M 4.03125 -6.5 C 3.25 -6.5 2.628906 -6.238281 2.171875 -5.71875 C 1.722656 -5.195312 1.5 -4.476562 1.5 -3.5625 C 1.5 -2.632812 1.71875 -1.914062 2.15625 -1.40625 C 2.59375 -0.894531 3.21875 -0.640625 4.03125 -0.640625 C 4.53125 -0.640625 5.097656 -0.726562 5.734375 -0.90625 L 5.734375 -0.1875 C 5.234375 0 4.625 0.09375 3.90625 0.09375 C 2.851562 0.09375 2.039062 -0.222656 1.46875 -0.859375 C 0.894531 -1.492188 0.609375 -2.398438 0.609375 -3.578125 C 0.609375 -4.316406 0.742188 -4.960938 1.015625 -5.515625 C 1.296875 -6.066406 1.695312 -6.488281 2.21875 -6.78125 C 2.738281 -7.082031 3.347656 -7.234375 4.046875 -7.234375 C 4.796875 -7.234375 5.453125 -7.097656 6.015625 -6.828125 L 5.65625 -6.125 C 5.113281 -6.375 4.570312 -6.5 4.03125 -6.5 Z M 4.03125 -6.5 "/></g></g></g><g fill="rgb(14.898682%, 23.529053%, 41.958618%)" fill-opacity="1"><g transform="translate(165.449093, 264.687755)"><g><path d="M 5.484375 -2.6875 C 5.484375 -1.8125 5.257812 -1.128906 4.8125 -0.640625 C 4.375 -0.148438 3.769531 0.09375 3 0.09375 C 2.519531 0.09375 2.09375 -0.015625 1.71875 -0.234375 C 1.351562 -0.460938 1.066406 -0.785156 0.859375 -1.203125 C 0.660156 -1.628906 0.5625 -2.125 0.5625 -2.6875 C 0.5625 -3.550781 0.78125 -4.226562 1.21875 -4.71875 C 1.65625 -5.207031 2.257812 -5.453125 3.03125 -5.453125 C 3.78125 -5.453125 4.375 -5.203125 4.8125 -4.703125 C 5.257812 -4.203125 5.484375 -3.53125 5.484375 -2.6875 Z M 1.40625 -2.6875 C 1.40625 -2 1.539062 -1.472656 1.8125 -1.109375 C 2.082031 -0.753906 2.484375 -0.578125 3.015625 -0.578125 C 3.546875 -0.578125 3.945312 -0.753906 4.21875 -1.109375 C 4.5 -1.472656 4.640625 -2 4.640625 -2.6875 C 4.640625 -3.363281 4.5 -3.878906 4.21875 -4.234375 C 3.945312 -4.585938 3.546875 -4.765625 3.015625 -4.765625 C 2.484375 -4.765625 2.082031 -4.585938 1.8125 -4.234375 C 1.539062 -3.890625 1.40625 -3.375 1.40625 -2.6875 Z M 1.40625 -2.6875 "/></g></g></g><g fill="rgb(14.898682%, 23.529053%, 41.958618%)" fill-opacity="1"><g transform="translate(171.486778, 264.687755)"><g><path d="M 3.265625 -4.71875 L 1.90625 -4.71875 L 1.90625 0 L 1.09375 0 L 1.09375 -4.71875 L 0.140625 -4.71875 L 0.140625 -5.09375 L 1.09375 -5.375 L 1.09375 -5.671875 C 1.09375 -6.992188 1.671875 -7.65625 2.828125 -7.65625 C 3.109375 -7.65625 3.4375 -7.597656 3.8125 -7.484375 L 3.609375 -6.828125 C 3.296875 -6.929688 3.03125 -6.984375 2.8125 -6.984375 C 2.5 -6.984375 2.269531 -6.878906 2.125 -6.671875 C 1.976562 -6.472656 1.90625 -6.148438 1.90625 -5.703125 L 1.90625 -5.359375 L 3.265625 -5.359375 Z M 3.265625 -4.71875 "/></g></g></g><g fill="rgb(14.898682%, 23.529053%, 41.958618%)" fill-opacity="1"><g transform="translate(174.874126, 264.687755)"><g><path d="M 3.265625 -4.71875 L 1.90625 -4.71875 L 1.90625 0 L 1.09375 0 L 1.09375 -4.71875 L 0.140625 -4.71875 L 0.140625 -5.09375 L 1.09375 -5.375 L 1.09375 -5.671875 C 1.09375 -6.992188 1.671875 -7.65625 2.828125 -7.65625 C 3.109375 -7.65625 3.4375 -7.597656 3.8125 -7.484375 L 3.609375 -6.828125 C 3.296875 -6.929688 3.03125 -6.984375 2.8125 -6.984375 C 2.5 -6.984375 2.269531 -6.878906 2.125 -6.671875 C 1.976562 -6.472656 1.90625 -6.148438 1.90625 -5.703125 L 1.90625 -5.359375 L 3.265625 -5.359375 Z M 3.265625 -4.71875 "/></g></g></g><g fill="rgb(14.898682%, 23.529053%, 41.958618%)" fill-opacity="1"><g transform="translate(178.261474, 264.687755)"><g><path d="M 3.125 0.09375 C 2.332031 0.09375 1.707031 -0.144531 1.25 -0.625 C 0.789062 -1.101562 0.5625 -1.769531 0.5625 -2.625 C 0.5625 -3.488281 0.773438 -4.175781 1.203125 -4.6875 C 1.628906 -5.195312 2.195312 -5.453125 2.90625 -5.453125 C 3.582031 -5.453125 4.113281 -5.226562 4.5 -4.78125 C 4.894531 -4.34375 5.09375 -3.765625 5.09375 -3.046875 L 5.09375 -2.53125 L 1.40625 -2.53125 C 1.414062 -1.90625 1.570312 -1.425781 1.875 -1.09375 C 2.175781 -0.769531 2.601562 -0.609375 3.15625 -0.609375 C 3.726562 -0.609375 4.296875 -0.726562 4.859375 -0.96875 L 4.859375 -0.25 C 4.566406 -0.125 4.289062 -0.0351562 4.03125 0.015625 C 3.78125 0.0664062 3.476562 0.09375 3.125 0.09375 Z M 2.90625 -4.765625 C 2.46875 -4.765625 2.117188 -4.625 1.859375 -4.34375 C 1.609375 -4.070312 1.460938 -3.6875 1.421875 -3.1875 L 4.21875 -3.1875 C 4.21875 -3.695312 4.101562 -4.085938 3.875 -4.359375 C 3.644531 -4.628906 3.320312 -4.765625 2.90625 -4.765625 Z M 2.90625 -4.765625 "/></g></g></g><g fill="rgb(14.898682%, 23.529053%, 41.958618%)" fill-opacity="1"><g transform="translate(183.869639, 264.687755)"><g><path d="M 3.125 0.09375 C 2.332031 0.09375 1.707031 -0.144531 1.25 -0.625 C 0.789062 -1.101562 0.5625 -1.769531 0.5625 -2.625 C 0.5625 -3.488281 0.773438 -4.175781 1.203125 -4.6875 C 1.628906 -5.195312 2.195312 -5.453125 2.90625 -5.453125 C 3.582031 -5.453125 4.113281 -5.226562 4.5 -4.78125 C 4.894531 -4.34375 5.09375 -3.765625 5.09375 -3.046875 L 5.09375 -2.53125 L 1.40625 -2.53125 C 1.414062 -1.90625 1.570312 -1.425781 1.875 -1.09375 C 2.175781 -0.769531 2.601562 -0.609375 3.15625 -0.609375 C 3.726562 -0.609375 4.296875 -0.726562 4.859375 -0.96875 L 4.859375 -0.25 C 4.566406 -0.125 4.289062 -0.0351562 4.03125 0.015625 C 3.78125 0.0664062 3.476562 0.09375 3.125 0.09375 Z M 2.90625 -4.765625 C 2.46875 -4.765625 2.117188 -4.625 1.859375 -4.34375 C 1.609375 -4.070312 1.460938 -3.6875 1.421875 -3.1875 L 4.21875 -3.1875 C 4.21875 -3.695312 4.101562 -4.085938 3.875 -4.359375 C 3.644531 -4.628906 3.320312 -4.765625 2.90625 -4.765625 Z M 2.90625 -4.765625 "/></g></g></g><g fill="rgb(14.898682%, 23.529053%, 41.958618%)" fill-opacity="1"><g transform="translate(189.477805, 264.687755)"><g/></g></g><g fill="rgb(14.898682%, 23.529053%, 41.958618%)" fill-opacity="1"><g transform="translate(192.074446, 264.687755)"><g><path d="M 5.015625 -1.90625 C 5.015625 -1.269531 4.785156 -0.773438 4.328125 -0.421875 C 3.867188 -0.078125 3.25 0.09375 2.46875 0.09375 C 1.625 0.09375 0.972656 -0.015625 0.515625 -0.234375 L 0.515625 -1.03125 C 0.804688 -0.90625 1.125 -0.804688 1.46875 -0.734375 C 1.820312 -0.660156 2.164062 -0.625 2.5 -0.625 C 3.050781 -0.625 3.46875 -0.726562 3.75 -0.9375 C 4.03125 -1.15625 4.171875 -1.453125 4.171875 -1.828125 C 4.171875 -2.066406 4.117188 -2.265625 4.015625 -2.421875 C 3.921875 -2.585938 3.753906 -2.734375 3.515625 -2.859375 C 3.285156 -2.992188 2.9375 -3.148438 2.46875 -3.328125 C 1.800781 -3.554688 1.320312 -3.832031 1.03125 -4.15625 C 0.75 -4.488281 0.609375 -4.914062 0.609375 -5.4375 C 0.609375 -5.988281 0.8125 -6.425781 1.21875 -6.75 C 1.632812 -7.070312 2.1875 -7.234375 2.875 -7.234375 C 3.582031 -7.234375 4.234375 -7.101562 4.828125 -6.84375 L 4.578125 -6.125 C 3.984375 -6.375 3.410156 -6.5 2.859375 -6.5 C 2.410156 -6.5 2.0625 -6.40625 1.8125 -6.21875 C 1.570312 -6.03125 1.453125 -5.769531 1.453125 -5.4375 C 1.453125 -5.1875 1.492188 -4.976562 1.578125 -4.8125 C 1.671875 -4.65625 1.828125 -4.507812 2.046875 -4.375 C 2.265625 -4.25 2.597656 -4.109375 3.046875 -3.953125 C 3.796875 -3.679688 4.3125 -3.390625 4.59375 -3.078125 C 4.875 -2.773438 5.015625 -2.382812 5.015625 -1.90625 Z M 5.015625 -1.90625 "/></g></g></g><g fill="rgb(14.898682%, 23.529053%, 41.958618%)" fill-opacity="1"><g transform="translate(197.560583, 264.687755)"><g><path d="M 4.515625 0 L 4.515625 -3.46875 C 4.515625 -3.894531 4.414062 -4.21875 4.21875 -4.4375 C 4.019531 -4.65625 3.710938 -4.765625 3.296875 -4.765625 C 2.734375 -4.765625 2.320312 -4.609375 2.0625 -4.296875 C 1.800781 -3.992188 1.671875 -3.492188 1.671875 -2.796875 L 1.671875 0 L 0.859375 0 L 0.859375 -7.59375 L 1.671875 -7.59375 L 1.671875 -5.296875 C 1.671875 -5.023438 1.65625 -4.796875 1.625 -4.609375 L 1.6875 -4.609375 C 1.84375 -4.867188 2.066406 -5.070312 2.359375 -5.21875 C 2.648438 -5.363281 2.988281 -5.4375 3.375 -5.4375 C 4.019531 -5.4375 4.503906 -5.28125 4.828125 -4.96875 C 5.160156 -4.65625 5.328125 -4.160156 5.328125 -3.484375 L 5.328125 0 Z M 4.515625 0 "/></g></g></g><g fill="rgb(14.898682%, 23.529053%, 41.958618%)" fill-opacity="1"><g transform="translate(203.695886, 264.687755)"><g><path d="M 5.484375 -2.6875 C 5.484375 -1.8125 5.257812 -1.128906 4.8125 -0.640625 C 4.375 -0.148438 3.769531 0.09375 3 0.09375 C 2.519531 0.09375 2.09375 -0.015625 1.71875 -0.234375 C 1.351562 -0.460938 1.066406 -0.785156 0.859375 -1.203125 C 0.660156 -1.628906 0.5625 -2.125 0.5625 -2.6875 C 0.5625 -3.550781 0.78125 -4.226562 1.21875 -4.71875 C 1.65625 -5.207031 2.257812 -5.453125 3.03125 -5.453125 C 3.78125 -5.453125 4.375 -5.203125 4.8125 -4.703125 C 5.257812 -4.203125 5.484375 -3.53125 5.484375 -2.6875 Z M 1.40625 -2.6875 C 1.40625 -2 1.539062 -1.472656 1.8125 -1.109375 C 2.082031 -0.753906 2.484375 -0.578125 3.015625 -0.578125 C 3.546875 -0.578125 3.945312 -0.753906 4.21875 -1.109375 C 4.5 -1.472656 4.640625 -2 4.640625 -2.6875 C 4.640625 -3.363281 4.5 -3.878906 4.21875 -4.234375 C 3.945312 -4.585938 3.546875 -4.765625 3.015625 -4.765625 C 2.484375 -4.765625 2.082031 -4.585938 1.8125 -4.234375 C 1.539062 -3.890625 1.40625 -3.375 1.40625 -2.6875 Z M 1.40625 -2.6875 "/></g></g></g><g fill="rgb(14.898682%, 23.529053%, 41.958618%)" fill-opacity="1"><g transform="translate(209.733571, 264.687755)"><g><path d="M 3.34375 0.09375 C 3 0.09375 2.679688 0.03125 2.390625 -0.09375 C 2.109375 -0.21875 1.867188 -0.414062 1.671875 -0.6875 L 1.609375 -0.6875 C 1.648438 -0.375 1.671875 -0.078125 1.671875 0.203125 L 1.671875 2.40625 L 0.859375 2.40625 L 0.859375 -5.359375 L 1.515625 -5.359375 L 1.625 -4.625 L 1.671875 -4.625 C 1.878906 -4.914062 2.117188 -5.125 2.390625 -5.25 C 2.671875 -5.382812 2.988281 -5.453125 3.34375 -5.453125 C 4.0625 -5.453125 4.613281 -5.207031 5 -4.71875 C 5.382812 -4.238281 5.578125 -3.5625 5.578125 -2.6875 C 5.578125 -1.800781 5.378906 -1.113281 4.984375 -0.625 C 4.585938 -0.144531 4.039062 0.09375 3.34375 0.09375 Z M 3.234375 -4.765625 C 2.679688 -4.765625 2.285156 -4.613281 2.046875 -4.3125 C 1.804688 -4.007812 1.679688 -3.523438 1.671875 -2.859375 L 1.671875 -2.6875 C 1.671875 -1.925781 1.796875 -1.382812 2.046875 -1.0625 C 2.296875 -0.738281 2.695312 -0.578125 3.25 -0.578125 C 3.71875 -0.578125 4.082031 -0.765625 4.34375 -1.140625 C 4.601562 -1.515625 4.734375 -2.03125 4.734375 -2.6875 C 4.734375 -3.351562 4.601562 -3.863281 4.34375 -4.21875 C 4.082031 -4.582031 3.710938 -4.765625 3.234375 -4.765625 Z M 3.234375 -4.765625 "/></g></g></g></svg>