<svg xmlns="http://www.w3.org/2000/svg" xmlns:xlink="http://www.w3.org/1999/xlink" width="500" zoomAndPan="magnify" viewBox="0 0 375 374.999991" height="500" preserveAspectRatio="xMidYMid meet" version="1.0"><defs><g/><clipPath id="id1"><path d="M 216 125 L 244 125 L 244 165 L 216 165 Z M 216 125 " clip-rule="nonzero"/></clipPath><clipPath id="id2"><path d="M 113.292969 87.136719 L 262.703125 100.4375 L 254.191406 196.058594 L 104.78125 182.757812 Z M 113.292969 87.136719 " clip-rule="nonzero"/></clipPath><clipPath id="id3"><path d="M 113.292969 87.136719 L 262.703125 100.4375 L 254.191406 196.058594 L 104.78125 182.757812 Z M 113.292969 87.136719 " clip-rule="nonzero"/></clipPath><clipPath id="id4"><path d="M 113.292969 87.136719 L 262.703125 100.4375 L 254.191406 196.058594 L 104.78125 182.757812 Z M 113.292969 87.136719 " clip-rule="nonzero"/></clipPath><clipPath id="id5"><path d="M 188 100 L 237 100 L 237 147 L 188 147 Z M 188 100 " clip-rule="nonzero"/></clipPath><clipPath id="id6"><path d="M 113.292969 87.136719 L 262.703125 100.4375 L 254.191406 196.058594 L 104.78125 182.757812 Z M 113.292969 87.136719 " clip-rule="nonzero"/></clipPath><clipPath id="id7"><path d="M 113.292969 87.136719 L 262.703125 100.4375 L 254.191406 196.058594 L 104.78125 182.757812 Z M 113.292969 87.136719 " clip-rule="nonzero"/></clipPath><clipPath id="id8"><path d="M 113.292969 87.136719 L 262.703125 100.4375 L 254.191406 196.058594 L 104.78125 182.757812 Z M 113.292969 87.136719 " clip-rule="nonzero"/></clipPath><clipPath id="id9"><path d="M 116 146 L 147 146 L 147 177 L 116 177 Z M 116 146 " clip-rule="nonzero"/></clipPath><clipPath id="id10"><path d="M 113.292969 87.136719 L 262.703125 100.4375 L 254.191406 196.058594 L 104.78125 182.757812 Z M 113.292969 87.136719 " clip-rule="nonzero"/></clipPath><clipPath id="id11"><path d="M 113.292969 87.136719 L 262.703125 100.4375 L 254.191406 196.058594 L 104.78125 182.757812 Z M 113.292969 87.136719 " clip-rule="nonzero"/></clipPath><clipPath id="id12"><path d="M 113.292969 87.136719 L 262.703125 100.4375 L 254.191406 196.058594 L 104.78125 182.757812 Z M 113.292969 87.136719 " clip-rule="nonzero"/></clipPath><clipPath id="id13"><path d="M 115 146 L 148 146 L 148 178 L 115 178 Z M 115 146 " clip-rule="nonzero"/></clipPath><clipPath id="id14"><path d="M 113.292969 87.136719 L 262.703125 100.4375 L 254.191406 196.058594 L 104.78125 182.757812 Z M 113.292969 87.136719 " clip-rule="nonzero"/></clipPath><clipPath id="id15"><path d="M 113.292969 87.136719 L 262.703125 100.4375 L 254.191406 196.058594 L 104.78125 182.757812 Z M 113.292969 87.136719 " clip-rule="nonzero"/></clipPath><clipPath id="id16"><path d="M 113.292969 87.136719 L 262.703125 100.4375 L 254.191406 196.058594 L 104.78125 182.757812 Z M 113.292969 87.136719 " clip-rule="nonzero"/></clipPath><clipPath id="id17"><path d="M 112 174 L 117 174 L 117 180 L 112 180 Z M 112 174 " clip-rule="nonzero"/></clipPath><clipPath id="id18"><path d="M 113.292969 87.136719 L 262.703125 100.4375 L 254.191406 196.058594 L 104.78125 182.757812 Z M 113.292969 87.136719 " clip-rule="nonzero"/></clipPath><clipPath id="id19"><path d="M 113.292969 87.136719 L 262.703125 100.4375 L 254.191406 196.058594 L 104.78125 182.757812 Z M 113.292969 87.136719 " clip-rule="nonzero"/></clipPath><clipPath id="id20"><path d="M 113.292969 87.136719 L 262.703125 100.4375 L 254.191406 196.058594 L 104.78125 182.757812 Z M 113.292969 87.136719 " clip-rule="nonzero"/></clipPath><clipPath id="id21"><path d="M 107 160 L 114 160 L 114 165 L 107 165 Z M 107 160 " clip-rule="nonzero"/></clipPath><clipPath id="id22"><path d="M 113.292969 87.136719 L 262.703125 100.4375 L 254.191406 196.058594 L 104.78125 182.757812 Z M 113.292969 87.136719 " clip-rule="nonzero"/></clipPath><clipPath id="id23"><path d="M 113.292969 87.136719 L 262.703125 100.4375 L 254.191406 196.058594 L 104.78125 182.757812 Z M 113.292969 87.136719 " clip-rule="nonzero"/></clipPath><clipPath id="id24"><path d="M 113.292969 87.136719 L 262.703125 100.4375 L 254.191406 196.058594 L 104.78125 182.757812 Z M 113.292969 87.136719 " clip-rule="nonzero"/></clipPath><clipPath id="id25"><path d="M 107 154 L 115 154 L 115 158 L 107 158 Z M 107 154 " clip-rule="nonzero"/></clipPath><clipPath id="id26"><path d="M 113.292969 87.136719 L 262.703125 100.4375 L 254.191406 196.058594 L 104.78125 182.757812 Z M 113.292969 87.136719 " clip-rule="nonzero"/></clipPath><clipPath id="id27"><path d="M 113.292969 87.136719 L 262.703125 100.4375 L 254.191406 196.058594 L 104.78125 182.757812 Z M 113.292969 87.136719 " clip-rule="nonzero"/></clipPath><clipPath id="id28"><path d="M 113.292969 87.136719 L 262.703125 100.4375 L 254.191406 196.058594 L 104.78125 182.757812 Z M 113.292969 87.136719 " clip-rule="nonzero"/></clipPath><clipPath id="id29"><path d="M 115 145 L 121 145 L 121 150 L 115 150 Z M 115 145 " clip-rule="nonzero"/></clipPath><clipPath id="id30"><path d="M 113.292969 87.136719 L 262.703125 100.4375 L 254.191406 196.058594 L 104.78125 182.757812 Z M 113.292969 87.136719 " clip-rule="nonzero"/></clipPath><clipPath id="id31"><path d="M 113.292969 87.136719 L 262.703125 100.4375 L 254.191406 196.058594 L 104.78125 182.757812 Z M 113.292969 87.136719 " clip-rule="nonzero"/></clipPath><clipPath id="id32"><path d="M 113.292969 87.136719 L 262.703125 100.4375 L 254.191406 196.058594 L 104.78125 182.757812 Z M 113.292969 87.136719 " clip-rule="nonzero"/></clipPath><clipPath id="id33"><path d="M 133 139 L 137 139 L 137 146 L 133 146 Z M 133 139 " clip-rule="nonzero"/></clipPath><clipPath id="id34"><path d="M 113.292969 87.136719 L 262.703125 100.4375 L 254.191406 196.058594 L 104.78125 182.757812 Z M 113.292969 87.136719 " clip-rule="nonzero"/></clipPath><clipPath id="id35"><path d="M 113.292969 87.136719 L 262.703125 100.4375 L 254.191406 196.058594 L 104.78125 182.757812 Z M 113.292969 87.136719 " clip-rule="nonzero"/></clipPath><clipPath id="id36"><path d="M 113.292969 87.136719 L 262.703125 100.4375 L 254.191406 196.058594 L 104.78125 182.757812 Z M 113.292969 87.136719 " clip-rule="nonzero"/></clipPath><clipPath id="id37"><path d="M 138 141 L 144 141 L 144 147 L 138 147 Z M 138 141 " clip-rule="nonzero"/></clipPath><clipPath id="id38"><path d="M 113.292969 87.136719 L 262.703125 100.4375 L 254.191406 196.058594 L 104.78125 182.757812 Z M 113.292969 87.136719 " clip-rule="nonzero"/></clipPath><clipPath id="id39"><path d="M 113.292969 87.136719 L 262.703125 100.4375 L 254.191406 196.058594 L 104.78125 182.757812 Z M 113.292969 87.136719 " clip-rule="nonzero"/></clipPath><clipPath id="id40"><path d="M 113.292969 87.136719 L 262.703125 100.4375 L 254.191406 196.058594 L 104.78125 182.757812 Z M 113.292969 87.136719 " clip-rule="nonzero"/></clipPath><clipPath id="id41"><path d="M 147 148 L 152 148 L 152 153 L 147 153 Z M 147 148 " clip-rule="nonzero"/></clipPath><clipPath id="id42"><path d="M 113.292969 87.136719 L 262.703125 100.4375 L 254.191406 196.058594 L 104.78125 182.757812 Z M 113.292969 87.136719 " clip-rule="nonzero"/></clipPath><clipPath id="id43"><path d="M 113.292969 87.136719 L 262.703125 100.4375 L 254.191406 196.058594 L 104.78125 182.757812 Z M 113.292969 87.136719 " clip-rule="nonzero"/></clipPath><clipPath id="id44"><path d="M 113.292969 87.136719 L 262.703125 100.4375 L 254.191406 196.058594 L 104.78125 182.757812 Z M 113.292969 87.136719 " clip-rule="nonzero"/></clipPath><clipPath id="id45"><path d="M 119 157 L 149 157 L 149 185 L 119 185 Z M 119 157 " clip-rule="nonzero"/></clipPath><clipPath id="id46"><path d="M 113.292969 87.136719 L 262.703125 100.4375 L 254.191406 196.058594 L 104.78125 182.757812 Z M 113.292969 87.136719 " clip-rule="nonzero"/></clipPath><clipPath id="id47"><path d="M 113.292969 87.136719 L 262.703125 100.4375 L 254.191406 196.058594 L 104.78125 182.757812 Z M 113.292969 87.136719 " clip-rule="nonzero"/></clipPath><clipPath id="id48"><path d="M 113.292969 87.136719 L 262.703125 100.4375 L 254.191406 196.058594 L 104.78125 182.757812 Z M 113.292969 87.136719 " clip-rule="nonzero"/></clipPath><clipPath id="id49"><path d="M 121.875 155.023438 L 148.585938 157.402344 L 145.996094 186.484375 L 119.289062 184.105469 Z M 121.875 155.023438 " clip-rule="nonzero"/></clipPath><clipPath id="id50"><path d="M 121.875 155.023438 L 148.585938 157.402344 L 146.003906 186.386719 L 119.296875 184.007812 Z M 121.875 155.023438 " clip-rule="nonzero"/></clipPath><clipPath id="id51"><path d="M 233 158 L 256 158 L 256 181 L 233 181 Z M 233 158 " clip-rule="nonzero"/></clipPath><clipPath id="id52"><path d="M 113.292969 87.136719 L 262.703125 100.4375 L 254.191406 196.058594 L 104.78125 182.757812 Z M 113.292969 87.136719 " clip-rule="nonzero"/></clipPath><clipPath id="id53"><path d="M 113.292969 87.136719 L 262.703125 100.4375 L 254.191406 196.058594 L 104.78125 182.757812 Z M 113.292969 87.136719 " clip-rule="nonzero"/></clipPath><clipPath id="id54"><path d="M 113.292969 87.136719 L 262.703125 100.4375 L 254.191406 196.058594 L 104.78125 182.757812 Z M 113.292969 87.136719 " clip-rule="nonzero"/></clipPath><clipPath id="id55"><path d="M 233.929688 158.296875 L 257.398438 160.386719 L 255.632812 180.183594 L 232.167969 178.09375 Z M 233.929688 158.296875 " clip-rule="nonzero"/></clipPath><clipPath id="id56"><path d="M 233.929688 158.296875 L 257.359375 160.382812 L 255.597656 180.179688 L 232.167969 178.09375 Z M 233.929688 158.296875 " clip-rule="nonzero"/></clipPath><clipPath id="id57"><path d="M 216 127 L 240 127 L 240 162 L 216 162 Z M 216 127 " clip-rule="nonzero"/></clipPath><clipPath id="id58"><path d="M 113.292969 87.136719 L 262.703125 100.4375 L 254.191406 196.058594 L 104.78125 182.757812 Z M 113.292969 87.136719 " clip-rule="nonzero"/></clipPath><clipPath id="id59"><path d="M 113.292969 87.136719 L 262.703125 100.4375 L 254.191406 196.058594 L 104.78125 182.757812 Z M 113.292969 87.136719 " clip-rule="nonzero"/></clipPath><clipPath id="id60"><path d="M 113.292969 87.136719 L 262.703125 100.4375 L 254.191406 196.058594 L 104.78125 182.757812 Z M 113.292969 87.136719 " clip-rule="nonzero"/></clipPath><clipPath id="id61"><path d="M 216 124 L 245 124 L 245 166 L 216 166 Z M 216 124 " clip-rule="nonzero"/></clipPath><clipPath id="id62"><path d="M 113.292969 87.136719 L 262.703125 100.4375 L 254.191406 196.058594 L 104.78125 182.757812 Z M 113.292969 87.136719 " clip-rule="nonzero"/></clipPath><clipPath id="id63"><path d="M 113.292969 87.136719 L 262.703125 100.4375 L 254.191406 196.058594 L 104.78125 182.757812 Z M 113.292969 87.136719 " clip-rule="nonzero"/></clipPath><clipPath id="id64"><path d="M 113.292969 87.136719 L 262.703125 100.4375 L 254.191406 196.058594 L 104.78125 182.757812 Z M 113.292969 87.136719 " clip-rule="nonzero"/></clipPath><clipPath id="id65"><path d="M 186 96 L 239 96 L 239 149 L 186 149 Z M 186 96 " clip-rule="nonzero"/></clipPath><clipPath id="id66"><path d="M 113.292969 87.136719 L 262.703125 100.4375 L 254.191406 196.058594 L 104.78125 182.757812 Z M 113.292969 87.136719 " clip-rule="nonzero"/></clipPath><clipPath id="id67"><path d="M 113.292969 87.136719 L 262.703125 100.4375 L 254.191406 196.058594 L 104.78125 182.757812 Z M 113.292969 87.136719 " clip-rule="nonzero"/></clipPath><clipPath id="id68"><path d="M 113.292969 87.136719 L 262.703125 100.4375 L 254.191406 196.058594 L 104.78125 182.757812 Z M 113.292969 87.136719 " clip-rule="nonzero"/></clipPath><clipPath id="id69"><path d="M 135 109 L 150 109 L 150 122 L 135 122 Z M 135 109 " clip-rule="nonzero"/></clipPath><clipPath id="id70"><path d="M 113.292969 87.136719 L 262.703125 100.4375 L 254.191406 196.058594 L 104.78125 182.757812 Z M 113.292969 87.136719 " clip-rule="nonzero"/></clipPath><clipPath id="id71"><path d="M 113.292969 87.136719 L 262.703125 100.4375 L 254.191406 196.058594 L 104.78125 182.757812 Z M 113.292969 87.136719 " clip-rule="nonzero"/></clipPath><clipPath id="id72"><path d="M 113.292969 87.136719 L 262.703125 100.4375 L 254.191406 196.058594 L 104.78125 182.757812 Z M 113.292969 87.136719 " clip-rule="nonzero"/></clipPath><clipPath id="id73"><path d="M 163 116 L 179 116 L 179 126 L 163 126 Z M 163 116 " clip-rule="nonzero"/></clipPath><clipPath id="id74"><path d="M 113.292969 87.136719 L 262.703125 100.4375 L 254.191406 196.058594 L 104.78125 182.757812 Z M 113.292969 87.136719 " clip-rule="nonzero"/></clipPath><clipPath id="id75"><path d="M 113.292969 87.136719 L 262.703125 100.4375 L 254.191406 196.058594 L 104.78125 182.757812 Z M 113.292969 87.136719 " clip-rule="nonzero"/></clipPath><clipPath id="id76"><path d="M 113.292969 87.136719 L 262.703125 100.4375 L 254.191406 196.058594 L 104.78125 182.757812 Z M 113.292969 87.136719 " clip-rule="nonzero"/></clipPath></defs><rect x="-37.5" width="450" fill="rgb(96.078491%, 100%, 99.609375%)" y="-37.499999" height="449.999989" fill-opacity="1"/><rect x="-37.5" width="450" fill="rgb(100%, 100%, 100%)" y="-37.499999" height="449.999989" fill-opacity="1"/><rect x="-37.5" width="450" fill="rgb(96.078491%, 100%, 99.609375%)" y="-37.499999" height="449.999989" fill-opacity="1"/><g clip-path="url(#id1)"><g clip-path="url(#id2)"><g clip-path="url(#id3)"><g clip-path="url(#id4)"><path fill="rgb(100%, 56.858826%, 0%)" d="M 216.867188 125.398438 C 216.867188 125.398438 216.273438 126.507812 216.609375 128.277344 C 216.609375 128.277344 239.941406 134.105469 237.859375 160.945312 L 243.152344 164.410156 C 243.152344 164.410156 244.339844 148.539062 238.367188 138.835938 C 232.390625 129.128906 224.566406 124.730469 216.867188 125.398438 " fill-opacity="1" fill-rule="nonzero"/></g></g></g></g><g clip-path="url(#id5)"><g clip-path="url(#id6)"><g clip-path="url(#id7)"><g clip-path="url(#id8)"><path fill="rgb(0%, 76.078796%, 100%)" d="M 229.234375 118.414062 C 228.605469 118.339844 227.847656 119.007812 228.199219 119.675781 C 228.589844 120.414062 228.886719 121.136719 229.097656 121.867188 C 227.625 119.941406 225.824219 118.445312 223.179688 117.914062 C 222.046875 117.6875 221.796875 119.203125 222.648438 119.710938 C 223.332031 120.117188 223.859375 120.5625 224.285156 121.070312 C 220.894531 120.238281 216.269531 122.242188 215.542969 125.679688 C 214.785156 129.273438 216.761719 131.820312 217.824219 133.015625 C 216.976562 133.289062 216.332031 133.894531 216.3125 135.046875 C 216.296875 136.34375 217.433594 137.414062 218.71875 138.25 C 218.601562 138.296875 218.484375 138.339844 218.363281 138.390625 C 217.90625 138.582031 217.554688 139.160156 217.789062 139.65625 C 219.066406 142.378906 220.835938 144.550781 223.152344 146.253906 C 219.277344 146.460938 215.777344 143.609375 214.144531 140.046875 C 212.453125 136.359375 212.367188 132.15625 212.3125 128.171875 C 212.300781 127.101562 210.867188 127.09375 210.445312 127.871094 C 209.730469 129.191406 209.25 130.519531 208.964844 131.902344 C 208.726562 131.5625 208.472656 131.226562 208.191406 130.894531 C 207.75 130.371094 206.777344 130.324219 206.503906 131.074219 C 206.128906 132.117188 205.925781 133.019531 205.902344 133.96875 C 205.570312 133.75 205.238281 133.523438 204.910156 133.300781 C 204.480469 133.015625 203.871094 133.003906 203.535156 133.457031 C 201.265625 136.496094 199.59375 139.773438 198.515625 143.324219 C 196.914062 135.011719 201.488281 126.808594 209.878906 123.9375 C 210.640625 123.675781 210.75 122.402344 209.929688 122.125 C 207.59375 121.339844 205.289062 121.359375 203.183594 122.226562 C 203.210938 121.484375 202.316406 120.972656 201.632812 121.40625 C 200.484375 122.140625 199.335938 122.875 198.1875 123.605469 C 198.128906 123.402344 198.050781 123.171875 197.941406 122.839844 C 197.785156 122.367188 197.152344 122.050781 196.6875 122.265625 C 193.3125 123.824219 190.523438 126.066406 188.363281 128.933594 C 188.5625 127.957031 189.753906 123.351562 193.378906 120.683594 C 197.179688 117.882812 203.476562 117.042969 206.40625 117.351562 C 207.289062 117.441406 208.058594 116.191406 207.171875 115.617188 C 205.535156 114.5625 203.882812 113.820312 202.042969 113.347656 C 202.144531 112.941406 202.242188 112.53125 202.34375 112.125 C 202.496094 111.5 201.867188 110.945312 201.285156 110.996094 C 197.875 111.308594 194.050781 108.441406 190.929688 106.234375 C 195.226562 105.785156 199.40625 107.109375 202.796875 109.960938 C 203.199219 110.300781 203.835938 110.210938 204.160156 109.808594 C 205.472656 108.1875 210.066406 113.765625 210.777344 114.484375 C 211.5 115.207031 212.554688 114.210938 212.289062 113.386719 C 211.171875 109.929688 210.617188 106.648438 213.082031 103.671875 C 214.222656 102.292969 215.707031 101.222656 217.257812 100.292969 C 216.46875 102.035156 215.765625 103.804688 215.164062 105.644531 C 214.898438 106.453125 215.757812 107.417969 216.554688 106.847656 C 214.957031 110.292969 213.976562 113.882812 213.597656 117.714844 C 213.378906 118.0625 213.171875 118.425781 212.984375 118.804688 C 212.417969 119.941406 214.140625 120.636719 214.75 119.585938 C 217.59375 114.703125 223.417969 113.109375 228.546875 115.191406 C 232.636719 116.851562 236.855469 121.070312 236.554688 125.683594 C 234.878906 122.542969 232.609375 118.820312 229.234375 118.414062 " fill-opacity="1" fill-rule="nonzero"/></g></g></g></g><g clip-path="url(#id9)"><g clip-path="url(#id10)"><g clip-path="url(#id11)"><g clip-path="url(#id12)"><path fill="rgb(100%, 88.238525%, 0%)" d="M 123.140625 176.765625 C 125.699219 172.785156 128.507812 163.539062 146.558594 158.402344 C 146.558594 158.402344 140.238281 136.988281 122.757812 151.3125 C 108.527344 162.972656 121.171875 176.589844 123.140625 176.765625 " fill-opacity="1" fill-rule="nonzero"/></g></g></g></g><g clip-path="url(#id13)"><g clip-path="url(#id14)"><g clip-path="url(#id15)"><g clip-path="url(#id16)"><path fill="rgb(100%, 49.01886%, 39.99939%)" d="M 147.78125 157.828125 C 146.625 153.910156 143.980469 150.351562 140.597656 148.316406 C 134.742188 144.800781 127.722656 146.066406 122.550781 150.238281 C 113.570312 157.476562 113.171875 171.390625 122.464844 177.460938 C 122.695312 176.898438 122.96875 176.351562 123.285156 175.832031 C 120.046875 173.636719 117.855469 169.859375 117.394531 165.988281 C 116.75 160.554688 119.539062 155.183594 123.699219 151.824219 C 128.019531 148.335938 133.855469 146.953125 138.933594 149.648438 C 142.59375 151.59375 144.449219 154.566406 145.433594 158 C 146.195312 157.828125 146.988281 157.78125 147.78125 157.828125 " fill-opacity="1" fill-rule="nonzero"/></g></g></g></g><g clip-path="url(#id17)"><g clip-path="url(#id18)"><g clip-path="url(#id19)"><g clip-path="url(#id20)"><path fill="rgb(100%, 49.01886%, 39.99939%)" d="M 116.144531 176.597656 C 116.734375 176.144531 116.769531 175.164062 116.160156 174.675781 C 115.574219 174.207031 114.789062 174.410156 114.40625 174.964844 C 114.285156 175.054688 114.175781 175.167969 114.078125 175.304688 C 113.886719 175.488281 113.757812 175.695312 113.578125 175.917969 C 113.402344 176.128906 113.277344 176.296875 113.175781 176.484375 C 112.777344 176.917969 112.417969 177.496094 112.347656 178.082031 C 112.234375 179.066406 113.25 179.605469 114.050781 179.128906 C 114.484375 178.875 114.808594 178.425781 115.070312 177.980469 C 115.246094 177.8125 115.34375 177.621094 115.507812 177.402344 C 115.660156 177.203125 115.808594 177.058594 115.933594 176.871094 C 116.019531 176.785156 116.085938 176.691406 116.144531 176.597656 " fill-opacity="1" fill-rule="nonzero"/></g></g></g></g><g clip-path="url(#id21)"><g clip-path="url(#id22)"><g clip-path="url(#id23)"><g clip-path="url(#id24)"><path fill="rgb(100%, 49.01886%, 39.99939%)" d="M 112.808594 161.015625 C 112.019531 160.8125 111.101562 161.085938 110.308594 161.234375 C 109.488281 161.386719 108.640625 161.601562 107.871094 161.925781 C 106.710938 162.40625 107.050781 164.328125 108.386719 164.144531 C 109.226562 164.027344 110.054688 163.84375 110.890625 163.679688 C 111.582031 163.546875 112.40625 163.578125 113.03125 163.257812 C 114.078125 162.71875 113.984375 161.316406 112.808594 161.015625 " fill-opacity="1" fill-rule="nonzero"/></g></g></g></g><g clip-path="url(#id25)"><g clip-path="url(#id26)"><g clip-path="url(#id27)"><g clip-path="url(#id28)"><path fill="rgb(100%, 49.01886%, 39.99939%)" d="M 113.386719 154.78125 C 112.667969 154.804688 111.945312 154.71875 111.21875 154.765625 C 110.496094 154.8125 109.789062 154.960938 109.070312 155.03125 C 107.226562 155.210938 107.777344 158.066406 109.65625 157.5625 C 110.707031 157.28125 112.230469 157.1875 113.308594 157.339844 C 115.125 157.597656 115.285156 154.726562 113.386719 154.78125 " fill-opacity="1" fill-rule="nonzero"/></g></g></g></g><g clip-path="url(#id29)"><g clip-path="url(#id30)"><g clip-path="url(#id31)"><g clip-path="url(#id32)"><path fill="rgb(100%, 49.01886%, 39.99939%)" d="M 120.210938 147.558594 C 119.96875 147.207031 119.589844 146.992188 119.269531 146.726562 C 119.027344 146.53125 118.738281 146.3125 118.53125 146.117188 C 118.105469 145.707031 117.796875 145.351562 117.179688 145.234375 C 116.488281 145.101562 115.820312 145.738281 115.90625 146.433594 C 116.019531 147.355469 116.882812 148.019531 117.542969 148.59375 C 118.238281 149.191406 119.230469 150.007812 120.089844 149.164062 C 120.519531 148.738281 120.550781 148.050781 120.210938 147.558594 " fill-opacity="1" fill-rule="nonzero"/></g></g></g></g><g clip-path="url(#id33)"><g clip-path="url(#id34)"><g clip-path="url(#id35)"><g clip-path="url(#id36)"><path fill="rgb(100%, 49.01886%, 39.99939%)" d="M 134.761719 139.742188 C 134.277344 140.296875 133.914062 140.929688 133.679688 141.625 C 133.441406 142.332031 133.429688 143.046875 133.261719 143.753906 C 132.808594 145.648438 136.230469 145.714844 135.855469 143.832031 C 135.691406 143.011719 136.289062 141.976562 136.722656 141.316406 C 137.601562 139.980469 135.839844 138.503906 134.761719 139.742188 " fill-opacity="1" fill-rule="nonzero"/></g></g></g></g><g clip-path="url(#id37)"><g clip-path="url(#id38)"><g clip-path="url(#id39)"><g clip-path="url(#id40)"><path fill="rgb(100%, 49.01886%, 39.99939%)" d="M 141.796875 141.351562 C 140.335938 141.777344 139.765625 143.695312 139.058594 144.832031 C 138.617188 145.539062 138.714844 146.484375 139.550781 146.851562 C 140.339844 147.199219 141.203125 146.679688 141.371094 145.859375 C 141.390625 145.761719 141.421875 145.660156 141.453125 145.5625 C 141.710938 145.160156 141.941406 144.746094 142.230469 144.359375 C 142.582031 143.890625 143.09375 143.484375 143.269531 142.914062 C 143.570312 141.941406 142.8125 141.058594 141.796875 141.351562 " fill-opacity="1" fill-rule="nonzero"/></g></g></g></g><g clip-path="url(#id41)"><g clip-path="url(#id42)"><g clip-path="url(#id43)"><g clip-path="url(#id44)"><path fill="rgb(100%, 49.01886%, 39.99939%)" d="M 151.515625 149.609375 C 151.214844 148.90625 150.566406 148.6875 149.871094 148.859375 C 149.378906 148.976562 148.929688 149.1875 148.515625 149.476562 C 148.285156 149.632812 148.066406 149.816406 147.878906 150.019531 C 147.855469 150.042969 147.828125 150.070312 147.804688 150.097656 C 147.972656 149.941406 147.921875 149.992188 147.644531 150.253906 C 147.589844 150.34375 147.53125 150.4375 147.476562 150.53125 C 147.421875 150.660156 147.417969 150.660156 147.46875 150.53125 C 147.027344 151 147.15625 151.886719 147.660156 152.257812 C 148.136719 152.605469 149.023438 152.652344 149.378906 152.066406 C 149.347656 152.085938 149.3125 152.105469 149.28125 152.125 C 149.367188 152.082031 149.4375 152.023438 149.496094 151.953125 C 149.636719 151.828125 149.664062 151.800781 149.570312 151.871094 C 149.507812 151.917969 149.507812 151.917969 149.566406 151.871094 C 149.703125 151.746094 149.859375 151.652344 150.003906 151.539062 C 150.007812 151.539062 150.007812 151.535156 150.011719 151.535156 C 150.089844 151.5 150.167969 151.464844 150.242188 151.433594 C 150.414062 151.359375 150.582031 151.300781 150.765625 151.253906 C 151.414062 151.097656 151.761719 150.191406 151.515625 149.609375 " fill-opacity="1" fill-rule="nonzero"/></g></g></g></g><g clip-path="url(#id45)"><g clip-path="url(#id46)"><g clip-path="url(#id47)"><g clip-path="url(#id48)"><g clip-path="url(#id49)"><g clip-path="url(#id50)"><path fill="rgb(29.798889%, 38.038635%, 59.999084%)" d="M 147.152344 157.4375 C 136.449219 158.609375 122.449219 169.984375 119.4375 183.246094 C 119.25 184.078125 120.519531 184.425781 120.851562 183.664062 C 123.375 177.839844 126.121094 172.625 130.828125 168.238281 C 135.421875 163.957031 141.363281 160.457031 147.59375 159.339844 C 148.984375 159.089844 148.574219 157.285156 147.152344 157.4375 " fill-opacity="1" fill-rule="nonzero"/></g></g></g></g></g></g><g clip-path="url(#id51)"><g clip-path="url(#id52)"><g clip-path="url(#id53)"><g clip-path="url(#id54)"><g clip-path="url(#id55)"><g clip-path="url(#id56)"><path fill="rgb(29.798889%, 38.038635%, 59.999084%)" d="M 255.628906 178.796875 C 252.375 169.066406 244.785156 162.78125 235.726562 158.714844 C 233.953125 157.917969 233.402344 160.003906 234.625 160.558594 C 242.878906 164.316406 249.726562 170.386719 253.90625 179.441406 C 254.398438 180.511719 256.007812 179.933594 255.628906 178.796875 " fill-opacity="1" fill-rule="nonzero"/></g></g></g></g></g></g><g clip-path="url(#id57)"><g clip-path="url(#id58)"><g clip-path="url(#id59)"><g clip-path="url(#id60)"><path fill="rgb(29.798889%, 38.038635%, 59.999084%)" d="M 238.964844 161.515625 C 240.148438 153.863281 237.972656 145.601562 233.578125 139.308594 C 231.453125 136.269531 228.679688 133.398438 225.582031 131.351562 C 224.125 130.386719 222.566406 129.519531 220.996094 128.753906 C 218.890625 127.730469 218.398438 127.449219 216.320312 127.089844 C 216.128906 127.058594 216.015625 128.488281 216.191406 128.570312 C 217.429688 129.160156 218.488281 129.605469 219.816406 130.1875 C 221.453125 130.902344 222.964844 131.757812 224.421875 132.804688 C 227.253906 134.84375 229.742188 137.128906 231.785156 139.988281 C 236.199219 146.160156 237.542969 153.242188 237.0625 160.605469 C 237.726562 160.859375 238.355469 161.167969 238.964844 161.515625 " fill-opacity="1" fill-rule="nonzero"/></g></g></g></g><g clip-path="url(#id61)"><g clip-path="url(#id62)"><g clip-path="url(#id63)"><g clip-path="url(#id64)"><path fill="rgb(29.798889%, 38.038635%, 59.999084%)" d="M 242.339844 163.800781 C 242.953125 164.246094 243.539062 164.695312 244.085938 165.183594 C 244.40625 161.328125 245.417969 150.238281 239.375 138.746094 C 235.191406 130.792969 226.933594 124.4375 217.433594 124.621094 C 216.179688 124.644531 216.003906 126.238281 217.28125 126.300781 C 227.15625 126.773438 235.484375 133.453125 238.863281 141.820312 C 241.601562 148.609375 242.636719 156.355469 242.339844 163.800781 " fill-opacity="1" fill-rule="nonzero"/></g></g></g></g><g clip-path="url(#id65)"><g clip-path="url(#id66)"><g clip-path="url(#id67)"><g clip-path="url(#id68)"><path fill="rgb(29.798889%, 38.038635%, 59.999084%)" d="M 229.234375 118.414062 C 228.605469 118.339844 227.847656 119.007812 228.199219 119.675781 C 228.589844 120.414062 228.886719 121.136719 229.097656 121.867188 C 227.625 119.941406 225.824219 118.445312 223.179688 117.914062 C 222.046875 117.6875 221.796875 119.203125 222.648438 119.710938 C 223.332031 120.117188 223.859375 120.5625 224.285156 121.070312 C 220.894531 120.238281 216.269531 122.242188 215.542969 125.679688 C 214.785156 129.273438 216.761719 131.820312 217.824219 133.015625 C 216.976562 133.289062 216.332031 133.894531 216.3125 135.046875 C 216.296875 136.34375 217.433594 137.414062 218.71875 138.25 C 218.601562 138.296875 218.484375 138.339844 218.363281 138.390625 C 217.90625 138.582031 217.554688 139.160156 217.789062 139.65625 C 219.066406 142.378906 220.835938 144.550781 223.152344 146.253906 C 219.277344 146.460938 215.777344 143.609375 214.144531 140.046875 C 212.453125 136.359375 212.367188 132.15625 212.3125 128.171875 C 212.300781 127.101562 210.867188 127.09375 210.445312 127.871094 C 209.730469 129.191406 209.25 130.519531 208.964844 131.902344 C 208.726562 131.5625 208.472656 131.226562 208.191406 130.894531 C 207.75 130.371094 206.777344 130.324219 206.503906 131.074219 C 206.128906 132.117188 205.925781 133.019531 205.902344 133.96875 C 205.570312 133.75 205.238281 133.523438 204.910156 133.300781 C 204.480469 133.015625 203.871094 133.003906 203.535156 133.457031 C 201.265625 136.496094 199.59375 139.773438 198.515625 143.324219 C 196.914062 135.011719 201.488281 126.808594 209.878906 123.9375 C 210.640625 123.675781 210.75 122.402344 209.929688 122.125 C 207.59375 121.339844 205.289062 121.359375 203.183594 122.226562 C 203.210938 121.484375 202.316406 120.972656 201.632812 121.40625 C 200.484375 122.140625 199.335938 122.875 198.1875 123.605469 C 198.128906 123.402344 198.050781 123.171875 197.941406 122.839844 C 197.785156 122.367188 197.152344 122.050781 196.6875 122.265625 C 193.3125 123.824219 190.523438 126.066406 188.363281 128.933594 C 188.5625 127.957031 189.753906 123.351562 193.378906 120.683594 C 197.179688 117.882812 203.476562 117.042969 206.40625 117.351562 C 207.289062 117.441406 208.058594 116.191406 207.171875 115.617188 C 205.535156 114.5625 203.882812 113.820312 202.042969 113.347656 C 202.144531 112.941406 202.242188 112.53125 202.34375 112.125 C 202.496094 111.5 201.867188 110.945312 201.285156 110.996094 C 197.875 111.308594 194.050781 108.441406 190.929688 106.234375 C 195.226562 105.785156 199.40625 107.109375 202.796875 109.960938 C 203.199219 110.300781 203.835938 110.210938 204.160156 109.808594 C 205.472656 108.1875 210.066406 113.765625 210.777344 114.484375 C 211.5 115.207031 212.554688 114.210938 212.289062 113.386719 C 211.171875 109.929688 210.617188 106.648438 213.082031 103.671875 C 214.222656 102.292969 215.707031 101.222656 217.257812 100.292969 C 216.46875 102.035156 215.765625 103.804688 215.164062 105.644531 C 214.898438 106.453125 215.757812 107.417969 216.554688 106.847656 C 214.957031 110.292969 213.976562 113.882812 213.597656 117.714844 C 213.378906 118.0625 213.171875 118.425781 212.984375 118.804688 C 212.417969 119.941406 214.140625 120.636719 214.75 119.585938 C 217.59375 114.703125 223.417969 113.109375 228.546875 115.191406 C 232.636719 116.851562 236.855469 121.070312 236.554688 125.683594 C 234.878906 122.542969 232.609375 118.820312 229.234375 118.414062 Z M 229.378906 113.304688 C 224.785156 111.386719 219.53125 112.015625 215.921875 115.050781 C 216.539062 111.8125 217.632812 108.742188 219.226562 105.78125 C 219.519531 105.234375 219.074219 104.519531 218.5 104.441406 C 218.183594 104.398438 217.902344 104.375 217.640625 104.378906 C 218.410156 102.320312 219.296875 100.328125 220.328125 98.367188 C 220.6875 97.679688 219.84375 96.683594 219.109375 97.074219 C 215.898438 98.785156 212.382812 100.707031 210.515625 103.980469 C 209.335938 106.042969 209.1875 108.140625 209.515625 110.265625 C 207.625 108.292969 205.3125 106.453125 203.347656 107.917969 C 198.933594 104.53125 193.511719 103.453125 188.066406 104.785156 C 187.378906 104.953125 187.203125 106.082031 187.800781 106.457031 C 191.378906 108.707031 195.675781 112.589844 200.140625 112.9375 C 200.0625 113.265625 199.980469 113.59375 199.898438 113.921875 C 199.769531 114.449219 200.226562 114.945312 200.707031 115.042969 C 201.238281 115.144531 201.742188 115.273438 202.234375 115.417969 C 198.253906 115.835938 194.503906 117.355469 191.394531 119.824219 C 189.808594 121.082031 186.117188 124.789062 186.199219 132.761719 C 186.207031 133.792969 187.636719 133.886719 188.058594 133.058594 C 189.941406 129.367188 192.75 126.519531 196.363281 124.613281 C 196.414062 124.84375 196.464844 125.074219 196.519531 125.304688 C 196.613281 126.066406 197.433594 126.398438 198.058594 126 L 200.160156 124.660156 C 200.199219 125.367188 201.058594 125.972656 201.695312 125.433594 C 202.996094 124.324219 204.449219 123.671875 206.003906 123.527344 C 197.675781 128.140625 193.964844 138.191406 197.6875 147.402344 C 198.054688 148.316406 199.386719 148.183594 199.566406 147.214844 C 200.378906 142.875 202.027344 138.988281 204.546875 135.410156 C 205.183594 135.839844 205.824219 136.273438 206.464844 136.703125 C 207.082031 137.121094 208.234375 136.746094 208.050781 135.84375 C 207.824219 135.128906 207.753906 134.414062 207.820312 133.695312 C 208.136719 134.214844 208.414062 134.765625 208.695312 135.441406 C 209.136719 136.507812 210.585938 136.089844 210.582031 135 C 210.582031 134.628906 210.605469 134.269531 210.632812 133.910156 C 211.019531 137.691406 211.992188 141.410156 214.550781 144.28125 C 217.472656 147.558594 221.824219 149.1875 226.042969 147.648438 C 226.898438 147.335938 226.816406 146.222656 226.09375 145.828125 C 223.542969 144.445312 221.574219 142.515625 220.175781 140.039062 C 220.664062 139.957031 221.152344 139.875 221.640625 139.789062 C 222.742188 139.882812 223.207031 138.441406 222.191406 137.921875 C 221.371094 137.566406 220.613281 137.117188 219.914062 136.570312 C 217.566406 135.214844 218.996094 135.171875 220.257812 134.917969 C 221.1875 134.730469 221.847656 133.722656 221.027344 133.179688 C 218.554688 131.542969 217.25 129.117188 217.476562 126.109375 C 218.652344 122.921875 222.75 121.746094 225.789062 123.707031 C 226.546875 124.191406 227.582031 123.574219 227.261719 122.636719 C 227.238281 122.574219 227.210938 122.515625 227.1875 122.453125 C 228.125 123.554688 228.878906 124.859375 229.613281 126.160156 C 230.011719 126.863281 231.25 126.539062 231.308594 125.757812 C 231.4375 124.082031 231.296875 122.582031 230.832031 121.101562 C 233.148438 122.808594 234.898438 126.703125 235.988281 128.746094 C 236.359375 129.445312 237.425781 129.660156 237.789062 128.800781 C 240.515625 122.328125 235.183594 115.730469 229.378906 113.304688 " fill-opacity="1" fill-rule="nonzero"/></g></g></g></g><g clip-path="url(#id69)"><g clip-path="url(#id70)"><g clip-path="url(#id71)"><g clip-path="url(#id72)"><path fill="rgb(29.798889%, 38.038635%, 59.999084%)" d="M 147.800781 109.980469 C 145.390625 112.042969 143.785156 114.996094 142.847656 118.019531 C 140.46875 117.5625 138.167969 117.507812 136.003906 118.945312 C 134.378906 120.023438 136.21875 122.375 137.535156 121.042969 C 139.101562 119.457031 141.4375 120.097656 143.34375 120.554688 C 143.953125 120.703125 144.648438 120.402344 144.820312 119.753906 C 145.675781 116.53125 147.269531 114.152344 149.398438 111.648438 C 150.351562 110.527344 148.949219 108.996094 147.800781 109.980469 " fill-opacity="1" fill-rule="nonzero"/></g></g></g></g><g clip-path="url(#id73)"><g clip-path="url(#id74)"><g clip-path="url(#id75)"><g clip-path="url(#id76)"><path fill="rgb(29.798889%, 38.038635%, 59.999084%)" d="M 176.253906 116.921875 C 174.53125 118.789062 173.007812 120.933594 171.578125 123.054688 C 169.128906 122.585938 166.960938 122.59375 164.4375 123.199219 C 163.835938 123.34375 163.382812 123.996094 163.554688 124.617188 C 163.566406 124.675781 163.589844 124.734375 163.613281 124.789062 C 163.628906 124.832031 163.648438 124.871094 163.667969 124.914062 C 163.863281 125.359375 164.503906 125.636719 164.96875 125.5 C 167.164062 124.863281 169.636719 124.886719 171.785156 125.679688 C 172.320312 125.875 172.933594 125.574219 173.226562 125.121094 C 174.742188 122.777344 176.4375 120.636719 178.074219 118.382812 C 178.851562 117.308594 177.160156 115.945312 176.253906 116.921875 " fill-opacity="1" fill-rule="nonzero"/></g></g></g></g><path fill="rgb(29.798889%, 38.038635%, 59.999084%)" d="M 125.550781 198.824219 C 124.742188 197.621094 123.25 197.207031 122.21875 197.898438 C 121.1875 198.589844 121.007812 200.128906 121.816406 201.332031 C 122.625 202.535156 124.117188 202.949219 125.148438 202.257812 C 126.179688 201.5625 126.359375 200.027344 125.550781 198.824219 " fill-opacity="1" fill-rule="nonzero"/><path fill="rgb(29.798889%, 38.038635%, 59.999084%)" d="M 257.582031 201.363281 C 258.304688 200.105469 258.015625 198.585938 256.941406 197.964844 C 255.863281 197.34375 254.402344 197.863281 253.679688 199.121094 C 252.957031 200.375 253.246094 201.898438 254.324219 202.515625 C 255.398438 203.136719 256.859375 202.617188 257.582031 201.363281 " fill-opacity="1" fill-rule="nonzero"/><g fill="rgb(29.798889%, 38.038635%, 59.999084%)" fill-opacity="1"><g transform="translate(147.193985, 186.963269)"><g><path d="M 7.941406 -14.515625 L 7.941406 -14.628906 C 7.941406 -15.3125 8.320312 -15.996094 8.320312 -16.792969 C 8.320312 -17.097656 8.359375 -17.363281 8.28125 -17.707031 C 8.398438 -17.972656 8.433594 -18.238281 8.433594 -18.542969 L 9.082031 -18.578125 L 10.183594 -18.578125 C 11.664062 -18.578125 14.058594 -18.695312 14.058594 -19.757812 C 14.058594 -20.441406 12.5 -20.480469 11.625 -20.480469 L 8.550781 -20.480469 C 7.941406 -20.480469 7.332031 -20.402344 6.726562 -20.328125 C 6.308594 -20.632812 5.890625 -20.785156 5.355469 -20.785156 C 5.089844 -20.785156 4.597656 -20.785156 4.519531 -20.480469 C 4.558594 -20.402344 4.558594 -20.328125 4.558594 -20.25 C 3.914062 -20.25 -0.265625 -20.175781 -0.265625 -19.148438 C -0.265625 -18.769531 0.53125 -18.695312 0.796875 -18.695312 C 1.558594 -18.695312 2.28125 -18.769531 3 -18.769531 C 3.457031 -18.769531 3.953125 -18.730469 4.484375 -18.617188 C 4.101562 -17.441406 4.445312 -16.222656 4.21875 -15.085938 L 4.371094 -14.816406 C 4.371094 -12.765625 3.914062 -10.675781 3.914062 -8.585938 C 3.914062 -6.042969 3.191406 -3.382812 3.191406 -0.835938 C 3.191406 -0.0390625 3.457031 1.214844 4.445312 1.328125 L 4.671875 1.519531 L 4.710938 1.480469 L 4.9375 1.597656 L 5.207031 0.988281 L 5.355469 0.910156 L 5.320312 0.761719 L 5.507812 0.304688 L 5.625 0.34375 L 6.117188 0.0742188 L 6.230469 -0.378906 C 6.003906 -0.304688 6.460938 -0.644531 6.460938 -0.683594 C 6.6875 -0.875 6.878906 -1.101562 6.992188 -1.367188 C 6.839844 -1.746094 6.761719 -2.164062 6.648438 -2.546875 C 6.914062 -3.039062 7.179688 -3.609375 7.179688 -4.179688 C 7.179688 -4.789062 7.410156 -5.207031 7.484375 -5.773438 C 7.789062 -7.789062 8.132812 -10.980469 8.132812 -13.109375 C 8.132812 -13.601562 8.09375 -14.019531 7.980469 -14.476562 Z M 7.941406 -14.515625 "/></g></g></g><g fill="rgb(29.798889%, 38.038635%, 59.999084%)" fill-opacity="1"><g transform="translate(161.213305, 186.963269)"><g><path d="M 10.601562 -4.976562 C 10.5625 -5.355469 9.15625 -8.511719 8.816406 -8.664062 C 11.019531 -10.488281 14.285156 -12.917969 14.285156 -16.070312 C 14.285156 -18.046875 12.234375 -19.910156 10.335938 -19.910156 C 8.320312 -19.910156 6.761719 -18.351562 5.507812 -16.90625 C 5.433594 -17.097656 5.394531 -17.324219 5.433594 -17.515625 C 5.207031 -17.933594 4.9375 -18.3125 4.597656 -18.65625 C 4.445312 -18.695312 4.332031 -18.730469 4.179688 -18.730469 C 3.648438 -18.730469 3.191406 -18.390625 2.699219 -18.390625 L 2.660156 -18.425781 L 2.203125 -18.390625 C 1.746094 -18.351562 1.328125 -17.933594 1.328125 -17.476562 L 1.445312 -17.25 L 1.746094 -17.363281 C 2.128906 -16.90625 2.164062 -16.109375 2.089844 -15.539062 L 2.203125 -15.234375 C 1.9375 -14.4375 0.761719 -3.078125 0.761719 -1.519531 C 0.761719 -1.0625 1.328125 0.304688 1.824219 0.378906 L 2.316406 0.0742188 C 2.699219 0.457031 3.265625 0.722656 3.800781 0.722656 C 4.179688 0.722656 4.636719 0.457031 4.636719 0.0390625 C 4.484375 -0.34375 4.371094 -0.761719 4.371094 -1.140625 C 4.371094 -2.164062 5.394531 -5.167969 5.394531 -7.523438 L 5.964844 -7.675781 L 6.269531 -7.410156 L 6.230469 -7.296875 C 8.167969 -5.738281 8.738281 1.671875 11.589844 1.671875 C 11.890625 1.671875 12.160156 1.671875 12.425781 1.480469 L 12.539062 1.519531 L 12.878906 1.367188 C 12.996094 1.140625 13.375 0.609375 13.375 0.34375 C 13.375 -0.0742188 13.109375 -0.34375 12.957031 -0.722656 C 12.996094 -0.644531 12.957031 -0.609375 12.917969 -0.609375 C 12.878906 -0.609375 12.84375 -0.644531 12.84375 -0.722656 L 12.878906 -0.761719 C 12.765625 -1.027344 12.578125 -1.292969 12.386719 -1.519531 L 12.425781 -1.558594 C 12.386719 -1.671875 12.273438 -1.824219 12.273438 -1.9375 L 12.308594 -2.015625 L 11.96875 -2.582031 L 12.007812 -2.660156 C 11.816406 -2.886719 11.742188 -2.964844 11.742188 -2.964844 C 11.742188 -2.964844 11.855469 -2.8125 11.816406 -2.8125 L 11.511719 -3.117188 C 11.359375 -3.265625 11.246094 -3.417969 11.171875 -3.609375 C 11.472656 -3.914062 10.90625 -3.875 10.90625 -4.292969 L 10.828125 -4.332031 L 10.714844 -4.636719 L 10.753906 -4.75 Z M 9.308594 -17.554688 C 9.878906 -17.554688 10.105469 -17.289062 10.105469 -16.71875 C 10.105469 -15.503906 9.003906 -12.765625 8.320312 -11.703125 C 7.789062 -10.867188 7.027344 -10.601562 6.308594 -9.992188 L 6.230469 -9.992188 L 6.042969 -9.839844 C 5.964844 -10.144531 5.738281 -10.488281 5.507812 -10.675781 L 5.472656 -11.019531 C 5.472656 -12.917969 6.535156 -14.667969 6.535156 -16.414062 C 7.066406 -16.871094 7.5625 -17.476562 8.28125 -17.476562 C 8.359375 -17.476562 8.433594 -17.476562 8.550781 -17.441406 L 8.699219 -17.515625 Z M 9.308594 -17.554688 "/></g></g></g><g fill="rgb(29.798889%, 38.038635%, 59.999084%)" fill-opacity="1"><g transform="translate(176.258415, 186.963269)"><g><path d="M 11.511719 -15.351562 C 11.550781 -15.882812 11.664062 -16.566406 11.589844 -17.136719 C 11.4375 -18.578125 9.117188 -19.453125 7.902344 -20.0625 L 7.410156 -19.796875 L 7.332031 -19.566406 C 7.179688 -19.453125 5.925781 -16.070312 5.660156 -15.578125 C 4.824219 -13.980469 3.722656 -12.042969 3.265625 -10.296875 C 2.851562 -9.726562 1.519531 -8.398438 1.597656 -7.675781 C 1.597656 -7.484375 1.785156 -7.21875 1.9375 -7.144531 L 2.355469 -7.179688 C 1.671875 -5.890625 0.949219 -3.914062 0.570312 -2.394531 L 0.304688 -2.015625 C 0.265625 -1.632812 -0.191406 -0.53125 -0.457031 -0.265625 C -0.492188 0.226562 -0.683594 0.761719 -0.644531 1.292969 C -0.53125 1.480469 -0.492188 1.671875 -0.226562 1.671875 L 0.417969 1.292969 L 0.644531 1.292969 C 1.027344 1.140625 1.101562 0.644531 1.40625 0.378906 L 2.316406 -1.9375 L 2.355469 -1.9375 C 2.886719 -3.265625 3.800781 -4.484375 4.445312 -5.773438 C 5.8125 -6.15625 7.144531 -6.308594 8.472656 -6.839844 C 8.625 -5.320312 8.28125 -3.800781 8.472656 -2.242188 C 8.585938 -1.140625 9.308594 0 9.421875 1.101562 C 9.878906 1.597656 10.488281 3.039062 11.324219 3.039062 L 11.398438 3.039062 C 12.539062 2.925781 12.957031 2.621094 12.84375 1.480469 C 12.804688 1.179688 12.765625 0.910156 12.613281 0.683594 C 12.613281 0.570312 12.613281 -4.21875 12.539062 -5.054688 C 12.386719 -6.269531 11.96875 -8.664062 12.234375 -9.535156 C 12.347656 -9.652344 13.183594 -10.601562 13.183594 -10.675781 C 13.144531 -11.132812 12.878906 -11.132812 12.5 -11.132812 C 12.460938 -11.09375 12.308594 -10.941406 12.195312 -10.941406 C 12.160156 -10.941406 12.121094 -10.980469 12.082031 -11.054688 L 12.082031 -13.261719 C 11.855469 -13.945312 11.664062 -14.667969 11.511719 -15.351562 Z M 5.015625 -7.714844 C 5.167969 -8.472656 6.6875 -13.601562 6.992188 -14.171875 L 7.332031 -14.515625 L 7.371094 -14.515625 C 7.675781 -14.667969 7.980469 -14.855469 8.246094 -15.121094 C 8.28125 -15.007812 8.320312 -14.855469 8.359375 -14.742188 C 8.550781 -12.765625 8.167969 -10.675781 8.398438 -8.664062 C 7.410156 -8.246094 6.078125 -7.828125 5.015625 -7.714844 Z M 5.015625 -7.714844 "/></g></g></g><g fill="rgb(29.798889%, 38.038635%, 59.999084%)" fill-opacity="1"><g transform="translate(191.075569, 186.963269)"><g><path d="M 12.878906 -20.175781 C 12.347656 -19.910156 11.511719 -17.324219 11.398438 -16.792969 L 11.359375 -16.792969 C 10.941406 -14.894531 9.347656 -12.539062 8.816406 -10.296875 C 8.246094 -7.980469 7.523438 -6.191406 6.648438 -4.027344 C 6.15625 -4.519531 5.851562 -8.929688 5.851562 -9.800781 C 5.851562 -10.371094 5.699219 -10.941406 5.699219 -11.4375 C 5.699219 -14.285156 4.9375 -17.476562 3.570312 -19.984375 C 3 -20.402344 2.546875 -21.316406 1.746094 -21.316406 C 1.480469 -21.316406 1.140625 -21.316406 0.910156 -21.203125 C 0.875 -21.238281 0.835938 -21.238281 0.796875 -21.238281 C 0.53125 -21.238281 0.226562 -20.859375 0.226562 -20.632812 C 0.226562 -20.367188 0.265625 -20.097656 0.378906 -19.832031 L 0.378906 -19.679688 C 1.328125 -17.742188 2.621094 -12.160156 2.621094 -10.105469 C 2.621094 -8.890625 3.152344 -5.015625 3.570312 -4.445312 C 3.570312 -1.367188 4.40625 -1.746094 6.191406 0.152344 L 6.6875 0.34375 C 8.132812 0.378906 12.613281 -16.640625 13.070312 -16.945312 C 13.261719 -17.894531 14.097656 -18.808594 14.210938 -19.679688 L 14.171875 -19.71875 C 14.171875 -19.984375 14.25 -20.59375 13.714844 -20.59375 C 13.601562 -20.59375 13.144531 -20.402344 13.03125 -20.367188 Z M 12.878906 -20.175781 "/></g></g></g><g fill="rgb(29.798889%, 38.038635%, 59.999084%)" fill-opacity="1"><g transform="translate(205.588793, 186.963269)"><g><path d="M 9.308594 -11.664062 C 8.929688 -11.664062 5.472656 -11.246094 5.28125 -11.171875 C 5.433594 -11.777344 5.773438 -11.929688 5.773438 -12.613281 C 5.773438 -13.03125 5.660156 -13.414062 5.507812 -13.792969 C 5.660156 -14.210938 5.28125 -15.351562 5.28125 -15.882812 L 5.320312 -16.035156 C 5.546875 -16.375 5.585938 -16.832031 5.660156 -17.210938 L 5.8125 -17.210938 C 6.042969 -17.210938 6.535156 -17.058594 6.761719 -16.984375 L 6.800781 -17.023438 L 7.066406 -16.945312 L 7.105469 -16.945312 L 7.371094 -17.289062 L 7.597656 -17.324219 L 7.789062 -17.25 L 8.054688 -17.324219 C 8.246094 -17.289062 8.433594 -17.25 8.625 -17.25 C 9.195312 -17.25 9.765625 -17.441406 10.335938 -17.441406 C 10.488281 -17.441406 10.636719 -17.441406 10.789062 -17.402344 C 10.980469 -17.441406 11.207031 -17.589844 11.398438 -17.589844 L 11.550781 -17.515625 C 11.890625 -17.554688 12.007812 -17.972656 12.121094 -18.277344 L 12.007812 -18.578125 L 12.042969 -18.695312 C 11.890625 -18.882812 11.625 -19.148438 11.359375 -19.148438 C 8.167969 -19.148438 5.089844 -18.921875 1.898438 -18.503906 L 2.089844 -18.503906 C 2.546875 -18.503906 1.671875 -18.160156 2.128906 -16.90625 L 2.28125 -16.945312 L 2.582031 -16.453125 C 2.46875 -14.78125 2.050781 -13.109375 2.050781 -11.398438 C 1.9375 -11.171875 1.824219 -10.90625 2.015625 -9.347656 C 2.015625 -6.878906 1.101562 -4.21875 1.179688 -1.824219 L 1.367188 -1.328125 C 1.0625 -0.796875 2.128906 0.152344 2.660156 0.152344 C 2.851562 -0.113281 3.117188 -0.378906 3.457031 -0.378906 L 3.570312 -0.492188 C 4.140625 -0.492188 7.75 -0.644531 8.054688 -0.875 L 8.246094 -0.835938 C 9.6875 -1.367188 11.511719 -0.722656 11.511719 -2.699219 C 11.511719 -3.117188 11.472656 -3.722656 10.941406 -3.722656 C 9.726562 -3.722656 8.472656 -2.8125 7.296875 -2.8125 L 6.308594 -2.851562 L 6.230469 -2.8125 L 6.117188 -2.8125 C 5.585938 -2.8125 5.128906 -2.582031 4.597656 -2.507812 C 4.824219 -3.457031 4.597656 -7.675781 5.433594 -7.675781 L 5.394531 -7.675781 L 5.738281 -8.433594 C 5.699219 -8.664062 5.738281 -8.929688 5.8125 -9.15625 L 5.738281 -9.421875 L 5.8125 -9.613281 L 6.078125 -9.5 C 6.421875 -9.460938 8.511719 -9.765625 8.777344 -9.992188 C 8.96875 -9.992188 9.15625 -9.992188 9.308594 -9.953125 C 9.6875 -10.070312 9.953125 -10.636719 10.070312 -10.980469 C 9.992188 -11.324219 9.6875 -11.664062 9.308594 -11.664062 Z M 9.308594 -11.664062 "/></g></g></g><g fill="rgb(29.798889%, 38.038635%, 59.999084%)" fill-opacity="1"><g transform="translate(218.240396, 186.963269)"><g><path d="M 5.507812 -13.832031 C 5.699219 -14.4375 5.964844 -15.085938 5.964844 -15.730469 C 5.964844 -16.375 5.964844 -17.136719 5.8125 -17.78125 L 5.925781 -18.351562 C 5.660156 -19.339844 4.636719 -20.25 3.609375 -20.25 C 2.8125 -20.25 2.734375 -19.492188 2.734375 -18.882812 C 2.660156 -18.730469 0.644531 -3.457031 0.644531 -2.28125 C 0.644531 -1.027344 -0.417969 -1.328125 -0.417969 -0.0742188 C -0.417969 0.796875 0.988281 0.875 1.597656 0.875 C 4.75 0.875 7.902344 0.570312 10.90625 -0.378906 C 11.054688 -0.53125 11.171875 -0.761719 11.207031 -0.949219 C 11.132812 -1.214844 10.941406 -1.480469 10.675781 -1.519531 L 10.21875 -1.40625 L 9.953125 -1.710938 C 9.382812 -1.632812 8.890625 -1.597656 8.433594 -1.597656 C 7.523438 -1.597656 6.761719 -1.710938 5.699219 -1.898438 C 5.433594 -1.785156 5.167969 -1.710938 4.902344 -1.710938 L 5.015625 -1.824219 C 4.75 -1.824219 4.40625 -1.746094 4.179688 -1.632812 L 4.445312 -2.050781 L 4.40625 -2.050781 C 4.40625 -2.050781 4.445312 -2.203125 4.332031 -2.203125 C 4.332031 -2.699219 4.332031 -3.265625 4.40625 -3.761719 L 4.371094 -3.800781 C 4.371094 -5.054688 5.089844 -6.421875 5.128906 -7.75 C 5.167969 -9.382812 5.660156 -10.980469 5.660156 -12.613281 C 5.660156 -12.996094 5.660156 -13.335938 5.546875 -13.714844 Z M 5.507812 -13.832031 "/></g></g></g><g fill="rgb(29.798889%, 38.038635%, 59.999084%)" fill-opacity="1"><g transform="translate(230.432261, 186.963269)"><g/></g></g><g fill="rgb(29.798889%, 38.038635%, 59.999084%)" fill-opacity="1"><g transform="translate(157.119766, 211.713267)"><g><path d="M 10.21875 -4.140625 C 10.21875 -4.332031 10.183594 -4.671875 10.105469 -4.863281 C 10.070312 -5.015625 10.070312 -5.089844 9.992188 -5.207031 C 9.953125 -5.28125 9.917969 -5.433594 9.839844 -5.507812 C 9.726562 -5.738281 9.535156 -5.964844 9.421875 -6.15625 C 9.269531 -6.421875 8.96875 -6.800781 8.738281 -7.179688 C 8.511719 -7.445312 8.167969 -7.789062 7.789062 -8.167969 L 6.878906 -9.003906 C 6.042969 -9.765625 5.28125 -10.601562 4.789062 -11.285156 C 4.789062 -11.398438 4.671875 -11.472656 4.636719 -11.589844 L 4.519531 -11.816406 C 4.484375 -11.855469 4.484375 -11.929688 4.484375 -12.007812 C 4.371094 -12.234375 4.332031 -12.5 4.292969 -12.804688 C 4.292969 -13.109375 4.332031 -13.488281 4.40625 -13.792969 C 4.40625 -14.058594 4.519531 -14.398438 4.710938 -14.550781 C 4.75 -14.628906 4.824219 -14.667969 4.863281 -14.703125 C 5.015625 -14.78125 5.167969 -14.816406 5.320312 -14.855469 C 5.625 -14.96875 5.925781 -15.046875 6.269531 -15.121094 C 6.6875 -15.273438 7.027344 -15.386719 7.484375 -15.386719 L 8.054688 -15.386719 C 8.246094 -15.386719 8.433594 -15.386719 8.625 -15.351562 C 8.664062 -15.351562 8.699219 -15.351562 8.738281 -15.3125 C 9.308594 -15.199219 10.070312 -15.085938 10.21875 -14.628906 C 10.21875 -13.867188 9.839844 -14.058594 9.765625 -13.753906 C 9.652344 -13.679688 9.535156 -13.601562 9.421875 -13.488281 L 9.574219 -13.414062 L 9.726562 -13.414062 C 9.878906 -13.183594 10.105469 -12.957031 10.410156 -12.957031 C 11.171875 -12.996094 11.589844 -14.285156 11.589844 -14.96875 C 11.625 -15.160156 11.589844 -15.386719 11.511719 -15.539062 C 11.511719 -15.691406 11.4375 -15.804688 11.285156 -15.882812 L 11.285156 -15.917969 C 11.285156 -16.335938 11.019531 -16.753906 10.753906 -17.023438 C 10.410156 -17.324219 9.917969 -17.628906 9.347656 -17.820312 L 8.433594 -18.125 C 8.359375 -18.125 8.246094 -18.160156 8.132812 -18.199219 C 8.054688 -18.238281 7.980469 -18.238281 7.941406 -18.238281 C 7.863281 -18.277344 7.75 -18.277344 7.675781 -18.277344 C 7.066406 -18.390625 6.460938 -18.425781 5.851562 -18.425781 C 5.773438 -18.425781 5.738281 -18.425781 5.660156 -18.390625 L 5.433594 -18.390625 L 4.484375 -18.277344 L 4.40625 -18.277344 C 4.027344 -18.199219 3.609375 -18.085938 3.230469 -17.972656 L 2.699219 -17.667969 C 2.394531 -17.589844 2.128906 -17.402344 1.898438 -17.136719 L 1.898438 -17.097656 L 1.710938 -16.90625 C 1.558594 -16.832031 1.480469 -16.71875 1.40625 -16.566406 C 0.988281 -16.109375 0.761719 -15.578125 0.835938 -14.894531 C 0.796875 -14.855469 0.761719 -14.78125 0.761719 -14.703125 L 0.761719 -14.324219 C 0.683594 -13.753906 0.910156 -12.957031 1.214844 -12.460938 C 1.179688 -12.425781 1.179688 -12.460938 1.179688 -12.425781 L 1.519531 -11.171875 C 1.597656 -10.980469 1.710938 -10.828125 1.824219 -10.636719 C 1.976562 -10.449219 2.089844 -10.257812 2.203125 -10.070312 C 2.46875 -9.6875 2.8125 -9.269531 3.078125 -8.96875 L 3.34375 -8.625 L 5.128906 -6.992188 C 5.585938 -6.574219 5.925781 -6.230469 6.269531 -5.8125 C 6.421875 -5.585938 6.761719 -5.320312 7.027344 -4.976562 L 7.179688 -4.789062 C 7.332031 -4.558594 7.410156 -4.292969 7.445312 -4.066406 C 7.484375 -3.683594 7.484375 -3.265625 7.332031 -2.773438 C 7.332031 -2.699219 7.296875 -2.621094 7.296875 -2.546875 C 7.257812 -2.394531 7.179688 -2.316406 7.066406 -2.242188 C 7.066406 -2.050781 6.839844 -1.976562 6.648438 -1.976562 L 5.433594 -1.558594 C 5.015625 -1.367188 4.863281 -1.328125 4.40625 -1.328125 C 4.371094 -1.292969 4.332031 -1.292969 4.292969 -1.292969 C 4.253906 -1.292969 4.179688 -1.292969 4.140625 -1.328125 L 4.066406 -1.328125 C 3.953125 -1.367188 3.875 -1.40625 3.761719 -1.40625 C 3.570312 -1.445312 3.457031 -1.445312 3.265625 -1.445312 C 3.039062 -1.519531 2.773438 -1.558594 2.507812 -1.671875 C 2.28125 -1.710938 2.089844 -1.746094 1.898438 -1.824219 C 1.746094 -1.898438 1.632812 -2.050781 1.558594 -2.28125 C 1.597656 -2.355469 1.558594 -2.316406 1.558594 -2.507812 C 1.597656 -2.734375 1.710938 -2.886719 1.710938 -3.039062 L 1.785156 -3.078125 C 1.746094 -3.152344 1.785156 -3.230469 1.824219 -3.304688 C 1.785156 -3.382812 1.710938 -3.417969 1.671875 -3.417969 C 1.632812 -3.457031 1.519531 -3.457031 1.445312 -3.417969 C 1.40625 -3.457031 1.328125 -3.457031 1.292969 -3.457031 C 1.140625 -3.417969 0.988281 -3.34375 0.875 -3.152344 L 0.683594 -2.886719 C 0.570312 -2.699219 0.457031 -2.46875 0.378906 -2.242188 C 0.34375 -2.164062 0.34375 -2.089844 0.34375 -2.050781 C 0.34375 -1.824219 0.34375 -1.558594 0.378906 -1.328125 L 0.609375 -0.835938 C 0.722656 -0.609375 0.875 -0.113281 1.140625 0.0390625 C 1.214844 0.226562 1.367188 0.378906 1.558594 0.53125 C 1.632812 0.609375 1.746094 0.683594 1.863281 0.722656 C 2.316406 0.988281 2.886719 1.214844 3.34375 1.328125 C 3.570312 1.40625 3.800781 1.445312 3.988281 1.445312 L 4.371094 1.558594 C 4.558594 1.597656 4.824219 1.597656 5.054688 1.597656 L 5.546875 1.597656 C 6.6875 1.519531 8.398438 1.0625 8.699219 0.609375 L 8.890625 0.492188 C 8.96875 0.457031 9.042969 0.457031 9.117188 0.457031 C 9.117188 0.417969 9.269531 0.378906 9.308594 0.265625 C 9.765625 0.113281 10.5625 -0.457031 10.714844 -0.949219 C 10.789062 -1.253906 10.828125 -1.480469 10.828125 -1.824219 C 10.828125 -1.898438 10.828125 -1.9375 10.789062 -2.015625 C 10.828125 -2.089844 10.867188 -2.203125 10.867188 -2.28125 L 10.867188 -2.394531 C 10.828125 -2.46875 10.867188 -2.546875 10.828125 -2.660156 C 10.789062 -3 10.675781 -3.382812 10.523438 -3.722656 L 10.257812 -4.179688 C 10.21875 -4.179688 10.257812 -4.140625 10.21875 -4.140625 Z M 10.21875 -4.140625 "/></g></g></g><g fill="rgb(29.798889%, 38.038635%, 59.999084%)" fill-opacity="1"><g transform="translate(170.265271, 211.713267)"><g><path d="M 3.152344 -8.890625 C 3.152344 -8.816406 3.117188 -8.777344 3.117188 -8.699219 C 3.117188 -8.359375 3.078125 -8.054688 3.078125 -7.789062 C 3.117188 -7.636719 3.117188 -7.484375 3.117188 -7.332031 L 3.117188 -6.382812 C 3.078125 -5.925781 2.925781 -5.433594 2.886719 -5.015625 C 2.851562 -4.789062 2.8125 -4.558594 2.8125 -4.332031 L 2.8125 -3.34375 C 2.851562 -2.851562 2.8125 -2.394531 2.8125 -1.976562 C 2.8125 -1.746094 2.773438 -1.558594 2.773438 -1.367188 C 2.773438 -0.875 2.773438 -0.457031 2.8125 0.0390625 C 2.8125 0.457031 3.648438 1.671875 4.101562 1.898438 C 4.140625 1.898438 4.140625 1.9375 4.179688 1.9375 C 4.179688 1.863281 4.253906 1.710938 4.332031 1.671875 L 4.519531 1.671875 C 4.824219 1.671875 5.054688 1.445312 5.167969 1.140625 L 5.625 0.457031 L 5.738281 0.113281 C 5.8125 0.0390625 5.8125 -0.113281 5.8125 -0.191406 L 5.851562 -0.191406 L 5.851562 -0.265625 C 5.890625 -0.378906 5.964844 -0.492188 6.003906 -0.644531 C 6.003906 -1.0625 6.003906 -1.367188 5.925781 -1.746094 C 5.890625 -1.824219 5.890625 -1.898438 5.851562 -1.9375 L 5.851562 -1.976562 C 5.851562 -2.050781 5.925781 -2.164062 5.964844 -2.242188 C 6.078125 -2.507812 6.15625 -2.699219 6.269531 -2.886719 L 6.191406 -3.570312 L 6.191406 -4.519531 C 6.191406 -4.636719 6.269531 -4.824219 6.308594 -4.976562 C 6.34375 -5.851562 6.460938 -6.761719 6.535156 -7.714844 L 6.609375 -8.433594 L 6.609375 -8.511719 L 6.800781 -10.601562 C 6.800781 -10.867188 6.800781 -11.132812 6.839844 -11.359375 C 6.914062 -11.550781 6.992188 -11.816406 6.992188 -12.042969 L 6.992188 -12.578125 C 6.992188 -12.652344 6.953125 -12.691406 6.953125 -12.765625 L 6.953125 -13.03125 L 6.878906 -13.601562 L 6.914062 -13.601562 C 6.914062 -13.832031 6.878906 -14.058594 6.878906 -14.285156 L 7.5625 -14.515625 C 7.75 -14.96875 7.828125 -15.351562 7.863281 -15.769531 L 7.863281 -16.453125 L 8.132812 -16.90625 C 8.132812 -16.984375 8.167969 -17.097656 8.207031 -17.171875 C 8.28125 -17.171875 8.398438 -17.136719 8.511719 -17.136719 C 8.96875 -17.136719 9.5 -17.136719 10.070312 -17.171875 L 10.523438 -17.171875 C 10.90625 -17.171875 11.285156 -17.25 11.625 -17.289062 C 12.195312 -17.402344 12.652344 -17.554688 12.84375 -17.859375 L 13.03125 -18.007812 L 13.03125 -18.046875 C 13.03125 -18.390625 13.03125 -18.578125 12.84375 -18.921875 C 12.765625 -19.113281 12.578125 -19.261719 12.308594 -19.300781 C 12.273438 -19.339844 12.195312 -19.378906 12.160156 -19.378906 L 11.96875 -19.378906 C 11.664062 -19.414062 11.359375 -19.453125 11.09375 -19.453125 L 10.601562 -19.453125 C 9.953125 -19.414062 9.308594 -19.378906 8.664062 -19.378906 C 8.320312 -19.378906 7.941406 -19.300781 7.5625 -19.300781 L 6.308594 -19.1875 L 5.890625 -19.300781 C 5.472656 -19.378906 5.054688 -19.414062 4.636719 -19.414062 C 4.597656 -19.492188 4.484375 -19.566406 4.445312 -19.605469 C 4.371094 -19.644531 4.292969 -19.644531 4.21875 -19.644531 C 3.914062 -19.605469 3.875 -19.339844 3.800781 -19.148438 L 3.800781 -19.113281 L 3.535156 -18.996094 C 3.417969 -18.996094 3.34375 -18.960938 3.230469 -18.960938 L 2.507812 -18.84375 C 2.316406 -18.84375 2.128906 -18.808594 1.9375 -18.769531 L 1.0625 -18.695312 C 0.722656 -18.65625 0.34375 -18.617188 0.0742188 -18.464844 L -0.53125 -18.351562 L -0.722656 -18.238281 C -0.875 -18.085938 -1.027344 -17.894531 -1.027344 -17.667969 C -1.027344 -17.554688 -0.988281 -17.441406 -0.875 -17.363281 C -0.761719 -17.210938 -0.570312 -17.097656 -0.304688 -17.058594 C -0.152344 -16.984375 0.0390625 -16.984375 0.191406 -16.984375 L 0.722656 -16.984375 C 1.027344 -16.984375 1.292969 -17.023438 1.558594 -17.023438 L 3.609375 -17.023438 C 3.761719 -17.023438 3.875 -16.984375 3.988281 -16.984375 C 3.914062 -16.640625 3.800781 -16.070312 3.722656 -15.351562 L 3.535156 -13.714844 C 3.535156 -13.5625 3.496094 -13.449219 3.496094 -13.296875 L 3.265625 -10.980469 C 3.191406 -10.371094 3.152344 -9.800781 3.152344 -9.269531 Z M 3.152344 -8.890625 "/></g></g></g><g fill="rgb(29.798889%, 38.038635%, 59.999084%)" fill-opacity="1"><g transform="translate(183.790698, 211.713267)"><g><path d="M 14.4375 -6.078125 C 14.476562 -6.15625 14.476562 -6.230469 14.476562 -6.308594 C 14.476562 -6.382812 14.515625 -6.421875 14.550781 -6.460938 C 14.628906 -6.6875 14.667969 -7.066406 14.78125 -7.410156 L 14.894531 -8.320312 C 14.894531 -8.433594 14.894531 -8.585938 14.933594 -8.777344 L 14.933594 -9.234375 C 14.933594 -9.269531 14.96875 -9.382812 14.96875 -9.421875 C 14.933594 -9.5 14.96875 -9.613281 14.96875 -9.652344 L 14.96875 -11.359375 C 14.933594 -11.929688 14.855469 -12.460938 14.742188 -12.726562 L 14.742188 -13.03125 C 14.703125 -13.070312 14.550781 -13.792969 14.550781 -13.867188 C 14.515625 -14.019531 14.476562 -14.132812 14.398438 -14.25 L 14.398438 -14.4375 L 14.019531 -15.085938 C 13.90625 -15.273438 13.832031 -15.464844 13.714844 -15.617188 L 13.5625 -15.957031 L 13.296875 -16.300781 L 13.261719 -16.300781 C 13.261719 -16.335938 13.261719 -16.335938 13.222656 -16.375 C 13.222656 -16.453125 13.183594 -16.488281 13.109375 -16.566406 C 13.070312 -16.679688 12.917969 -16.792969 12.878906 -16.871094 L 12.691406 -17.097656 C 12.652344 -17.171875 12.578125 -17.210938 12.5 -17.289062 L 12.347656 -17.441406 L 12.042969 -17.628906 C 11.625 -18.046875 11.09375 -18.425781 10.488281 -18.617188 C 10.371094 -18.695312 10.21875 -18.730469 10.105469 -18.769531 L 9.652344 -18.882812 C 9.5 -18.921875 9.347656 -18.921875 9.234375 -18.921875 C 9.195312 -18.960938 9.195312 -18.960938 9.15625 -18.960938 L 8.777344 -18.960938 C 8.398438 -18.960938 7.980469 -18.921875 7.597656 -18.84375 C 7.523438 -18.84375 7.445312 -18.808594 7.371094 -18.769531 C 6.878906 -18.65625 6.382812 -18.464844 6.003906 -18.125 C 5.738281 -17.972656 5.546875 -17.820312 5.320312 -17.589844 L 5.207031 -17.402344 L 5.167969 -17.402344 L 4.519531 -16.753906 L 4.292969 -16.453125 C 3.953125 -16.109375 3.722656 -15.730469 3.496094 -15.3125 L 3.078125 -14.589844 C 3.039062 -14.476562 2.925781 -14.398438 2.925781 -14.285156 L 2.734375 -14.132812 C 2.699219 -14.058594 2.660156 -13.980469 2.582031 -13.90625 C 2.507812 -13.792969 2.394531 -13.679688 2.355469 -13.527344 L 2.242188 -13.335938 C 1.976562 -12.726562 1.671875 -12.042969 1.445312 -11.246094 C 1.292969 -10.5625 1.101562 -9.839844 1.027344 -9.117188 C 0.988281 -8.816406 0.949219 -8.511719 0.949219 -8.207031 L 0.949219 -7.296875 C 0.949219 -7.027344 0.949219 -6.726562 0.988281 -6.421875 C 0.988281 -6.308594 1.027344 -6.230469 1.027344 -6.078125 C 1.101562 -5.394531 1.292969 -4.636719 1.597656 -3.988281 L 1.9375 -3.875 C 1.976562 -3.609375 2.050781 -3.34375 2.128906 -3.078125 C 2.164062 -2.886719 2.242188 -2.699219 2.316406 -2.507812 L 2.734375 -1.671875 C 2.773438 -1.558594 2.8125 -1.367188 2.8125 -1.253906 C 2.886719 -1.027344 3.039062 -0.835938 3.152344 -0.644531 L 3.265625 -0.378906 C 3.609375 0.0390625 3.953125 0.378906 4.40625 0.609375 C 4.636719 0.761719 4.9375 0.875 5.242188 0.988281 L 5.585938 1.101562 C 5.625 1.140625 5.851562 1.179688 5.890625 1.179688 C 6.117188 1.253906 6.308594 1.253906 6.574219 1.253906 L 7.21875 1.253906 L 7.75 1.179688 C 8.015625 1.140625 8.246094 1.0625 8.472656 0.988281 C 8.511719 0.988281 8.585938 0.949219 8.625 0.910156 L 8.816406 0.796875 C 8.851562 0.796875 9.269531 0.722656 9.308594 0.722656 C 9.765625 0.570312 10.183594 0.378906 10.5625 0.113281 C 10.941406 -0.0742188 11.285156 -0.34375 11.550781 -0.609375 C 11.855469 -0.875 12.082031 -1.179688 12.234375 -1.480469 L 12.234375 -1.519531 L 12.691406 -2.164062 C 12.878906 -2.46875 13.144531 -2.8125 13.296875 -3.191406 C 13.414062 -3.417969 13.488281 -3.648438 13.601562 -3.875 L 13.753906 -4.179688 C 13.792969 -4.332031 13.867188 -4.40625 13.90625 -4.558594 L 14.097656 -5.089844 C 14.25 -5.320312 14.324219 -5.625 14.398438 -5.851562 C 14.398438 -5.964844 14.398438 -6.042969 14.4375 -6.078125 Z M 12.652344 -7.257812 C 12.578125 -7.027344 12.578125 -6.761719 12.5 -6.535156 L 12.5 -6.421875 C 12.460938 -6.421875 12.460938 -6.382812 12.460938 -6.34375 C 12.460938 -6.191406 12.425781 -6.042969 12.386719 -5.890625 C 12.386719 -5.851562 12.386719 -5.773438 12.347656 -5.738281 C 12.308594 -5.472656 12.234375 -5.207031 12.160156 -4.976562 C 12.160156 -4.9375 12.121094 -4.902344 12.121094 -4.902344 L 11.550781 -3.457031 L 11.324219 -3.078125 C 11.246094 -2.925781 11.171875 -2.773438 11.054688 -2.660156 L 10.789062 -2.316406 C 10.675781 -2.203125 10.601562 -2.089844 10.488281 -2.015625 C 10.410156 -1.9375 10.371094 -1.863281 10.257812 -1.824219 C 10.144531 -1.671875 9.992188 -1.519531 9.839844 -1.40625 L 9.082031 -0.835938 C 8.929688 -0.761719 8.738281 -0.683594 8.511719 -0.683594 C 8.320312 -0.609375 8.167969 -0.609375 8.054688 -0.609375 L 7.863281 -0.609375 C 7.789062 -0.609375 7.714844 -0.570312 7.636719 -0.570312 L 7.5625 -0.570312 C 7.484375 -0.570312 7.445312 -0.609375 7.332031 -0.609375 L 6.992188 -0.835938 C 6.953125 -0.875 6.839844 -0.910156 6.761719 -0.988281 C 6.726562 -1.027344 6.648438 -1.0625 6.609375 -1.140625 L 6.34375 -1.480469 C 6.117188 -1.710938 6.042969 -1.898438 5.925781 -2.128906 C 5.851562 -2.203125 5.8125 -2.316406 5.773438 -2.433594 C 5.585938 -2.8125 5.507812 -3.230469 5.472656 -3.722656 L 5.472656 -4.066406 C 5.472656 -4.253906 5.507812 -4.484375 5.546875 -4.671875 C 5.546875 -4.824219 5.585938 -4.9375 5.625 -5.054688 C 5.625 -5.089844 5.699219 -5.089844 5.699219 -5.128906 L 5.546875 -5.128906 C 5.546875 -5.167969 5.507812 -5.242188 5.507812 -5.28125 C 5.472656 -5.625 5.433594 -6.003906 5.472656 -6.382812 L 5.320312 -6.382812 L 5.28125 -6.421875 L 5.394531 -6.6875 C 5.355469 -6.953125 5.320312 -7.179688 5.355469 -7.445312 L 5.355469 -7.597656 C 5.320312 -7.75 5.355469 -7.863281 5.394531 -8.054688 L 5.394531 -8.738281 C 5.433594 -8.929688 5.433594 -9.082031 5.433594 -9.269531 L 5.546875 -9.878906 C 5.546875 -9.992188 5.585938 -10.105469 5.625 -10.21875 C 5.625 -10.257812 5.738281 -10.335938 5.738281 -10.410156 L 5.851562 -10.714844 L 5.964844 -11.207031 C 6.042969 -11.550781 6.15625 -11.890625 6.308594 -12.195312 L 6.308594 -12.273438 C 6.34375 -12.273438 6.382812 -12.234375 6.382812 -12.234375 C 6.421875 -12.234375 6.421875 -12.347656 6.421875 -12.347656 L 6.421875 -12.425781 L 6.460938 -12.460938 L 6.421875 -12.460938 C 6.496094 -12.613281 6.609375 -12.691406 6.6875 -12.765625 L 6.6875 -12.996094 C 6.6875 -13.03125 6.6875 -13.109375 6.726562 -13.144531 C 6.726562 -13.183594 6.726562 -13.261719 6.761719 -13.296875 C 6.878906 -13.601562 6.953125 -13.90625 7.144531 -14.210938 C 7.257812 -14.476562 7.445312 -14.742188 7.636719 -15.007812 L 7.828125 -15.351562 C 7.902344 -15.425781 8.054688 -15.503906 8.132812 -15.617188 C 8.28125 -15.804688 8.511719 -15.996094 8.777344 -16.109375 C 8.96875 -16.222656 9.117188 -16.335938 9.347656 -16.414062 L 9.800781 -16.566406 C 9.839844 -16.566406 9.878906 -16.605469 9.917969 -16.605469 C 9.953125 -16.605469 10.03125 -16.640625 10.070312 -16.640625 C 10.21875 -16.640625 10.371094 -16.640625 10.523438 -16.605469 C 10.523438 -16.605469 10.5625 -16.605469 10.601562 -16.566406 L 10.636719 -16.566406 C 10.789062 -16.488281 11.054688 -16.375 11.171875 -16.261719 C 11.550781 -16.070312 12.160156 -15.464844 12.308594 -15.046875 C 12.386719 -14.894531 12.460938 -14.703125 12.5 -14.550781 C 12.578125 -14.363281 12.613281 -14.171875 12.652344 -14.019531 C 12.652344 -13.90625 12.84375 -13.222656 12.878906 -13.109375 L 13.070312 -12.273438 C 13.109375 -12.121094 13.109375 -12.007812 13.109375 -11.929688 C 13.109375 -11.816406 13.144531 -11.742188 13.109375 -11.625 C 13.144531 -11.398438 13.144531 -11.207031 13.109375 -11.019531 L 13.109375 -10.636719 C 13.109375 -10.21875 13.03125 -9.878906 12.996094 -9.460938 C 12.996094 -9.347656 12.957031 -9.269531 12.957031 -9.195312 C 12.917969 -8.664062 12.804688 -8.132812 12.726562 -7.675781 C 12.726562 -7.523438 12.652344 -7.410156 12.652344 -7.257812 Z M 12.652344 -7.257812 "/></g></g></g><g fill="rgb(29.798889%, 38.038635%, 59.999084%)" fill-opacity="1"><g transform="translate(200.621439, 211.713267)"><g><path d="M 10.601562 -4.976562 C 10.5625 -5.355469 9.15625 -8.511719 8.816406 -8.664062 C 11.019531 -10.488281 14.285156 -12.917969 14.285156 -16.070312 C 14.285156 -18.046875 12.234375 -19.910156 10.335938 -19.910156 C 8.320312 -19.910156 6.761719 -18.351562 5.507812 -16.90625 C 5.433594 -17.097656 5.394531 -17.324219 5.433594 -17.515625 C 5.207031 -17.933594 4.9375 -18.3125 4.597656 -18.65625 C 4.445312 -18.695312 4.332031 -18.730469 4.179688 -18.730469 C 3.648438 -18.730469 3.191406 -18.390625 2.699219 -18.390625 L 2.660156 -18.425781 L 2.203125 -18.390625 C 1.746094 -18.351562 1.328125 -17.933594 1.328125 -17.476562 L 1.445312 -17.25 L 1.746094 -17.363281 C 2.128906 -16.90625 2.164062 -16.109375 2.089844 -15.539062 L 2.203125 -15.234375 C 1.9375 -14.4375 0.761719 -3.078125 0.761719 -1.519531 C 0.761719 -1.0625 1.328125 0.304688 1.824219 0.378906 L 2.316406 0.0742188 C 2.699219 0.457031 3.265625 0.722656 3.800781 0.722656 C 4.179688 0.722656 4.636719 0.457031 4.636719 0.0390625 C 4.484375 -0.34375 4.371094 -0.761719 4.371094 -1.140625 C 4.371094 -2.164062 5.394531 -5.167969 5.394531 -7.523438 L 5.964844 -7.675781 L 6.269531 -7.410156 L 6.230469 -7.296875 C 8.167969 -5.738281 8.738281 1.671875 11.589844 1.671875 C 11.890625 1.671875 12.160156 1.671875 12.425781 1.480469 L 12.539062 1.519531 L 12.878906 1.367188 C 12.996094 1.140625 13.375 0.609375 13.375 0.34375 C 13.375 -0.0742188 13.109375 -0.34375 12.957031 -0.722656 C 12.996094 -0.644531 12.957031 -0.609375 12.917969 -0.609375 C 12.878906 -0.609375 12.84375 -0.644531 12.84375 -0.722656 L 12.878906 -0.761719 C 12.765625 -1.027344 12.578125 -1.292969 12.386719 -1.519531 L 12.425781 -1.558594 C 12.386719 -1.671875 12.273438 -1.824219 12.273438 -1.9375 L 12.308594 -2.015625 L 11.96875 -2.582031 L 12.007812 -2.660156 C 11.816406 -2.886719 11.742188 -2.964844 11.742188 -2.964844 C 11.742188 -2.964844 11.855469 -2.8125 11.816406 -2.8125 L 11.511719 -3.117188 C 11.359375 -3.265625 11.246094 -3.417969 11.171875 -3.609375 C 11.472656 -3.914062 10.90625 -3.875 10.90625 -4.292969 L 10.828125 -4.332031 L 10.714844 -4.636719 L 10.753906 -4.75 Z M 9.308594 -17.554688 C 9.878906 -17.554688 10.105469 -17.289062 10.105469 -16.71875 C 10.105469 -15.503906 9.003906 -12.765625 8.320312 -11.703125 C 7.789062 -10.867188 7.027344 -10.601562 6.308594 -9.992188 L 6.230469 -9.992188 L 6.042969 -9.839844 C 5.964844 -10.144531 5.738281 -10.488281 5.507812 -10.675781 L 5.472656 -11.019531 C 5.472656 -12.917969 6.535156 -14.667969 6.535156 -16.414062 C 7.066406 -16.871094 7.5625 -17.476562 8.28125 -17.476562 C 8.359375 -17.476562 8.433594 -17.476562 8.550781 -17.441406 L 8.699219 -17.515625 Z M 9.308594 -17.554688 "/></g></g></g><g fill="rgb(29.798889%, 38.038635%, 59.999084%)" fill-opacity="1"><g transform="translate(215.666551, 211.713267)"><g><path d="M 7.410156 -6.15625 C 7.789062 -6.914062 8.132812 -7.523438 8.320312 -8.359375 L 9.042969 -9.535156 C 9.535156 -12.347656 11.4375 -15.234375 12.308594 -17.894531 L 12.273438 -18.125 L 12.308594 -18.464844 C 12.234375 -18.65625 11.96875 -18.808594 11.816406 -18.882812 C 11.09375 -18.695312 10.183594 -16.871094 9.953125 -16.222656 L 9.917969 -16.1875 C 9.765625 -16.1875 8.550781 -14.058594 8.433594 -13.867188 C 8.433594 -12.957031 7.371094 -10.105469 6.761719 -9.382812 C 6.609375 -8.851562 6.382812 -8.246094 6.042969 -7.789062 C 5.8125 -8.359375 5.207031 -14.285156 5.207031 -15.617188 C 4.75 -16.527344 3.304688 -19.300781 2.128906 -19.300781 C 1.632812 -19.300781 0.910156 -19.1875 0.722656 -18.695312 C 0.722656 -18.390625 0.835938 -18.085938 0.796875 -17.78125 C 1.140625 -17.515625 2.128906 -14.703125 2.128906 -14.171875 L 2.128906 -14.097656 L 2.050781 -14.171875 C 2.203125 -13.601562 2.582031 -10.449219 2.621094 -9.917969 L 3.496094 -8.132812 C 3.457031 -7.445312 3.230469 -6.6875 3.230469 -6.003906 C 3.230469 -5.585938 3.535156 -5.394531 3.875 -5.242188 C 4.140625 -3.988281 3.304688 -2.164062 3.304688 -0.835938 C 3.304688 0.0742188 3 0.949219 3 1.863281 L 3.039062 2.203125 L 3.152344 2.316406 C 3.152344 2.8125 3.875 3.230469 4.253906 3.417969 L 4.636719 2.734375 C 5.8125 2.734375 6.042969 0.191406 6.042969 -0.683594 C 6.042969 -1.214844 7.179688 -5.699219 7.410156 -6.15625 Z M 7.410156 -6.15625 "/></g></g></g><g fill="rgb(29.798889%, 38.038635%, 59.999084%)" fill-opacity="1"><g transform="translate(127.737757, 217.58534)"><g><path d="M 3.902344 -2.039062 C 4.566406 -1.550781 5.195312 -1.054688 5.8125 -0.597656 C 5.808594 -0.535156 5.792969 -0.511719 5.800781 -0.472656 C 5.589844 0.0117188 5.367188 0.519531 5.164062 1.039062 C 4.996094 1.453125 4.816406 1.894531 4.671875 2.324219 C 4.550781 2.667969 4.714844 2.96875 5.023438 3.097656 C 5.332031 3.230469 5.640625 3.101562 5.832031 2.800781 C 5.867188 2.691406 5.917969 2.5625 5.976562 2.46875 C 6.585938 1.003906 7.234375 -0.472656 7.855469 -1.964844 C 8.152344 -2.6875 8.488281 -3.417969 8.808594 -4.125 C 8.894531 -4.363281 8.980469 -4.601562 9.027344 -4.832031 C 9.171875 -5.71875 8.472656 -6.355469 7.640625 -6.074219 C 7.132812 -5.941406 6.671875 -5.679688 6.222656 -5.378906 C 4.417969 -4.28125 2.824219 -2.855469 1.296875 -1.421875 C 1.035156 -1.164062 0.773438 -0.90625 0.558594 -0.621094 C 0.285156 -0.242188 0.332031 0.144531 0.617188 0.359375 C 0.886719 0.597656 1.269531 0.515625 1.566406 0.148438 C 1.742188 -0.03125 1.914062 -0.246094 2.09375 -0.425781 C 2.707031 -0.980469 3.320312 -1.53125 3.902344 -2.039062 Z M 7.578125 -4.648438 C 7.28125 -3.664062 6.816406 -2.789062 6.375 -1.835938 C 5.871094 -2.121094 5.371094 -2.40625 4.957031 -2.929688 C 5.789062 -3.574219 6.605469 -4.191406 7.578125 -4.648438 Z M 7.578125 -4.648438 "/></g></g></g><g fill="rgb(29.798889%, 38.038635%, 59.999084%)" fill-opacity="1"><g transform="translate(138.047116, 224.047721)"><g><path d="M 4.921875 -3.421875 C 4.800781 -3.484375 4.726562 -3.519531 4.652344 -3.558594 C 4.027344 -4.027344 3.375 -3.957031 2.699219 -3.589844 C 1.742188 -3.089844 1.125 -2.292969 0.800781 -1.285156 C 0.566406 -0.515625 0.722656 0.210938 1.398438 0.703125 C 1.703125 0.949219 2.070312 1.136719 2.425781 1.285156 C 2.671875 1.40625 2.894531 1.457031 3.101562 1.65625 C 3.445312 1.949219 3.847656 1.878906 4.070312 1.5 C 4.195312 1.316406 4.246094 1.09375 4.34375 0.898438 C 4.617188 0.234375 4.851562 -0.414062 5.171875 -1.050781 C 5.925781 -2.609375 6.71875 -4.179688 7.496094 -5.722656 C 7.558594 -5.84375 7.582031 -5.957031 7.617188 -6.089844 C 7.667969 -6.371094 7.558594 -6.582031 7.328125 -6.730469 C 7.117188 -6.867188 6.871094 -6.867188 6.675781 -6.71875 C 6.566406 -6.621094 6.429688 -6.476562 6.367188 -6.351562 C 6.121094 -5.863281 5.898438 -5.359375 5.652344 -4.867188 C 5.417969 -4.402344 5.179688 -3.9375 4.921875 -3.421875 Z M 3.191406 0.253906 C 2.871094 0.09375 2.566406 -0.0273438 2.308594 -0.1875 C 2.039062 -0.324219 1.929688 -0.59375 2.015625 -0.890625 C 2.265625 -1.6875 2.746094 -2.273438 3.53125 -2.554688 C 3.800781 -2.664062 3.914062 -2.578125 4.046875 -2.296875 C 4.144531 -2.0625 4.15625 -1.839844 4.03125 -1.597656 C 3.734375 -1.007812 3.476562 -0.429688 3.191406 0.253906 Z M 3.191406 0.253906 "/></g></g></g><g fill="rgb(29.798889%, 38.038635%, 59.999084%)" fill-opacity="1"><g transform="translate(146.990815, 228.537791)"><g><path d="M 2.816406 -1.3125 C 2.808594 -1.519531 2.808594 -1.667969 2.835938 -1.804688 C 2.90625 -2.367188 2.980469 -2.929688 3.054688 -3.488281 C 3.109375 -3.851562 3.152344 -4.1875 3.171875 -4.535156 C 3.183594 -4.945312 2.960938 -5.207031 2.589844 -5.234375 C 2.253906 -5.28125 1.988281 -5.058594 1.925781 -4.671875 C 1.890625 -4.359375 1.820312 -4.035156 1.789062 -3.722656 C 1.65625 -2.417969 1.539062 -1.136719 1.433594 0.179688 C 1.390625 0.515625 1.550781 0.785156 1.90625 0.925781 C 2.203125 1.074219 2.53125 0.996094 2.742188 0.753906 C 3.027344 0.480469 3.300781 0.234375 3.515625 -0.09375 C 4.28125 -1.058594 5.101562 -1.945312 6 -2.804688 C 6.109375 -2.9375 6.210938 -3.042969 6.289062 -3.164062 C 6.394531 -3.355469 6.351562 -3.550781 6.199219 -3.757812 C 6.058594 -3.929688 5.839844 -4.046875 5.609375 -3.988281 C 5.441406 -3.9375 5.265625 -3.859375 5.164062 -3.753906 C 4.417969 -2.984375 3.734375 -2.21875 3.015625 -1.441406 C 2.980469 -1.425781 2.90625 -1.394531 2.816406 -1.3125 Z M 2.816406 -1.3125 "/></g></g></g><g fill="rgb(29.798889%, 38.038635%, 59.999084%)" fill-opacity="1"><g transform="translate(156.751972, 232.338477)"><g><path d="M 1.949219 -1.691406 C 2.007812 -1.703125 2.0625 -1.6875 2.121094 -1.699219 C 2.359375 -1.632812 2.570312 -1.570312 2.816406 -1.527344 C 3.085938 -1.476562 3.382812 -1.417969 3.664062 -1.394531 C 4.203125 -1.382812 4.660156 -1.679688 4.867188 -2.191406 C 5.214844 -3.003906 4.929688 -4.085938 4.222656 -4.605469 C 4.007812 -4.753906 3.734375 -4.890625 3.453125 -4.914062 C 2.480469 -5 1.703125 -4.59375 1.25 -3.726562 C 0.835938 -2.988281 0.773438 -2.175781 0.789062 -1.34375 C 0.785156 -0.832031 0.941406 -0.382812 1.210938 0.0664062 C 1.417969 0.4375 1.746094 0.679688 2.183594 0.746094 C 3.234375 0.96875 4.136719 0.425781 4.675781 -0.359375 C 4.832031 -0.597656 4.769531 -0.875 4.570312 -1.074219 C 4.363281 -1.25 4.078125 -1.246094 3.851562 -1.054688 C 3.734375 -0.945312 3.617188 -0.839844 3.523438 -0.722656 C 3.289062 -0.503906 3.027344 -0.378906 2.699219 -0.332031 C 2.402344 -0.304688 2.226562 -0.382812 2.078125 -0.65625 C 1.941406 -0.980469 1.867188 -1.316406 1.949219 -1.691406 Z M 2.113281 -2.847656 C 2.257812 -3.347656 2.503906 -3.703125 3.011719 -3.785156 C 3.488281 -3.847656 3.746094 -3.660156 3.851562 -3.226562 C 3.867188 -3.082031 3.878906 -2.933594 3.863281 -2.769531 C 3.835938 -2.574219 3.722656 -2.492188 3.53125 -2.519531 C 3.050781 -2.632812 2.59375 -2.734375 2.113281 -2.847656 Z M 2.113281 -2.847656 "/></g></g></g><g fill="rgb(29.798889%, 38.038635%, 59.999084%)" fill-opacity="1"><g transform="translate(166.425688, 235.129405)"><g><path d="M 2.039062 -3.941406 C 2.039062 -3.941406 2.0625 -4.050781 2.214844 -4.859375 C 2.242188 -4.992188 2.300781 -5.148438 2.300781 -5.289062 C 2.300781 -5.597656 2.121094 -5.828125 1.832031 -5.910156 C 1.5625 -5.960938 1.289062 -5.847656 1.15625 -5.59375 C 1.082031 -5.496094 1.058594 -5.386719 1.035156 -5.253906 C 0.796875 -3.734375 0.53125 -2.191406 0.296875 -0.671875 C 0.296875 -0.53125 0.296875 -0.390625 0.304688 -0.277344 C 0.355469 0.0390625 0.539062 0.242188 0.835938 0.300781 C 1.113281 0.324219 1.359375 0.203125 1.472656 -0.109375 C 1.53125 -0.265625 1.59375 -0.449219 1.625 -0.609375 C 1.902344 -1.761719 2.523438 -2.675781 3.421875 -3.425781 C 3.652344 -3.605469 3.855469 -3.789062 4.191406 -3.78125 C 4.488281 -3.445312 3.871094 -1.242188 3.445312 -0.0390625 C 3.273438 0.429688 3.414062 0.851562 3.78125 0.976562 C 4.148438 1.101562 4.445312 0.878906 4.621094 0.382812 C 5.035156 -0.742188 5.199219 -1.742188 5.445312 -2.898438 C 5.535156 -3.355469 5.542969 -3.832031 5.347656 -4.285156 C 5.101562 -4.894531 4.550781 -5.222656 3.898438 -5.039062 C 3.511719 -4.917969 3.160156 -4.679688 2.785156 -4.46875 C 2.566406 -4.34375 2.242188 -4.125 2.039062 -3.941406 Z M 2.039062 -3.941406 "/></g></g></g><g fill="rgb(29.798889%, 38.038635%, 59.999084%)" fill-opacity="1"><g transform="translate(176.845635, 237.074798)"><g><path d="M 1.804688 -5.117188 C 1.746094 -4.542969 1.695312 -4.027344 1.671875 -3.503906 C 1.59375 -2.738281 1.546875 -1.972656 1.5 -1.203125 C 1.445312 -0.683594 1.589844 -0.171875 2.054688 0.148438 C 2.644531 0.59375 3.355469 0.664062 4.074219 0.652344 C 4.433594 0.632812 4.6875 0.296875 4.664062 -0.0351562 C 4.644531 -0.394531 4.390625 -0.585938 3.980469 -0.625 C 3.734375 -0.652344 3.460938 -0.679688 3.21875 -0.730469 C 2.785156 -0.828125 2.757812 -0.832031 2.777344 -1.296875 C 2.863281 -2.449219 2.976562 -3.59375 3.0625 -4.746094 C 3.070312 -4.828125 3.132812 -4.902344 3.140625 -4.984375 C 3.332031 -4.96875 3.46875 -4.953125 3.605469 -4.941406 C 4.023438 -4.953125 4.261719 -5.152344 4.296875 -5.507812 C 4.328125 -5.835938 4.136719 -6.101562 3.785156 -6.191406 C 3.625 -6.234375 3.460938 -6.25 3.300781 -6.292969 C 3.328125 -6.566406 3.375 -6.785156 3.398438 -7.003906 C 3.527344 -7.761719 3.558594 -7.785156 3.65625 -8.523438 C 3.691406 -8.875 3.496094 -9.117188 3.199219 -9.203125 C 2.90625 -9.285156 2.617188 -9.148438 2.472656 -8.832031 C 2.410156 -8.726562 2.398438 -8.617188 2.359375 -8.511719 C 2.222656 -7.699219 2.214844 -7.617188 2.082031 -6.800781 C 2.039062 -6.667969 2 -6.535156 1.953125 -6.371094 C 1.765625 -6.417969 1.578125 -6.464844 1.410156 -6.453125 C 1.027344 -6.492188 0.730469 -6.273438 0.671875 -5.949219 C 0.640625 -5.621094 0.855469 -5.296875 1.203125 -5.207031 C 1.394531 -5.160156 1.558594 -5.144531 1.804688 -5.117188 Z M 1.804688 -5.117188 "/></g></g></g><g fill="rgb(29.798889%, 38.038635%, 59.999084%)" fill-opacity="1"><g transform="translate(186.328729, 238.011217)"><g><path d="M 0.199219 -4.144531 C 0.199219 -4.144531 0.222656 -3.511719 0.246094 -3.210938 C 0.292969 -2.386719 0.425781 -1.589844 0.75 -0.84375 C 1.289062 0.3125 2.355469 0.570312 3.324219 -0.21875 C 3.65625 -0.492188 3.878906 -0.84375 4.074219 -1.253906 C 4.355469 -1.96875 4.527344 -2.707031 4.640625 -3.449219 C 4.699219 -3.941406 4.761719 -4.433594 4.792969 -4.929688 C 4.824219 -5.3125 4.605469 -5.589844 4.277344 -5.648438 C 3.972656 -5.675781 3.726562 -5.460938 3.640625 -5.074219 C 3.609375 -4.828125 3.582031 -4.582031 3.550781 -4.335938 C 3.492188 -3.867188 3.460938 -3.402344 3.347656 -2.964844 C 3.234375 -2.472656 3.035156 -1.976562 2.839844 -1.539062 C 2.730469 -1.265625 2.480469 -1.023438 2.207031 -1.050781 C 1.902344 -1.082031 1.824219 -1.382812 1.714844 -1.660156 C 1.476562 -2.375 1.425781 -3.144531 1.40625 -3.914062 C 1.382812 -4.328125 1.386719 -4.765625 1.363281 -5.203125 C 1.335938 -5.5625 1.121094 -5.785156 0.816406 -5.785156 C 0.515625 -5.816406 0.265625 -5.597656 0.210938 -5.242188 C 0.207031 -5.132812 0.207031 -5.050781 0.207031 -4.941406 C 0.203125 -4.664062 0.203125 -4.417969 0.199219 -4.144531 Z M 0.199219 -4.144531 "/></g></g></g><g fill="rgb(29.798889%, 38.038635%, 59.999084%)" fill-opacity="1"><g transform="translate(196.841456, 238.051962)"><g><path d="M 1.050781 -4.023438 C 1.816406 -4.417969 1.761719 -4.414062 2.796875 -4.910156 C 3.167969 -5.078125 3.363281 -5.371094 3.226562 -5.6875 C 3.117188 -6.011719 2.808594 -6.125 2.402344 -6.007812 C 1.730469 -5.789062 1.554688 -5.609375 0.941406 -5.339844 C 0.875 -5.46875 0.839844 -5.605469 0.800781 -5.710938 C 0.699219 -5.953125 0.441406 -6.097656 0.195312 -6.074219 C -0.078125 -6.027344 -0.285156 -5.84375 -0.316406 -5.59375 C -0.363281 -5.453125 -0.324219 -5.316406 -0.3125 -5.179688 C -0.15625 -3.625 0.0273438 -2.039062 0.179688 -0.484375 C 0.21875 -0.375 0.195312 -0.292969 0.230469 -0.210938 C 0.335938 0.0546875 0.570312 0.230469 0.84375 0.207031 C 1.089844 0.1875 1.324219 0.03125 1.382812 -0.25 C 1.402344 -0.363281 1.417969 -0.5 1.40625 -0.636719 C 1.328125 -1.597656 1.222656 -2.550781 1.121094 -3.480469 C 1.109375 -3.644531 1.066406 -3.804688 1.050781 -4.023438 Z M 1.050781 -4.023438 "/></g></g></g><g fill="rgb(29.798889%, 38.038635%, 59.999084%)" fill-opacity="1"><g transform="translate(206.239554, 237.276338)"><g><path d="M 1.015625 -2.375 C 1.066406 -2.410156 1.121094 -2.417969 1.167969 -2.457031 C 1.414062 -2.496094 1.628906 -2.535156 1.867188 -2.601562 C 2.132812 -2.675781 2.425781 -2.753906 2.6875 -2.851562 C 3.179688 -3.078125 3.460938 -3.542969 3.425781 -4.09375 C 3.386719 -4.976562 2.65625 -5.828125 1.792969 -5.988281 C 1.535156 -6.027344 1.226562 -6.03125 0.964844 -5.929688 C 0.0507812 -5.578125 -0.46875 -4.878906 -0.496094 -3.898438 C -0.546875 -3.054688 -0.253906 -2.296875 0.125 -1.554688 C 0.34375 -1.089844 0.679688 -0.757812 1.117188 -0.46875 C 1.464844 -0.222656 1.867188 -0.152344 2.292969 -0.277344 C 3.332031 -0.539062 3.90625 -1.417969 4.054688 -2.363281 C 4.089844 -2.644531 3.910156 -2.867188 3.644531 -2.960938 C 3.382812 -3.027344 3.125 -2.898438 3.003906 -2.628906 C 2.945312 -2.480469 2.890625 -2.332031 2.859375 -2.1875 C 2.742188 -1.886719 2.558594 -1.660156 2.28125 -1.476562 C 2.03125 -1.320312 1.835938 -1.316406 1.582031 -1.496094 C 1.320312 -1.730469 1.109375 -2 1.015625 -2.375 Z M 0.660156 -3.480469 C 0.570312 -3.996094 0.636719 -4.425781 1.0625 -4.71875 C 1.460938 -4.984375 1.777344 -4.925781 2.058594 -4.585938 C 2.136719 -4.457031 2.214844 -4.332031 2.269531 -4.175781 C 2.328125 -3.988281 2.265625 -3.867188 2.082031 -3.808594 C 1.597656 -3.699219 1.140625 -3.59375 0.660156 -3.480469 Z M 0.660156 -3.480469 "/></g></g></g><g fill="rgb(29.798889%, 38.038635%, 59.999084%)" fill-opacity="1"><g transform="translate(222.932829, 233.863981)"><g><path d="M -0.378906 -5.492188 C -0.441406 -5.675781 -0.5 -5.769531 -0.546875 -5.902344 C -0.78125 -6.605469 -1.011719 -7.28125 -1.222656 -7.992188 C -1.328125 -8.304688 -1.433594 -8.617188 -1.546875 -8.953125 C -1.671875 -9.230469 -1.976562 -9.359375 -2.242188 -9.296875 C -2.539062 -9.226562 -2.738281 -8.957031 -2.710938 -8.617188 C -2.710938 -8.53125 -2.683594 -8.453125 -2.65625 -8.375 C -1.972656 -6.347656 -1.285156 -4.316406 -0.609375 -2.316406 C -0.433594 -1.796875 -0.230469 -1.285156 -0.0117188 -0.808594 C 0.171875 -0.347656 0.433594 -0.261719 0.875 -0.410156 C 1.144531 -0.472656 1.394531 -0.5 1.65625 -0.589844 C 2.550781 -0.863281 3.3125 -1.265625 3.742188 -2.132812 C 4.34375 -3.351562 3.972656 -5.3125 2.996094 -6.230469 C 2.671875 -6.496094 2.324219 -6.667969 1.898438 -6.640625 C 1.152344 -6.621094 0.503906 -6.402344 -0.03125 -5.84375 C -0.109375 -5.730469 -0.222656 -5.632812 -0.378906 -5.492188 Z M 0.914062 -1.757812 C 0.667969 -2.398438 0.457031 -3.023438 0.21875 -3.636719 C 0.191406 -3.714844 0.167969 -3.792969 0.183594 -3.828125 C 0.476562 -4.421875 0.691406 -5.074219 1.367188 -5.300781 C 1.929688 -5.519531 2.15625 -5.453125 2.445312 -4.941406 C 2.671875 -4.527344 2.769531 -4.066406 2.789062 -3.578125 C 2.871094 -2.390625 1.929688 -1.753906 0.914062 -1.757812 Z M 0.914062 -1.757812 "/></g></g></g><g fill="rgb(29.798889%, 38.038635%, 59.999084%)" fill-opacity="1"><g transform="translate(233.144606, 230.31204)"><g><path d="M -1.808594 -4.480469 C -1.300781 -3.296875 -0.789062 -2.109375 -0.277344 -0.925781 C -0.246094 -0.851562 -0.203125 -0.75 -0.171875 -0.671875 C 0.015625 -0.304688 0.34375 -0.175781 0.65625 -0.28125 C 0.984375 -0.421875 1.136719 -0.757812 1.023438 -1.097656 C 0.917969 -1.410156 0.773438 -1.675781 0.640625 -1.980469 C -0.28125 -4.125 -1.214844 -6.292969 -2.148438 -8.460938 C -2.203125 -8.585938 -2.257812 -8.710938 -2.375 -8.84375 C -2.542969 -9.097656 -2.847656 -9.175781 -3.097656 -9.066406 C -3.402344 -8.9375 -3.539062 -8.636719 -3.460938 -8.3125 C -3.441406 -8.203125 -3.398438 -8.101562 -3.355469 -8 C -2.84375 -6.816406 -2.320312 -5.667969 -1.808594 -4.480469 Z M -1.808594 -4.480469 "/></g></g></g><g fill="rgb(29.798889%, 38.038635%, 59.999084%)" fill-opacity="1"><g transform="translate(239.686679, 227.531874)"><g><path d="M -0.632812 -1.742188 C -0.347656 -1.429688 0.015625 -1.09375 0.5 -0.882812 C 1.675781 -0.351562 2.890625 -1.109375 2.890625 -2.414062 C 2.863281 -3.703125 2.351562 -4.796875 1.511719 -5.75 C 0.996094 -6.320312 0.332031 -6.527344 -0.414062 -6.351562 C -0.636719 -6.300781 -0.855469 -6.183594 -1.011719 -6.011719 C -1.539062 -5.484375 -1.773438 -4.804688 -1.683594 -4.046875 C -1.609375 -3.1875 -1.226562 -2.457031 -0.632812 -1.742188 Z M 0.707031 -4.800781 C 1.234375 -4.148438 1.542969 -3.441406 1.644531 -2.660156 C 1.660156 -2.574219 1.660156 -2.449219 1.648438 -2.351562 C 1.605469 -2.019531 1.339844 -1.878906 1.066406 -1.984375 C 0.957031 -2.019531 0.882812 -2.042969 0.808594 -2.128906 C 0.109375 -2.628906 -0.355469 -3.285156 -0.449219 -4.167969 C -0.476562 -4.398438 -0.40625 -4.683594 -0.300781 -4.894531 C -0.0976562 -5.21875 0.195312 -5.246094 0.507812 -5.007812 C 0.605469 -4.9375 0.65625 -4.839844 0.707031 -4.800781 Z M 0.707031 -4.800781 "/></g></g></g><g fill="rgb(29.798889%, 38.038635%, 59.999084%)" fill-opacity="1"><g transform="translate(248.422654, 222.942022)"><g><path d="M 2.253906 -2.832031 C 2.746094 -1.972656 3.253906 -1.1875 3.453125 -0.273438 C 3.46875 -0.25 3.460938 -0.210938 3.476562 -0.1875 C 3.535156 0.359375 3.257812 0.636719 2.71875 0.5625 C 2.332031 0.519531 2.152344 0.242188 1.949219 -0.0195312 C 1.679688 -0.335938 1.316406 -0.394531 1.03125 -0.175781 C 0.753906 0.00390625 0.710938 0.390625 0.933594 0.734375 C 1.328125 1.398438 1.886719 1.753906 2.664062 1.839844 C 3.847656 1.957031 4.988281 0.988281 4.742188 -0.355469 C 4.578125 -1.164062 4.285156 -1.921875 3.859375 -2.628906 C 3.195312 -3.703125 2.546875 -4.753906 1.898438 -5.808594 C 1.765625 -6.015625 1.632812 -6.222656 1.496094 -6.429688 C 1.070312 -7.035156 0.617188 -7.132812 -0.0351562 -6.777344 C -0.628906 -6.429688 -1.054688 -5.925781 -1.34375 -5.3125 C -1.839844 -4.207031 -1.851562 -3.117188 -1.242188 -2.074219 C -0.613281 -0.945312 0.710938 -0.820312 1.570312 -1.769531 C 1.746094 -1.949219 1.871094 -2.160156 1.996094 -2.371094 C 2.082031 -2.492188 2.152344 -2.636719 2.253906 -2.832031 Z M 0.480469 -5.574219 C 0.792969 -4.992188 1.019531 -4.488281 1.074219 -3.898438 C 1.144531 -3.386719 0.953125 -2.972656 0.621094 -2.625 C 0.359375 -2.324219 0.144531 -2.351562 -0.0859375 -2.660156 C -0.414062 -3.066406 -0.453125 -3.53125 -0.410156 -4.019531 C -0.316406 -4.632812 -0.0664062 -5.15625 0.480469 -5.574219 Z M 0.480469 -5.574219 "/></g></g></g></svg>