<svg xmlns="http://www.w3.org/2000/svg" xmlns:xlink="http://www.w3.org/1999/xlink" width="500" zoomAndPan="magnify" viewBox="0 0 375 374.999991" height="500" preserveAspectRatio="xMidYMid meet" version="1.0"><defs><g><g id="id1"/></g><clipPath id="id2"><path d="M 173.792969 216.800781 L 196.285156 216.800781 L 196.285156 249.050781 L 173.792969 249.050781 Z M 173.792969 216.800781 " clip-rule="nonzero"/></clipPath></defs><rect x="-37.5" width="450" fill="rgb(100%, 100%, 100%)" y="-37.499999" height="449.999989" fill-opacity="1"/><rect x="-37.5" width="450" fill="rgb(100%, 100%, 100%)" y="-37.499999" height="449.999989" fill-opacity="1"/><rect x="-37.5" width="450" fill="rgb(100%, 100%, 100%)" y="-37.499999" height="449.999989" fill-opacity="1"/><g fill="rgb(32.939148%, 34.118652%, 29.798889%)" fill-opacity="1"><g transform="translate(101.313646, 166.259521)"><g><path d="M 16.738281 -5.902344 C 16.761719 -6.1875 16.738281 -6.351562 16.597656 -6.351562 C 16.503906 -6.351562 16.363281 -6.28125 16.148438 -6.136719 C 15.441406 -5.691406 14.09375 -5.289062 12.9375 -5.289062 C 12.441406 -5.289062 11.992188 -5.359375 11.617188 -5.523438 C 12.160156 -3.304688 11.734375 -1.25 10.011719 -1.15625 C 8.617188 -1.0625 6.800781 -3.117188 6.515625 -8.214844 C 6.28125 -12.394531 7.742188 -15.371094 9.230469 -15.511719 C 11.402344 -15.722656 10.199219 -12.820312 10.601562 -11.050781 C 10.90625 -9.679688 11.921875 -9.160156 13.078125 -9.160156 C 14.449219 -9.160156 16.007812 -9.917969 16.738281 -10.859375 C 14.851562 -12.136719 15.722656 -14.921875 16.03125 -16.714844 L 15.558594 -16.433594 C 14.945312 -16.078125 14.378906 -15.960938 13.859375 -15.960938 C 12.371094 -15.960938 11.097656 -16.976562 9.136719 -16.976562 C 3.824219 -16.976562 0.683594 -13.742188 0.683594 -8.335938 C 0.683594 -2.925781 3.894531 0.308594 9.300781 0.378906 C 13.621094 0.425781 16.316406 -1.839844 16.738281 -5.902344 Z M 16.738281 -5.902344 "/></g></g></g><g fill="rgb(32.939148%, 34.118652%, 29.798889%)" fill-opacity="1"><g transform="translate(120.077525, 166.259521)"><g><path d="M 3.589844 -2.597656 L 4.179688 -4.390625 L 9.917969 -4.390625 L 10.507812 -2.667969 C 10.742188 -1.890625 10.789062 -0.945312 10.601562 -0.308594 L 10.507812 0.046875 L 18.179688 0.046875 L 17.800781 -0.308594 C 17.140625 -0.945312 16.527344 -1.890625 16.265625 -2.667969 L 12.511719 -13.859375 C 12.253906 -14.636719 12.160156 -15.605469 12.300781 -16.265625 L 12.394531 -16.761719 C 10.8125 -16.550781 6.707031 -16.148438 5.003906 -17.707031 C 4.769531 -17.519531 4.605469 -16.976562 4.863281 -16.265625 C 5.074219 -15.722656 5.359375 -15.253906 5.714844 -14.875 L 1.605469 -2.597656 C 1.347656 -1.863281 0.851562 -0.96875 0.355469 -0.378906 L 0 0.046875 L 3.871094 0.046875 L 3.753906 -0.210938 C 3.398438 -0.921875 3.328125 -1.863281 3.589844 -2.597656 Z M 7.082031 -13.078125 L 9.46875 -5.808594 L 4.652344 -5.808594 Z M 7.082031 -13.078125 "/></g></g></g><g fill="rgb(32.939148%, 34.118652%, 29.798889%)" fill-opacity="1"><g transform="translate(139.667461, 166.259521)"><g><path d="M 15.253906 -0.0234375 C 14.734375 -1.25 14.734375 -4.226562 15.347656 -5.21875 C 13.363281 -5.621094 12.113281 -3.613281 12.042969 -1.417969 L 7.980469 -1.441406 C 7.863281 -1.839844 7.792969 -2.265625 7.792969 -2.667969 L 7.769531 -13.71875 C 7.769531 -14.496094 8.003906 -15.464844 8.382812 -16.125 L 8.664062 -16.621094 C 7.980469 -16.527344 6.847656 -16.410156 5.667969 -16.410156 C 4.015625 -16.410156 2.289062 -16.644531 1.605469 -17.566406 C 1.296875 -17.378906 0.96875 -16.832031 0.96875 -16.125 C 0.96875 -15.109375 1.371094 -14.355469 2.03125 -13.90625 L 2.007812 -2.667969 C 2.007812 -1.890625 1.722656 -0.945312 1.273438 -0.308594 L 1.0625 0 L 8.734375 0 L 8.734375 -0.0234375 Z M 15.253906 -0.0234375 "/></g></g></g><g fill="rgb(32.939148%, 34.118652%, 29.798889%)" fill-opacity="1"><g transform="translate(156.212776, 166.259521)"><g><path d="M 7.980469 -2.667969 L 7.957031 -13.71875 C 7.957031 -14.496094 8.191406 -15.464844 8.570312 -16.125 L 8.855469 -16.621094 C 8.167969 -16.527344 7.035156 -16.410156 5.855469 -16.410156 C 4.203125 -16.410156 2.480469 -16.644531 1.792969 -17.566406 C 1.488281 -17.378906 1.15625 -16.832031 1.15625 -16.125 C 1.15625 -15.109375 1.558594 -14.355469 2.21875 -13.90625 L 2.195312 -2.667969 C 2.195312 -1.890625 1.914062 -0.945312 1.488281 -0.308594 L 1.25 0.046875 L 8.925781 0.046875 L 8.6875 -0.308594 C 8.261719 -0.945312 7.980469 -1.890625 7.980469 -2.667969 Z M 7.980469 -2.667969 "/></g></g></g><g fill="rgb(32.939148%, 34.118652%, 29.798889%)" fill-opacity="1"><g transform="translate(167.707347, 166.259521)"><g><path d="M 7.792969 -2.667969 L 7.792969 -8.214844 L 9.277344 -8.214844 C 10.53125 -8.214844 10.601562 -7.105469 10.601562 -6.515625 C 10.789062 -6.445312 11.710938 -6.398438 11.96875 -6.421875 L 11.96875 -10.953125 C 11.710938 -10.953125 10.789062 -10.929688 10.601562 -10.835938 C 10.554688 -9.988281 10.554688 -9.160156 9.277344 -9.160156 L 7.792969 -9.160156 L 7.769531 -14.425781 C 7.769531 -14.757812 7.816406 -14.992188 7.910156 -15.203125 L 12.042969 -15.226562 C 12.113281 -13.054688 13.363281 -11.050781 15.347656 -11.425781 C 14.734375 -12.417969 14.734375 -15.394531 15.253906 -16.644531 L 8.664062 -16.644531 C 8.003906 -16.644531 6.753906 -16.527344 5.453125 -16.527344 C 3.871094 -16.527344 2.242188 -16.714844 1.628906 -17.566406 C 1.320312 -17.378906 0.96875 -16.832031 0.96875 -16.125 C 0.96875 -15.109375 1.394531 -14.355469 2.03125 -13.90625 L 2.03125 -2.667969 C 2.03125 -1.890625 1.722656 -0.945312 1.296875 -0.308594 L 1.085938 0 L 8.757812 0 L 8.523438 -0.308594 C 8.097656 -0.945312 7.792969 -1.890625 7.792969 -2.667969 Z M 7.792969 -2.667969 "/></g></g></g><g fill="rgb(32.939148%, 34.118652%, 29.798889%)" fill-opacity="1"><g transform="translate(185.007918, 166.259521)"><g><path d="M 17.542969 -8.3125 C 17.519531 -13.789062 14.425781 -17 9.136719 -16.976562 C 8.855469 -16.976562 8.59375 -16.976562 8.335938 -16.953125 C 7.53125 -16.929688 6.515625 -16.808594 5.523438 -16.808594 C 4.203125 -16.808594 2.925781 -17.023438 2.289062 -17.894531 C 1.984375 -17.707031 1.628906 -17.164062 1.628906 -16.433594 C 1.628906 -15.511719 2.007812 -14.804688 2.574219 -14.332031 C 1.347656 -12.867188 0.683594 -10.8125 0.683594 -8.289062 C 0.683594 -2.832031 3.847656 0.378906 9.113281 0.402344 C 14.425781 0.402344 17.542969 -2.738281 17.542969 -8.3125 Z M 6.585938 -8.3125 C 6.585938 -13.175781 7.226562 -15.820312 9.136719 -15.820312 C 11.027344 -15.820312 11.640625 -13.433594 11.640625 -8.289062 C 11.640625 -3.164062 11.027344 -0.777344 9.113281 -0.777344 C 7.226562 -0.777344 6.585938 -3.421875 6.585938 -8.3125 Z M 6.585938 -8.3125 "/></g></g></g><g fill="rgb(32.939148%, 34.118652%, 29.798889%)" fill-opacity="1"><g transform="translate(204.621448, 166.259521)"><g><path d="M 1.605469 -17.566406 C 1.296875 -17.378906 0.96875 -16.832031 0.96875 -16.125 C 0.96875 -15.109375 1.371094 -14.355469 2.03125 -13.90625 L 2.007812 -2.667969 C 2.007812 -1.890625 1.722656 -0.945312 1.296875 -0.308594 L 1.0625 0.046875 L 8.734375 0.046875 L 8.5 -0.308594 C 8.074219 -0.945312 7.792969 -1.890625 7.792969 -2.667969 L 7.792969 -6.1875 C 11.523438 -5.429688 8.640625 -0.117188 14.261719 0.332031 C 16.667969 0.519531 18.4375 -0.402344 18.769531 -1.441406 C 16.90625 -1.441406 16.339844 -4.085938 16.265625 -5.925781 C 15.464844 -5.667969 14.734375 -5.570312 14.046875 -5.570312 C 12.703125 -5.570312 11.570312 -5.949219 10.695312 -6.28125 C 14.875 -6.539062 17.378906 -8.191406 17.378906 -11.449219 C 17.378906 -14.992188 14.402344 -16.644531 9.46875 -16.644531 C 9.230469 -16.644531 9.324219 -16.644531 8.664062 -16.644531 C 7.957031 -16.550781 6.800781 -16.433594 5.621094 -16.433594 C 3.964844 -16.433594 2.265625 -16.667969 1.605469 -17.566406 Z M 7.863281 -15.488281 L 8.238281 -15.488281 C 10.292969 -15.488281 11.472656 -14.378906 11.472656 -11.449219 C 11.472656 -8.523438 10.292969 -7.390625 8.238281 -7.390625 L 7.769531 -7.390625 L 7.769531 -13.71875 C 7.769531 -14.757812 7.792969 -15.226562 7.863281 -15.488281 Z M 7.863281 -15.488281 "/></g></g></g><g fill="rgb(32.939148%, 34.118652%, 29.798889%)" fill-opacity="1"><g transform="translate(224.565408, 166.259521)"><g><path d="M 3.730469 -2.667969 L 3.707031 -11.121094 L 8.167969 -3 C 9.445312 -0.707031 11.261719 0.0234375 12.773438 0 L 17.070312 0 L 16.859375 -0.308594 C 16.433594 -0.945312 16.125 -1.890625 16.125 -2.667969 L 16.101562 -13.71875 C 16.101562 -14.496094 16.339844 -15.464844 16.714844 -16.125 L 17 -16.621094 C 16.785156 -16.597656 16.457031 -16.527344 16.054688 -16.527344 C 15.417969 -16.527344 14.613281 -16.714844 14.023438 -17.566406 C 13.71875 -17.378906 13.363281 -16.832031 13.363281 -16.125 C 13.363281 -15.109375 13.789062 -14.355469 14.449219 -13.90625 L 14.425781 -3.613281 C 13.433594 -4.390625 12.136719 -6.917969 11.144531 -8.902344 C 9.773438 -11.6875 8.546875 -13.976562 7.273438 -16.808594 C 6.5625 -16.550781 5.738281 -16.410156 4.933594 -16.410156 C 3.542969 -16.410156 2.242188 -16.808594 1.605469 -17.566406 C 1.296875 -17.378906 0.945312 -16.832031 0.945312 -16.125 C 0.945312 -15.109375 1.371094 -14.355469 2.03125 -13.90625 L 2.007812 -2.667969 C 2.007812 -1.890625 1.722656 -0.945312 1.296875 -0.308594 L 1.0625 0.046875 L 4.675781 0.046875 L 4.4375 -0.308594 C 4.015625 -0.945312 3.730469 -1.890625 3.730469 -2.667969 Z M 3.730469 -2.667969 "/></g></g></g><g fill="rgb(32.939148%, 34.118652%, 29.798889%)" fill-opacity="1"><g transform="translate(244.013737, 166.259521)"><g><path d="M 7.980469 -2.667969 L 7.957031 -13.71875 C 7.957031 -14.496094 8.191406 -15.464844 8.570312 -16.125 L 8.855469 -16.621094 C 8.167969 -16.527344 7.035156 -16.410156 5.855469 -16.410156 C 4.203125 -16.410156 2.480469 -16.644531 1.792969 -17.566406 C 1.488281 -17.378906 1.15625 -16.832031 1.15625 -16.125 C 1.15625 -15.109375 1.558594 -14.355469 2.21875 -13.90625 L 2.195312 -2.667969 C 2.195312 -1.890625 1.914062 -0.945312 1.488281 -0.308594 L 1.25 0.046875 L 8.925781 0.046875 L 8.6875 -0.308594 C 8.261719 -0.945312 7.980469 -1.890625 7.980469 -2.667969 Z M 7.980469 -2.667969 "/></g></g></g><g fill="rgb(32.939148%, 34.118652%, 29.798889%)" fill-opacity="1"><g transform="translate(255.508308, 166.259521)"><g><path d="M 3.589844 -2.597656 L 4.179688 -4.390625 L 9.917969 -4.390625 L 10.507812 -2.667969 C 10.742188 -1.890625 10.789062 -0.945312 10.601562 -0.308594 L 10.507812 0.046875 L 18.179688 0.046875 L 17.800781 -0.308594 C 17.140625 -0.945312 16.527344 -1.890625 16.265625 -2.667969 L 12.511719 -13.859375 C 12.253906 -14.636719 12.160156 -15.605469 12.300781 -16.265625 L 12.394531 -16.761719 C 10.8125 -16.550781 6.707031 -16.148438 5.003906 -17.707031 C 4.769531 -17.519531 4.605469 -16.976562 4.863281 -16.265625 C 5.074219 -15.722656 5.359375 -15.253906 5.714844 -14.875 L 1.605469 -2.597656 C 1.347656 -1.863281 0.851562 -0.96875 0.355469 -0.378906 L 0 0.046875 L 3.871094 0.046875 L 3.753906 -0.210938 C 3.398438 -0.921875 3.328125 -1.863281 3.589844 -2.597656 Z M 7.082031 -13.078125 L 9.46875 -5.808594 L 4.652344 -5.808594 Z M 7.082031 -13.078125 "/></g></g></g><g fill="rgb(32.939148%, 34.118652%, 29.798889%)" fill-opacity="1"><g transform="translate(155.664864, 224.909134)"><g><path d="M 0.171875 -8.875 C 0.0429688 -8.933594 -0.0390625 -8.953125 -0.0625 -8.886719 C -0.0820312 -8.839844 -0.0742188 -8.761719 -0.0429688 -8.636719 C 0.0429688 -8.226562 -0.00390625 -7.527344 -0.207031 -6.984375 C -0.296875 -6.753906 -0.40625 -6.554688 -0.550781 -6.40625 C 0.582031 -6.273438 1.472656 -5.714844 1.214844 -4.890625 C 1.011719 -4.222656 -0.265625 -3.730469 -2.703125 -4.492188 C -4.703125 -5.113281 -5.839844 -6.320312 -5.644531 -7.042969 C -5.363281 -8.097656 -4.214844 -7.023438 -3.316406 -6.902344 C -2.621094 -6.804688 -2.199219 -7.1875 -1.996094 -7.730469 C -1.757812 -8.371094 -1.835938 -9.234375 -2.152344 -9.742188 C -3.078125 -9.082031 -4.230469 -9.980469 -5.015625 -10.4375 L -4.96875 -10.167969 C -4.910156 -9.816406 -4.953125 -9.53125 -5.042969 -9.289062 C -5.304688 -8.589844 -6.003906 -8.171875 -6.347656 -7.253906 C -7.277344 -4.765625 -6.3125 -2.730469 -3.78125 -1.78125 C -1.25 -0.832031 0.828125 -1.769531 1.808594 -4.289062 C 2.585938 -6.304688 1.996094 -7.960938 0.171875 -8.875 Z M 0.171875 -8.875 "/></g></g></g><g fill="rgb(32.939148%, 34.118652%, 29.798889%)" fill-opacity="1"><g transform="translate(158.750755, 216.637033)"><g><path d="M 0.0703125 -2.214844 L -0.460938 -2.996094 L 1.292969 -5.265625 L 2.15625 -4.972656 C 2.535156 -4.828125 2.921875 -4.558594 3.117188 -4.289062 L 3.230469 -4.144531 L 5.574219 -7.179688 L 5.320312 -7.136719 C 4.863281 -7.070312 4.304688 -7.117188 3.914062 -7.253906 L -1.660156 -9.1875 C -2.046875 -9.324219 -2.460938 -9.582031 -2.679688 -9.839844 L -2.84375 -10.027344 C -3.246094 -9.335938 -4.339844 -7.589844 -5.476562 -7.390625 C -5.476562 -7.242188 -5.3125 -7.011719 -4.949219 -6.894531 C -4.671875 -6.8125 -4.398438 -6.78125 -4.140625 -6.808594 L -0.535156 -1.429688 C -0.328125 -1.101562 -0.125 -0.632812 -0.0429688 -0.253906 L 0.0195312 0.015625 L 1.203125 -1.519531 L 1.0625 -1.550781 C 0.675781 -1.625 0.277344 -1.886719 0.0703125 -2.214844 Z M -3.011719 -6.800781 L 0.59375 -5.523438 L -0.875 -3.617188 Z M -3.011719 -6.800781 "/></g></g></g><g fill="rgb(32.939148%, 34.118652%, 29.798889%)" fill-opacity="1"><g transform="translate(164.511708, 209.391387)"><g><path d="M 6.152344 -4.507812 C 5.578125 -4.851562 4.703125 -6.050781 4.65625 -6.632812 C 3.738281 -6.210938 3.824219 -5.03125 4.445312 -4.121094 L 2.796875 -2.933594 C 2.632812 -3.0625 2.476562 -3.210938 2.359375 -3.375 L -0.910156 -7.828125 C -1.136719 -8.144531 -1.328125 -8.605469 -1.371094 -8.984375 L -1.402344 -9.265625 C -1.652344 -9.027344 -2.074219 -8.644531 -2.550781 -8.296875 C -3.21875 -7.808594 -3.984375 -7.394531 -4.53125 -7.566406 C -4.601562 -7.398438 -4.574219 -7.082031 -4.363281 -6.796875 C -4.066406 -6.386719 -3.679688 -6.199219 -3.28125 -6.214844 L 0.0234375 -1.667969 C 0.253906 -1.355469 0.417969 -0.890625 0.425781 -0.5 L 0.429688 -0.3125 L 3.527344 -2.574219 L 3.519531 -2.585938 Z M 6.152344 -4.507812 "/></g></g></g><g fill="rgb(32.939148%, 34.118652%, 29.798889%)" fill-opacity="1"><g transform="translate(170.967762, 204.888867)"><g><path d="M 3.125 -2.816406 L 0.910156 -7.875 C 0.753906 -8.234375 0.671875 -8.722656 0.710938 -9.101562 L 0.742188 -9.386719 C 0.449219 -9.207031 -0.046875 -8.925781 -0.589844 -8.691406 C -1.347656 -8.363281 -2.183594 -8.125 -2.683594 -8.410156 C -2.785156 -8.261719 -2.828125 -7.949219 -2.6875 -7.625 C -2.484375 -7.160156 -2.148438 -6.890625 -1.757812 -6.820312 L 0.472656 -1.660156 C 0.628906 -1.304688 0.6875 -0.816406 0.621094 -0.4375 L 0.582031 -0.226562 L 4.101562 -1.757812 L 3.921875 -1.875 C 3.601562 -2.082031 3.28125 -2.457031 3.125 -2.816406 Z M 3.125 -2.816406 "/></g></g></g><g fill="rgb(32.939148%, 34.118652%, 29.798889%)" fill-opacity="1"><g transform="translate(175.834902, 202.631524)"><g><path d="M 3.585938 -2.027344 L 3.078125 -4.753906 L 3.808594 -4.890625 C 4.421875 -5.003906 4.558594 -4.464844 4.613281 -4.175781 C 4.710938 -4.15625 5.167969 -4.21875 5.296875 -4.253906 L 4.878906 -6.480469 C 4.753906 -6.457031 4.300781 -6.363281 4.21875 -6.296875 C 4.273438 -5.875 4.347656 -5.46875 3.722656 -5.351562 L 2.988281 -5.214844 L 2.496094 -7.800781 C 2.464844 -7.964844 2.46875 -8.085938 2.496094 -8.199219 L 4.523438 -8.589844 C 4.757812 -7.527344 5.554688 -6.65625 6.496094 -7.023438 C 6.101562 -7.453125 5.832031 -8.917969 5.972656 -9.578125 L 2.734375 -8.976562 C 2.410156 -8.914062 1.804688 -8.742188 1.167969 -8.625 C 0.386719 -8.476562 -0.429688 -8.421875 -0.808594 -8.785156 C -0.941406 -8.664062 -1.066406 -8.363281 -1.003906 -8.015625 C -0.910156 -7.515625 -0.632812 -7.183594 -0.277344 -7.019531 L 0.753906 -1.496094 C 0.824219 -1.113281 0.761719 -0.621094 0.609375 -0.269531 L 0.535156 -0.0976562 L 4.304688 -0.804688 L 4.160156 -0.933594 C 3.894531 -1.207031 3.65625 -1.640625 3.585938 -2.027344 Z M 3.585938 -2.027344 "/></g></g></g><g fill="rgb(32.939148%, 34.118652%, 29.798889%)" fill-opacity="1"><g transform="translate(183.812304, 201.0851)"><g><path d="M 9.15625 -3.222656 C 9.429688 -5.949219 8.054688 -7.703125 5.425781 -7.96875 C 5.285156 -7.980469 5.15625 -7.996094 5.023438 -7.996094 C 4.625 -8.027344 4.113281 -8.019531 3.621094 -8.074219 C 2.960938 -8.140625 2.339844 -8.3125 2.066406 -8.78125 C 1.90625 -8.703125 1.703125 -8.453125 1.664062 -8.085938 C 1.617188 -7.628906 1.765625 -7.257812 2.023438 -6.992188 C 1.335938 -6.328125 0.902344 -5.34375 0.769531 -4.085938 C 0.488281 -1.375 1.894531 0.386719 4.511719 0.671875 C 7.152344 0.949219 8.867188 -0.453125 9.15625 -3.222656 Z M 3.707031 -3.789062 C 3.960938 -6.210938 4.414062 -7.492188 5.363281 -7.390625 C 6.304688 -7.292969 6.484375 -6.078125 6.21875 -3.515625 C 5.953125 -0.96875 5.523438 0.183594 4.574219 0.0859375 C 3.632812 -0.0117188 3.453125 -1.359375 3.707031 -3.789062 Z M 3.707031 -3.789062 "/></g></g></g><g fill="rgb(32.939148%, 34.118652%, 29.798889%)" fill-opacity="1"><g transform="translate(192.993904, 202.050792)"><g><path d="M 4.257812 -7.722656 C 4.078125 -7.699219 3.820312 -7.515625 3.675781 -7.191406 C 3.472656 -6.726562 3.503906 -6.300781 3.71875 -5.960938 L 1.453125 -0.820312 C 1.296875 -0.460938 0.980469 -0.0859375 0.65625 0.121094 L 0.476562 0.234375 L 3.992188 1.773438 L 3.953125 1.5625 C 3.886719 1.1875 3.949219 0.695312 4.105469 0.339844 L 4.808594 -1.269531 C 6.367188 -0.175781 3.980469 1.679688 6.464844 3.011719 C 7.53125 3.582031 8.527344 3.511719 8.886719 3.105469 C 8.03125 2.730469 8.300781 1.40625 8.640625 0.546875 C 8.21875 0.503906 7.867188 0.402344 7.550781 0.265625 C 6.933594 -0.00390625 6.492188 -0.40625 6.15625 -0.730469 C 8.125 -0.0117188 9.601562 -0.269531 10.253906 -1.761719 C 10.964844 -3.382812 9.933594 -4.734375 7.675781 -5.726562 C 7.566406 -5.773438 7.609375 -5.753906 7.304688 -5.886719 C 6.964844 -5.984375 6.410156 -6.164062 5.867188 -6.398438 C 5.113281 -6.730469 4.378906 -7.179688 4.257812 -7.722656 Z M 6.707031 -5.519531 L 6.878906 -5.441406 C 7.820312 -5.03125 8.140625 -4.285156 7.550781 -2.945312 C 6.964844 -1.601562 6.195312 -1.320312 5.257812 -1.734375 L 5.039062 -1.828125 L 6.308594 -4.726562 C 6.515625 -5.203125 6.621094 -5.414062 6.707031 -5.519531 Z M 6.707031 -5.519531 "/></g></g></g><g fill="rgb(32.939148%, 34.118652%, 29.798889%)" fill-opacity="1"><g transform="translate(201.585092, 205.853338)"><g><path d="M 2.28125 0.226562 L 5.058594 -2.957031 L 4.058594 1.566406 C 3.785156 2.847656 4.226562 3.722656 4.800781 4.210938 L 6.417969 5.628906 L 6.4375 5.441406 C 6.488281 5.0625 6.683594 4.605469 6.941406 4.3125 L 10.574219 0.152344 C 10.832031 -0.140625 11.238281 -0.425781 11.601562 -0.550781 L 11.871094 -0.644531 C 11.78125 -0.703125 11.632812 -0.789062 11.484375 -0.917969 C 11.246094 -1.128906 11.003906 -1.464844 11.0625 -1.980469 C 10.886719 -2.007812 10.574219 -1.921875 10.339844 -1.65625 C 10.003906 -1.273438 9.914062 -0.851562 10.015625 -0.464844 L 6.613281 3.398438 C 6.496094 2.777344 6.84375 1.402344 7.125 0.328125 C 7.527344 -1.171875 7.820312 -2.4375 8.277344 -3.921875 C 7.921875 -4.058594 7.566406 -4.277344 7.265625 -4.542969 C 6.742188 -5 6.386719 -5.578125 6.394531 -6.074219 C 6.21875 -6.105469 5.90625 -6.015625 5.671875 -5.75 C 5.335938 -5.367188 5.246094 -4.945312 5.347656 -4.558594 L 1.632812 -0.339844 C 1.378906 -0.046875 0.960938 0.214844 0.589844 0.3125 L 0.382812 0.367188 L 1.742188 1.558594 L 1.769531 1.347656 C 1.820312 0.96875 2.023438 0.519531 2.28125 0.226562 Z M 2.28125 0.226562 "/></g></g></g><g fill="rgb(32.939148%, 34.118652%, 29.798889%)" fill-opacity="1"><g transform="translate(208.363761, 212.162985)"><g><path d="M 3.375 2.511719 L 7.902344 -0.65625 C 8.222656 -0.875 8.6875 -1.054688 9.066406 -1.089844 L 9.351562 -1.117188 C 9.117188 -1.371094 8.742188 -1.800781 8.40625 -2.285156 C 7.933594 -2.964844 7.539062 -3.738281 7.71875 -4.28125 C 7.554688 -4.355469 7.238281 -4.335938 6.949219 -4.132812 C 6.53125 -3.84375 6.335938 -3.460938 6.339844 -3.0625 L 1.722656 0.140625 C 1.402344 0.363281 0.933594 0.515625 0.550781 0.523438 L 0.339844 0.527344 L 2.53125 3.675781 L 2.609375 3.476562 C 2.75 3.121094 3.054688 2.734375 3.375 2.511719 Z M 3.375 2.511719 "/></g></g></g><g fill="rgb(32.939148%, 34.118652%, 29.798889%)" fill-opacity="1"><g transform="translate(211.588368, 216.41758)"><g><path d="M 1.851562 1.214844 L 2.796875 1.167969 L 3.820312 3.847656 L 3.121094 4.433594 C 2.796875 4.679688 2.363281 4.871094 2.03125 4.898438 L 1.851562 4.917969 L 3.21875 8.5 L 3.316406 8.261719 C 3.496094 7.839844 3.828125 7.382812 4.144531 7.125 L 8.703125 3.375 C 9.023438 3.113281 9.457031 2.898438 9.792969 2.847656 L 10.039062 2.800781 C 9.660156 2.101562 8.738281 0.253906 9.164062 -0.820312 C 9.035156 -0.894531 8.75 -0.875 8.464844 -0.628906 C 8.25 -0.433594 8.082031 -0.214844 7.96875 0.015625 L 1.5 0.285156 C 1.109375 0.296875 0.605469 0.222656 0.238281 0.0976562 L -0.0234375 0.0078125 L 0.667969 1.816406 L 0.769531 1.714844 C 1.035156 1.425781 1.464844 1.222656 1.851562 1.214844 Z M 7.371094 0.976562 L 4.402344 3.386719 L 3.542969 1.136719 Z M 7.371094 0.976562 "/></g></g></g><g fill="rgb(32.939148%, 34.118652%, 29.798889%)" fill-opacity="1"><g transform="translate(178.050638, 139.680694)"><g><path d="M 0.34375 -7.671875 C 0.195312 -7.671875 -0.0546875 -7.8125 -0.421875 -8.09375 C -0.796875 -8.382812 -0.984375 -8.617188 -0.984375 -8.796875 C -0.984375 -8.972656 -0.859375 -9.109375 -0.609375 -9.203125 C -0.128906 -9.410156 0.351562 -9.570312 0.84375 -9.6875 L 1.078125 -9.734375 C 1.140625 -9.753906 1.191406 -9.765625 1.234375 -9.765625 C 1.304688 -9.765625 1.34375 -9.722656 1.34375 -9.640625 C 1.34375 -9.566406 1.382812 -9.53125 1.46875 -9.53125 C 1.550781 -9.53125 1.929688 -9.601562 2.609375 -9.75 C 4.660156 -10.175781 6.597656 -10.390625 8.421875 -10.390625 C 9.484375 -10.390625 10.390625 -10.257812 11.140625 -10 C 11.890625 -9.738281 12.265625 -9.375 12.265625 -8.90625 C 12.265625 -8.800781 12.117188 -8.75 11.828125 -8.75 C 11.546875 -8.75 11.203125 -8.742188 10.796875 -8.734375 C 10.398438 -8.722656 9.894531 -8.707031 9.28125 -8.6875 C 7.851562 -8.625 7.140625 -8.484375 7.140625 -8.265625 C 7.140625 -8.222656 7.148438 -8.191406 7.171875 -8.171875 C 7.171875 -8.117188 7.113281 -8.03125 7 -7.90625 C 6.882812 -7.78125 6.707031 -7.585938 6.46875 -7.328125 C 6.226562 -7.066406 5.773438 -6.566406 5.109375 -5.828125 C 4.453125 -5.085938 3.84375 -4.394531 3.28125 -3.75 C 1.851562 -2.050781 0.863281 -0.738281 0.3125 0.1875 C 0.28125 0.539062 0.175781 0.71875 0 0.71875 C -0.132812 0.71875 -0.3125 0.613281 -0.53125 0.40625 C -0.757812 0.195312 -0.875 -0.0546875 -0.875 -0.359375 C -0.875 -0.929688 -0.453125 -1.726562 0.390625 -2.75 C 1.242188 -3.78125 2.921875 -5.429688 5.421875 -7.703125 C 5.535156 -7.828125 5.644531 -7.925781 5.75 -8 C 5.894531 -8.113281 5.96875 -8.179688 5.96875 -8.203125 C 5.96875 -8.222656 5.9375 -8.234375 5.875 -8.234375 C 5.8125 -8.234375 5.679688 -8.222656 5.484375 -8.203125 L 0.671875 -7.71875 C 0.597656 -7.6875 0.488281 -7.671875 0.34375 -7.671875 Z M 0.34375 -7.671875 "/></g></g></g><g fill="rgb(32.939148%, 34.118652%, 29.798889%)" fill-opacity="1"><g transform="translate(183.210348, 139.680694)"><g><path d="M 3.84375 -1.390625 C 3.84375 -1.335938 3.863281 -1.3125 3.90625 -1.3125 C 3.945312 -1.3125 4.03125 -1.34375 4.15625 -1.40625 C 5.71875 -2.238281 7.4375 -3.351562 9.3125 -4.75 C 9.40625 -4.675781 9.453125 -4.585938 9.453125 -4.484375 C 9.453125 -4.378906 9.398438 -4.28125 9.296875 -4.1875 C 9.191406 -4.09375 9.039062 -3.957031 8.84375 -3.78125 C 8.65625 -3.601562 8.285156 -3.28125 7.734375 -2.8125 C 7.191406 -2.351562 6.6875 -1.9375 6.21875 -1.5625 C 4.976562 -0.5625 4.066406 0.0234375 3.484375 0.203125 C 3.285156 0.253906 3.078125 0.28125 2.859375 0.28125 C 2.503906 0.28125 2.328125 0.00390625 2.328125 -0.546875 C 2.328125 -0.734375 2.441406 -1.046875 2.671875 -1.484375 C 2.898438 -1.921875 3.015625 -2.238281 3.015625 -2.4375 C 3.015625 -2.457031 3 -2.46875 2.96875 -2.46875 C 2.9375 -2.46875 2.859375 -2.421875 2.734375 -2.328125 C 1.273438 -1.191406 0.390625 -0.40625 0.078125 0.03125 C 0.015625 0.125 -0.0664062 0.171875 -0.171875 0.171875 C -0.398438 0.171875 -0.546875 0.0625 -0.609375 -0.15625 C -0.609375 -0.46875 -0.164062 -1.265625 0.71875 -2.546875 C 1.601562 -3.828125 2.644531 -5.171875 3.84375 -6.578125 C 5.039062 -7.992188 6.015625 -8.988281 6.765625 -9.5625 C 6.984375 -9.769531 7.5 -9.875 8.3125 -9.875 C 8.4375 -9.84375 8.5 -9.789062 8.5 -9.71875 C 8.5 -9.644531 8.460938 -9.570312 8.390625 -9.5 C 5.367188 -6.582031 3.445312 -4.566406 2.625 -3.453125 C 2.582031 -3.410156 2.523438 -3.332031 2.453125 -3.21875 C 2.390625 -3.101562 2.359375 -3.03125 2.359375 -3 L 2.375 -2.984375 C 2.414062 -2.984375 2.742188 -3.21875 3.359375 -3.6875 C 3.984375 -4.15625 4.445312 -4.488281 4.75 -4.6875 C 4.84375 -4.78125 5.039062 -4.828125 5.34375 -4.828125 C 5.613281 -4.796875 5.75 -4.710938 5.75 -4.578125 C 5.75 -4.535156 5.738281 -4.5 5.71875 -4.46875 C 4.9375 -3.363281 4.46875 -2.660156 4.3125 -2.359375 C 4 -1.867188 3.84375 -1.546875 3.84375 -1.390625 Z M 3.84375 -1.390625 "/></g></g></g><g fill="rgb(32.939148%, 34.118652%, 29.798889%)" fill-opacity="1"><g transform="translate(191.232282, 139.680694)"><g><path d="M 4.875 -4.75 C 4.601562 -4.75 4.140625 -4.46875 3.484375 -3.90625 C 2.835938 -3.34375 2.515625 -3 2.515625 -2.875 C 2.515625 -2.851562 2.53125 -2.84375 2.5625 -2.84375 C 2.789062 -2.84375 3.25 -3.097656 3.9375 -3.609375 C 4.625 -4.128906 4.96875 -4.484375 4.96875 -4.671875 C 4.96875 -4.722656 4.9375 -4.75 4.875 -4.75 Z M 1.53125 0.28125 C 0.71875 0.28125 0.3125 -0.210938 0.3125 -1.203125 C 0.3125 -1.816406 0.582031 -2.472656 1.125 -3.171875 C 1.664062 -3.867188 2.300781 -4.4375 3.03125 -4.875 C 3.769531 -5.320312 4.421875 -5.546875 4.984375 -5.546875 C 5.234375 -5.546875 5.46875 -5.445312 5.6875 -5.25 C 5.90625 -5.050781 6.015625 -4.859375 6.015625 -4.671875 C 6.015625 -4.328125 5.765625 -3.9375 5.265625 -3.5 C 4.773438 -3.0625 4.257812 -2.707031 3.71875 -2.4375 C 3.175781 -2.175781 2.816406 -2.046875 2.640625 -2.046875 C 2.472656 -2.046875 2.347656 -2.125 2.265625 -2.28125 C 2.222656 -2.3125 2.164062 -2.328125 2.09375 -2.328125 C 2.019531 -2.328125 1.898438 -2.1875 1.734375 -1.90625 C 1.566406 -1.632812 1.484375 -1.410156 1.484375 -1.234375 C 1.484375 -1.054688 1.546875 -0.945312 1.671875 -0.90625 C 2.460938 -0.90625 3.328125 -1.140625 4.265625 -1.609375 C 5.203125 -2.078125 6.492188 -2.898438 8.140625 -4.078125 C 8.253906 -4.160156 8.425781 -4.285156 8.65625 -4.453125 C 8.894531 -4.617188 9.035156 -4.71875 9.078125 -4.75 C 9.171875 -4.675781 9.21875 -4.585938 9.21875 -4.484375 C 9.21875 -4.378906 9.171875 -4.285156 9.078125 -4.203125 C 8.554688 -3.679688 7.878906 -3.09375 7.046875 -2.4375 C 6.210938 -1.789062 5.253906 -1.175781 4.171875 -0.59375 C 3.085938 -0.0078125 2.207031 0.28125 1.53125 0.28125 Z M 1.53125 0.28125 "/></g></g></g><g fill="rgb(32.939148%, 34.118652%, 29.798889%)" fill-opacity="1"><g transform="translate(169.497327, 185.595223)"><g><path d="M 5.875 -5.65625 L 7.453125 -5.828125 L 7.484375 -5.828125 C 7.765625 -5.828125 7.992188 -5.914062 8.171875 -6.09375 C 10.816406 -8.820312 12.566406 -10.4375 13.421875 -10.9375 C 13.503906 -11 13.582031 -11.03125 13.65625 -11.03125 C 13.726562 -11.03125 13.785156 -11.007812 13.828125 -10.96875 C 14.054688 -10.800781 14.171875 -10.691406 14.171875 -10.640625 C 14.171875 -10.597656 14.15625 -10.5625 14.125 -10.53125 C 11.382812 -7.84375 10.015625 -6.394531 10.015625 -6.1875 C 10.015625 -6.132812 10.0625 -6.109375 10.15625 -6.109375 C 10.78125 -6.097656 11.125 -6.0625 11.1875 -6 C 11.25 -5.9375 11.34375 -5.894531 11.46875 -5.875 C 11.632812 -5.875 11.890625 -5.8125 12.234375 -5.6875 C 12.585938 -5.5625 12.765625 -5.398438 12.765625 -5.203125 C 12.765625 -5.148438 12.738281 -5.113281 12.6875 -5.09375 C 12.644531 -5.082031 12.4375 -5.050781 12.0625 -5 C 11.695312 -4.945312 11.222656 -4.882812 10.640625 -4.8125 C 10.066406 -4.738281 9.609375 -4.679688 9.265625 -4.640625 C 8.929688 -4.597656 8.695312 -4.5625 8.5625 -4.53125 C 8.425781 -4.507812 8.320312 -4.4375 8.25 -4.3125 C 6.71875 -2.320312 5.65625 -0.859375 5.0625 0.078125 C 5.039062 0.191406 4.976562 0.25 4.875 0.25 C 4.769531 0.25 4.660156 0.148438 4.546875 -0.046875 C 4.441406 -0.242188 4.390625 -0.460938 4.390625 -0.703125 C 4.390625 -1.316406 5.015625 -2.414062 6.265625 -4 C 6.335938 -4.0625 6.375 -4.113281 6.375 -4.15625 C 6.375 -4.175781 6.351562 -4.1875 6.3125 -4.1875 L 6.234375 -4.1875 L 4.1875 -3.84375 C 4.039062 -3.84375 3.921875 -3.78125 3.828125 -3.65625 C 2.429688 -1.738281 1.632812 -0.601562 1.4375 -0.25 C 1.40625 -0.125 1.332031 -0.0625 1.21875 -0.0625 C 1.101562 -0.0625 0.96875 -0.140625 0.8125 -0.296875 C 0.65625 -0.460938 0.578125 -0.648438 0.578125 -0.859375 C 0.578125 -1.078125 0.71875 -1.460938 1 -2.015625 C 1.28125 -2.578125 1.570312 -3.046875 1.875 -3.421875 C 1.925781 -3.492188 1.953125 -3.550781 1.953125 -3.59375 C 1.953125 -3.632812 1.914062 -3.65625 1.84375 -3.65625 L 1.09375 -3.6875 C 0.914062 -3.695312 0.660156 -3.851562 0.328125 -4.15625 C 0.00390625 -4.46875 -0.15625 -4.742188 -0.15625 -4.984375 C -0.15625 -5.078125 -0.101562 -5.125 0 -5.125 C 0.757812 -5.039062 1.269531 -5 1.53125 -5 C 1.800781 -5 2.421875 -5.082031 3.390625 -5.25 C 3.484375 -5.28125 3.609375 -5.382812 3.765625 -5.5625 C 6.929688 -8.863281 8.707031 -10.515625 9.09375 -10.515625 C 9.15625 -10.515625 9.234375 -10.460938 9.328125 -10.359375 C 9.429688 -10.253906 9.484375 -10.171875 9.484375 -10.109375 C 9.484375 -10.046875 9.460938 -9.992188 9.421875 -9.953125 C 7.273438 -7.609375 6.117188 -6.335938 5.953125 -6.140625 C 5.785156 -5.953125 5.703125 -5.820312 5.703125 -5.75 C 5.703125 -5.6875 5.757812 -5.65625 5.875 -5.65625 Z M 5.875 -5.65625 "/></g></g></g><g fill="rgb(32.939148%, 34.118652%, 29.798889%)" fill-opacity="1"><g transform="translate(179.799611, 185.595223)"><g><path d="M 0.890625 -0.6875 C 1.234375 -0.6875 1.648438 -0.90625 2.140625 -1.34375 C 2.628906 -1.789062 2.882812 -2.097656 2.90625 -2.265625 C 2.78125 -2.367188 2.644531 -2.554688 2.5 -2.828125 C 2.363281 -3.109375 2.289062 -3.25 2.28125 -3.25 C 1.957031 -2.945312 1.671875 -2.597656 1.421875 -2.203125 C 1.015625 -1.535156 0.8125 -1.070312 0.8125 -0.8125 C 0.8125 -0.726562 0.835938 -0.6875 0.890625 -0.6875 Z M 4.296875 -4.546875 C 4.191406 -4.546875 3.972656 -4.382812 3.640625 -4.0625 C 3.304688 -3.738281 3.140625 -3.515625 3.140625 -3.390625 C 3.140625 -3.347656 3.171875 -3.28125 3.234375 -3.1875 C 3.296875 -3.09375 3.347656 -3.046875 3.390625 -3.046875 C 3.566406 -3.046875 3.765625 -3.257812 3.984375 -3.6875 C 4.210938 -4.125 4.328125 -4.375 4.328125 -4.4375 C 4.328125 -4.507812 4.316406 -4.546875 4.296875 -4.546875 Z M 4.328125 -2.515625 C 4.617188 -2.515625 5.078125 -2.691406 5.703125 -3.046875 C 6.328125 -3.410156 6.875 -3.769531 7.34375 -4.125 L 8.0625 -4.671875 C 8.15625 -4.597656 8.203125 -4.507812 8.203125 -4.40625 C 8.203125 -4.300781 8.15625 -4.207031 8.0625 -4.125 C 6.320312 -2.519531 5.007812 -1.71875 4.125 -1.71875 C 4.0625 -1.71875 3.96875 -1.726562 3.84375 -1.75 C 2.65625 -0.375 1.632812 0.3125 0.78125 0.3125 C 0.21875 0.226562 -0.132812 0.03125 -0.28125 -0.28125 C -0.363281 -0.4375 -0.40625 -0.632812 -0.40625 -0.875 C -0.40625 -1.570312 -0.0078125 -2.398438 0.78125 -3.359375 C 1.582031 -4.316406 2.585938 -5.019531 3.796875 -5.46875 C 3.898438 -5.46875 3.976562 -5.441406 4.03125 -5.390625 C 4.082031 -5.347656 4.128906 -5.320312 4.171875 -5.3125 C 4.210938 -5.3125 4.265625 -5.332031 4.328125 -5.375 C 4.398438 -5.425781 4.492188 -5.453125 4.609375 -5.453125 C 4.722656 -5.460938 4.84375 -5.398438 4.96875 -5.265625 C 5.132812 -5.128906 5.21875 -4.960938 5.21875 -4.765625 C 5.21875 -4.179688 4.921875 -3.429688 4.328125 -2.515625 Z M 4.328125 -2.515625 "/></g></g></g><g fill="rgb(32.939148%, 34.118652%, 29.798889%)" fill-opacity="1"><g transform="translate(186.531979, 185.595223)"><g><path d="M 7.21875 -7.265625 L 8.03125 -7.28125 C 9.0625 -7.28125 9.816406 -7.132812 10.296875 -6.84375 C 10.523438 -6.769531 10.640625 -6.675781 10.640625 -6.5625 C 10.640625 -6.476562 10.535156 -6.421875 10.328125 -6.390625 C 10.117188 -6.359375 9.410156 -6.273438 8.203125 -6.140625 C 6.992188 -6.015625 6.164062 -5.941406 5.71875 -5.921875 C 5.507812 -5.910156 5.046875 -5.5625 4.328125 -4.875 C 3.609375 -4.195312 2.925781 -3.445312 2.28125 -2.625 C 1.632812 -1.8125 1.3125 -1.238281 1.3125 -0.90625 C 1.3125 -0.851562 1.335938 -0.804688 1.390625 -0.765625 C 1.441406 -0.734375 1.503906 -0.71875 1.578125 -0.71875 C 1.660156 -0.71875 1.785156 -0.75 1.953125 -0.8125 C 3.941406 -1.988281 5.875 -3.273438 7.75 -4.671875 C 7.851562 -4.597656 7.90625 -4.507812 7.90625 -4.40625 C 7.90625 -4.300781 7.847656 -4.195312 7.734375 -4.09375 C 7.628906 -4 7.472656 -3.859375 7.265625 -3.671875 C 7.066406 -3.484375 6.6875 -3.140625 6.125 -2.640625 C 5.570312 -2.148438 5.050781 -1.710938 4.5625 -1.328125 C 3.238281 -0.253906 2.316406 0.363281 1.796875 0.53125 C 1.609375 0.582031 1.382812 0.609375 1.125 0.609375 C 0.863281 0.609375 0.625 0.476562 0.40625 0.21875 C 0.195312 -0.0390625 0.09375 -0.394531 0.09375 -0.84375 C 0.09375 -1.300781 0.382812 -1.953125 0.96875 -2.796875 C 1.550781 -3.648438 2.34375 -4.519531 3.34375 -5.40625 C 3.445312 -5.476562 3.5 -5.546875 3.5 -5.609375 C 3.5 -5.679688 3.382812 -5.71875 3.15625 -5.71875 L 2.171875 -5.6875 C 0.773438 -5.6875 0.0546875 -5.84375 0.015625 -6.15625 C -0.304688 -6.21875 -0.46875 -6.3125 -0.46875 -6.4375 C -0.46875 -6.476562 -0.445312 -6.5 -0.40625 -6.5 C -0.363281 -6.507812 -0.328125 -6.515625 -0.296875 -6.515625 C -0.265625 -6.523438 -0.210938 -6.535156 -0.140625 -6.546875 C -0.0664062 -6.554688 0.507812 -6.640625 1.59375 -6.796875 C 2.675781 -6.953125 3.910156 -7.082031 5.296875 -7.1875 L 6.390625 -8.640625 C 6.453125 -8.765625 6.671875 -8.828125 7.046875 -8.828125 C 7.421875 -8.828125 7.609375 -8.75 7.609375 -8.59375 C 7.609375 -8.539062 7.566406 -8.445312 7.484375 -8.3125 L 7.09375 -7.75 C 7.039062 -7.582031 7.007812 -7.457031 7 -7.375 C 7 -7.300781 7.070312 -7.265625 7.21875 -7.265625 Z M 7.21875 -7.265625 "/></g></g></g><g fill="rgb(32.939148%, 34.118652%, 29.798889%)" fill-opacity="1"><g transform="translate(193.02845, 185.595223)"><g><path d="M 4.875 -4.75 C 4.601562 -4.75 4.140625 -4.46875 3.484375 -3.90625 C 2.835938 -3.34375 2.515625 -3 2.515625 -2.875 C 2.515625 -2.851562 2.53125 -2.84375 2.5625 -2.84375 C 2.789062 -2.84375 3.25 -3.097656 3.9375 -3.609375 C 4.625 -4.128906 4.96875 -4.484375 4.96875 -4.671875 C 4.96875 -4.722656 4.9375 -4.75 4.875 -4.75 Z M 1.53125 0.28125 C 0.71875 0.28125 0.3125 -0.210938 0.3125 -1.203125 C 0.3125 -1.816406 0.582031 -2.472656 1.125 -3.171875 C 1.664062 -3.867188 2.300781 -4.4375 3.03125 -4.875 C 3.769531 -5.320312 4.421875 -5.546875 4.984375 -5.546875 C 5.234375 -5.546875 5.46875 -5.445312 5.6875 -5.25 C 5.90625 -5.050781 6.015625 -4.859375 6.015625 -4.671875 C 6.015625 -4.328125 5.765625 -3.9375 5.265625 -3.5 C 4.773438 -3.0625 4.257812 -2.707031 3.71875 -2.4375 C 3.175781 -2.175781 2.816406 -2.046875 2.640625 -2.046875 C 2.472656 -2.046875 2.347656 -2.125 2.265625 -2.28125 C 2.222656 -2.3125 2.164062 -2.328125 2.09375 -2.328125 C 2.019531 -2.328125 1.898438 -2.1875 1.734375 -1.90625 C 1.566406 -1.632812 1.484375 -1.410156 1.484375 -1.234375 C 1.484375 -1.054688 1.546875 -0.945312 1.671875 -0.90625 C 2.460938 -0.90625 3.328125 -1.140625 4.265625 -1.609375 C 5.203125 -2.078125 6.492188 -2.898438 8.140625 -4.078125 C 8.253906 -4.160156 8.425781 -4.285156 8.65625 -4.453125 C 8.894531 -4.617188 9.035156 -4.71875 9.078125 -4.75 C 9.171875 -4.675781 9.21875 -4.585938 9.21875 -4.484375 C 9.21875 -4.378906 9.171875 -4.285156 9.078125 -4.203125 C 8.554688 -3.679688 7.878906 -3.09375 7.046875 -2.4375 C 6.210938 -1.789062 5.253906 -1.175781 4.171875 -0.59375 C 3.085938 -0.0078125 2.207031 0.28125 1.53125 0.28125 Z M 1.53125 0.28125 "/></g></g></g><g fill="rgb(32.939148%, 34.118652%, 29.798889%)" fill-opacity="1"><g transform="translate(200.32697, 185.595223)"><g><path d="M 2.109375 -1.03125 C 2.453125 -1.03125 3.132812 -1.335938 4.15625 -1.953125 C 5.1875 -2.578125 6.117188 -3.203125 6.953125 -3.828125 L 8.234375 -4.75 C 8.328125 -4.675781 8.375 -4.585938 8.375 -4.484375 C 8.375 -4.378906 8.320312 -4.28125 8.21875 -4.1875 C 8.113281 -4.09375 7.960938 -3.957031 7.765625 -3.78125 C 7.566406 -3.601562 7.195312 -3.28125 6.65625 -2.8125 C 6.113281 -2.351562 5.601562 -1.9375 5.125 -1.5625 C 3.882812 -0.5625 2.972656 0.0234375 2.390625 0.203125 C 2.203125 0.253906 2.007812 0.28125 1.8125 0.28125 C 1.613281 0.28125 1.457031 0.265625 1.34375 0.234375 C 1.226562 0.203125 1.097656 0.132812 0.953125 0.03125 C 0.679688 -0.195312 0.546875 -0.710938 0.546875 -1.515625 C 0.546875 -1.734375 0.640625 -2.066406 0.828125 -2.515625 C 1.015625 -2.960938 1.328125 -3.503906 1.765625 -4.140625 C 2.203125 -4.785156 2.710938 -5.425781 3.296875 -6.0625 C 3.878906 -6.707031 4.617188 -7.347656 5.515625 -7.984375 C 6.410156 -8.628906 7.367188 -9.148438 8.390625 -9.546875 C 8.546875 -9.597656 8.6875 -9.625 8.8125 -9.625 C 8.9375 -9.625 9.050781 -9.566406 9.15625 -9.453125 C 9.257812 -9.347656 9.332031 -9.238281 9.375 -9.125 L 9.453125 -8.96875 C 9.453125 -8.726562 9.082031 -8.195312 8.34375 -7.375 C 7.570312 -6.53125 6.6875 -5.722656 5.6875 -4.953125 C 4.6875 -4.179688 3.753906 -3.519531 2.890625 -2.96875 C 2.191406 -2.507812 1.84375 -2.03125 1.84375 -1.53125 C 1.84375 -1.195312 1.929688 -1.03125 2.109375 -1.03125 Z M 3.53125 -4.296875 C 3.789062 -4.296875 4.582031 -4.941406 5.90625 -6.234375 C 7.238281 -7.523438 7.90625 -8.242188 7.90625 -8.390625 L 7.890625 -8.421875 L 7.609375 -8.296875 C 7.066406 -7.929688 6.34375 -7.316406 5.4375 -6.453125 C 4.53125 -5.597656 3.90625 -4.929688 3.5625 -4.453125 C 3.519531 -4.398438 3.5 -4.359375 3.5 -4.328125 C 3.5 -4.304688 3.507812 -4.296875 3.53125 -4.296875 Z M 3.53125 -4.296875 "/></g></g></g><g fill="rgb(32.939148%, 34.118652%, 29.798889%)" fill-opacity="1"><g transform="translate(135.977398, 196.272634)"><g><path d="M 4.175781 -0.0078125 C 4.035156 -0.335938 4.035156 -1.140625 4.199219 -1.410156 C 3.664062 -1.515625 3.328125 -0.976562 3.308594 -0.382812 L 2.15625 -0.390625 C 2.121094 -0.496094 2.105469 -0.613281 2.105469 -0.71875 L 2.097656 -2.347656 L 2.570312 -2.347656 C 2.902344 -2.347656 2.917969 -2.046875 2.917969 -1.886719 C 2.976562 -1.867188 3.21875 -1.855469 3.289062 -1.863281 L 3.289062 -3.085938 C 3.21875 -3.085938 2.976562 -3.078125 2.917969 -3.054688 C 2.914062 -2.824219 2.914062 -2.601562 2.570312 -2.601562 L 2.097656 -2.601562 L 2.097656 -3.894531 C 2.097656 -3.984375 2.109375 -4.046875 2.128906 -4.105469 L 3.25 -4.113281 C 3.269531 -3.523438 3.609375 -2.984375 4.144531 -3.085938 C 3.976562 -3.351562 3.976562 -4.15625 4.117188 -4.492188 L 2.332031 -4.492188 L 2.339844 -4.492188 C 2.160156 -4.492188 1.824219 -4.460938 1.472656 -4.460938 C 1.046875 -4.460938 0.605469 -4.511719 0.433594 -4.742188 C 0.351562 -4.691406 0.261719 -4.546875 0.261719 -4.355469 C 0.261719 -4.078125 0.371094 -3.875 0.546875 -3.753906 L 0.542969 -0.71875 C 0.542969 -0.511719 0.464844 -0.253906 0.34375 -0.0820312 L 0.285156 0 L 2.359375 0 L 2.359375 -0.0078125 Z M 4.175781 -0.0078125 "/></g></g></g><g fill="rgb(32.939148%, 34.118652%, 29.798889%)" fill-opacity="1"><g transform="translate(141.038802, 196.272634)"><g><path d="M 4.285156 -1.230469 C 4.257812 -2.785156 1.746094 -2.855469 1.722656 -3.824219 C 1.714844 -4.125 1.929688 -4.246094 2.1875 -4.257812 C 2.691406 -4.285156 3.175781 -3.902344 3.175781 -3.316406 C 3.390625 -3.230469 3.582031 -3.167969 3.730469 -3.097656 C 3.652344 -3.652344 4.128906 -3.832031 4.128906 -4.257812 C 4.128906 -4.355469 4.113281 -4.457031 4.054688 -4.582031 C 3.945312 -4.4375 3.773438 -4.386719 3.5625 -4.386719 C 3.148438 -4.386719 2.601562 -4.582031 2.167969 -4.582031 C 0.925781 -4.582031 0.191406 -4.117188 0.191406 -3.308594 C 0.191406 -1.695312 2.746094 -1.617188 2.746094 -0.726562 C 2.746094 -0.363281 2.453125 -0.25 2.148438 -0.25 C 1.636719 -0.25 0.980469 -0.636719 0.878906 -1.242188 L 0.324219 -1.429688 C 0.363281 -1.300781 0.382812 -1.171875 0.382812 -1.058594 C 0.382812 -0.796875 0.304688 -0.566406 0.234375 -0.414062 C 0.605469 -0.171875 1.511719 0.0898438 2.179688 0.0898438 C 3.472656 0.0898438 4.296875 -0.40625 4.285156 -1.230469 Z M 4.285156 -1.230469 "/></g></g></g><g fill="rgb(32.939148%, 34.118652%, 29.798889%)" fill-opacity="1"><g transform="translate(146.151198, 196.272634)"><g><path d="M 3.125 -0.71875 L 3.125 -3.773438 C 3.125 -3.882812 3.144531 -3.996094 3.179688 -4.113281 L 3.664062 -4.113281 C 3.683594 -3.523438 4.015625 -2.984375 4.558594 -3.085938 C 4.390625 -3.351562 4.390625 -4.15625 4.53125 -4.492188 L 0.152344 -4.492188 C 0.300781 -4.15625 0.300781 -3.351562 0.132812 -3.085938 C 0.667969 -2.984375 1.007812 -3.523438 1.027344 -4.113281 L 1.503906 -4.113281 C 1.542969 -3.996094 1.5625 -3.882812 1.5625 -3.773438 L 1.5625 -0.71875 C 1.5625 -0.511719 1.484375 -0.253906 1.363281 -0.0820312 L 1.308594 0 L 3.378906 0 L 3.320312 -0.0820312 C 3.199219 -0.253906 3.125 -0.511719 3.125 -0.71875 Z M 3.125 -0.71875 "/></g></g></g><g fill="rgb(32.939148%, 34.118652%, 29.798889%)" fill-opacity="1"><g transform="translate(151.48033, 196.272634)"><g><path d="M 2.421875 0 C 3.753906 0 4.820312 -0.714844 4.820312 -2.25 C 4.820312 -3.644531 3.921875 -4.519531 2.765625 -4.519531 C 2.65625 -4.519531 2.542969 -4.511719 2.429688 -4.492188 C 2.199219 -4.460938 1.84375 -4.410156 1.492188 -4.410156 C 1.058594 -4.410156 0.625 -4.488281 0.433594 -4.75 C 0.351562 -4.699219 0.261719 -4.546875 0.261719 -4.355469 C 0.261719 -4.078125 0.371094 -3.875 0.546875 -3.753906 L 0.542969 -0.71875 C 0.542969 -0.511719 0.464844 -0.253906 0.34375 -0.0820312 L 0.285156 0 Z M 2.109375 -0.503906 C 2.105469 -0.5625 2.105469 -0.632812 2.105469 -0.71875 L 2.097656 -3.703125 C 2.097656 -3.832031 2.097656 -3.921875 2.097656 -3.996094 C 2.105469 -4.074219 2.160156 -4.125 2.242188 -4.125 L 2.339844 -4.125 C 2.882812 -4.125 3.226562 -3.589844 3.226562 -2.25 C 3.226562 -0.90625 2.882812 -0.363281 2.347656 -0.371094 L 2.257812 -0.371094 C 2.171875 -0.371094 2.117188 -0.421875 2.109375 -0.503906 Z M 2.109375 -0.503906 "/></g></g></g><g fill="rgb(32.939148%, 34.118652%, 29.798889%)" fill-opacity="1"><g transform="translate(215.536294, 196.272634)"><g><path d="M 2.390625 -0.703125 L 2.382812 -3.722656 C 2.382812 -3.921875 2.449219 -4.167969 2.542969 -4.339844 L 2.625 -4.488281 C 2.453125 -4.457031 2.085938 -4.410156 1.722656 -4.410156 C 1.359375 -4.410156 0.996094 -4.457031 0.835938 -4.582031 C 0.808594 -4.316406 0.304688 -3.652344 -0.109375 -3.449219 C -0.101562 -3.257812 0.121094 -3.136719 0.382812 -3.136719 C 0.542969 -3.136719 0.746094 -3.1875 0.859375 -3.300781 L 0.855469 -0.703125 C 0.855469 -0.503906 0.785156 -0.261719 0.675781 -0.09375 L 0.597656 0.0117188 L 2.644531 0.0117188 L 2.574219 -0.09375 C 2.46875 -0.261719 2.390625 -0.503906 2.390625 -0.703125 Z M 2.390625 -0.703125 "/></g></g></g><g fill="rgb(32.939148%, 34.118652%, 29.798889%)" fill-opacity="1"><g transform="translate(219.080552, 196.272634)"><g><path d="M 4.054688 -2.382812 C 4.054688 -3.046875 3.871094 -3.589844 3.550781 -3.972656 C 3.671875 -4.097656 3.75 -4.285156 3.75 -4.519531 C 3.75 -4.710938 3.664062 -4.855469 3.59375 -4.910156 C 3.441406 -4.671875 3.148438 -4.621094 2.835938 -4.621094 C 2.570312 -4.621094 2.292969 -4.660156 2.089844 -4.660156 L 2.097656 -4.660156 C 2.058594 -4.660156 2.027344 -4.660156 1.996094 -4.660156 C 0.855469 -4.660156 0.0507812 -4.113281 0.0507812 -3.066406 C 0.0507812 -2.121094 0.855469 -1.574219 1.914062 -1.664062 C 2.140625 -1.683594 2.320312 -1.753906 2.453125 -1.847656 C 2.453125 -1.101562 2.402344 -0.355469 2 -0.3125 C 1.644531 -0.273438 1.535156 -0.796875 1.582031 -1.242188 C 1.492188 -1.203125 1.375 -1.191406 1.261719 -1.191406 C 0.957031 -1.191406 0.605469 -1.289062 0.425781 -1.402344 C 0.375 -1.433594 0.34375 -1.445312 0.320312 -1.445312 C 0.285156 -1.445312 0.273438 -1.410156 0.285156 -1.339844 C 0.425781 -0.425781 1.109375 0.0078125 1.996094 0.0078125 C 3.226562 0.0117188 4.054688 -0.917969 4.054688 -2.382812 Z M 1.652344 -3.246094 C 1.652344 -4.085938 1.742188 -4.339844 2.019531 -4.339844 C 2.320312 -4.339844 2.429688 -3.976562 2.449219 -2.882812 C 2.433594 -2.308594 2.347656 -2 2.066406 -1.996094 C 1.722656 -1.984375 1.652344 -2.371094 1.652344 -3.246094 Z M 1.652344 -3.246094 "/></g></g></g><g fill="rgb(32.939148%, 34.118652%, 29.798889%)" fill-opacity="1"><g transform="translate(223.969841, 196.272634)"><g><path d="M 4.054688 -2.382812 C 4.054688 -3.046875 3.871094 -3.589844 3.550781 -3.972656 C 3.671875 -4.097656 3.75 -4.285156 3.75 -4.519531 C 3.75 -4.710938 3.664062 -4.855469 3.59375 -4.910156 C 3.441406 -4.671875 3.148438 -4.621094 2.835938 -4.621094 C 2.570312 -4.621094 2.292969 -4.660156 2.089844 -4.660156 L 2.097656 -4.660156 C 2.058594 -4.660156 2.027344 -4.660156 1.996094 -4.660156 C 0.855469 -4.660156 0.0507812 -4.113281 0.0507812 -3.066406 C 0.0507812 -2.121094 0.855469 -1.574219 1.914062 -1.664062 C 2.140625 -1.683594 2.320312 -1.753906 2.453125 -1.847656 C 2.453125 -1.101562 2.402344 -0.355469 2 -0.3125 C 1.644531 -0.273438 1.535156 -0.796875 1.582031 -1.242188 C 1.492188 -1.203125 1.375 -1.191406 1.261719 -1.191406 C 0.957031 -1.191406 0.605469 -1.289062 0.425781 -1.402344 C 0.375 -1.433594 0.34375 -1.445312 0.320312 -1.445312 C 0.285156 -1.445312 0.273438 -1.410156 0.285156 -1.339844 C 0.425781 -0.425781 1.109375 0.0078125 1.996094 0.0078125 C 3.226562 0.0117188 4.054688 -0.917969 4.054688 -2.382812 Z M 1.652344 -3.246094 C 1.652344 -4.085938 1.742188 -4.339844 2.019531 -4.339844 C 2.320312 -4.339844 2.429688 -3.976562 2.449219 -2.882812 C 2.433594 -2.308594 2.347656 -2 2.066406 -1.996094 C 1.722656 -1.984375 1.652344 -2.371094 1.652344 -3.246094 Z M 1.652344 -3.246094 "/></g></g></g><g fill="rgb(32.939148%, 34.118652%, 29.798889%)" fill-opacity="1"><g transform="translate(228.859129, 196.272634)"><g><path d="M 2.390625 -0.703125 L 2.382812 -3.722656 C 2.382812 -3.921875 2.449219 -4.167969 2.542969 -4.339844 L 2.625 -4.488281 C 2.453125 -4.457031 2.085938 -4.410156 1.722656 -4.410156 C 1.359375 -4.410156 0.996094 -4.457031 0.835938 -4.582031 C 0.808594 -4.316406 0.304688 -3.652344 -0.109375 -3.449219 C -0.101562 -3.257812 0.121094 -3.136719 0.382812 -3.136719 C 0.542969 -3.136719 0.746094 -3.1875 0.859375 -3.300781 L 0.855469 -0.703125 C 0.855469 -0.503906 0.785156 -0.261719 0.675781 -0.09375 L 0.597656 0.0117188 L 2.644531 0.0117188 L 2.574219 -0.09375 C 2.46875 -0.261719 2.390625 -0.503906 2.390625 -0.703125 Z M 2.390625 -0.703125 "/></g></g></g><g clip-path="url(#id2)"><path fill="rgb(32.939148%, 34.118652%, 29.798889%)" d="M 192.058594 230.3125 C 191.046875 231.003906 189.738281 231.214844 188.597656 230.933594 C 189.132812 230.453125 189.574219 229.875 189.875 229.222656 C 190.878906 227.015625 190.441406 224.242188 189.207031 221.746094 C 190.640625 220.761719 192.433594 220 194.449219 219.714844 C 195.875 224.121094 194.417969 228.699219 192.058594 230.3125 Z M 187.316406 230.332031 C 186.183594 229.492188 185.511719 227.964844 185.707031 226.546875 C 185.886719 225.203125 186.800781 223.746094 188.210938 222.507812 C 189.261719 224.804688 189.4375 227.132812 188.722656 228.695312 C 188.425781 229.351562 187.921875 229.917969 187.316406 230.332031 Z M 186.613281 237.367188 C 188.277344 236.105469 190.050781 235.808594 191.164062 235.761719 C 190.847656 236.808594 190.140625 238.402344 188.5625 239.660156 C 186.847656 241.027344 184.996094 241.316406 183.835938 241.34375 C 184.171875 240.273438 184.9375 238.640625 186.613281 237.367188 Z M 182.824219 230.289062 C 182.1875 229.835938 181.660156 229.210938 181.351562 228.480469 C 180.679688 226.925781 180.835938 224.664062 181.8125 222.449219 C 183.25 223.683594 184.171875 225.140625 184.371094 226.488281 L 184.371094 227.527344 C 184.230469 228.609375 183.664062 229.640625 182.824219 230.289062 Z M 178.023438 230.3125 C 175.667969 228.699219 174.210938 224.121094 175.632812 219.710938 C 177.601562 219.988281 179.351562 220.714844 180.769531 221.667969 C 179.527344 224.3125 179.367188 227.085938 180.191406 228.984375 C 180.511719 229.726562 180.988281 230.378906 181.570312 230.90625 C 180.402344 231.222656 179.054688 231.015625 178.023438 230.3125 Z M 184.351562 218.804688 L 184.359375 223.359375 C 183.824219 222.617188 183.148438 221.933594 182.382812 221.320312 C 182.902344 220.429688 183.554688 219.574219 184.351562 218.804688 Z M 187.625 221.378906 C 186.839844 222.011719 186.15625 222.722656 185.628906 223.496094 L 185.621094 218.824219 C 186.425781 219.617188 187.089844 220.484375 187.625 221.378906 Z M 195.46875 218.800781 C 195.363281 218.527344 195.09375 218.359375 194.8125 218.394531 C 192.71875 218.605469 190.472656 219.425781 188.613281 220.65625 C 187.734375 219.207031 186.609375 217.902344 185.363281 216.9375 C 185.359375 216.9375 185.359375 216.929688 185.351562 216.929688 C 185.304688 216.890625 185.25 216.863281 185.191406 216.84375 C 185.179688 216.839844 185.171875 216.839844 185.160156 216.832031 C 185.101562 216.8125 185.042969 216.808594 184.984375 216.800781 L 184.976562 216.800781 C 184.914062 216.800781 184.855469 216.8125 184.796875 216.824219 C 184.785156 216.832031 184.777344 216.832031 184.765625 216.839844 C 184.707031 216.859375 184.65625 216.890625 184.605469 216.921875 C 184.605469 216.921875 184.597656 216.921875 184.589844 216.929688 C 183.207031 217.988281 182.128906 219.246094 181.335938 220.574219 C 179.5 219.386719 177.316406 218.597656 175.265625 218.394531 C 174.984375 218.359375 174.714844 218.527344 174.609375 218.800781 C 172.652344 224.074219 174.488281 229.421875 177.308594 231.351562 C 178.25 231.996094 179.371094 232.324219 180.472656 232.324219 C 181.292969 232.324219 182.097656 232.132812 182.824219 231.769531 C 183.316406 232.015625 183.835938 232.183594 184.378906 232.261719 L 184.390625 237.757812 C 183.058594 239.347656 182.566406 241.039062 182.40625 241.820312 C 182.367188 241.992188 182.414062 242.179688 182.515625 242.328125 C 182.625 242.476562 182.785156 242.566406 182.96875 242.582031 C 183.148438 242.59375 183.378906 242.605469 183.648438 242.605469 C 183.875 242.605469 184.128906 242.601562 184.398438 242.574219 L 184.410156 248.417969 C 184.410156 248.765625 184.695312 249.050781 185.042969 249.050781 C 185.390625 249.050781 185.675781 248.765625 185.675781 248.417969 L 185.660156 242.386719 C 186.796875 242.140625 188.101562 241.640625 189.347656 240.644531 C 191.707031 238.769531 192.394531 236.253906 192.589844 235.261719 C 192.621094 235.078125 192.574219 234.898438 192.464844 234.757812 C 192.355469 234.613281 192.1875 234.523438 192.007812 234.511719 C 190.976562 234.449219 188.320312 234.492188 185.855469 236.363281 C 185.785156 236.414062 185.71875 236.472656 185.65625 236.523438 L 185.648438 232.28125 C 186.226562 232.214844 186.796875 232.046875 187.316406 231.789062 C 188.027344 232.136719 188.8125 232.320312 189.609375 232.320312 C 190.710938 232.320312 191.832031 231.988281 192.773438 231.34375 C 195.597656 229.421875 197.425781 224.074219 195.46875 218.800781 " fill-opacity="1" fill-rule="nonzero"/></g></svg>