<svg xmlns="http://www.w3.org/2000/svg" xmlns:xlink="http://www.w3.org/1999/xlink" width="576" zoomAndPan="magnify" viewBox="0 0 432 92.249997" height="123" preserveAspectRatio="xMidYMid meet" version="1.0"><defs><g/></defs><g fill="rgb(100%, 100%, 100%)" fill-opacity="1"><g transform="translate(127.041447, 84.81629)"><g><path d="M 52.769531 0 C 53.960938 0 54.355469 -0.59375 54.160156 -1.6875 L 37.691406 -77.964844 C 37.496094 -78.957031 36.898438 -79.351562 36.007812 -79.351562 L 22.21875 -79.351562 C 21.324219 -79.351562 20.730469 -78.957031 20.53125 -77.964844 L 4.066406 -1.6875 C 3.769531 -0.59375 4.265625 0 5.355469 0 L 15.96875 0 C 16.863281 0 17.359375 -0.496094 17.558594 -1.390625 L 20.234375 -15.871094 L 37.890625 -15.871094 L 40.667969 -1.390625 C 40.867188 -0.496094 41.363281 0 42.253906 0 Z M 35.410156 -27.375 L 22.714844 -27.375 L 29.0625 -61.996094 Z M 35.410156 -27.375 "/></g></g></g><g fill="rgb(100%, 100%, 100%)" fill-opacity="1"><g transform="translate(187.150487, 84.81629)"><g><path d="M 59.21875 -79.351562 C 58.027344 -79.351562 57.234375 -78.660156 57.132812 -77.46875 L 53.066406 -31.046875 L 52.570312 -31.046875 L 42.851562 -77.566406 C 42.554688 -78.757812 41.859375 -79.351562 40.667969 -79.351562 L 34.71875 -79.351562 C 33.527344 -79.351562 32.832031 -78.757812 32.535156 -77.566406 L 22.714844 -31.046875 L 22.21875 -31.046875 L 18.351562 -77.46875 C 18.25 -78.660156 17.457031 -79.351562 16.265625 -79.351562 L 6.84375 -79.351562 C 5.554688 -79.351562 4.859375 -78.558594 4.960938 -77.269531 L 13.09375 -1.882812 C 13.191406 -0.59375 13.886719 0 15.175781 0 L 25.09375 0 C 26.285156 0 26.980469 -0.59375 27.277344 -1.6875 L 37.691406 -46.621094 L 48.007812 -1.785156 C 48.304688 -0.59375 49 0 50.191406 0 L 59.910156 0 C 61.199219 0 61.894531 -0.59375 61.996094 -1.882812 L 70.523438 -77.269531 C 70.625 -78.558594 69.929688 -79.351562 68.640625 -79.351562 Z M 59.21875 -79.351562 "/></g></g></g><g fill="rgb(100%, 100%, 100%)" fill-opacity="1"><g transform="translate(264.617724, 84.81629)"><g><path d="M 6.546875 -79.351562 C 5.457031 -79.351562 4.960938 -78.757812 4.960938 -77.765625 L 4.960938 -1.585938 C 4.960938 -0.59375 5.457031 0 6.546875 0 L 16.863281 0 C 17.855469 0 18.449219 -0.59375 18.449219 -1.585938 L 18.449219 -77.765625 C 18.449219 -78.757812 17.855469 -79.351562 16.863281 -79.351562 Z M 6.546875 -79.351562 "/></g></g></g></svg>